%TF.GenerationSoftware,Altium Limited,Altium Designer,23.9.2 (47)*%
G04 Layer_Color=255*
%FSLAX45Y45*%
%MOMM*%
%TF.SameCoordinates,CBF7E160-FA54-4A09-933F-9C1B5268631E*%
%TF.FilePolarity,Positive*%
%TF.FileFunction,Pads,Top*%
%TF.Part,Single*%
G01*
G75*
%TA.AperFunction,SMDPad,CuDef*%
%ADD10R,1.60000X1.40000*%
%ADD11R,0.60000X1.20000*%
%ADD12R,1.00000X0.66000*%
%ADD13R,1.60000X0.50000*%
%ADD14R,1.95000X0.60000*%
%ADD15R,1.00000X1.00000*%
%ADD16R,0.30000X0.85000*%
%ADD17R,0.85000X0.30000*%
%ADD18R,3.25000X3.25000*%
%ADD19C,1.25000*%
%TA.AperFunction,ConnectorPad*%
%ADD20R,0.80000X1.60000*%
%ADD21R,2.10000X3.00000*%
%TA.AperFunction,SMDPad,CuDef*%
%ADD22R,0.80000X1.60000*%
%ADD23R,2.10000X3.00000*%
%ADD24R,0.80000X1.60000*%
%ADD25R,2.10000X3.00000*%
%ADD26R,0.80000X0.80000*%
%ADD27R,0.92000X0.98000*%
%ADD28R,1.02000X0.98000*%
%ADD29R,0.95000X1.10000*%
%ADD30R,1.10000X0.95000*%
%ADD31R,1.00000X1.00000*%
%TA.AperFunction,ComponentPad*%
%ADD41C,1.10000*%
%ADD42C,1.20000*%
%ADD43C,3.03000*%
%ADD44C,1.52400*%
%ADD45C,1.65000*%
%ADD46R,1.65000X1.65000*%
%ADD47R,1.23800X1.23800*%
%ADD48C,1.23800*%
D10*
X6710000Y5519000D02*
D03*
Y5819000D02*
D03*
X7430000Y5519000D02*
D03*
Y5819000D02*
D03*
D11*
X6692575Y7889000D02*
D03*
X6597575D02*
D03*
X6502575D02*
D03*
Y8139000D02*
D03*
X6597575D02*
D03*
X6692575D02*
D03*
D12*
X7416000Y7522000D02*
D03*
Y7427000D02*
D03*
Y7332000D02*
D03*
X7676000Y7522000D02*
D03*
Y7332000D02*
D03*
D13*
X7487000Y6177500D02*
D03*
Y6242500D02*
D03*
Y6307500D02*
D03*
Y6372500D02*
D03*
Y6437500D02*
D03*
Y6502500D02*
D03*
Y6567500D02*
D03*
Y6632500D02*
D03*
Y6697500D02*
D03*
Y6762500D02*
D03*
Y6827500D02*
D03*
Y6892500D02*
D03*
Y6957500D02*
D03*
Y7022500D02*
D03*
X6777000Y6177500D02*
D03*
Y6242500D02*
D03*
Y6307500D02*
D03*
Y6372500D02*
D03*
Y6437500D02*
D03*
Y6502500D02*
D03*
Y6567500D02*
D03*
Y6632500D02*
D03*
Y6697500D02*
D03*
Y6762500D02*
D03*
Y6827500D02*
D03*
Y6892500D02*
D03*
Y6957500D02*
D03*
Y7022500D02*
D03*
D14*
X8671000Y7691500D02*
D03*
Y7564500D02*
D03*
Y7437500D02*
D03*
Y7310500D02*
D03*
Y7183500D02*
D03*
Y7056500D02*
D03*
Y6929500D02*
D03*
Y6802500D02*
D03*
Y6675500D02*
D03*
Y6548500D02*
D03*
X9611000Y7691500D02*
D03*
Y7564500D02*
D03*
Y7437500D02*
D03*
Y7310500D02*
D03*
Y7183500D02*
D03*
Y7056500D02*
D03*
Y6929500D02*
D03*
Y6802500D02*
D03*
Y6675500D02*
D03*
Y6548500D02*
D03*
D15*
X7333500Y7889000D02*
D03*
X7488500D02*
D03*
X8825500Y6280000D02*
D03*
X8670500D02*
D03*
X10637500Y7597000D02*
D03*
X10792500D02*
D03*
X11459500Y6320000D02*
D03*
X11304500D02*
D03*
X13218500Y6843000D02*
D03*
X13373500D02*
D03*
X13372501Y7314000D02*
D03*
X13217500D02*
D03*
X7779500Y5913425D02*
D03*
X7934500D02*
D03*
X10232500Y7596000D02*
D03*
X10387500D02*
D03*
X10232500Y7229000D02*
D03*
X10387500D02*
D03*
X10232500Y7046000D02*
D03*
X10387500D02*
D03*
X10233500Y6863000D02*
D03*
X10388500D02*
D03*
X10233500Y7414000D02*
D03*
X10388500D02*
D03*
X10388500Y6680000D02*
D03*
X10233500D02*
D03*
D16*
X10800000Y6860000D02*
D03*
X10850000D02*
D03*
X10900000D02*
D03*
X10950000D02*
D03*
X11000000D02*
D03*
X11050000D02*
D03*
X11100000D02*
D03*
X11150000D02*
D03*
Y7350000D02*
D03*
X11100000D02*
D03*
X11050000D02*
D03*
X11000000D02*
D03*
X10950000D02*
D03*
X10900000D02*
D03*
X10850000D02*
D03*
X10800000D02*
D03*
D17*
X11220000Y6930000D02*
D03*
Y6980000D02*
D03*
Y7030000D02*
D03*
Y7080000D02*
D03*
Y7130000D02*
D03*
Y7180000D02*
D03*
Y7230000D02*
D03*
Y7280000D02*
D03*
X10730000D02*
D03*
Y7230000D02*
D03*
Y7180000D02*
D03*
Y7130000D02*
D03*
Y7080000D02*
D03*
Y7030000D02*
D03*
Y6980000D02*
D03*
Y6930000D02*
D03*
D18*
X10975000Y7105000D02*
D03*
D19*
X7589000Y8474000D02*
D03*
X11532000Y7543000D02*
D03*
X9530000Y5577000D02*
D03*
X9276000Y5580000D02*
D03*
X8513000D02*
D03*
X11650000Y8025000D02*
D03*
Y8246000D02*
D03*
X11646000Y6109000D02*
D03*
X11533000Y6649000D02*
D03*
D20*
X8990000Y8719000D02*
D03*
X8865000D02*
D03*
X8740000D02*
D03*
X8615000D02*
D03*
X8490000D02*
D03*
X8365000D02*
D03*
D21*
X8110000Y9009000D02*
D03*
X9245000D02*
D03*
D22*
X10549500Y5958000D02*
D03*
X10424500D02*
D03*
X10674500D02*
D03*
X10799500D02*
D03*
D23*
X10169500Y5668000D02*
D03*
X11054500D02*
D03*
D24*
X10878500Y8714000D02*
D03*
X11003500D02*
D03*
X9915500Y8712000D02*
D03*
X10040500D02*
D03*
D25*
X10623500Y9004000D02*
D03*
X11258500D02*
D03*
X9660500Y9002000D02*
D03*
X10295500D02*
D03*
D26*
X7600000Y8793000D02*
D03*
Y8643000D02*
D03*
X7977826Y6281000D02*
D03*
Y6131000D02*
D03*
X7767000Y6280000D02*
D03*
Y6130000D02*
D03*
D27*
X11445000Y7312000D02*
D03*
X11603000D02*
D03*
X11445000Y6840000D02*
D03*
X11603000D02*
D03*
D28*
X7108575Y7890000D02*
D03*
X6960575D02*
D03*
D29*
X13036000Y7314000D02*
D03*
Y7174000D02*
D03*
X6950575Y7558000D02*
D03*
Y7698000D02*
D03*
X7131575Y7558000D02*
D03*
Y7698000D02*
D03*
X7835000Y7500000D02*
D03*
Y7360000D02*
D03*
X8248000Y7834000D02*
D03*
Y7694000D02*
D03*
X8448000Y7834000D02*
D03*
Y7694000D02*
D03*
X11784000Y6980575D02*
D03*
Y6840575D02*
D03*
X11783000Y7311000D02*
D03*
Y7171000D02*
D03*
X12668000Y6985000D02*
D03*
Y6845000D02*
D03*
X12667000Y7315426D02*
D03*
Y7175426D02*
D03*
X7779000Y5722000D02*
D03*
Y5582000D02*
D03*
X8248000Y7503574D02*
D03*
Y7363574D02*
D03*
X8245000Y7150000D02*
D03*
Y7010000D02*
D03*
X8615000Y8355000D02*
D03*
Y8215000D02*
D03*
X8991000Y8359224D02*
D03*
Y8219224D02*
D03*
X6598000Y7551000D02*
D03*
Y7691000D02*
D03*
X6491000Y6587000D02*
D03*
Y6727000D02*
D03*
X11967000Y6980575D02*
D03*
Y6840575D02*
D03*
X12151000Y6981575D02*
D03*
Y6841575D02*
D03*
X12852000Y6984000D02*
D03*
Y6844000D02*
D03*
X13036000Y6983000D02*
D03*
Y6843000D02*
D03*
X11967000Y7311000D02*
D03*
Y7171000D02*
D03*
X12151000Y7312000D02*
D03*
Y7172000D02*
D03*
X12852000Y7314426D02*
D03*
Y7174426D02*
D03*
D30*
X7343000Y7706000D02*
D03*
X7483000D02*
D03*
X6533000Y6912425D02*
D03*
X6393000D02*
D03*
X11265000Y8307000D02*
D03*
X11125000D02*
D03*
X10498000Y8310000D02*
D03*
X10638000D02*
D03*
X11786000Y6320075D02*
D03*
X11646000D02*
D03*
X11296000Y7602000D02*
D03*
X11156000D02*
D03*
X12340000Y6843000D02*
D03*
X12480000D02*
D03*
X12339000Y7313000D02*
D03*
X12479000D02*
D03*
X12340000Y6660000D02*
D03*
X12480000D02*
D03*
X12341000Y6477000D02*
D03*
X12481000D02*
D03*
X12339000Y7496000D02*
D03*
X12479000D02*
D03*
X12340000Y7679000D02*
D03*
X12480000D02*
D03*
D31*
X7978000Y6643500D02*
D03*
Y6488500D02*
D03*
X7765000Y6642500D02*
D03*
Y6487500D02*
D03*
X10639000Y6347500D02*
D03*
Y6192500D02*
D03*
X10844000Y6346500D02*
D03*
Y6191500D02*
D03*
X9741000Y8206500D02*
D03*
Y8361500D02*
D03*
X10041000Y8207500D02*
D03*
Y8362500D02*
D03*
X11784000Y6501000D02*
D03*
Y6656000D02*
D03*
X7959425Y5574500D02*
D03*
Y5729500D02*
D03*
X8430149Y8366500D02*
D03*
Y8211500D02*
D03*
X8807000Y8363500D02*
D03*
Y8208500D02*
D03*
X7804000Y8660500D02*
D03*
Y8815500D02*
D03*
D41*
X7070000Y8460500D02*
D03*
D42*
X6989999Y8580500D02*
D03*
X6910000Y8460500D02*
D03*
X6830000Y8580500D02*
D03*
X6749999Y8460500D02*
D03*
D43*
X7275000Y8965500D02*
D03*
X6545000D02*
D03*
D44*
X10637000Y7954000D02*
D03*
X11125000D02*
D03*
D45*
X9786000Y5906000D02*
D03*
X9532000D02*
D03*
X9278000D02*
D03*
X9024000D02*
D03*
X8770000D02*
D03*
D46*
X8516000D02*
D03*
D47*
X6442000Y6334600D02*
D03*
D48*
Y5505400D02*
D03*
%TF.MD5,c500b7f96dcf6f9980c737cb86f6d54c*%
M02*
