%TF.GenerationSoftware,Altium Limited,Altium Designer,23.9.2 (47)*%
G04 Layer_Color=255*
%FSLAX45Y45*%
%MOMM*%
%TF.SameCoordinates,CBF7E160-FA54-4A09-933F-9C1B5268631E*%
%TF.FilePolarity,Positive*%
%TF.FileFunction,Pads,Bot*%
%TF.Part,Single*%
G01*
G75*
%TA.AperFunction,SMDPad,CuDef*%
%ADD19C,1.25000*%
%TA.AperFunction,ComponentPad*%
%ADD41C,1.10000*%
%ADD42C,1.20000*%
%ADD43C,3.03000*%
%ADD44C,1.52400*%
%ADD45C,1.65000*%
%ADD46R,1.65000X1.65000*%
%ADD47R,1.23800X1.23800*%
%ADD48C,1.23800*%
D19*
X7836524Y7164523D02*
D03*
X8259000Y6508000D02*
D03*
X8245000Y7010000D02*
D03*
X9517000Y7915000D02*
D03*
X9089000Y7522000D02*
D03*
X9819000Y6278000D02*
D03*
X8831000Y7524000D02*
D03*
X9338000Y7531000D02*
D03*
X10031000Y6343000D02*
D03*
D41*
X7070000Y8460500D02*
D03*
D42*
X6989999Y8580500D02*
D03*
X6910000Y8460500D02*
D03*
X6830000Y8580500D02*
D03*
X6749999Y8460500D02*
D03*
D43*
X7275000Y8965500D02*
D03*
X6545000D02*
D03*
D44*
X10637000Y7954000D02*
D03*
X11125000D02*
D03*
D45*
X9786000Y5906000D02*
D03*
X9532000D02*
D03*
X9278000D02*
D03*
X9024000D02*
D03*
X8770000D02*
D03*
D46*
X8516000D02*
D03*
D47*
X6442000Y6334600D02*
D03*
D48*
Y5505400D02*
D03*
%TF.MD5,816377b6d54866aab55ee3dd40867aa3*%
M02*
