%TF.GenerationSoftware,Altium Limited,Altium Designer,23.9.2 (47)*%
G04 Layer_Color=16711935*
%FSLAX45Y45*%
%MOMM*%
%TF.SameCoordinates,CBF7E160-FA54-4A09-933F-9C1B5268631E*%
%TF.FilePolarity,Negative*%
%TF.FileFunction,Soldermask,Bot*%
%TF.Part,Single*%
G01*
G75*
%TA.AperFunction,SMDPad,CuDef*%
%ADD65C,1.35000*%
%TA.AperFunction,ComponentPad*%
%ADD78C,1.30320*%
%ADD79C,1.40320*%
%ADD80C,3.23320*%
%ADD81C,1.72720*%
%ADD82C,1.85320*%
%ADD83R,1.85320X1.85320*%
%ADD84R,1.44120X1.44120*%
%ADD85C,1.44120*%
%TA.AperFunction,ViaPad*%
%ADD86C,0.90320*%
D65*
X7836524Y7164523D02*
D03*
X8259000Y6508000D02*
D03*
X8245000Y7010000D02*
D03*
X9517000Y7915000D02*
D03*
X9089000Y7522000D02*
D03*
X9819000Y6278000D02*
D03*
X8831000Y7524000D02*
D03*
X9338000Y7531000D02*
D03*
X10031000Y6343000D02*
D03*
D78*
X7070000Y8460500D02*
D03*
D79*
X6989999Y8580500D02*
D03*
X6910000Y8460500D02*
D03*
X6830000Y8580500D02*
D03*
X6749999Y8460500D02*
D03*
D80*
X7275000Y8965500D02*
D03*
X6545000D02*
D03*
D81*
X10637000Y7954000D02*
D03*
X11125000D02*
D03*
D82*
X9786000Y5906000D02*
D03*
X9532000D02*
D03*
X9278000D02*
D03*
X9024000D02*
D03*
X8770000D02*
D03*
D83*
X8516000D02*
D03*
D84*
X6442000Y6334600D02*
D03*
D85*
Y5505400D02*
D03*
D86*
X11664000Y7078000D02*
D03*
X6596000Y7431000D02*
D03*
X7708000Y8039000D02*
D03*
X7270000Y7302000D02*
D03*
X7837000Y7669000D02*
D03*
X7248000Y6515000D02*
D03*
X6871000Y7301000D02*
D03*
X7263000Y8264000D02*
D03*
X7644000Y6011000D02*
D03*
X6916000Y8928000D02*
D03*
X7033000Y9177000D02*
D03*
X6808000Y9180000D02*
D03*
X12509500Y7078500D02*
D03*
X12329500Y7077000D02*
D03*
X6597575Y8265426D02*
D03*
X8353000Y7587000D02*
D03*
X8399000Y8940000D02*
D03*
X8860000Y8890000D02*
D03*
X8747000D02*
D03*
X10870000Y7214000D02*
D03*
X11085000D02*
D03*
X11032000Y7103000D02*
D03*
X10913000D02*
D03*
X11088000Y7003000D02*
D03*
X10974000Y7000000D02*
D03*
X10861000Y7001000D02*
D03*
X7982000Y7063000D02*
D03*
X10475000Y8705000D02*
D03*
X9626000Y8669000D02*
D03*
X8400000Y9083000D02*
D03*
X8286000Y8509000D02*
D03*
X8085000Y8506000D02*
D03*
X11323000Y6022000D02*
D03*
X11616000Y5751000D02*
D03*
X11912000Y6689000D02*
D03*
X12057000Y6692000D02*
D03*
X12196000Y6695000D02*
D03*
X12186000Y6527000D02*
D03*
X12419000Y6320000D02*
D03*
X12669000Y6334000D02*
D03*
Y6509000D02*
D03*
X12667000Y6690000D02*
D03*
X12853999Y6689000D02*
D03*
X13020000Y6690000D02*
D03*
X13027000Y7484000D02*
D03*
X12853999Y7485000D02*
D03*
X12677000Y7482000D02*
D03*
Y7652000D02*
D03*
X12680000Y7844000D02*
D03*
X12410000Y7845000D02*
D03*
X12156000Y7844000D02*
D03*
Y7669000D02*
D03*
X12148000Y7480000D02*
D03*
X11928000D02*
D03*
X11731000Y7485000D02*
D03*
X11198000Y7459000D02*
D03*
X16695000Y7016000D02*
D03*
X16875000Y7196000D02*
D03*
X10253000Y6511000D02*
D03*
X12917000Y5468000D02*
D03*
X12248000Y5460000D02*
D03*
X11940000Y5457000D02*
D03*
X12917000Y5745000D02*
D03*
X12921001Y6019000D02*
D03*
X12925000Y6334000D02*
D03*
X12975000Y9054000D02*
D03*
X12967000Y8647000D02*
D03*
X12978999Y8179000D02*
D03*
Y7805000D02*
D03*
X12584000Y5468000D02*
D03*
X12590000Y5745000D02*
D03*
X12594000Y6030000D02*
D03*
X12609000Y9047000D02*
D03*
X12605000Y8651000D02*
D03*
X12613000Y8176000D02*
D03*
X12190000Y6324000D02*
D03*
X12255000Y6034000D02*
D03*
X11932000Y6030000D02*
D03*
X12252000Y5749000D02*
D03*
X11940000D02*
D03*
X12256000Y8184000D02*
D03*
X12260000Y8655000D02*
D03*
X12256000Y9052000D02*
D03*
X11890000Y8672000D02*
D03*
X11883000Y9016000D02*
D03*
X11284000Y6740000D02*
D03*
X11113000Y6649000D02*
D03*
X10978000Y7212000D02*
D03*
X8862000Y7851000D02*
D03*
X9074000Y7850000D02*
D03*
X9289000Y7857000D02*
D03*
X9484000Y8108000D02*
D03*
Y8297000D02*
D03*
X11594000Y8851000D02*
D03*
X11812000Y7853000D02*
D03*
X11350000Y5746000D02*
D03*
X11058000Y6121000D02*
D03*
X11055000Y6292000D02*
D03*
X10527000Y6525000D02*
D03*
X10430000Y6388000D02*
D03*
X9919000Y5639000D02*
D03*
X9738000D02*
D03*
X9123000Y5649000D02*
D03*
X9300000Y6154000D02*
D03*
X8459000Y6404000D02*
D03*
X8438000Y6137000D02*
D03*
X8315000Y6277000D02*
D03*
X8211000Y6117000D02*
D03*
X7616000Y5620000D02*
D03*
X7034000Y5563000D02*
D03*
X6713000Y5978000D02*
D03*
X6445000Y5980000D02*
D03*
X6380000Y7236000D02*
D03*
X7897000Y8503000D02*
D03*
X9280000Y8353000D02*
D03*
X9132000Y8218000D02*
D03*
X9710000Y7926000D02*
D03*
X11472600Y7082000D02*
D03*
X11450000Y6479000D02*
D03*
X11343000Y7205400D02*
D03*
X10878000Y6684000D02*
D03*
X6348000Y6723000D02*
D03*
X8182000Y5914000D02*
D03*
X8365000Y6847000D02*
D03*
X9978000Y8494000D02*
D03*
X11433000Y8653000D02*
D03*
X7903000Y8329000D02*
D03*
X9333000Y7060000D02*
D03*
X10014000Y6507000D02*
D03*
X9594000Y6283000D02*
D03*
X11300000Y7364000D02*
D03*
X8973000Y6670000D02*
D03*
X8975000Y6804000D02*
D03*
Y6941000D02*
D03*
X9665000Y6181000D02*
D03*
X9706000Y6377000D02*
D03*
X10229000Y7988000D02*
D03*
X9948000Y7933000D02*
D03*
X10040000Y6866000D02*
D03*
X9876000Y6675000D02*
D03*
X9909000Y6803000D02*
D03*
X9952000Y7357000D02*
D03*
X9847000Y7053000D02*
D03*
X8054000Y6857000D02*
D03*
%TF.MD5,cee393ec7ca00f3b9b0041411a5ca57b*%
M02*
