%TF.GenerationSoftware,Altium Limited,Altium Designer,23.9.2 (47)*%
G04 Layer_Color=32896*
%FSLAX45Y45*%
%MOMM*%
%TF.SameCoordinates,CBF7E160-FA54-4A09-933F-9C1B5268631E*%
%TF.FilePolarity,Positive*%
%TF.FileFunction,Legend,Bot*%
%TF.Part,Single*%
G01*
G75*
G36*
X16556931Y8831590D02*
Y8828881D01*
Y8211144D01*
X15589684D01*
Y9178391D01*
X16556931D01*
Y8831590D01*
D02*
G37*
G36*
X15551752Y8211144D02*
X14573666D01*
Y8533559D01*
X14102235D01*
Y8855975D01*
X13741888D01*
Y9178391D01*
X15551752D01*
Y8211144D01*
D02*
G37*
G36*
X16964000Y5504168D02*
X15050000D01*
Y5739832D01*
X16964000D01*
Y5504168D01*
D02*
G37*
G36*
X10151624Y6400740D02*
X10233032D01*
Y6391725D01*
X10151624D01*
Y6371616D01*
X10142749D01*
Y6420849D01*
X10151624D01*
Y6400740D01*
D02*
G37*
G36*
X10233032Y6349426D02*
X10191149D01*
Y6337222D01*
X10191011Y6334726D01*
X10190872Y6332368D01*
Y6330288D01*
X10190733Y6328485D01*
X10190595Y6326821D01*
X10190456Y6325295D01*
X10190317Y6324047D01*
X10190179Y6322938D01*
X10190040Y6322106D01*
Y6321412D01*
X10189901Y6320858D01*
X10189762Y6320442D01*
Y6320164D01*
X10188792Y6317113D01*
X10187682Y6314478D01*
X10186295Y6312259D01*
X10185047Y6310456D01*
X10183799Y6308931D01*
X10182828Y6307821D01*
X10182135Y6307267D01*
X10181857Y6306989D01*
X10179500Y6305325D01*
X10177004Y6304215D01*
X10174507Y6303383D01*
X10172150Y6302690D01*
X10170069Y6302413D01*
X10169237Y6302274D01*
X10168405D01*
X10167712Y6302135D01*
X10167296D01*
X10167018D01*
X10166880D01*
X10163690Y6302413D01*
X10160777Y6302967D01*
X10158281Y6303661D01*
X10156062Y6304632D01*
X10154398Y6305602D01*
X10153150Y6306296D01*
X10152318Y6306850D01*
X10152040Y6307128D01*
X10149960Y6309069D01*
X10148296Y6311150D01*
X10146909Y6313230D01*
X10145800Y6315310D01*
X10145106Y6316974D01*
X10144551Y6318500D01*
X10144413Y6319055D01*
X10144274Y6319332D01*
X10144135Y6319609D01*
Y6319748D01*
X10143858Y6320858D01*
X10143719Y6322244D01*
X10143442Y6323631D01*
X10143303Y6325295D01*
X10143026Y6328763D01*
X10142887Y6332230D01*
X10142749Y6335419D01*
Y6358441D01*
X10233032D01*
Y6349426D01*
D02*
G37*
G36*
X10151624Y6263165D02*
X10233032D01*
Y6254151D01*
X10142749D01*
Y6272041D01*
X10151624Y6277311D01*
Y6263165D01*
D02*
G37*
G36*
X10151347Y6173298D02*
X10231506Y6215042D01*
X10235251Y6207414D01*
X10142749Y6159152D01*
Y6216429D01*
X10151347D01*
Y6173298D01*
D02*
G37*
G36*
X9261750Y7386449D02*
X9263691Y7383398D01*
X9265355Y7380485D01*
X9266742Y7377989D01*
X9267852Y7375909D01*
X9268684Y7374106D01*
X9269239Y7372858D01*
X9269516Y7372026D01*
X9269655Y7371887D01*
Y7371748D01*
X9270348Y7369529D01*
X9270903Y7367310D01*
X9271319Y7365369D01*
X9271596Y7363705D01*
X9271735Y7362179D01*
X9271874Y7361070D01*
Y7360376D01*
Y7360099D01*
X9271735Y7357464D01*
X9271319Y7354829D01*
X9270764Y7352471D01*
X9270071Y7350391D01*
X9269377Y7348727D01*
X9268822Y7347340D01*
X9268406Y7346508D01*
X9268268Y7346369D01*
Y7346230D01*
X9266742Y7343873D01*
X9265217Y7341931D01*
X9263552Y7340128D01*
X9262027Y7338741D01*
X9260640Y7337632D01*
X9259392Y7336800D01*
X9258699Y7336245D01*
X9258421Y7336106D01*
X9255925Y7334997D01*
X9253567Y7334165D01*
X9251210Y7333471D01*
X9249129Y7333055D01*
X9247188Y7332778D01*
X9245801Y7332639D01*
X9244553D01*
X9241779Y7332778D01*
X9239144Y7333194D01*
X9236648Y7333749D01*
X9234568Y7334442D01*
X9232765Y7335136D01*
X9231378Y7335690D01*
X9230962Y7335968D01*
X9230546Y7336106D01*
X9230407Y7336245D01*
X9230268D01*
X9227911Y7337771D01*
X9225830Y7339435D01*
X9224028Y7341099D01*
X9222641Y7342625D01*
X9221531Y7344011D01*
X9220699Y7345260D01*
X9220144Y7345953D01*
X9220006Y7346230D01*
X9218758Y7348727D01*
X9217787Y7351084D01*
X9217232Y7353581D01*
X9216677Y7355661D01*
X9216400Y7357603D01*
X9216261Y7359128D01*
Y7359683D01*
Y7360099D01*
Y7360238D01*
Y7360376D01*
X9216400Y7362456D01*
X9216539Y7364537D01*
X9217509Y7368142D01*
X9218619Y7371471D01*
X9220006Y7374245D01*
X9220838Y7375354D01*
X9221531Y7376464D01*
X9222086Y7377434D01*
X9222641Y7378128D01*
X9223195Y7378682D01*
X9223611Y7379099D01*
X9223750Y7379376D01*
X9223889Y7379515D01*
X9225276Y7380901D01*
X9226801Y7382150D01*
X9228327Y7383120D01*
X9229852Y7383952D01*
X9232903Y7385339D01*
X9235816Y7386310D01*
X9238312Y7386865D01*
X9239283Y7387004D01*
X9240254Y7387142D01*
X9241086Y7387281D01*
X9243721D01*
X9245385Y7387004D01*
X9246910Y7386726D01*
X9248297Y7386449D01*
X9249545Y7386171D01*
X9250516Y7385894D01*
X9251071Y7385755D01*
X9251348Y7385617D01*
X9226940Y7422507D01*
X9234290Y7427361D01*
X9261750Y7386449D01*
D02*
G37*
G36*
X9475739Y7416266D02*
X9455630D01*
Y7334858D01*
X9446615D01*
Y7416266D01*
X9426506D01*
Y7425142D01*
X9475739D01*
Y7416266D01*
D02*
G37*
G36*
X9413331Y7334858D02*
X9404317D01*
Y7376741D01*
X9392113D01*
X9389616Y7376880D01*
X9387259Y7377018D01*
X9385178D01*
X9383375Y7377157D01*
X9381711Y7377296D01*
X9380186Y7377434D01*
X9378938Y7377573D01*
X9377828Y7377712D01*
X9376996Y7377850D01*
X9376303D01*
X9375748Y7377989D01*
X9375332Y7378128D01*
X9375054D01*
X9372003Y7379099D01*
X9369368Y7380208D01*
X9367149Y7381595D01*
X9365347Y7382843D01*
X9363821Y7384091D01*
X9362712Y7385062D01*
X9362157Y7385755D01*
X9361879Y7386033D01*
X9360215Y7388390D01*
X9359106Y7390887D01*
X9358274Y7393383D01*
X9357580Y7395741D01*
X9357303Y7397821D01*
X9357164Y7398653D01*
Y7399485D01*
X9357025Y7400178D01*
Y7400595D01*
Y7400872D01*
Y7401011D01*
X9357303Y7404200D01*
X9357858Y7407113D01*
X9358551Y7409609D01*
X9359522Y7411828D01*
X9360493Y7413492D01*
X9361186Y7414740D01*
X9361741Y7415572D01*
X9362018Y7415850D01*
X9363960Y7417930D01*
X9366040Y7419594D01*
X9368120Y7420981D01*
X9370200Y7422091D01*
X9371865Y7422784D01*
X9373390Y7423339D01*
X9373945Y7423477D01*
X9374222Y7423616D01*
X9374500Y7423755D01*
X9374638D01*
X9375748Y7424032D01*
X9377135Y7424171D01*
X9378522Y7424448D01*
X9380186Y7424587D01*
X9383653Y7424864D01*
X9387120Y7425003D01*
X9390310Y7425142D01*
X9413331D01*
Y7334858D01*
D02*
G37*
G36*
X9332201Y7416266D02*
X9318055D01*
Y7334858D01*
X9309041D01*
Y7425142D01*
X9326931D01*
X9332201Y7416266D01*
D02*
G37*
G36*
X8747910Y7372456D02*
X8743888Y7374120D01*
X8740144Y7375230D01*
X8736815Y7376062D01*
X8734042Y7376755D01*
X8732794Y7376894D01*
X8731823Y7377033D01*
X8730852Y7377171D01*
X8730020D01*
X8729465Y7377310D01*
X8728633D01*
X8725166Y7377033D01*
X8722254Y7376339D01*
X8719619Y7375507D01*
X8717400Y7374398D01*
X8715597Y7373288D01*
X8714349Y7372456D01*
X8713516Y7371763D01*
X8713239Y7371485D01*
X8711298Y7369266D01*
X8709911Y7366770D01*
X8708801Y7364274D01*
X8708108Y7362055D01*
X8707692Y7359975D01*
X8707553Y7359004D01*
Y7358310D01*
X8707414Y7357617D01*
Y7357201D01*
Y7356924D01*
Y7356785D01*
Y7354982D01*
X8707692Y7353179D01*
X8708385Y7349851D01*
X8709495Y7346938D01*
X8710604Y7344581D01*
X8711852Y7342500D01*
X8712407Y7341807D01*
X8712962Y7341114D01*
X8713378Y7340559D01*
X8713655Y7340143D01*
X8713794Y7340004D01*
X8713933Y7339865D01*
X8715181Y7338756D01*
X8716429Y7337646D01*
X8719064Y7335982D01*
X8721560Y7334873D01*
X8723918Y7334041D01*
X8725998Y7333625D01*
X8726969Y7333347D01*
X8727662D01*
X8728356Y7333209D01*
X8729188D01*
X8730852Y7333347D01*
X8732516Y7333486D01*
X8733903Y7333763D01*
X8735290Y7334179D01*
X8736399Y7334595D01*
X8737231Y7334873D01*
X8737786Y7335011D01*
X8737925Y7335150D01*
X8739450Y7335982D01*
X8740699Y7336814D01*
X8741808Y7337646D01*
X8742779Y7338479D01*
X8743611Y7339172D01*
X8744166Y7339727D01*
X8744443Y7340143D01*
X8744582Y7340281D01*
X8745414Y7341668D01*
X8746107Y7343055D01*
X8746801Y7344442D01*
X8747217Y7345829D01*
X8747633Y7347077D01*
X8747910Y7348048D01*
X8748049Y7348603D01*
Y7348880D01*
X8757202D01*
X8756925Y7346938D01*
X8756370Y7344997D01*
X8755260Y7341530D01*
X8753735Y7338617D01*
X8752209Y7336121D01*
X8750822Y7334041D01*
X8750129Y7333347D01*
X8749574Y7332654D01*
X8749020Y7332099D01*
X8748604Y7331683D01*
X8748465Y7331544D01*
X8748326Y7331406D01*
X8746801Y7330296D01*
X8745275Y7329187D01*
X8742224Y7327523D01*
X8739034Y7326413D01*
X8736122Y7325581D01*
X8733626Y7325165D01*
X8732516Y7324888D01*
X8731545D01*
X8730852Y7324749D01*
X8729743D01*
X8726414Y7324888D01*
X8723363Y7325304D01*
X8720589Y7325997D01*
X8718232Y7326690D01*
X8716290Y7327384D01*
X8714903Y7328077D01*
X8714349Y7328216D01*
X8713933Y7328493D01*
X8713794Y7328632D01*
X8713655D01*
X8711159Y7330296D01*
X8708940Y7332099D01*
X8706998Y7334041D01*
X8705334Y7335844D01*
X8704086Y7337508D01*
X8703115Y7338756D01*
X8702838Y7339311D01*
X8702560Y7339727D01*
X8702422Y7339865D01*
Y7340004D01*
X8701035Y7342916D01*
X8700064Y7345690D01*
X8699232Y7348464D01*
X8698816Y7350960D01*
X8698539Y7353179D01*
X8698400Y7354150D01*
X8698261Y7354843D01*
Y7355537D01*
Y7355953D01*
Y7356230D01*
Y7356369D01*
X8698400Y7358726D01*
X8698539Y7360945D01*
X8698955Y7363164D01*
X8699509Y7365106D01*
X8700064Y7366909D01*
X8700758Y7368712D01*
X8701590Y7370237D01*
X8702283Y7371763D01*
X8702976Y7373011D01*
X8703809Y7374120D01*
X8704502Y7375230D01*
X8705057Y7375923D01*
X8705611Y7376617D01*
X8705889Y7377033D01*
X8706166Y7377310D01*
X8706305Y7377449D01*
X8707830Y7378974D01*
X8709495Y7380222D01*
X8711159Y7381332D01*
X8712823Y7382303D01*
X8714626Y7383135D01*
X8716290Y7383690D01*
X8719480Y7384799D01*
X8720867Y7385076D01*
X8722254Y7385354D01*
X8723502Y7385492D01*
X8724473Y7385631D01*
X8725305Y7385770D01*
X8726553D01*
X8728356Y7385631D01*
X8730159Y7385492D01*
X8731961Y7385215D01*
X8733626Y7384938D01*
X8735151Y7384522D01*
X8736261Y7384244D01*
X8736954Y7384106D01*
X8737093Y7383967D01*
X8737231D01*
X8732655Y7408653D01*
X8700619D01*
Y7417251D01*
X8739589D01*
X8747910Y7372456D01*
D02*
G37*
G36*
X8957739Y7408375D02*
X8937630D01*
Y7326968D01*
X8928615D01*
Y7408375D01*
X8908506D01*
Y7417251D01*
X8957739D01*
Y7408375D01*
D02*
G37*
G36*
X8895331Y7326968D02*
X8886317D01*
Y7368850D01*
X8874113D01*
X8871616Y7368989D01*
X8869259Y7369128D01*
X8867178D01*
X8865375Y7369266D01*
X8863711Y7369405D01*
X8862186Y7369544D01*
X8860938Y7369682D01*
X8859828Y7369821D01*
X8858996Y7369960D01*
X8858303D01*
X8857748Y7370099D01*
X8857332Y7370237D01*
X8857054D01*
X8854003Y7371208D01*
X8851368Y7372317D01*
X8849149Y7373704D01*
X8847347Y7374952D01*
X8845821Y7376201D01*
X8844712Y7377171D01*
X8844157Y7377865D01*
X8843879Y7378142D01*
X8842215Y7380500D01*
X8841106Y7382996D01*
X8840274Y7385492D01*
X8839580Y7387850D01*
X8839303Y7389930D01*
X8839164Y7390762D01*
Y7391595D01*
X8839026Y7392288D01*
Y7392704D01*
Y7392981D01*
Y7393120D01*
X8839303Y7396310D01*
X8839858Y7399222D01*
X8840551Y7401718D01*
X8841522Y7403937D01*
X8842493Y7405602D01*
X8843186Y7406850D01*
X8843741Y7407682D01*
X8844018Y7407959D01*
X8845960Y7410040D01*
X8848040Y7411704D01*
X8850120Y7413091D01*
X8852200Y7414200D01*
X8853865Y7414893D01*
X8855390Y7415448D01*
X8855945Y7415587D01*
X8856222Y7415726D01*
X8856500Y7415864D01*
X8856638D01*
X8857748Y7416142D01*
X8859135Y7416280D01*
X8860522Y7416558D01*
X8862186Y7416696D01*
X8865653Y7416974D01*
X8869120Y7417112D01*
X8872310Y7417251D01*
X8895331D01*
Y7326968D01*
D02*
G37*
G36*
X8814201Y7408375D02*
X8800055D01*
Y7326968D01*
X8791041D01*
Y7417251D01*
X8808931D01*
X8814201Y7408375D01*
D02*
G37*
G36*
X10017848Y6176156D02*
X9997739D01*
Y6094749D01*
X9988725D01*
Y6176156D01*
X9968616D01*
Y6185032D01*
X10017848D01*
Y6176156D01*
D02*
G37*
G36*
X9955441Y6094749D02*
X9946426D01*
Y6136631D01*
X9934222D01*
X9931726Y6136770D01*
X9929368Y6136909D01*
X9927288D01*
X9925485Y6137047D01*
X9923821Y6137186D01*
X9922295Y6137325D01*
X9921047Y6137463D01*
X9919937Y6137602D01*
X9919105Y6137741D01*
X9918412D01*
X9917857Y6137880D01*
X9917441Y6138018D01*
X9917164D01*
X9914113Y6138989D01*
X9911478Y6140098D01*
X9909259Y6141485D01*
X9907456Y6142733D01*
X9905930Y6143982D01*
X9904821Y6144952D01*
X9904266Y6145646D01*
X9903989Y6145923D01*
X9902325Y6148281D01*
X9901215Y6150777D01*
X9900383Y6153273D01*
X9899690Y6155631D01*
X9899412Y6157711D01*
X9899274Y6158543D01*
Y6159376D01*
X9899135Y6160069D01*
Y6160485D01*
Y6160762D01*
Y6160901D01*
X9899412Y6164091D01*
X9899967Y6167003D01*
X9900660Y6169499D01*
X9901631Y6171718D01*
X9902602Y6173383D01*
X9903295Y6174631D01*
X9903850Y6175463D01*
X9904128Y6175740D01*
X9906069Y6177821D01*
X9908149Y6179485D01*
X9910230Y6180872D01*
X9912310Y6181981D01*
X9913974Y6182674D01*
X9915500Y6183229D01*
X9916054Y6183368D01*
X9916332Y6183507D01*
X9916609Y6183645D01*
X9916748D01*
X9917857Y6183923D01*
X9919244Y6184061D01*
X9920631Y6184339D01*
X9922295Y6184477D01*
X9925762Y6184755D01*
X9929229Y6184893D01*
X9932419Y6185032D01*
X9955441D01*
Y6094749D01*
D02*
G37*
G36*
X9874310Y6176156D02*
X9860165D01*
Y6094749D01*
X9851150D01*
Y6185032D01*
X9869040D01*
X9874310Y6176156D01*
D02*
G37*
G36*
X9819253Y6115690D02*
X9776122D01*
Y6094749D01*
X9767108D01*
Y6115690D01*
X9756152D01*
Y6124288D01*
X9767108D01*
Y6187251D01*
X9769049D01*
X9819253Y6115690D01*
D02*
G37*
G36*
X8998308Y7692083D02*
X9001498Y7691390D01*
X9004410Y7690419D01*
X9006907Y7689309D01*
X9008848Y7688200D01*
X9009680Y7687645D01*
X9010374Y7687229D01*
X9010928Y7686813D01*
X9011344Y7686536D01*
X9011483Y7686397D01*
X9011622Y7686258D01*
X9014118Y7683762D01*
X9016060Y7681127D01*
X9017724Y7678215D01*
X9019111Y7675441D01*
X9020082Y7673083D01*
X9020359Y7671974D01*
X9020636Y7671003D01*
X9020914Y7670310D01*
X9021052Y7669755D01*
X9021191Y7669339D01*
Y7669200D01*
X9012038D01*
X9010928Y7671974D01*
X9009680Y7674193D01*
X9008571Y7676135D01*
X9007461Y7677660D01*
X9006490Y7678770D01*
X9005658Y7679602D01*
X9005104Y7680156D01*
X9004965Y7680295D01*
X9003301Y7681404D01*
X9001637Y7682237D01*
X8999972Y7682791D01*
X8998308Y7683207D01*
X8997060Y7683485D01*
X8995951Y7683623D01*
X8994980D01*
X8992345Y7683485D01*
X8990126Y7682930D01*
X8988046Y7682237D01*
X8986243Y7681543D01*
X8984856Y7680711D01*
X8983885Y7680018D01*
X8983330Y7679463D01*
X8983053Y7679324D01*
X8981527Y7677660D01*
X8980279Y7675857D01*
X8979447Y7674193D01*
X8978892Y7672529D01*
X8978615Y7671142D01*
X8978338Y7670032D01*
Y7669339D01*
Y7669200D01*
Y7669062D01*
X8978476Y7667536D01*
X8978754Y7666288D01*
X8979031Y7665040D01*
X8979447Y7663930D01*
X8980002Y7662960D01*
X8980279Y7662266D01*
X8980557Y7661850D01*
X8980695Y7661711D01*
X8981666Y7660463D01*
X8982914Y7659492D01*
X8984162Y7658522D01*
X8985272Y7657690D01*
X8986381Y7656996D01*
X8987352Y7656580D01*
X8987907Y7656303D01*
X8988184Y7656164D01*
X8990126Y7655471D01*
X8992067Y7654916D01*
X8993870Y7654638D01*
X8995534Y7654361D01*
X8997060Y7654222D01*
X8998308Y7654084D01*
X8999279D01*
Y7645763D01*
X8995673Y7645485D01*
X8992483Y7645069D01*
X8989848Y7644653D01*
X8987629Y7644099D01*
X8985965Y7643682D01*
X8984856Y7643266D01*
X8984162Y7642989D01*
X8983885Y7642850D01*
X8982082Y7641880D01*
X8980418Y7640770D01*
X8979031Y7639661D01*
X8977922Y7638551D01*
X8977089Y7637442D01*
X8976396Y7636610D01*
X8975980Y7636055D01*
X8975841Y7635916D01*
X8974871Y7634252D01*
X8974038Y7632449D01*
X8973484Y7630785D01*
X8973206Y7629259D01*
X8972929Y7628011D01*
X8972790Y7626902D01*
Y7626347D01*
Y7626070D01*
Y7624544D01*
X8973068Y7623157D01*
X8973761Y7620522D01*
X8974732Y7618165D01*
X8975703Y7616084D01*
X8976812Y7614420D01*
X8977783Y7613311D01*
X8978476Y7612479D01*
X8978615Y7612340D01*
X8978754Y7612201D01*
X8981111Y7610260D01*
X8983746Y7608873D01*
X8986381Y7607763D01*
X8988878Y7607070D01*
X8991097Y7606654D01*
X8992067Y7606515D01*
X8992899D01*
X8993593Y7606376D01*
X8994564D01*
X8997615Y7606654D01*
X9000388Y7607209D01*
X9002746Y7607902D01*
X9004826Y7608873D01*
X9006490Y7609705D01*
X9007739Y7610537D01*
X9008432Y7611092D01*
X9008709Y7611230D01*
X9010235Y7612895D01*
X9011622Y7614836D01*
X9012731Y7616916D01*
X9013702Y7619135D01*
X9014395Y7620938D01*
X9014950Y7622602D01*
X9015089Y7623157D01*
X9015228Y7623573D01*
X9015366Y7623851D01*
Y7623989D01*
X9024242D01*
X9023687Y7621632D01*
X9023133Y7619413D01*
X9022439Y7617332D01*
X9021607Y7615391D01*
X9020914Y7613588D01*
X9019943Y7612063D01*
X9019111Y7610537D01*
X9018279Y7609289D01*
X9017447Y7608041D01*
X9016753Y7607070D01*
X9015921Y7606238D01*
X9015366Y7605544D01*
X9014812Y7604990D01*
X9014395Y7604574D01*
X9014257Y7604435D01*
X9014118Y7604296D01*
X9012593Y7603187D01*
X9011067Y7602077D01*
X9007739Y7600413D01*
X9004549Y7599304D01*
X9001498Y7598471D01*
X8998724Y7598055D01*
X8997615Y7597778D01*
X8996644D01*
X8995812Y7597639D01*
X8994702D01*
X8991513Y7597778D01*
X8988600Y7598194D01*
X8985965Y7598888D01*
X8983746Y7599581D01*
X8981805Y7600136D01*
X8980418Y7600829D01*
X8979863Y7601106D01*
X8979447Y7601245D01*
X8979308Y7601384D01*
X8979170D01*
X8976673Y7602909D01*
X8974454Y7604574D01*
X8972513Y7606376D01*
X8970987Y7608179D01*
X8969739Y7609705D01*
X8968768Y7610953D01*
X8968214Y7611785D01*
X8968075Y7611924D01*
Y7612063D01*
X8966688Y7614697D01*
X8965717Y7617332D01*
X8964885Y7619829D01*
X8964469Y7622048D01*
X8964192Y7623989D01*
X8963915Y7625515D01*
Y7626070D01*
Y7626486D01*
Y7626624D01*
Y7626763D01*
Y7628427D01*
X8964192Y7629953D01*
X8964885Y7633004D01*
X8965856Y7635777D01*
X8966827Y7638135D01*
X8967936Y7640077D01*
X8968907Y7641602D01*
X8969323Y7642157D01*
X8969601Y7642573D01*
X8969739Y7642712D01*
X8969878Y7642850D01*
X8971542Y7644653D01*
X8973345Y7646179D01*
X8975148Y7647566D01*
X8976812Y7648675D01*
X8978338Y7649507D01*
X8979447Y7650062D01*
X8980279Y7650478D01*
X8980418Y7650617D01*
X8980557D01*
X8978476Y7652003D01*
X8976673Y7653390D01*
X8975148Y7654916D01*
X8973761Y7656303D01*
X8972652Y7657967D01*
X8971681Y7659492D01*
X8970987Y7660879D01*
X8970294Y7662405D01*
X8969462Y7665040D01*
X8969323Y7666149D01*
X8969046Y7667120D01*
Y7667952D01*
X8968907Y7668507D01*
Y7668923D01*
Y7669062D01*
X8969046Y7671281D01*
X8969462Y7673222D01*
X8970017Y7675164D01*
X8970571Y7676828D01*
X8971265Y7678215D01*
X8971819Y7679324D01*
X8972236Y7680018D01*
X8972374Y7680295D01*
X8973761Y7682237D01*
X8975287Y7684039D01*
X8976812Y7685565D01*
X8978338Y7686813D01*
X8979724Y7687784D01*
X8980834Y7688477D01*
X8981527Y7688893D01*
X8981666Y7689032D01*
X8981805D01*
X8984024Y7690142D01*
X8986381Y7690974D01*
X8988600Y7691528D01*
X8990542Y7691944D01*
X8992345Y7692222D01*
X8993593Y7692361D01*
X8996644D01*
X8998308Y7692083D01*
D02*
G37*
G36*
X9224086Y7681266D02*
X9203977D01*
Y7599858D01*
X9194962D01*
Y7681266D01*
X9174853D01*
Y7690142D01*
X9224086D01*
Y7681266D01*
D02*
G37*
G36*
X9161678Y7599858D02*
X9152663D01*
Y7641741D01*
X9140459D01*
X9137963Y7641880D01*
X9135605Y7642018D01*
X9133525D01*
X9131722Y7642157D01*
X9130058Y7642296D01*
X9128532Y7642434D01*
X9127284Y7642573D01*
X9126175Y7642712D01*
X9125343Y7642850D01*
X9124649D01*
X9124095Y7642989D01*
X9123678Y7643128D01*
X9123401D01*
X9120350Y7644099D01*
X9117715Y7645208D01*
X9115496Y7646595D01*
X9113693Y7647843D01*
X9112168Y7649091D01*
X9111058Y7650062D01*
X9110503Y7650755D01*
X9110226Y7651033D01*
X9108562Y7653390D01*
X9107452Y7655887D01*
X9106620Y7658383D01*
X9105927Y7660741D01*
X9105650Y7662821D01*
X9105511Y7663653D01*
Y7664485D01*
X9105372Y7665178D01*
Y7665595D01*
Y7665872D01*
Y7666011D01*
X9105650Y7669200D01*
X9106204Y7672113D01*
X9106898Y7674609D01*
X9107868Y7676828D01*
X9108839Y7678492D01*
X9109533Y7679740D01*
X9110087Y7680572D01*
X9110365Y7680850D01*
X9112306Y7682930D01*
X9114387Y7684594D01*
X9116467Y7685981D01*
X9118547Y7687091D01*
X9120211Y7687784D01*
X9121737Y7688339D01*
X9122292Y7688477D01*
X9122569Y7688616D01*
X9122846Y7688755D01*
X9122985D01*
X9124095Y7689032D01*
X9125481Y7689171D01*
X9126868Y7689448D01*
X9128532Y7689587D01*
X9132000Y7689864D01*
X9135467Y7690003D01*
X9138656Y7690142D01*
X9161678D01*
Y7599858D01*
D02*
G37*
G36*
X9080548Y7681266D02*
X9066402D01*
Y7599858D01*
X9057388D01*
Y7690142D01*
X9075278D01*
X9080548Y7681266D01*
D02*
G37*
G36*
X9211396Y8051112D02*
X9213476Y8050835D01*
X9215556Y8050419D01*
X9217636Y8049864D01*
X9221242Y8048477D01*
X9222768Y8047784D01*
X9224293Y8046952D01*
X9225541Y8046120D01*
X9226790Y8045426D01*
X9227760Y8044594D01*
X9228592Y8044040D01*
X9229286Y8043485D01*
X9229702Y8043069D01*
X9229979Y8042791D01*
X9230118Y8042653D01*
X9231643Y8040988D01*
X9233030Y8039186D01*
X9234140Y8037521D01*
X9235111Y8035580D01*
X9235943Y8033777D01*
X9236636Y8031974D01*
X9237746Y8028507D01*
X9238162Y8026981D01*
X9238439Y8025456D01*
X9238716Y8024208D01*
X9238855Y8023098D01*
Y8022127D01*
X9238994Y8021434D01*
Y8021018D01*
Y8020879D01*
X9230395D01*
X9229979Y8024624D01*
X9229147Y8027814D01*
X9228038Y8030587D01*
X9226928Y8032806D01*
X9225819Y8034609D01*
X9224848Y8035857D01*
X9224293Y8036689D01*
X9224016Y8036967D01*
X9221658Y8038908D01*
X9219301Y8040295D01*
X9216804Y8041405D01*
X9214585Y8042098D01*
X9212505Y8042514D01*
X9210841Y8042653D01*
X9210286Y8042791D01*
X9209454D01*
X9206542Y8042514D01*
X9203768Y8041959D01*
X9201410Y8040988D01*
X9199469Y8040018D01*
X9197805Y8039047D01*
X9196556Y8038076D01*
X9195863Y8037521D01*
X9195586Y8037244D01*
X9193644Y8035025D01*
X9192257Y8032806D01*
X9191148Y8030587D01*
X9190454Y8028646D01*
X9190038Y8026843D01*
X9189900Y8025317D01*
X9189761Y8024762D01*
Y8024346D01*
Y8024208D01*
Y8024069D01*
X9189900Y8021850D01*
X9190316Y8019770D01*
X9190732Y8017828D01*
X9191286Y8016025D01*
X9191980Y8014639D01*
X9192396Y8013529D01*
X9192812Y8012836D01*
X9192951Y8012558D01*
X9193644Y8011449D01*
X9194476Y8010339D01*
X9196418Y8007704D01*
X9198637Y8004931D01*
X9200994Y8002157D01*
X9203213Y7999799D01*
X9204184Y7998690D01*
X9205016Y7997719D01*
X9205710Y7997026D01*
X9206264Y7996471D01*
X9206542Y7996055D01*
X9206680Y7995916D01*
X9241074Y7958749D01*
X9179776D01*
Y7967347D01*
X9221658D01*
X9199053Y7991617D01*
X9197111Y7993697D01*
X9195447Y7995639D01*
X9193783Y7997580D01*
X9192396Y7999383D01*
X9191009Y8000909D01*
X9189900Y8002434D01*
X9187958Y8005069D01*
X9187126Y8006179D01*
X9186571Y8007011D01*
X9186016Y8007843D01*
X9185462Y8008536D01*
X9185184Y8009091D01*
X9184907Y8009507D01*
X9184768Y8009646D01*
Y8009785D01*
X9183520Y8012420D01*
X9182549Y8014916D01*
X9181995Y8017274D01*
X9181440Y8019492D01*
X9181162Y8021434D01*
X9181024Y8022960D01*
Y8023514D01*
Y8023930D01*
Y8024069D01*
Y8024208D01*
X9181162Y8026288D01*
X9181301Y8028230D01*
X9182272Y8031835D01*
X9183520Y8035025D01*
X9184907Y8037799D01*
X9185600Y8039047D01*
X9186294Y8040156D01*
X9186987Y8040988D01*
X9187542Y8041821D01*
X9188097Y8042375D01*
X9188513Y8042791D01*
X9188651Y8043069D01*
X9188790Y8043207D01*
X9190316Y8044594D01*
X9191841Y8045842D01*
X9193505Y8046952D01*
X9195170Y8047923D01*
X9196972Y8048616D01*
X9198637Y8049310D01*
X9201826Y8050280D01*
X9203352Y8050558D01*
X9204739Y8050835D01*
X9205848Y8050974D01*
X9206958Y8051112D01*
X9207790Y8051251D01*
X9209038D01*
X9211396Y8051112D01*
D02*
G37*
G36*
X9440224Y8040156D02*
X9420115D01*
Y7958749D01*
X9411101D01*
Y8040156D01*
X9390991D01*
Y8049032D01*
X9440224D01*
Y8040156D01*
D02*
G37*
G36*
X9377816Y7958749D02*
X9368802D01*
Y8000631D01*
X9356598D01*
X9354101Y8000770D01*
X9351744Y8000909D01*
X9349664D01*
X9347861Y8001047D01*
X9346196Y8001186D01*
X9344671Y8001325D01*
X9343423Y8001464D01*
X9342313Y8001602D01*
X9341481Y8001741D01*
X9340788D01*
X9340233Y8001880D01*
X9339817Y8002018D01*
X9339540D01*
X9336489Y8002989D01*
X9333854Y8004099D01*
X9331635Y8005485D01*
X9329832Y8006734D01*
X9328306Y8007982D01*
X9327197Y8008952D01*
X9326642Y8009646D01*
X9326365Y8009923D01*
X9324700Y8012281D01*
X9323591Y8014777D01*
X9322759Y8017274D01*
X9322065Y8019631D01*
X9321788Y8021711D01*
X9321649Y8022544D01*
Y8023376D01*
X9321511Y8024069D01*
Y8024485D01*
Y8024762D01*
Y8024901D01*
X9321788Y8028091D01*
X9322343Y8031003D01*
X9323036Y8033500D01*
X9324007Y8035718D01*
X9324978Y8037383D01*
X9325671Y8038631D01*
X9326226Y8039463D01*
X9326503Y8039740D01*
X9328445Y8041821D01*
X9330525Y8043485D01*
X9332605Y8044872D01*
X9334686Y8045981D01*
X9336350Y8046675D01*
X9337875Y8047229D01*
X9338430Y8047368D01*
X9338708Y8047507D01*
X9338985Y8047645D01*
X9339124D01*
X9340233Y8047923D01*
X9341620Y8048061D01*
X9343007Y8048339D01*
X9344671Y8048477D01*
X9348138Y8048755D01*
X9351605Y8048893D01*
X9354795Y8049032D01*
X9377816D01*
Y7958749D01*
D02*
G37*
G36*
X9296686Y8040156D02*
X9282540D01*
Y7958749D01*
X9273526D01*
Y8049032D01*
X9291416D01*
X9296686Y8040156D01*
D02*
G37*
G36*
X8401559Y7022449D02*
X8403501Y7019398D01*
X8405165Y7016485D01*
X8406552Y7013989D01*
X8407661Y7011909D01*
X8408493Y7010106D01*
X8409048Y7008858D01*
X8409326Y7008026D01*
X8409464Y7007887D01*
Y7007748D01*
X8410158Y7005529D01*
X8410712Y7003310D01*
X8411128Y7001369D01*
X8411406Y6999705D01*
X8411545Y6998179D01*
X8411683Y6997070D01*
Y6996376D01*
Y6996099D01*
X8411545Y6993464D01*
X8411128Y6990829D01*
X8410574Y6988471D01*
X8409880Y6986391D01*
X8409187Y6984727D01*
X8408632Y6983340D01*
X8408216Y6982508D01*
X8408077Y6982369D01*
Y6982230D01*
X8406552Y6979873D01*
X8405026Y6977931D01*
X8403362Y6976128D01*
X8401837Y6974741D01*
X8400450Y6973632D01*
X8399202Y6972800D01*
X8398508Y6972245D01*
X8398231Y6972106D01*
X8395735Y6970997D01*
X8393377Y6970165D01*
X8391019Y6969471D01*
X8388939Y6969055D01*
X8386997Y6968778D01*
X8385611Y6968639D01*
X8384362D01*
X8381589Y6968778D01*
X8378954Y6969194D01*
X8376457Y6969749D01*
X8374377Y6970442D01*
X8372574Y6971136D01*
X8371187Y6971690D01*
X8370771Y6971968D01*
X8370355Y6972106D01*
X8370217Y6972245D01*
X8370078D01*
X8367720Y6973771D01*
X8365640Y6975435D01*
X8363837Y6977099D01*
X8362450Y6978625D01*
X8361341Y6980011D01*
X8360509Y6981260D01*
X8359954Y6981953D01*
X8359815Y6982230D01*
X8358567Y6984727D01*
X8357596Y6987084D01*
X8357042Y6989581D01*
X8356487Y6991661D01*
X8356210Y6993602D01*
X8356071Y6995128D01*
Y6995683D01*
Y6996099D01*
Y6996237D01*
Y6996376D01*
X8356210Y6998456D01*
X8356348Y7000537D01*
X8357319Y7004142D01*
X8358429Y7007471D01*
X8359815Y7010245D01*
X8360647Y7011354D01*
X8361341Y7012463D01*
X8361896Y7013434D01*
X8362450Y7014128D01*
X8363005Y7014682D01*
X8363421Y7015098D01*
X8363560Y7015376D01*
X8363699Y7015515D01*
X8365085Y7016901D01*
X8366611Y7018150D01*
X8368136Y7019120D01*
X8369662Y7019952D01*
X8372713Y7021339D01*
X8375625Y7022310D01*
X8378122Y7022865D01*
X8379092Y7023003D01*
X8380063Y7023142D01*
X8380895Y7023281D01*
X8383530D01*
X8385195Y7023003D01*
X8386720Y7022726D01*
X8388107Y7022449D01*
X8389355Y7022171D01*
X8390326Y7021894D01*
X8390881Y7021755D01*
X8391158Y7021617D01*
X8366750Y7058507D01*
X8374100Y7063361D01*
X8401559Y7022449D01*
D02*
G37*
G36*
X8545929Y7052266D02*
X8525820D01*
Y6970858D01*
X8516806D01*
Y7052266D01*
X8496696D01*
Y7061142D01*
X8545929D01*
Y7052266D01*
D02*
G37*
G36*
X8483522Y6970858D02*
X8474507D01*
Y7012741D01*
X8462303D01*
X8459807Y7012880D01*
X8457449Y7013018D01*
X8455369D01*
X8453566Y7013157D01*
X8451902Y7013296D01*
X8450376Y7013434D01*
X8449128Y7013573D01*
X8448018Y7013712D01*
X8447186Y7013850D01*
X8446493D01*
X8445938Y7013989D01*
X8445522Y7014128D01*
X8445245D01*
X8442194Y7015098D01*
X8439559Y7016208D01*
X8437340Y7017595D01*
X8435537Y7018843D01*
X8434011Y7020091D01*
X8432902Y7021062D01*
X8432347Y7021755D01*
X8432070Y7022033D01*
X8430406Y7024390D01*
X8429296Y7026887D01*
X8428464Y7029383D01*
X8427771Y7031741D01*
X8427493Y7033821D01*
X8427354Y7034653D01*
Y7035485D01*
X8427216Y7036178D01*
Y7036595D01*
Y7036872D01*
Y7037011D01*
X8427493Y7040200D01*
X8428048Y7043113D01*
X8428741Y7045609D01*
X8429712Y7047828D01*
X8430683Y7049492D01*
X8431376Y7050740D01*
X8431931Y7051572D01*
X8432208Y7051850D01*
X8434150Y7053930D01*
X8436230Y7055594D01*
X8438311Y7056981D01*
X8440391Y7058091D01*
X8442055Y7058784D01*
X8443581Y7059339D01*
X8444135Y7059477D01*
X8444413Y7059616D01*
X8444690Y7059755D01*
X8444829D01*
X8445938Y7060032D01*
X8447325Y7060171D01*
X8448712Y7060448D01*
X8450376Y7060587D01*
X8453843Y7060864D01*
X8457310Y7061003D01*
X8460500Y7061142D01*
X8483522D01*
Y6970858D01*
D02*
G37*
G36*
X8077720Y6387456D02*
X8073698Y6389120D01*
X8069953Y6390230D01*
X8066625Y6391062D01*
X8063851Y6391755D01*
X8062603Y6391894D01*
X8061632Y6392033D01*
X8060662Y6392171D01*
X8059829D01*
X8059275Y6392310D01*
X8058443D01*
X8054976Y6392033D01*
X8052063Y6391339D01*
X8049428Y6390507D01*
X8047209Y6389398D01*
X8045406Y6388288D01*
X8044158Y6387456D01*
X8043326Y6386763D01*
X8043049Y6386485D01*
X8041107Y6384266D01*
X8039720Y6381770D01*
X8038611Y6379274D01*
X8037917Y6377055D01*
X8037501Y6374975D01*
X8037363Y6374004D01*
Y6373310D01*
X8037224Y6372617D01*
Y6372201D01*
Y6371924D01*
Y6371785D01*
Y6369982D01*
X8037501Y6368179D01*
X8038195Y6364851D01*
X8039304Y6361938D01*
X8040414Y6359581D01*
X8041662Y6357500D01*
X8042217Y6356807D01*
X8042771Y6356114D01*
X8043187Y6355559D01*
X8043465Y6355143D01*
X8043603Y6355004D01*
X8043742Y6354865D01*
X8044990Y6353756D01*
X8046238Y6352646D01*
X8048873Y6350982D01*
X8051370Y6349873D01*
X8053727Y6349041D01*
X8055808Y6348625D01*
X8056778Y6348347D01*
X8057472D01*
X8058165Y6348209D01*
X8058997D01*
X8060662Y6348347D01*
X8062326Y6348486D01*
X8063713Y6348763D01*
X8065099Y6349179D01*
X8066209Y6349595D01*
X8067041Y6349873D01*
X8067596Y6350011D01*
X8067734Y6350150D01*
X8069260Y6350982D01*
X8070508Y6351814D01*
X8071618Y6352646D01*
X8072588Y6353479D01*
X8073420Y6354172D01*
X8073975Y6354727D01*
X8074253Y6355143D01*
X8074391Y6355281D01*
X8075223Y6356668D01*
X8075917Y6358055D01*
X8076610Y6359442D01*
X8077026Y6360829D01*
X8077442Y6362077D01*
X8077720Y6363048D01*
X8077858Y6363602D01*
Y6363880D01*
X8087012D01*
X8086734Y6361938D01*
X8086179Y6359997D01*
X8085070Y6356530D01*
X8083544Y6353617D01*
X8082019Y6351121D01*
X8080632Y6349041D01*
X8079939Y6348347D01*
X8079384Y6347654D01*
X8078829Y6347099D01*
X8078413Y6346683D01*
X8078274Y6346544D01*
X8078136Y6346406D01*
X8076610Y6345296D01*
X8075085Y6344187D01*
X8072034Y6342522D01*
X8068844Y6341413D01*
X8065932Y6340581D01*
X8063435Y6340165D01*
X8062326Y6339887D01*
X8061355D01*
X8060662Y6339749D01*
X8059552D01*
X8056224Y6339887D01*
X8053173Y6340304D01*
X8050399Y6340997D01*
X8048041Y6341690D01*
X8046100Y6342384D01*
X8044713Y6343077D01*
X8044158Y6343216D01*
X8043742Y6343493D01*
X8043603Y6343632D01*
X8043465D01*
X8040968Y6345296D01*
X8038749Y6347099D01*
X8036808Y6349041D01*
X8035144Y6350844D01*
X8033896Y6352508D01*
X8032925Y6353756D01*
X8032647Y6354311D01*
X8032370Y6354727D01*
X8032231Y6354865D01*
Y6355004D01*
X8030844Y6357916D01*
X8029874Y6360690D01*
X8029042Y6363464D01*
X8028626Y6365960D01*
X8028348Y6368179D01*
X8028209Y6369150D01*
X8028071Y6369843D01*
Y6370537D01*
Y6370953D01*
Y6371230D01*
Y6371369D01*
X8028209Y6373726D01*
X8028348Y6375945D01*
X8028764Y6378164D01*
X8029319Y6380106D01*
X8029874Y6381909D01*
X8030567Y6383712D01*
X8031399Y6385237D01*
X8032093Y6386763D01*
X8032786Y6388011D01*
X8033618Y6389120D01*
X8034312Y6390230D01*
X8034866Y6390923D01*
X8035421Y6391617D01*
X8035698Y6392033D01*
X8035976Y6392310D01*
X8036114Y6392449D01*
X8037640Y6393974D01*
X8039304Y6395222D01*
X8040968Y6396332D01*
X8042633Y6397303D01*
X8044436Y6398135D01*
X8046100Y6398690D01*
X8049289Y6399799D01*
X8050676Y6400076D01*
X8052063Y6400354D01*
X8053311Y6400492D01*
X8054282Y6400631D01*
X8055114Y6400770D01*
X8056362D01*
X8058165Y6400631D01*
X8059968Y6400492D01*
X8061771Y6400215D01*
X8063435Y6399938D01*
X8064961Y6399522D01*
X8066070Y6399244D01*
X8066764Y6399106D01*
X8066902Y6398967D01*
X8067041D01*
X8062464Y6423653D01*
X8030428D01*
Y6432251D01*
X8069399D01*
X8077720Y6387456D01*
D02*
G37*
G36*
X8217929Y6423375D02*
X8197820D01*
Y6341968D01*
X8188806D01*
Y6423375D01*
X8168696D01*
Y6432251D01*
X8217929D01*
Y6423375D01*
D02*
G37*
G36*
X8155521Y6341968D02*
X8146507D01*
Y6383850D01*
X8134303D01*
X8131806Y6383989D01*
X8129449Y6384128D01*
X8127369D01*
X8125566Y6384266D01*
X8123901Y6384405D01*
X8122376Y6384544D01*
X8121128Y6384682D01*
X8120018Y6384821D01*
X8119186Y6384960D01*
X8118493D01*
X8117938Y6385098D01*
X8117522Y6385237D01*
X8117245D01*
X8114194Y6386208D01*
X8111559Y6387317D01*
X8109340Y6388704D01*
X8107537Y6389952D01*
X8106011Y6391201D01*
X8104902Y6392171D01*
X8104347Y6392865D01*
X8104070Y6393142D01*
X8102405Y6395500D01*
X8101296Y6397996D01*
X8100464Y6400492D01*
X8099770Y6402850D01*
X8099493Y6404930D01*
X8099354Y6405762D01*
Y6406595D01*
X8099216Y6407288D01*
Y6407704D01*
Y6407981D01*
Y6408120D01*
X8099493Y6411310D01*
X8100048Y6414222D01*
X8100741Y6416718D01*
X8101712Y6418937D01*
X8102683Y6420602D01*
X8103376Y6421850D01*
X8103931Y6422682D01*
X8104208Y6422959D01*
X8106150Y6425039D01*
X8108230Y6426704D01*
X8110310Y6428091D01*
X8112391Y6429200D01*
X8114055Y6429893D01*
X8115580Y6430448D01*
X8116135Y6430587D01*
X8116413Y6430726D01*
X8116690Y6430864D01*
X8116829D01*
X8117938Y6431142D01*
X8119325Y6431280D01*
X8120712Y6431558D01*
X8122376Y6431696D01*
X8125843Y6431974D01*
X8129310Y6432112D01*
X8132500Y6432251D01*
X8155521D01*
Y6341968D01*
D02*
G37*
G36*
X7742205Y7068112D02*
X7744286Y7067835D01*
X7746366Y7067419D01*
X7748446Y7066864D01*
X7752052Y7065477D01*
X7753577Y7064784D01*
X7755103Y7063952D01*
X7756351Y7063120D01*
X7757599Y7062426D01*
X7758570Y7061594D01*
X7759402Y7061039D01*
X7760095Y7060485D01*
X7760512Y7060069D01*
X7760789Y7059791D01*
X7760928Y7059653D01*
X7762453Y7057988D01*
X7763840Y7056186D01*
X7764949Y7054521D01*
X7765920Y7052580D01*
X7766752Y7050777D01*
X7767446Y7048974D01*
X7768555Y7045507D01*
X7768971Y7043981D01*
X7769249Y7042456D01*
X7769526Y7041208D01*
X7769665Y7040098D01*
Y7039127D01*
X7769803Y7038434D01*
Y7038018D01*
Y7037879D01*
X7761205D01*
X7760789Y7041624D01*
X7759957Y7044813D01*
X7758847Y7047587D01*
X7757738Y7049806D01*
X7756628Y7051609D01*
X7755658Y7052857D01*
X7755103Y7053689D01*
X7754825Y7053967D01*
X7752468Y7055908D01*
X7750110Y7057295D01*
X7747614Y7058404D01*
X7745395Y7059098D01*
X7743315Y7059514D01*
X7741651Y7059653D01*
X7741096Y7059791D01*
X7740264D01*
X7737351Y7059514D01*
X7734578Y7058959D01*
X7732220Y7057988D01*
X7730278Y7057018D01*
X7728614Y7056047D01*
X7727366Y7055076D01*
X7726673Y7054521D01*
X7726395Y7054244D01*
X7724454Y7052025D01*
X7723067Y7049806D01*
X7721957Y7047587D01*
X7721264Y7045646D01*
X7720848Y7043843D01*
X7720709Y7042317D01*
X7720571Y7041762D01*
Y7041346D01*
Y7041208D01*
Y7041069D01*
X7720709Y7038850D01*
X7721125Y7036770D01*
X7721541Y7034828D01*
X7722096Y7033025D01*
X7722789Y7031638D01*
X7723206Y7030529D01*
X7723622Y7029836D01*
X7723760Y7029558D01*
X7724454Y7028449D01*
X7725286Y7027339D01*
X7727227Y7024704D01*
X7729446Y7021931D01*
X7731804Y7019157D01*
X7734023Y7016799D01*
X7734994Y7015690D01*
X7735826Y7014719D01*
X7736519Y7014026D01*
X7737074Y7013471D01*
X7737351Y7013055D01*
X7737490Y7012916D01*
X7771884Y6975749D01*
X7710585D01*
Y6984347D01*
X7752468D01*
X7729862Y7008617D01*
X7727921Y7010697D01*
X7726257Y7012639D01*
X7724592Y7014580D01*
X7723206Y7016383D01*
X7721819Y7017909D01*
X7720709Y7019434D01*
X7718768Y7022069D01*
X7717936Y7023179D01*
X7717381Y7024011D01*
X7716826Y7024843D01*
X7716271Y7025536D01*
X7715994Y7026091D01*
X7715717Y7026507D01*
X7715578Y7026646D01*
Y7026785D01*
X7714330Y7029420D01*
X7713359Y7031916D01*
X7712804Y7034273D01*
X7712249Y7036492D01*
X7711972Y7038434D01*
X7711833Y7039960D01*
Y7040514D01*
Y7040930D01*
Y7041069D01*
Y7041208D01*
X7711972Y7043288D01*
X7712111Y7045229D01*
X7713082Y7048835D01*
X7714330Y7052025D01*
X7715717Y7054799D01*
X7716410Y7056047D01*
X7717103Y7057156D01*
X7717797Y7057988D01*
X7718352Y7058821D01*
X7718906Y7059375D01*
X7719322Y7059791D01*
X7719461Y7060069D01*
X7719600Y7060207D01*
X7721125Y7061594D01*
X7722651Y7062842D01*
X7724315Y7063952D01*
X7725979Y7064923D01*
X7727782Y7065616D01*
X7729446Y7066309D01*
X7732636Y7067280D01*
X7734162Y7067558D01*
X7735548Y7067835D01*
X7736658Y7067974D01*
X7737767Y7068112D01*
X7738599Y7068251D01*
X7739848D01*
X7742205Y7068112D01*
D02*
G37*
G36*
X7901414Y7057156D02*
X7881305D01*
Y6975749D01*
X7872291D01*
Y7057156D01*
X7852182D01*
Y7066032D01*
X7901414D01*
Y7057156D01*
D02*
G37*
G36*
X7839007Y6975749D02*
X7829992D01*
Y7017631D01*
X7817788D01*
X7815292Y7017770D01*
X7812934Y7017909D01*
X7810854D01*
X7809051Y7018047D01*
X7807387Y7018186D01*
X7805861Y7018325D01*
X7804613Y7018463D01*
X7803504Y7018602D01*
X7802671Y7018741D01*
X7801978D01*
X7801423Y7018880D01*
X7801007Y7019018D01*
X7800730D01*
X7797679Y7019989D01*
X7795044Y7021098D01*
X7792825Y7022485D01*
X7791022Y7023733D01*
X7789496Y7024982D01*
X7788387Y7025952D01*
X7787832Y7026646D01*
X7787555Y7026923D01*
X7785891Y7029281D01*
X7784781Y7031777D01*
X7783949Y7034273D01*
X7783256Y7036631D01*
X7782978Y7038711D01*
X7782840Y7039543D01*
Y7040376D01*
X7782701Y7041069D01*
Y7041485D01*
Y7041762D01*
Y7041901D01*
X7782978Y7045091D01*
X7783533Y7048003D01*
X7784226Y7050499D01*
X7785197Y7052718D01*
X7786168Y7054383D01*
X7786861Y7055631D01*
X7787416Y7056463D01*
X7787694Y7056740D01*
X7789635Y7058821D01*
X7791715Y7060485D01*
X7793796Y7061872D01*
X7795876Y7062981D01*
X7797540Y7063674D01*
X7799066Y7064229D01*
X7799620Y7064368D01*
X7799898Y7064507D01*
X7800175Y7064645D01*
X7800314D01*
X7801423Y7064923D01*
X7802810Y7065061D01*
X7804197Y7065339D01*
X7805861Y7065477D01*
X7809328Y7065755D01*
X7812795Y7065893D01*
X7815985Y7066032D01*
X7839007D01*
Y6975749D01*
D02*
G37*
%LPC*%
G36*
X16402495Y9032084D02*
X16104465D01*
Y8921000D01*
X16402495D01*
Y9032084D01*
D02*
G37*
G36*
X16104465Y8921000D02*
X15749536D01*
Y8823462D01*
X15922935D01*
Y8820753D01*
X15939192D01*
Y8818044D01*
X15947321D01*
Y8815334D01*
X15952739D01*
Y8812625D01*
X15958157D01*
Y8809916D01*
X15960867D01*
Y8807206D01*
X15966286D01*
Y8804497D01*
X15968996D01*
Y8801787D01*
X15971706D01*
Y8799078D01*
X15974414D01*
Y8796368D01*
X15977122D01*
Y8790950D01*
X15979832D01*
Y8788240D01*
X15982542D01*
Y8782822D01*
X15985251D01*
Y8777403D01*
X15987961D01*
Y8769275D01*
X15990669D01*
Y8373706D01*
X16104465D01*
Y8921000D01*
D02*
G37*
G36*
X14332533Y9121494D02*
X14310858D01*
Y9118784D01*
X14308148D01*
Y9116075D01*
X14305440D01*
Y9113366D01*
Y9110656D01*
X14302730D01*
Y9107947D01*
X14297311D01*
Y9110656D01*
X14294601D01*
Y9113366D01*
X14291891D01*
Y9116075D01*
X14289183D01*
Y9121494D01*
X14264798D01*
Y9118784D01*
X14267508D01*
Y9116075D01*
X14270216D01*
Y9110656D01*
X14272926D01*
Y9107947D01*
X14275636D01*
Y9105237D01*
X14278345D01*
Y9099819D01*
X14281055D01*
Y9097109D01*
X14283765D01*
Y9091690D01*
X14316277D01*
Y9097109D01*
X14318987D01*
Y9099819D01*
X14321695D01*
Y9105237D01*
X14324403D01*
Y9107947D01*
X14327113D01*
Y9113366D01*
X14329823D01*
Y9116075D01*
X14332533D01*
Y9121494D01*
D02*
G37*
G36*
X14668495D02*
X14638692D01*
Y9118784D01*
X14641402D01*
Y9116075D01*
X14644112D01*
Y9113366D01*
X14646820D01*
Y9110656D01*
X14649530D01*
Y9105237D01*
X14652238D01*
Y9102528D01*
X14654948D01*
Y9099819D01*
X14657658D01*
Y9097109D01*
X14660367D01*
Y9094400D01*
X14663075D01*
Y9091690D01*
X14684750D01*
Y9094400D01*
X14682042D01*
Y9099819D01*
X14679333D01*
Y9102528D01*
X14676624D01*
Y9107947D01*
X14673914D01*
Y9113366D01*
X14671205D01*
Y9116075D01*
X14668495D01*
Y9121494D01*
D02*
G37*
G36*
X13890904D02*
X13863811D01*
Y9118784D01*
X13866521D01*
Y9116075D01*
X13869231D01*
Y9113366D01*
X13871939D01*
Y9107947D01*
X13874648D01*
Y9105237D01*
X13877357D01*
Y9102528D01*
X13880067D01*
Y9099819D01*
X13882776D01*
Y9097109D01*
X13885486D01*
Y9094400D01*
X13888194D01*
Y9091690D01*
X13909869D01*
Y9094400D01*
X13907161D01*
Y9097109D01*
X13904451D01*
Y9102528D01*
X13901743D01*
Y9107947D01*
X13899033D01*
Y9110656D01*
X13896323D01*
Y9116075D01*
X13893614D01*
Y9118784D01*
X13890904D01*
Y9121494D01*
D02*
G37*
G36*
X15318745Y9083562D02*
X15286234D01*
Y9078144D01*
X15283524D01*
Y9072725D01*
X15280814D01*
Y9067306D01*
X15278105D01*
Y9061887D01*
X15275395D01*
Y9059178D01*
X15272685D01*
Y9053759D01*
X15269977D01*
Y9048341D01*
X15267267D01*
Y9042922D01*
X15264558D01*
Y9037503D01*
X15261848D01*
Y9032084D01*
X15259138D01*
Y9026665D01*
X15256429D01*
Y9023956D01*
X15253720D01*
Y9021247D01*
X15251012D01*
Y9026665D01*
X15248302D01*
Y9029375D01*
X15245592D01*
Y9034794D01*
X15242883D01*
Y9040212D01*
X15240173D01*
Y9045631D01*
X15237463D01*
Y9051050D01*
X15234755D01*
Y9053759D01*
X15232045D01*
Y9059178D01*
X15229337D01*
Y9064597D01*
X15226627D01*
Y9070015D01*
X15223917D01*
Y9072725D01*
X15221208D01*
Y9078144D01*
X15218498D01*
Y9083562D01*
X15188695D01*
Y9080853D01*
X15191405D01*
Y9078144D01*
X15194115D01*
Y9072725D01*
X15196823D01*
Y9067306D01*
X15199533D01*
Y9064597D01*
X15202242D01*
Y9059178D01*
X15204951D01*
Y9053759D01*
X15207661D01*
Y9048341D01*
X15210370D01*
Y9045631D01*
X15213080D01*
Y9040212D01*
X15215788D01*
Y9034794D01*
X15218498D01*
Y9032084D01*
X15221208D01*
Y9026665D01*
X15223917D01*
Y9021247D01*
X15226627D01*
Y9018537D01*
X15229337D01*
Y9013119D01*
X15232045D01*
Y9007700D01*
X15234755D01*
Y9004990D01*
X15237463D01*
Y8999572D01*
X15240173D01*
Y8994153D01*
X15242883D01*
Y8926419D01*
X15267267D01*
Y8994153D01*
X15269977D01*
Y8999572D01*
X15272685D01*
Y9004990D01*
X15275395D01*
Y9007700D01*
X15278105D01*
Y9013119D01*
X15280814D01*
Y9018537D01*
X15283524D01*
Y9023956D01*
X15286234D01*
Y9026665D01*
X15288942D01*
Y9032084D01*
X15291650D01*
Y9037503D01*
X15294360D01*
Y9042922D01*
X15297070D01*
Y9048341D01*
X15299780D01*
Y9051050D01*
X15302489D01*
Y9056469D01*
X15305199D01*
Y9061887D01*
X15307909D01*
Y9067306D01*
X15310617D01*
Y9070015D01*
X15313326D01*
Y9075434D01*
X15316035D01*
Y9080853D01*
X15318745D01*
Y9083562D01*
D02*
G37*
G36*
X14866280D02*
X14839186D01*
Y9013119D01*
X14836478D01*
Y9015828D01*
X14833768D01*
Y9018537D01*
X14831058D01*
Y9021247D01*
X14828348D01*
Y9026665D01*
X14825639D01*
Y9029375D01*
X14822929D01*
Y9032084D01*
X14820219D01*
Y9037503D01*
X14817511D01*
Y9040212D01*
X14814801D01*
Y9042922D01*
X14812093D01*
Y9045631D01*
X14809383D01*
Y9051050D01*
X14806673D01*
Y9053759D01*
X14803964D01*
Y9056469D01*
X14801254D01*
Y9059178D01*
X14798544D01*
Y9064597D01*
X14795836D01*
Y9067306D01*
X14793126D01*
Y9070015D01*
X14790417D01*
Y9075434D01*
X14787708D01*
Y9078144D01*
X14784998D01*
Y9080853D01*
X14782289D01*
Y9083562D01*
X14752486D01*
Y9080853D01*
X14755196D01*
Y9078144D01*
X14757904D01*
Y9075434D01*
X14760614D01*
Y9072725D01*
X14763322D01*
Y9067306D01*
X14766032D01*
Y9064597D01*
X14768742D01*
Y9061887D01*
X14771452D01*
Y9056469D01*
X14774161D01*
Y9053759D01*
X14776871D01*
Y9051050D01*
X14779581D01*
Y9048341D01*
X14782289D01*
Y9042922D01*
X14784998D01*
Y9040212D01*
X14787708D01*
Y9037503D01*
X14790417D01*
Y9032084D01*
X14793126D01*
Y9029375D01*
X14795836D01*
Y9026665D01*
X14798544D01*
Y9023956D01*
X14801254D01*
Y9013119D01*
X14798544D01*
Y9007700D01*
X14795836D01*
Y9004990D01*
X14793126D01*
Y8999572D01*
X14790417D01*
Y8996862D01*
X14787708D01*
Y8991444D01*
X14784998D01*
Y8988734D01*
X14782289D01*
Y8983316D01*
X14779581D01*
Y8977897D01*
X14776871D01*
Y8975187D01*
X14774161D01*
Y8969769D01*
X14771452D01*
Y8967059D01*
X14768742D01*
Y8961640D01*
X14766032D01*
Y8958931D01*
X14763322D01*
Y8953512D01*
X14760614D01*
Y8948094D01*
X14757904D01*
Y8945384D01*
X14755196D01*
Y8939966D01*
X14752486D01*
Y8937256D01*
X14749776D01*
Y8931837D01*
X14747067D01*
Y8926419D01*
X14776871D01*
Y8929128D01*
X14779581D01*
Y8931837D01*
X14782289D01*
Y8937256D01*
X14784998D01*
Y8939966D01*
X14787708D01*
Y8945384D01*
X14790417D01*
Y8948094D01*
X14793126D01*
Y8953512D01*
X14795836D01*
Y8956222D01*
X14798544D01*
Y8961640D01*
X14801254D01*
Y8964350D01*
X14803964D01*
Y8969769D01*
X14806673D01*
Y8975187D01*
X14809383D01*
Y8977897D01*
X14812093D01*
Y8983316D01*
X14814801D01*
Y8986025D01*
X14817511D01*
Y8991444D01*
X14820219D01*
Y8994153D01*
X14822929D01*
Y8991444D01*
X14825639D01*
Y8988734D01*
X14828348D01*
Y8986025D01*
X14831058D01*
Y8980606D01*
X14833768D01*
Y8977897D01*
X14836478D01*
Y8975187D01*
X14839186D01*
Y8926419D01*
X14866280D01*
Y9083562D01*
D02*
G37*
G36*
X14072433D02*
X14042630D01*
Y9078144D01*
X14039920D01*
Y9072725D01*
X14037212D01*
Y9067306D01*
X14034502D01*
Y9064597D01*
X14031792D01*
Y9059178D01*
X14029083D01*
Y9053759D01*
X14026373D01*
Y9051050D01*
X14023663D01*
Y9045631D01*
X14020953D01*
Y9040212D01*
X14018245D01*
Y9034794D01*
X14015536D01*
Y9032084D01*
X14012827D01*
Y9026665D01*
X14010117D01*
Y9021247D01*
X14007408D01*
Y9015828D01*
X14004698D01*
Y9013119D01*
X14001990D01*
Y9007700D01*
X13999280D01*
Y9002281D01*
X13996570D01*
Y8996862D01*
X13993861D01*
Y8994153D01*
X13991151D01*
Y8988734D01*
X13988441D01*
Y8983316D01*
X13985733D01*
Y8977897D01*
X13983023D01*
Y9083562D01*
X13955930D01*
Y8926419D01*
X13983023D01*
Y8929128D01*
X13985733D01*
Y8934547D01*
X13988441D01*
Y8939966D01*
X13991151D01*
Y8942675D01*
X13993861D01*
Y8948094D01*
X13996570D01*
Y8953512D01*
X13999280D01*
Y8958931D01*
X14001990D01*
Y8961640D01*
X14004698D01*
Y8967059D01*
X14007408D01*
Y8972478D01*
X14010117D01*
Y8977897D01*
X14012827D01*
Y8983316D01*
X14015536D01*
Y8986025D01*
X14018245D01*
Y8991444D01*
X14020953D01*
Y8996862D01*
X14023663D01*
Y9002281D01*
X14026373D01*
Y9004990D01*
X14029083D01*
Y9010409D01*
X14031792D01*
Y9015828D01*
X14034502D01*
Y9021247D01*
X14037212D01*
Y9023956D01*
X14039920D01*
Y9029375D01*
X14042630D01*
Y9034794D01*
X14045338D01*
Y8926419D01*
X14072433D01*
Y9083562D01*
D02*
G37*
G36*
X15462341D02*
X15435248D01*
Y9080853D01*
X15432539D01*
Y9072725D01*
X15429829D01*
Y9064597D01*
X15427119D01*
Y9056469D01*
X15424411D01*
Y9048341D01*
X15421701D01*
Y9040212D01*
X15418993D01*
Y9029375D01*
X15416283D01*
Y9021247D01*
X15413573D01*
Y9013119D01*
X15410864D01*
Y9004990D01*
X15408154D01*
Y8996862D01*
X15405444D01*
Y8988734D01*
X15402736D01*
Y8977897D01*
X15400026D01*
Y8969769D01*
X15397318D01*
Y8964350D01*
X15394608D01*
Y8972478D01*
X15391898D01*
Y8983316D01*
X15389189D01*
Y8991444D01*
X15386481D01*
Y8999572D01*
X15383771D01*
Y9007700D01*
X15381061D01*
Y9015828D01*
X15378352D01*
Y9026665D01*
X15375642D01*
Y9034794D01*
X15372932D01*
Y9042922D01*
X15370222D01*
Y9051050D01*
X15367514D01*
Y9061887D01*
X15364806D01*
Y9070015D01*
X15362096D01*
Y9078144D01*
X15359386D01*
Y9083562D01*
X15335002D01*
Y9075434D01*
X15337711D01*
Y9067306D01*
X15340421D01*
Y9059178D01*
X15343130D01*
Y9051050D01*
X15345839D01*
Y9042922D01*
X15348547D01*
Y9034794D01*
X15351257D01*
Y9023956D01*
X15353967D01*
Y9015828D01*
X15356676D01*
Y9007700D01*
X15359386D01*
Y8999572D01*
X15362096D01*
Y8991444D01*
X15364806D01*
Y8983316D01*
X15367514D01*
Y8975187D01*
X15370222D01*
Y8967059D01*
X15372932D01*
Y8956222D01*
X15375642D01*
Y8948094D01*
X15378352D01*
Y8939966D01*
X15381061D01*
Y8931837D01*
X15383771D01*
Y8926419D01*
X15410864D01*
Y8929128D01*
X15413573D01*
Y8937256D01*
X15416283D01*
Y8945384D01*
X15418993D01*
Y8953512D01*
X15421701D01*
Y8961640D01*
X15424411D01*
Y8969769D01*
X15427119D01*
Y8977897D01*
X15429829D01*
Y8986025D01*
X15432539D01*
Y8994153D01*
X15435248D01*
Y9002281D01*
X15437958D01*
Y9013119D01*
X15440668D01*
Y9021247D01*
X15443378D01*
Y9029375D01*
X15446086D01*
Y9037503D01*
X15448795D01*
Y9045631D01*
X15451505D01*
Y9053759D01*
X15454214D01*
Y9056469D01*
Y9061887D01*
X15456923D01*
Y9070015D01*
X15459633D01*
Y9078144D01*
X15462341D01*
Y9083562D01*
D02*
G37*
G36*
X14516769D02*
X14489676D01*
Y8958931D01*
X14486967D01*
Y8953512D01*
X14484258D01*
Y8950803D01*
X14432780D01*
Y8953512D01*
X14430070D01*
Y8956222D01*
X14427361D01*
Y9083562D01*
X14397559D01*
Y8967059D01*
X14400267D01*
Y8953512D01*
Y8950803D01*
X14402977D01*
Y8945384D01*
X14405685D01*
Y8939966D01*
X14408395D01*
Y8937256D01*
X14411105D01*
Y8934547D01*
X14413814D01*
Y8931837D01*
X14419234D01*
Y8929128D01*
X14427361D01*
Y8926419D01*
X14478839D01*
Y8929128D01*
X14495094D01*
Y8931837D01*
X14500514D01*
Y8934547D01*
X14503223D01*
Y8937256D01*
X14505933D01*
Y8939966D01*
X14508643D01*
Y8942675D01*
X14511351D01*
Y8948094D01*
X14514061D01*
Y8956222D01*
X14516769D01*
Y9083562D01*
D02*
G37*
G36*
X14329823D02*
X14267508D01*
Y9080853D01*
X14262090D01*
Y9078144D01*
X14256670D01*
Y9075434D01*
X14253961D01*
Y9072725D01*
X14251251D01*
Y9067306D01*
X14248541D01*
Y9061887D01*
X14245833D01*
Y9051050D01*
X14243123D01*
Y9037503D01*
X14270216D01*
Y9051050D01*
X14272926D01*
Y9056469D01*
X14275636D01*
Y9059178D01*
X14281055D01*
Y9061887D01*
X14321695D01*
Y9059178D01*
X14324403D01*
Y9056469D01*
X14327113D01*
Y9053759D01*
X14329823D01*
Y8958931D01*
X14327113D01*
Y8953512D01*
X14324403D01*
Y8950803D01*
X14278345D01*
Y8953512D01*
X14275636D01*
Y8956222D01*
X14272926D01*
Y8961640D01*
X14270216D01*
Y8975187D01*
X14243123D01*
Y8958931D01*
X14245833D01*
Y8948094D01*
X14248541D01*
Y8942675D01*
X14251251D01*
Y8939966D01*
X14253961D01*
Y8937256D01*
X14256670D01*
Y8934547D01*
X14259380D01*
Y8931837D01*
X14264798D01*
Y8929128D01*
X14272926D01*
Y8926419D01*
X14318987D01*
Y8929128D01*
X14332533D01*
Y8931837D01*
X14337952D01*
Y8934547D01*
X14340662D01*
Y8937256D01*
X14343370D01*
Y8939966D01*
X14346080D01*
Y8942675D01*
X14348788D01*
Y8945384D01*
X14351498D01*
Y8953512D01*
X14354208D01*
Y9059178D01*
X14351498D01*
Y9067306D01*
X14348788D01*
Y9070015D01*
X14346080D01*
Y9072725D01*
X14343370D01*
Y9075434D01*
X14340662D01*
Y9078144D01*
X14337952D01*
Y9080853D01*
X14329823D01*
Y9083562D01*
D02*
G37*
G36*
X15148055D02*
X15085739D01*
Y9080853D01*
X15080321D01*
Y9078144D01*
X15077611D01*
Y9075434D01*
X15072192D01*
Y9070015D01*
X15069482D01*
Y9067306D01*
X15066772D01*
Y9061887D01*
X15064064D01*
Y9048341D01*
X15061356D01*
Y9037503D01*
X15091158D01*
Y9040212D01*
Y9056469D01*
X15093867D01*
Y9059178D01*
X15099286D01*
Y9061887D01*
X15137218D01*
Y9059178D01*
X15139928D01*
Y9056469D01*
X15142636D01*
Y9053759D01*
X15145345D01*
Y9023956D01*
X15142636D01*
Y9021247D01*
X15139928D01*
Y9018537D01*
X15099286D01*
Y9015828D01*
X15085739D01*
Y9013119D01*
X15080321D01*
Y9010409D01*
X15074902D01*
Y9007700D01*
X15072192D01*
Y9004990D01*
X15069482D01*
Y8999572D01*
X15066772D01*
Y8994153D01*
X15064064D01*
Y8980606D01*
X15061356D01*
Y8964350D01*
X15064064D01*
Y8950803D01*
X15066772D01*
Y8942675D01*
X15069482D01*
Y8939966D01*
X15072192D01*
Y8937256D01*
X15074902D01*
Y8934547D01*
X15077611D01*
Y8931837D01*
X15083031D01*
Y8929128D01*
X15091158D01*
Y8926419D01*
X15145345D01*
Y8929128D01*
X15153473D01*
Y8931837D01*
X15158891D01*
Y8934547D01*
X15161601D01*
Y8937256D01*
X15164311D01*
Y8939966D01*
X15167020D01*
Y8942675D01*
X15169730D01*
Y8948094D01*
X15172440D01*
Y8956222D01*
X15175148D01*
Y8975187D01*
X15148055D01*
Y8972478D01*
X15145345D01*
Y8956222D01*
X15142636D01*
Y8953512D01*
X15139928D01*
Y8950803D01*
X15093867D01*
Y8953512D01*
X15091158D01*
Y8956222D01*
X15088448D01*
Y8988734D01*
X15091158D01*
Y8991444D01*
X15093867D01*
Y8994153D01*
X15139928D01*
Y8996862D01*
X15148055D01*
Y8999572D01*
X15153473D01*
Y9002281D01*
X15158891D01*
Y9004990D01*
X15161601D01*
Y9007700D01*
X15164311D01*
Y9013119D01*
X15167020D01*
Y9018537D01*
X15169730D01*
Y9061887D01*
X15167020D01*
Y9067306D01*
X15164311D01*
Y9070015D01*
X15161601D01*
Y9072725D01*
X15158891D01*
Y9075434D01*
X15156183D01*
Y9078144D01*
X15153473D01*
Y9080853D01*
X15148055D01*
Y9083562D01*
D02*
G37*
G36*
X14993620D02*
X14931305D01*
Y9080853D01*
X14923177D01*
Y9078144D01*
X14920467D01*
Y9075434D01*
X14917758D01*
Y9072725D01*
X14915048D01*
Y9070015D01*
X14912338D01*
Y9067306D01*
X14909630D01*
Y9061887D01*
X14906920D01*
Y9053759D01*
X14904211D01*
Y8956222D01*
X14906920D01*
Y8948094D01*
X14909630D01*
Y8942675D01*
X14912338D01*
Y8939966D01*
X14915048D01*
Y8937256D01*
X14917758D01*
Y8934547D01*
X14920467D01*
Y8931837D01*
X14925887D01*
Y8929128D01*
X14934013D01*
Y8926419D01*
X14993620D01*
Y8929128D01*
X15001749D01*
Y8931837D01*
X15007167D01*
Y8934547D01*
X15009877D01*
Y8937256D01*
X15012585D01*
Y8939966D01*
X15015295D01*
Y8945384D01*
X15018005D01*
Y8950803D01*
X15020714D01*
Y9059178D01*
X15018005D01*
Y9064597D01*
X15015295D01*
Y9070015D01*
X15012585D01*
Y9072725D01*
X15009877D01*
Y9075434D01*
X15007167D01*
Y9078144D01*
X15001749D01*
Y9080853D01*
X14993620D01*
Y9083562D01*
D02*
G37*
G36*
X14714555D02*
X14619727D01*
Y9061887D01*
X14687460D01*
Y9018537D01*
X14622437D01*
Y8994153D01*
X14687460D01*
Y8950803D01*
X14617017D01*
Y8926419D01*
X14714555D01*
Y9083562D01*
D02*
G37*
G36*
X14207901D02*
X14110364D01*
Y9061887D01*
X14180807D01*
Y9018537D01*
X14115784D01*
Y8994153D01*
X14180807D01*
Y8950803D01*
X14107655D01*
Y8926419D01*
X14207901D01*
Y9083562D01*
D02*
G37*
G36*
X13912579D02*
X13885486D01*
Y8926419D01*
X13912579D01*
Y9061887D01*
Y9064597D01*
Y9083562D01*
D02*
G37*
G36*
X14283765Y8807206D02*
X14256670D01*
Y8801787D01*
X14259380D01*
Y8799078D01*
X14262090D01*
Y8796368D01*
X14264798D01*
Y8793659D01*
X14267508D01*
Y8790950D01*
X14270216D01*
Y8788240D01*
X14272926D01*
Y8785531D01*
X14275636D01*
Y8780112D01*
X14278345D01*
Y8777403D01*
X14281055D01*
Y8774694D01*
X14302730D01*
Y8780112D01*
X14300020D01*
Y8782822D01*
X14297311D01*
Y8788240D01*
X14294601D01*
Y8790950D01*
X14291891D01*
Y8796368D01*
X14289183D01*
Y8801787D01*
X14286473D01*
Y8804497D01*
X14283765D01*
Y8807206D01*
D02*
G37*
G36*
X15023422Y8769275D02*
X14996330D01*
Y8701540D01*
X14934013D01*
Y8769275D01*
X14906920D01*
Y8612131D01*
X14934013D01*
Y8677156D01*
X14996330D01*
Y8612131D01*
X15023422D01*
Y8660900D01*
Y8663609D01*
Y8769275D01*
D02*
G37*
G36*
X14484258D02*
X14457164D01*
Y8698831D01*
X14451746D01*
Y8704250D01*
X14449036D01*
Y8706959D01*
X14446326D01*
Y8709669D01*
X14443617D01*
Y8712378D01*
X14440907D01*
Y8717797D01*
X14438197D01*
Y8720506D01*
X14435489D01*
Y8723215D01*
X14432780D01*
Y8728634D01*
X14430070D01*
Y8731344D01*
X14427361D01*
Y8734053D01*
X14424651D01*
Y8736762D01*
X14421942D01*
Y8742181D01*
X14419234D01*
Y8744891D01*
X14416524D01*
Y8747600D01*
X14413814D01*
Y8750309D01*
X14411105D01*
Y8755728D01*
X14408395D01*
Y8758437D01*
X14405685D01*
Y8761147D01*
X14402977D01*
Y8766565D01*
X14400267D01*
Y8769275D01*
X14370464D01*
Y8766565D01*
X14373174D01*
Y8763856D01*
X14375883D01*
Y8758437D01*
X14378592D01*
Y8755728D01*
X14381300D01*
Y8753019D01*
X14384010D01*
Y8747600D01*
X14386720D01*
Y8744891D01*
X14389429D01*
Y8742181D01*
X14392139D01*
Y8739472D01*
X14394849D01*
Y8734053D01*
X14397559D01*
Y8731344D01*
X14400267D01*
Y8728634D01*
X14402977D01*
Y8723215D01*
X14405685D01*
Y8720506D01*
X14408395D01*
Y8717797D01*
X14411105D01*
Y8715087D01*
X14413814D01*
Y8709669D01*
X14416524D01*
Y8706959D01*
X14419234D01*
Y8704250D01*
X14421942D01*
Y8701540D01*
X14419234D01*
Y8696122D01*
X14416524D01*
Y8693412D01*
X14413814D01*
Y8687994D01*
X14411105D01*
Y8685284D01*
X14408395D01*
Y8679866D01*
X14405685D01*
Y8677156D01*
X14402977D01*
Y8671737D01*
X14400267D01*
Y8669028D01*
X14397559D01*
Y8663609D01*
X14394849D01*
Y8660900D01*
X14392139D01*
Y8655481D01*
X14389429D01*
Y8650062D01*
X14386720D01*
Y8647353D01*
X14384010D01*
Y8641934D01*
X14381300D01*
Y8639225D01*
X14378592D01*
Y8633806D01*
X14375883D01*
Y8631097D01*
X14373174D01*
Y8625678D01*
X14370464D01*
Y8622969D01*
X14367755D01*
Y8617550D01*
X14365045D01*
Y8614841D01*
X14362337D01*
Y8612131D01*
X14397559D01*
Y8617550D01*
X14400267D01*
Y8620259D01*
X14402977D01*
Y8625678D01*
X14405685D01*
Y8628387D01*
X14408395D01*
Y8633806D01*
X14411105D01*
Y8639225D01*
X14413814D01*
Y8641934D01*
X14416524D01*
Y8647353D01*
X14419234D01*
Y8650062D01*
X14421942D01*
Y8655481D01*
X14424651D01*
Y8658190D01*
X14427361D01*
Y8663609D01*
X14430070D01*
Y8666319D01*
X14432780D01*
Y8671737D01*
X14435489D01*
Y8677156D01*
X14440907D01*
Y8674447D01*
X14443617D01*
Y8671737D01*
X14446326D01*
Y8669028D01*
X14449036D01*
Y8666319D01*
X14451746D01*
Y8660900D01*
X14454454D01*
Y8658190D01*
X14457164D01*
Y8612131D01*
X14484258D01*
Y8769275D01*
D02*
G37*
G36*
X14863570D02*
X14836478D01*
Y8763856D01*
X14833768D01*
Y8761147D01*
X14831058D01*
Y8755728D01*
X14828348D01*
Y8750309D01*
X14825639D01*
Y8744891D01*
X14822929D01*
Y8742181D01*
X14820219D01*
Y8736762D01*
X14817511D01*
Y8731344D01*
X14814801D01*
Y8725925D01*
X14812093D01*
Y8723215D01*
X14809383D01*
Y8717797D01*
X14806673D01*
Y8712378D01*
X14803964D01*
Y8709669D01*
X14801254D01*
Y8704250D01*
X14798544D01*
Y8698831D01*
X14795836D01*
Y8693412D01*
X14793126D01*
Y8690703D01*
X14790417D01*
Y8685284D01*
X14787708D01*
Y8679866D01*
X14784998D01*
Y8674447D01*
X14782289D01*
Y8671737D01*
X14779581D01*
Y8666319D01*
X14776871D01*
Y8660900D01*
X14774161D01*
Y8769275D01*
X14747067D01*
Y8612131D01*
X14776871D01*
Y8617550D01*
X14779581D01*
Y8622969D01*
X14782289D01*
Y8628387D01*
X14784998D01*
Y8631097D01*
X14787708D01*
Y8636515D01*
X14790417D01*
Y8641934D01*
X14793126D01*
Y8647353D01*
X14795836D01*
Y8650062D01*
X14798544D01*
Y8655481D01*
X14801254D01*
Y8660900D01*
X14803964D01*
Y8666319D01*
X14806673D01*
Y8669028D01*
X14809383D01*
Y8674447D01*
X14812093D01*
Y8679866D01*
X14814801D01*
Y8682575D01*
X14817511D01*
Y8687994D01*
X14820219D01*
Y8693412D01*
X14822929D01*
Y8698831D01*
X14825639D01*
Y8701540D01*
X14828348D01*
Y8706959D01*
X14831058D01*
Y8712378D01*
X14833768D01*
Y8717797D01*
X14836478D01*
Y8612131D01*
X14863570D01*
Y8769275D01*
D02*
G37*
G36*
X14606180D02*
X14551991D01*
Y8766565D01*
X14543864D01*
Y8763856D01*
X14538445D01*
Y8761147D01*
X14535736D01*
Y8758437D01*
X14533026D01*
Y8755728D01*
X14530318D01*
Y8753019D01*
X14527608D01*
Y8747600D01*
X14524898D01*
Y8739472D01*
X14522189D01*
Y8720506D01*
X14549283D01*
Y8736762D01*
X14551991D01*
Y8742181D01*
X14554701D01*
Y8744891D01*
X14562830D01*
Y8747600D01*
X14598051D01*
Y8744891D01*
X14603470D01*
Y8742181D01*
X14606180D01*
Y8736762D01*
X14608888D01*
Y8723215D01*
Y8720506D01*
Y8644644D01*
X14606180D01*
Y8639225D01*
X14603470D01*
Y8636515D01*
X14554701D01*
Y8639225D01*
X14551991D01*
Y8644644D01*
X14549283D01*
Y8660900D01*
X14524898D01*
Y8658190D01*
X14522189D01*
Y8641934D01*
X14524898D01*
Y8633806D01*
X14527608D01*
Y8628387D01*
X14530318D01*
Y8625678D01*
X14533026D01*
Y8622969D01*
X14535736D01*
Y8620259D01*
X14538445D01*
Y8617550D01*
X14541154D01*
Y8614841D01*
X14549283D01*
Y8612131D01*
X14608888D01*
Y8614841D01*
X14614308D01*
Y8617550D01*
X14619727D01*
Y8620259D01*
X14622437D01*
Y8622969D01*
X14625145D01*
Y8625678D01*
X14627855D01*
Y8628387D01*
X14630563D01*
Y8633806D01*
X14633273D01*
Y8647353D01*
X14635983D01*
Y8731344D01*
X14633273D01*
Y8744891D01*
X14630563D01*
Y8750309D01*
X14627855D01*
Y8755728D01*
X14625145D01*
Y8758437D01*
X14622437D01*
Y8761147D01*
X14619727D01*
Y8763856D01*
X14614308D01*
Y8766565D01*
X14606180D01*
Y8769275D01*
D02*
G37*
G36*
X15145345D02*
X15091158D01*
Y8766565D01*
X15083031D01*
Y8763856D01*
X15077611D01*
Y8761147D01*
X15074902D01*
Y8758437D01*
X15072192D01*
Y8755728D01*
X15069482D01*
Y8750309D01*
X15066772D01*
Y8744891D01*
X15064064D01*
Y8731344D01*
X15061356D01*
Y8723215D01*
X15064064D01*
Y8720506D01*
X15088448D01*
Y8723215D01*
X15091158D01*
Y8739472D01*
X15093867D01*
Y8742181D01*
X15096576D01*
Y8744891D01*
X15142636D01*
Y8742181D01*
X15145345D01*
Y8739472D01*
X15148055D01*
Y8641934D01*
X15145345D01*
Y8639225D01*
X15142636D01*
Y8636515D01*
X15139928D01*
Y8633806D01*
X15099286D01*
Y8636515D01*
X15093867D01*
Y8639225D01*
X15091158D01*
Y8658190D01*
X15061356D01*
Y8647353D01*
X15064064D01*
Y8633806D01*
X15066772D01*
Y8628387D01*
X15069482D01*
Y8625678D01*
X15072192D01*
Y8620259D01*
X15077611D01*
Y8617550D01*
X15080321D01*
Y8614841D01*
X15088448D01*
Y8612131D01*
X15148055D01*
Y8614841D01*
X15156183D01*
Y8617550D01*
X15158891D01*
Y8620259D01*
X15161601D01*
Y8622969D01*
X15164311D01*
Y8625678D01*
X15167020D01*
Y8628387D01*
X15169730D01*
Y8633806D01*
X15172440D01*
Y8636515D01*
Y8639225D01*
Y8641934D01*
X15175148D01*
Y8739472D01*
X15172440D01*
Y8747600D01*
X15169730D01*
Y8753019D01*
X15167020D01*
Y8755728D01*
X15164311D01*
Y8758437D01*
X15161601D01*
Y8761147D01*
X15158891D01*
Y8763856D01*
X15153473D01*
Y8766565D01*
X15145345D01*
Y8769275D01*
D02*
G37*
G36*
X15456923D02*
X15340421D01*
Y8744891D01*
X15383771D01*
Y8612131D01*
X15410864D01*
Y8744891D01*
X15456923D01*
Y8769275D01*
D02*
G37*
G36*
X15310617D02*
X15213080D01*
Y8744891D01*
X15283524D01*
Y8701540D01*
X15218498D01*
Y8677156D01*
X15283524D01*
Y8633806D01*
X15210370D01*
Y8612131D01*
X15310617D01*
Y8769275D01*
D02*
G37*
G36*
X14703717D02*
X14676624D01*
Y8612131D01*
X14703717D01*
Y8769275D01*
D02*
G37*
G36*
X14332533D02*
X14237704D01*
Y8744891D01*
X14305440D01*
Y8701540D01*
X14240414D01*
Y8679866D01*
X14243123D01*
Y8677156D01*
X14305440D01*
Y8633806D01*
X14234995D01*
Y8612131D01*
X14332533D01*
Y8660900D01*
Y8663609D01*
Y8769275D01*
D02*
G37*
G36*
X14779581Y8490209D02*
X14757904D01*
Y8487500D01*
X14755196D01*
Y8484790D01*
X14752486D01*
Y8479372D01*
X14749776D01*
Y8476662D01*
X14747067D01*
Y8473953D01*
X14744357D01*
Y8476662D01*
X14741647D01*
Y8482081D01*
X14738939D01*
Y8484790D01*
X14736230D01*
Y8487500D01*
X14733521D01*
Y8490209D01*
X14711845D01*
Y8487500D01*
X14714555D01*
Y8484790D01*
X14717264D01*
Y8479372D01*
X14719974D01*
Y8476662D01*
X14722684D01*
Y8473953D01*
X14725392D01*
Y8468534D01*
X14728101D01*
Y8465825D01*
X14730811D01*
Y8460406D01*
X14760614D01*
Y8463115D01*
X14763322D01*
Y8465825D01*
X14766032D01*
Y8468534D01*
X14768742D01*
Y8473953D01*
X14771452D01*
Y8476662D01*
X14774161D01*
Y8482081D01*
X14776871D01*
Y8484790D01*
X14779581D01*
Y8490209D01*
D02*
G37*
G36*
X14955688Y8452278D02*
X14925887D01*
Y8446859D01*
X14923177D01*
Y8441441D01*
X14920467D01*
Y8438731D01*
X14917758D01*
Y8433312D01*
X14915048D01*
Y8427893D01*
X14912338D01*
Y8422475D01*
X14909630D01*
Y8419765D01*
X14906920D01*
Y8414347D01*
X14904211D01*
Y8408928D01*
X14901501D01*
Y8403509D01*
X14898792D01*
Y8400800D01*
X14896083D01*
Y8395381D01*
X14893373D01*
Y8389962D01*
X14890665D01*
Y8384544D01*
X14887955D01*
Y8381834D01*
X14885245D01*
Y8376416D01*
X14882536D01*
Y8370997D01*
X14879826D01*
Y8368287D01*
X14877116D01*
Y8362868D01*
X14874408D01*
Y8357450D01*
X14871698D01*
Y8352031D01*
X14868990D01*
Y8349322D01*
X14866280D01*
Y8452278D01*
X14839186D01*
Y8295134D01*
X14866280D01*
Y8297844D01*
X14868990D01*
Y8303262D01*
X14871698D01*
Y8308681D01*
X14874408D01*
Y8314100D01*
X14877116D01*
Y8316809D01*
X14879826D01*
Y8322228D01*
X14882536D01*
Y8327647D01*
X14885245D01*
Y8333065D01*
X14887955D01*
Y8335775D01*
X14890665D01*
Y8341194D01*
X14893373D01*
Y8346612D01*
X14896083D01*
Y8352031D01*
X14898792D01*
Y8354740D01*
X14901501D01*
Y8360159D01*
X14904211D01*
Y8365578D01*
X14906920D01*
Y8370997D01*
X14909630D01*
Y8373706D01*
X14912338D01*
Y8376416D01*
Y8379125D01*
X14915048D01*
Y8384544D01*
X14917758D01*
Y8389962D01*
X14920467D01*
Y8395381D01*
X14923177D01*
Y8398090D01*
X14925887D01*
Y8403509D01*
X14928595D01*
Y8295134D01*
X14955688D01*
Y8452278D01*
D02*
G37*
G36*
X15462341D02*
X15435248D01*
Y8449569D01*
X15432539D01*
Y8441441D01*
X15429829D01*
Y8433312D01*
X15427119D01*
Y8425184D01*
X15424411D01*
Y8414347D01*
X15421701D01*
Y8406219D01*
X15418993D01*
Y8398090D01*
X15416283D01*
Y8389962D01*
X15413573D01*
Y8381834D01*
X15410864D01*
Y8373706D01*
X15408154D01*
Y8362868D01*
X15405444D01*
Y8354740D01*
X15402736D01*
Y8346612D01*
X15400026D01*
Y8338484D01*
X15397318D01*
Y8333065D01*
X15394608D01*
Y8341194D01*
X15391898D01*
Y8349322D01*
X15389189D01*
Y8357450D01*
X15386481D01*
Y8368287D01*
X15383771D01*
Y8376416D01*
X15381061D01*
Y8384544D01*
X15378352D01*
Y8392672D01*
X15375642D01*
Y8403509D01*
X15372932D01*
Y8411637D01*
X15370222D01*
Y8419765D01*
X15367514D01*
Y8427893D01*
X15364806D01*
Y8438731D01*
X15362096D01*
Y8446859D01*
X15359386D01*
Y8452278D01*
X15335002D01*
Y8444150D01*
X15337711D01*
Y8436022D01*
X15340421D01*
Y8427893D01*
X15343130D01*
Y8419765D01*
X15345839D01*
Y8411637D01*
X15348547D01*
Y8400800D01*
X15351257D01*
Y8392672D01*
X15353967D01*
Y8384544D01*
X15356676D01*
Y8376416D01*
X15359386D01*
Y8368287D01*
X15362096D01*
Y8360159D01*
X15364806D01*
Y8352031D01*
X15367514D01*
Y8343903D01*
X15370222D01*
Y8333065D01*
X15372932D01*
Y8324937D01*
X15375642D01*
Y8316809D01*
X15378352D01*
Y8308681D01*
X15381061D01*
Y8300553D01*
X15383771D01*
Y8295134D01*
X15410864D01*
Y8297844D01*
X15413573D01*
Y8305972D01*
X15416283D01*
Y8314100D01*
X15418993D01*
Y8322228D01*
X15421701D01*
Y8330356D01*
X15424411D01*
Y8338484D01*
X15427119D01*
Y8346612D01*
X15429829D01*
Y8354740D01*
X15432539D01*
Y8362868D01*
X15435248D01*
Y8370997D01*
X15437958D01*
Y8379125D01*
X15440668D01*
Y8387253D01*
X15443378D01*
Y8398090D01*
X15446086D01*
Y8406219D01*
X15448795D01*
Y8414347D01*
X15451505D01*
Y8422475D01*
X15454214D01*
Y8430603D01*
X15456923D01*
Y8438731D01*
X15459633D01*
Y8446859D01*
X15462341D01*
Y8452278D01*
D02*
G37*
G36*
X15253720D02*
X15169730D01*
Y8449569D01*
X15164311D01*
Y8446859D01*
X15158891D01*
Y8444150D01*
X15156183D01*
Y8441441D01*
X15153473D01*
Y8438731D01*
X15150764D01*
Y8433312D01*
X15148055D01*
Y8425184D01*
X15145345D01*
Y8395381D01*
X15148055D01*
Y8389962D01*
X15150764D01*
Y8384544D01*
X15153473D01*
Y8381834D01*
X15156183D01*
Y8379125D01*
X15158891D01*
Y8376416D01*
X15161601D01*
Y8373706D01*
X15156183D01*
Y8370997D01*
X15153473D01*
Y8368287D01*
X15150764D01*
Y8365578D01*
X15148055D01*
Y8362868D01*
X15145345D01*
Y8354740D01*
X15142636D01*
Y8322228D01*
X15145345D01*
Y8314100D01*
X15148055D01*
Y8311391D01*
X15150764D01*
Y8305972D01*
X15153473D01*
Y8303262D01*
X15158891D01*
Y8300553D01*
X15161601D01*
Y8297844D01*
X15169730D01*
Y8295134D01*
X15253720D01*
Y8452278D01*
D02*
G37*
G36*
X15104704D02*
X15018005D01*
Y8449569D01*
X15012585D01*
Y8446859D01*
X15007167D01*
Y8444150D01*
X15004459D01*
Y8441441D01*
X15001749D01*
Y8438731D01*
X14999039D01*
Y8433312D01*
X14996330D01*
Y8425184D01*
X14993620D01*
Y8381834D01*
X14996330D01*
Y8376416D01*
X14999039D01*
Y8370997D01*
X15001749D01*
Y8368287D01*
X15004459D01*
Y8365578D01*
X15007167D01*
Y8362868D01*
X15009877D01*
Y8360159D01*
X15015295D01*
Y8357450D01*
X15020714D01*
Y8354740D01*
X15018005D01*
Y8349322D01*
X15015295D01*
Y8343903D01*
X15012585D01*
Y8338484D01*
X15009877D01*
Y8333065D01*
X15007167D01*
Y8327647D01*
X15004459D01*
Y8322228D01*
X15001749D01*
Y8316809D01*
X14999039D01*
Y8311391D01*
X14996330D01*
Y8308681D01*
X14993620D01*
Y8303262D01*
X14990910D01*
Y8297844D01*
X14988200D01*
Y8295134D01*
X15018005D01*
Y8297844D01*
X15020714D01*
Y8303262D01*
X15023422D01*
Y8308681D01*
X15026134D01*
Y8314100D01*
X15028842D01*
Y8319519D01*
X15031551D01*
Y8324937D01*
X15034261D01*
Y8327647D01*
X15036971D01*
Y8333065D01*
X15039680D01*
Y8338484D01*
X15042389D01*
Y8343903D01*
X15045097D01*
Y8349322D01*
X15047807D01*
Y8354740D01*
X15074902D01*
Y8295134D01*
X15104704D01*
Y8452278D01*
D02*
G37*
G36*
X14795836D02*
X14698299D01*
Y8430603D01*
X14768742D01*
Y8387253D01*
X14766032D01*
Y8384544D01*
X14703717D01*
Y8362868D01*
X14768742D01*
Y8360159D01*
Y8319519D01*
X14695589D01*
Y8295134D01*
X14795836D01*
Y8452278D01*
D02*
G37*
%LPD*%
G36*
X14985492Y9059178D02*
X14990910D01*
Y9053759D01*
X14993620D01*
Y9034794D01*
Y9032084D01*
Y8956222D01*
X14990910D01*
Y8953512D01*
X14988200D01*
Y8950803D01*
X14936723D01*
Y8953512D01*
X14934013D01*
Y8956222D01*
X14931305D01*
Y9053759D01*
X14934013D01*
Y9056469D01*
X14936723D01*
Y9059178D01*
X14939433D01*
Y9061887D01*
X14985492D01*
Y9059178D01*
D02*
G37*
G36*
X15226627Y8387253D02*
X15177858D01*
Y8389962D01*
X15175148D01*
Y8392672D01*
X15172440D01*
Y8411637D01*
Y8414347D01*
Y8422475D01*
X15175148D01*
Y8425184D01*
X15177858D01*
Y8427893D01*
X15183276D01*
Y8430603D01*
X15226627D01*
Y8387253D01*
D02*
G37*
G36*
Y8354740D02*
Y8352031D01*
Y8319519D01*
X15175148D01*
Y8322228D01*
X15172440D01*
Y8324937D01*
X15169730D01*
Y8357450D01*
X15172440D01*
Y8360159D01*
X15175148D01*
Y8362868D01*
X15226627D01*
Y8354740D01*
D02*
G37*
G36*
X15077611Y8389962D02*
Y8387253D01*
Y8379125D01*
X15028842D01*
Y8381834D01*
X15023422D01*
Y8384544D01*
X15020714D01*
Y8419765D01*
X15023422D01*
Y8425184D01*
X15026134D01*
Y8427893D01*
X15077611D01*
Y8389962D01*
D02*
G37*
%LPC*%
G36*
X16526019Y5685327D02*
X16525095D01*
X16523982Y5685142D01*
X16522687Y5684771D01*
X16521021Y5684216D01*
X16519539Y5683475D01*
X16517873Y5682549D01*
X16516206Y5681068D01*
X16516022Y5680883D01*
X16515466Y5680327D01*
X16514909Y5679401D01*
X16513985Y5678290D01*
X16513245Y5676624D01*
X16512688Y5674957D01*
X16512132Y5673106D01*
X16511948Y5670884D01*
Y5669958D01*
X16512132Y5668847D01*
X16512503Y5667366D01*
X16513058Y5665884D01*
X16513799Y5664218D01*
X16514725Y5662551D01*
X16516206Y5660885D01*
X16516393Y5660700D01*
X16516946Y5660329D01*
X16517873Y5659589D01*
X16518983Y5658848D01*
X16520280Y5658107D01*
X16521947Y5657367D01*
X16523798Y5656996D01*
X16525835Y5656811D01*
X16526761D01*
X16527872Y5656996D01*
X16529353Y5657367D01*
X16530835Y5657737D01*
X16532501Y5658478D01*
X16534167Y5659589D01*
X16535834Y5660885D01*
X16536018Y5661070D01*
X16536391Y5661625D01*
X16537131Y5662551D01*
X16537871Y5663847D01*
X16538612Y5665329D01*
X16539352Y5666995D01*
X16539723Y5669032D01*
X16539908Y5671254D01*
Y5672180D01*
X16539723Y5673291D01*
X16539352Y5674587D01*
X16538982Y5676254D01*
X16538242Y5677735D01*
X16537131Y5679401D01*
X16535834Y5681068D01*
X16535649Y5681253D01*
X16535094Y5681809D01*
X16534167Y5682364D01*
X16533057Y5683290D01*
X16531575Y5684031D01*
X16529909Y5684586D01*
X16528056Y5685142D01*
X16526019Y5685327D01*
D02*
G37*
G36*
X16659525Y5651441D02*
X16658229D01*
X16656561Y5651256D01*
X16654710Y5651071D01*
X16652489Y5650701D01*
X16649896Y5650145D01*
X16647304Y5649404D01*
X16644711Y5648479D01*
X16644341Y5648294D01*
X16643600Y5647923D01*
X16642119Y5647183D01*
X16640453Y5646257D01*
X16638416Y5644961D01*
X16636194Y5643479D01*
X16633972Y5641628D01*
X16631750Y5639591D01*
Y5649219D01*
X16609715D01*
Y5561636D01*
X16631750D01*
Y5570894D01*
X16632120Y5570709D01*
X16632861Y5569968D01*
X16634157Y5568857D01*
X16635825Y5567561D01*
X16637675Y5566080D01*
X16639897Y5564598D01*
X16642305Y5563117D01*
X16644711Y5562006D01*
X16645082Y5561821D01*
X16645824Y5561636D01*
X16647119Y5561265D01*
X16648972Y5560710D01*
X16651007Y5560154D01*
X16653413Y5559784D01*
X16656007Y5559599D01*
X16658784Y5559414D01*
X16660451D01*
X16661562Y5559599D01*
X16663043Y5559784D01*
X16664896Y5560154D01*
X16666747Y5560525D01*
X16668784Y5561080D01*
X16671005Y5561821D01*
X16673412Y5562562D01*
X16675819Y5563673D01*
X16678412Y5564969D01*
X16680820Y5566450D01*
X16683411Y5568302D01*
X16685818Y5570339D01*
X16688226Y5572561D01*
X16688411Y5572746D01*
X16688782Y5573116D01*
X16689337Y5573857D01*
X16690077Y5574968D01*
X16691188Y5576264D01*
X16692114Y5577745D01*
X16693225Y5579597D01*
X16694336Y5581634D01*
X16695631Y5583856D01*
X16696742Y5586263D01*
X16697668Y5589040D01*
X16698595Y5591818D01*
X16699521Y5594966D01*
X16700076Y5598114D01*
X16700447Y5601632D01*
X16700632Y5605150D01*
Y5607187D01*
X16700447Y5608483D01*
X16700261Y5610334D01*
X16700076Y5612371D01*
X16699706Y5614593D01*
X16699150Y5617000D01*
X16697668Y5622185D01*
X16696742Y5624963D01*
X16695631Y5627740D01*
X16694336Y5630518D01*
X16692670Y5633295D01*
X16690817Y5635887D01*
X16688782Y5638480D01*
X16688596Y5638665D01*
X16688226Y5639035D01*
X16687485Y5639591D01*
X16686559Y5640517D01*
X16685448Y5641442D01*
X16683968Y5642553D01*
X16682486Y5643850D01*
X16680634Y5644961D01*
X16678596Y5646257D01*
X16676375Y5647368D01*
X16671376Y5649404D01*
X16668597Y5650330D01*
X16665636Y5650886D01*
X16662672Y5651256D01*
X16659525Y5651441D01*
D02*
G37*
G36*
X15449464Y5680142D02*
X15426318D01*
X15396507Y5595892D01*
X15366141Y5680142D01*
X15343179D01*
X15385953Y5561636D01*
X15407619D01*
X15449464Y5680142D01*
D02*
G37*
G36*
X16392516Y5683105D02*
X16386775D01*
X16385480Y5682920D01*
X16383998Y5682734D01*
X16382330Y5682549D01*
X16380295Y5682364D01*
X16376036Y5681623D01*
X16371407Y5680512D01*
X16366222Y5678846D01*
X16361223Y5676809D01*
X16361037D01*
X16360667Y5676439D01*
X16359926Y5676254D01*
X16359001Y5675698D01*
X16357704Y5674957D01*
X16356409Y5674217D01*
X16353075Y5672365D01*
X16349371Y5669773D01*
X16345483Y5666810D01*
X16341409Y5663292D01*
X16337521Y5659218D01*
X16353445Y5644220D01*
X16353632Y5644405D01*
X16354185Y5644961D01*
X16355112Y5645886D01*
X16356223Y5646812D01*
X16357704Y5648108D01*
X16359557Y5649590D01*
X16361594Y5651071D01*
X16364000Y5652737D01*
X16366592Y5654404D01*
X16369370Y5655885D01*
X16372333Y5657367D01*
X16375481Y5658663D01*
X16378813Y5659774D01*
X16382330Y5660514D01*
X16386035Y5661070D01*
X16389738Y5661255D01*
X16391405D01*
X16392516Y5661070D01*
X16393997Y5660885D01*
X16395663Y5660700D01*
X16397701Y5660329D01*
X16399738Y5659774D01*
X16404181Y5658478D01*
X16406589Y5657552D01*
X16408995Y5656256D01*
X16411403Y5654959D01*
X16413811Y5653478D01*
X16416217Y5651626D01*
X16418439Y5649590D01*
X16418623Y5649404D01*
X16418994Y5649034D01*
X16419550Y5648479D01*
X16420291Y5647553D01*
X16421031Y5646442D01*
X16422142Y5644961D01*
X16423068Y5643479D01*
X16424179Y5641628D01*
X16425290Y5639591D01*
X16426216Y5637554D01*
X16428067Y5632554D01*
X16428809Y5629962D01*
X16429364Y5627185D01*
X16429733Y5624222D01*
X16429919Y5621074D01*
Y5620889D01*
Y5620519D01*
Y5619963D01*
Y5619037D01*
X16429733Y5618111D01*
Y5616815D01*
X16429364Y5614038D01*
X16428622Y5610705D01*
X16427882Y5607187D01*
X16426585Y5603483D01*
X16424921Y5599965D01*
Y5599780D01*
X16424734Y5599595D01*
X16423994Y5598484D01*
X16422697Y5596817D01*
X16421216Y5594781D01*
X16418994Y5592559D01*
X16416586Y5590151D01*
X16413625Y5587744D01*
X16410292Y5585707D01*
X16410106D01*
X16409921Y5585522D01*
X16409366Y5585152D01*
X16408624Y5584967D01*
X16406773Y5584041D01*
X16404181Y5583115D01*
X16401033Y5582189D01*
X16397514Y5581263D01*
X16393626Y5580708D01*
X16389368Y5580523D01*
X16387701D01*
X16385851Y5580708D01*
X16383443Y5580893D01*
X16380666Y5581449D01*
X16377518Y5582004D01*
X16374368Y5582930D01*
X16371407Y5584041D01*
X16371222D01*
X16371036Y5584226D01*
X16369925Y5584782D01*
X16368259Y5585707D01*
X16366037Y5587189D01*
X16363445Y5588855D01*
X16360297Y5591262D01*
X16356964Y5594040D01*
X16353445Y5597373D01*
X16338077Y5581449D01*
X16338261Y5581263D01*
X16338632Y5580893D01*
X16339372Y5580152D01*
X16340298Y5579412D01*
X16341409Y5578301D01*
X16342891Y5577005D01*
X16346039Y5574412D01*
X16349927Y5571450D01*
X16354185Y5568487D01*
X16358630Y5565709D01*
X16360852Y5564598D01*
X16363074Y5563487D01*
X16363258D01*
X16363631Y5563302D01*
X16364185Y5563117D01*
X16365111Y5562747D01*
X16366222Y5562376D01*
X16367519Y5562006D01*
X16369000Y5561451D01*
X16370851Y5561080D01*
X16374741Y5560154D01*
X16379184Y5559414D01*
X16384367Y5558858D01*
X16389738Y5558673D01*
X16391034D01*
X16392329Y5558858D01*
X16394366Y5559043D01*
X16396590Y5559229D01*
X16399367Y5559599D01*
X16402515Y5560154D01*
X16405663Y5560895D01*
X16409181Y5561821D01*
X16412885Y5562932D01*
X16416586Y5564413D01*
X16420476Y5566080D01*
X16424179Y5567931D01*
X16427882Y5570339D01*
X16431586Y5572931D01*
X16434920Y5576079D01*
X16435104Y5576264D01*
X16435658Y5576819D01*
X16436584Y5577930D01*
X16437695Y5579227D01*
X16438992Y5581078D01*
X16440474Y5583115D01*
X16442140Y5585522D01*
X16443620Y5588300D01*
X16445288Y5591448D01*
X16446954Y5594781D01*
X16448436Y5598484D01*
X16449731Y5602558D01*
X16450842Y5606816D01*
X16451768Y5611260D01*
X16452324Y5616075D01*
X16452509Y5621074D01*
Y5622741D01*
X16452324Y5624037D01*
Y5625518D01*
X16452139Y5627370D01*
X16451768Y5629407D01*
X16451584Y5631629D01*
X16450473Y5636443D01*
X16449176Y5641628D01*
X16447141Y5647183D01*
X16446030Y5649775D01*
X16444547Y5652367D01*
X16444362Y5652552D01*
X16444177Y5652923D01*
X16443620Y5653663D01*
X16443066Y5654589D01*
X16442325Y5655885D01*
X16441214Y5657181D01*
X16438622Y5660329D01*
X16435474Y5663847D01*
X16431586Y5667551D01*
X16426956Y5671254D01*
X16421587Y5674587D01*
X16421400Y5674772D01*
X16420847Y5674957D01*
X16420105Y5675328D01*
X16418994Y5675883D01*
X16417513Y5676624D01*
X16415846Y5677365D01*
X16413995Y5678105D01*
X16411958Y5678846D01*
X16409550Y5679587D01*
X16407144Y5680327D01*
X16401588Y5681809D01*
X16395663Y5682734D01*
X16392516Y5683105D01*
D02*
G37*
G36*
X15787762Y5651441D02*
X15785727D01*
X15784245Y5651256D01*
X15782579Y5651071D01*
X15780542Y5650701D01*
X15778320Y5650330D01*
X15775728Y5649775D01*
X15773135Y5649034D01*
X15770358Y5648108D01*
X15767580Y5647183D01*
X15764803Y5645886D01*
X15762025Y5644220D01*
X15759248Y5642553D01*
X15756656Y5640517D01*
X15754063Y5638109D01*
X15753877Y5637924D01*
X15753508Y5637554D01*
X15752953Y5636813D01*
X15752026Y5635702D01*
X15751102Y5634406D01*
X15749989Y5632740D01*
X15748692Y5630888D01*
X15747581Y5628851D01*
X15746286Y5626444D01*
X15745175Y5623852D01*
X15744064Y5620889D01*
X15743138Y5617926D01*
X15742213Y5614593D01*
X15741656Y5611075D01*
X15741287Y5607187D01*
X15741103Y5603298D01*
X15741287Y5599225D01*
X15811650D01*
Y5599039D01*
Y5598854D01*
X15811279Y5597743D01*
X15810909Y5595892D01*
X15810168Y5593855D01*
X15809058Y5591448D01*
X15807576Y5588855D01*
X15805910Y5586448D01*
X15803688Y5584226D01*
X15803317Y5584041D01*
X15802393Y5583300D01*
X15801096Y5582560D01*
X15799059Y5581449D01*
X15796651Y5580523D01*
X15793689Y5579597D01*
X15790541Y5578856D01*
X15786838Y5578671D01*
X15785541D01*
X15784801Y5578856D01*
X15783690D01*
X15782394Y5579041D01*
X15779616Y5579782D01*
X15776283Y5580708D01*
X15772765Y5582189D01*
X15769061Y5584411D01*
X15767395Y5585707D01*
X15765729Y5587189D01*
X15747212Y5578486D01*
Y5578301D01*
X15747581Y5578116D01*
X15747952Y5577560D01*
X15748508Y5576819D01*
X15749989Y5575153D01*
X15751842Y5572931D01*
X15754434Y5570709D01*
X15757211Y5568302D01*
X15760359Y5566080D01*
X15763876Y5564043D01*
X15764062D01*
X15764247Y5563858D01*
X15764803Y5563673D01*
X15765544Y5563302D01*
X15766469Y5562932D01*
X15767580Y5562562D01*
X15770358Y5561821D01*
X15773691Y5560895D01*
X15777579Y5560154D01*
X15781837Y5559599D01*
X15786652Y5559414D01*
X15788689D01*
X15789986Y5559599D01*
X15791837Y5559784D01*
X15793874Y5560154D01*
X15796095Y5560525D01*
X15798503Y5561080D01*
X15801096Y5561636D01*
X15803873Y5562562D01*
X15806650Y5563673D01*
X15809428Y5564969D01*
X15812206Y5566450D01*
X15814983Y5568117D01*
X15817575Y5570153D01*
X15820168Y5572375D01*
X15820354Y5572561D01*
X15820723Y5572931D01*
X15821278Y5573672D01*
X15822205Y5574783D01*
X15823129Y5575894D01*
X15824242Y5577560D01*
X15825352Y5579227D01*
X15826463Y5581263D01*
X15827759Y5583485D01*
X15828870Y5586078D01*
X15829980Y5588670D01*
X15830907Y5591448D01*
X15831833Y5594595D01*
X15832388Y5597743D01*
X15832759Y5601261D01*
X15832944Y5604779D01*
Y5606816D01*
X15832759Y5608112D01*
X15832574Y5609779D01*
X15832204Y5611816D01*
X15831833Y5614038D01*
X15831277Y5616445D01*
X15830722Y5619037D01*
X15829796Y5621815D01*
X15828870Y5624592D01*
X15827574Y5627370D01*
X15826093Y5630147D01*
X15824426Y5632925D01*
X15822389Y5635517D01*
X15820168Y5638109D01*
X15819981Y5638295D01*
X15819612Y5638665D01*
X15818871Y5639406D01*
X15817760Y5640146D01*
X15816649Y5641257D01*
X15814983Y5642368D01*
X15813316Y5643479D01*
X15811279Y5644775D01*
X15809058Y5646072D01*
X15806465Y5647183D01*
X15803873Y5648294D01*
X15801096Y5649404D01*
X15797948Y5650145D01*
X15794800Y5650886D01*
X15791283Y5651256D01*
X15787762Y5651441D01*
D02*
G37*
G36*
X16829321Y5680142D02*
X16806548D01*
X16760995Y5561636D01*
X16784512D01*
X16793770Y5586078D01*
X16842099D01*
X16851543Y5561636D01*
X16875058D01*
X16829321Y5680142D01*
D02*
G37*
G36*
X16743221Y5681623D02*
X16721185D01*
Y5649219D01*
X16708224D01*
Y5630332D01*
X16721185D01*
Y5561636D01*
X16743221D01*
Y5630332D01*
X16754515D01*
Y5649219D01*
X16743221D01*
Y5681623D01*
D02*
G37*
G36*
X16554721Y5651441D02*
X16553979D01*
X16553055Y5651256D01*
X16551944Y5651071D01*
X16550647Y5650886D01*
X16549165Y5650515D01*
X16547501Y5649775D01*
X16545833Y5649034D01*
X16552684Y5630147D01*
X16552869Y5630332D01*
X16553239Y5630518D01*
X16553979Y5630888D01*
X16554906Y5631258D01*
X16556943Y5631814D01*
X16557869Y5632184D01*
X16559721D01*
X16560831Y5631814D01*
X16561942Y5631443D01*
X16563239Y5630703D01*
X16564720Y5629592D01*
X16566200Y5627925D01*
X16567497Y5625888D01*
X16567683Y5625518D01*
X16568053Y5624592D01*
X16568237Y5623852D01*
X16568608Y5622926D01*
X16568794Y5621815D01*
X16569164Y5620519D01*
X16569534Y5618852D01*
X16569719Y5617186D01*
X16570090Y5615149D01*
X16570274Y5612927D01*
X16570461Y5610334D01*
X16570645Y5607557D01*
X16570830Y5604594D01*
Y5601261D01*
X16570645Y5597003D01*
Y5561636D01*
X16592680D01*
Y5649219D01*
X16573422D01*
Y5638109D01*
X16573238Y5638480D01*
X16572867Y5639220D01*
X16572311Y5640331D01*
X16571387Y5641813D01*
X16570274Y5643294D01*
X16568794Y5644961D01*
X16567313Y5646627D01*
X16565646Y5647923D01*
X16565462Y5648108D01*
X16564720Y5648479D01*
X16563794Y5649034D01*
X16562312Y5649775D01*
X16560831Y5650330D01*
X16558980Y5650886D01*
X16556943Y5651256D01*
X16554721Y5651441D01*
D02*
G37*
G36*
X16537131Y5649219D02*
X16515096D01*
Y5561636D01*
X16537131D01*
Y5649219D01*
D02*
G37*
G36*
X16166798Y5651441D02*
X16165501D01*
X16164577Y5651256D01*
X16163464D01*
X16162169Y5650886D01*
X16159206Y5650330D01*
X16155688Y5649219D01*
X16151985Y5647553D01*
X16150133Y5646442D01*
X16148282Y5645331D01*
X16146429Y5643850D01*
X16144763Y5642183D01*
X16144392Y5641813D01*
X16143468Y5640702D01*
X16142355Y5639035D01*
X16140875Y5636443D01*
X16139394Y5633295D01*
X16138283Y5629407D01*
X16137357Y5624777D01*
X16136987Y5619408D01*
Y5561636D01*
X16159021D01*
Y5599780D01*
Y5599965D01*
Y5600521D01*
Y5601261D01*
Y5602372D01*
Y5603668D01*
Y5604965D01*
X16159206Y5608298D01*
X16159392Y5611816D01*
X16159576Y5615149D01*
X16159947Y5618111D01*
X16160316Y5619408D01*
X16160503Y5620519D01*
Y5620704D01*
X16160873Y5621444D01*
X16161243Y5622370D01*
X16161613Y5623481D01*
X16163280Y5626074D01*
X16164206Y5627370D01*
X16165501Y5628481D01*
X16165688Y5628666D01*
X16166058Y5628851D01*
X16166798Y5629407D01*
X16167725Y5629962D01*
X16169020Y5630332D01*
X16170502Y5630888D01*
X16172168Y5631073D01*
X16174020Y5631258D01*
X16175131D01*
X16176242Y5631073D01*
X16177908Y5630703D01*
X16179575Y5630147D01*
X16181425Y5629221D01*
X16183463Y5628110D01*
X16185315Y5626629D01*
X16185500Y5626444D01*
X16186057Y5625888D01*
X16186797Y5624777D01*
X16187907Y5623481D01*
X16188834Y5621630D01*
X16189944Y5619593D01*
X16191055Y5617186D01*
X16191795Y5614408D01*
Y5614223D01*
X16191982Y5613482D01*
X16192166Y5612371D01*
Y5610705D01*
X16192351Y5608298D01*
X16192535Y5606816D01*
Y5605150D01*
X16192722Y5603298D01*
Y5601261D01*
Y5599039D01*
Y5596632D01*
Y5561636D01*
X16214755D01*
Y5649219D01*
X16192722D01*
Y5640146D01*
X16192351Y5640517D01*
X16191425Y5641257D01*
X16190129Y5642183D01*
X16188278Y5643664D01*
X16186241Y5644961D01*
X16184019Y5646442D01*
X16181612Y5647738D01*
X16179390Y5648849D01*
X16179019Y5649034D01*
X16178279Y5649219D01*
X16177168Y5649590D01*
X16175500Y5650145D01*
X16173650Y5650701D01*
X16171426Y5651071D01*
X16169205Y5651256D01*
X16166798Y5651441D01*
D02*
G37*
G36*
X16113100Y5681623D02*
X16091064D01*
Y5649219D01*
X16078104D01*
Y5630332D01*
X16091064D01*
Y5561636D01*
X16113100D01*
Y5630332D01*
X16124396D01*
Y5649219D01*
X16113100D01*
Y5681623D01*
D02*
G37*
G36*
X16033479Y5651441D02*
X16032738D01*
X16031812Y5651256D01*
X16030701Y5651071D01*
X16029405Y5650886D01*
X16027924Y5650515D01*
X16026257Y5649775D01*
X16024591Y5649034D01*
X16031442Y5630147D01*
X16031627Y5630332D01*
X16031998Y5630518D01*
X16032738Y5630888D01*
X16033664Y5631258D01*
X16035701Y5631814D01*
X16036627Y5632184D01*
X16038478D01*
X16039589Y5631814D01*
X16040700Y5631443D01*
X16041995Y5630703D01*
X16043478Y5629592D01*
X16044958Y5627925D01*
X16046255Y5625888D01*
X16046440Y5625518D01*
X16046811Y5624592D01*
X16046996Y5623852D01*
X16047366Y5622926D01*
X16047551Y5621815D01*
X16047922Y5620519D01*
X16048293Y5618852D01*
X16048477Y5617186D01*
X16048848Y5615149D01*
X16049033Y5612927D01*
X16049219Y5610334D01*
X16049403Y5607557D01*
X16049588Y5604594D01*
Y5601261D01*
X16049403Y5597003D01*
Y5561636D01*
X16071439D01*
Y5649219D01*
X16052180D01*
Y5638109D01*
X16051994Y5638480D01*
X16051625Y5639220D01*
X16051070Y5640331D01*
X16050143Y5641813D01*
X16049033Y5643294D01*
X16047551Y5644961D01*
X16046069Y5646627D01*
X16044405Y5647923D01*
X16044218Y5648108D01*
X16043478Y5648479D01*
X16042552Y5649034D01*
X16041071Y5649775D01*
X16039589Y5650330D01*
X16037738Y5650886D01*
X16035701Y5651256D01*
X16033479Y5651441D01*
D02*
G37*
G36*
X15910342Y5683105D02*
X15888309D01*
Y5561636D01*
X15910342D01*
Y5683105D01*
D02*
G37*
G36*
X15870718D02*
X15848683D01*
Y5561636D01*
X15870718D01*
Y5683105D01*
D02*
G37*
G36*
X15690366Y5651441D02*
X15689626D01*
X15688699Y5651256D01*
X15687589Y5651071D01*
X15686292Y5650886D01*
X15684811Y5650515D01*
X15683145Y5649775D01*
X15681477Y5649034D01*
X15688329Y5630147D01*
X15688515Y5630332D01*
X15688885Y5630518D01*
X15689626Y5630888D01*
X15690552Y5631258D01*
X15692587Y5631814D01*
X15693513Y5632184D01*
X15695366D01*
X15696477Y5631814D01*
X15697588Y5631443D01*
X15698885Y5630703D01*
X15700365Y5629592D01*
X15701846Y5627925D01*
X15703143Y5625888D01*
X15703328Y5625518D01*
X15703699Y5624592D01*
X15703883Y5623852D01*
X15704254Y5622926D01*
X15704439Y5621815D01*
X15704810Y5620519D01*
X15705179Y5618852D01*
X15705365Y5617186D01*
X15705734Y5615149D01*
X15705920Y5612927D01*
X15706105Y5610334D01*
X15706290Y5607557D01*
X15706476Y5604594D01*
Y5601261D01*
X15706290Y5597003D01*
Y5561636D01*
X15728325D01*
Y5649219D01*
X15709068D01*
Y5638109D01*
X15708884Y5638480D01*
X15708511Y5639220D01*
X15707957Y5640331D01*
X15707031Y5641813D01*
X15705920Y5643294D01*
X15704439Y5644961D01*
X15702957Y5646627D01*
X15701291Y5647923D01*
X15701106Y5648108D01*
X15700365Y5648479D01*
X15699438Y5649034D01*
X15697958Y5649775D01*
X15696477Y5650330D01*
X15694624Y5650886D01*
X15692587Y5651256D01*
X15690366Y5651441D01*
D02*
G37*
G36*
X15620374Y5680142D02*
X15593340D01*
X15591673Y5679957D01*
X15589821D01*
X15587784Y5679772D01*
X15585562D01*
X15581117Y5679216D01*
X15576489Y5678661D01*
X15572044Y5677735D01*
X15570193Y5677179D01*
X15568527Y5676624D01*
X15568343D01*
X15568156Y5676439D01*
X15567232Y5675883D01*
X15565564Y5675143D01*
X15563713Y5673846D01*
X15561676Y5672180D01*
X15559454Y5670143D01*
X15557233Y5667736D01*
X15555196Y5664958D01*
X15555009Y5664588D01*
X15554454Y5663477D01*
X15553528Y5661811D01*
X15552603Y5659589D01*
X15551677Y5656626D01*
X15550751Y5653478D01*
X15550195Y5649775D01*
X15550011Y5645701D01*
Y5645516D01*
Y5645146D01*
Y5644590D01*
Y5643850D01*
X15550381Y5641628D01*
X15550751Y5638850D01*
X15551492Y5635702D01*
X15552417Y5632554D01*
X15553899Y5629221D01*
X15555750Y5626074D01*
X15555936Y5625703D01*
X15556860Y5624777D01*
X15558157Y5623481D01*
X15560008Y5621630D01*
X15562231Y5619778D01*
X15565195Y5617741D01*
X15568712Y5615889D01*
X15572601Y5614223D01*
X15544455Y5561636D01*
X15569083D01*
X15595930Y5611816D01*
X15597968D01*
Y5561636D01*
X15620374D01*
Y5680142D01*
D02*
G37*
G36*
X15525938D02*
X15461316D01*
Y5658292D01*
X15503534D01*
Y5636813D01*
X15461316D01*
Y5614964D01*
X15503534D01*
Y5583856D01*
X15461316D01*
Y5561636D01*
X15525938D01*
Y5680142D01*
D02*
G37*
G36*
X15172827D02*
X15138942D01*
Y5561636D01*
X15161346D01*
Y5659033D01*
X15185789D01*
X15172827Y5680142D01*
D02*
G37*
G36*
X16279195Y5651441D02*
X16277158D01*
X16276047Y5651256D01*
X16274750Y5651071D01*
X16271602Y5650701D01*
X16268085Y5649960D01*
X16264195Y5648849D01*
X16260123Y5647183D01*
X16256049Y5645146D01*
X16255862D01*
X16255493Y5644961D01*
X16254938Y5644590D01*
X16254198Y5644035D01*
X16252345Y5642739D01*
X16249753Y5640702D01*
X16247160Y5638295D01*
X16244199Y5635517D01*
X16241420Y5632184D01*
X16239014Y5628296D01*
Y5628110D01*
X16238828Y5627740D01*
X16238457Y5627185D01*
X16238087Y5626444D01*
X16237532Y5625518D01*
X16236977Y5624222D01*
X16235864Y5621444D01*
X16234753Y5618111D01*
X16233643Y5614223D01*
X16232903Y5609964D01*
X16232716Y5605335D01*
Y5603298D01*
X16232903Y5602187D01*
X16233089Y5600891D01*
X16233458Y5597928D01*
X16234200Y5594410D01*
X16235310Y5590337D01*
X16236977Y5586263D01*
X16239014Y5582189D01*
Y5582004D01*
X16239198Y5581634D01*
X16239568Y5581078D01*
X16240125Y5580338D01*
X16241420Y5578486D01*
X16243457Y5576079D01*
X16245863Y5573301D01*
X16248642Y5570524D01*
X16251974Y5567746D01*
X16255862Y5565339D01*
X16256049D01*
X16256419Y5565154D01*
X16256973Y5564784D01*
X16257715Y5564413D01*
X16258641Y5564043D01*
X16259937Y5563487D01*
X16262714Y5562376D01*
X16266232Y5561265D01*
X16270120Y5560340D01*
X16274565Y5559599D01*
X16279195Y5559414D01*
X16279935D01*
X16281046Y5559599D01*
X16282343D01*
X16284007Y5559784D01*
X16285860Y5560154D01*
X16287897Y5560525D01*
X16290305Y5561080D01*
X16292711Y5561821D01*
X16295303Y5562747D01*
X16298080Y5563673D01*
X16300673Y5564969D01*
X16303452Y5566635D01*
X16306229Y5568302D01*
X16308821Y5570339D01*
X16311414Y5572746D01*
X16311598Y5572931D01*
X16311967Y5573301D01*
X16312709Y5574042D01*
X16313451Y5575153D01*
X16314375Y5576449D01*
X16315488Y5577930D01*
X16316783Y5579782D01*
X16317894Y5581819D01*
X16319189Y5584041D01*
X16320486Y5586633D01*
X16321597Y5589226D01*
X16322523Y5592188D01*
X16323264Y5595151D01*
X16324004Y5598484D01*
X16324374Y5601817D01*
X16324561Y5605335D01*
Y5606261D01*
X16324374Y5607372D01*
Y5608668D01*
X16324004Y5610520D01*
X16323819Y5612556D01*
X16323264Y5614778D01*
X16322708Y5617186D01*
X16321967Y5619778D01*
X16320856Y5622555D01*
X16319745Y5625518D01*
X16318263Y5628296D01*
X16316599Y5631258D01*
X16314561Y5634036D01*
X16312154Y5636813D01*
X16309561Y5639406D01*
X16309377Y5639591D01*
X16309006Y5639961D01*
X16308266Y5640517D01*
X16307153Y5641257D01*
X16306042Y5642183D01*
X16304562Y5643294D01*
X16302710Y5644220D01*
X16300858Y5645516D01*
X16298636Y5646627D01*
X16296414Y5647553D01*
X16291229Y5649590D01*
X16288452Y5650330D01*
X16285490Y5650886D01*
X16282343Y5651256D01*
X16279195Y5651441D01*
D02*
G37*
G36*
X15972374D02*
X15970337D01*
X15969226Y5651256D01*
X15967931Y5651071D01*
X15964783Y5650701D01*
X15961264Y5649960D01*
X15957376Y5648849D01*
X15953302Y5647183D01*
X15949228Y5645146D01*
X15949043D01*
X15948672Y5644961D01*
X15948117Y5644590D01*
X15947377Y5644035D01*
X15945525Y5642739D01*
X15942934Y5640702D01*
X15940340Y5638295D01*
X15937378Y5635517D01*
X15934599Y5632184D01*
X15932193Y5628296D01*
Y5628110D01*
X15932008Y5627740D01*
X15931638Y5627185D01*
X15931267Y5626444D01*
X15930711Y5625518D01*
X15930156Y5624222D01*
X15929045Y5621444D01*
X15927934Y5618111D01*
X15926823Y5614223D01*
X15926082Y5609964D01*
X15925897Y5605335D01*
Y5603298D01*
X15926082Y5602187D01*
X15926268Y5600891D01*
X15926637Y5597928D01*
X15927379Y5594410D01*
X15928490Y5590337D01*
X15930156Y5586263D01*
X15932193Y5582189D01*
Y5582004D01*
X15932378Y5581634D01*
X15932748Y5581078D01*
X15933304Y5580338D01*
X15934599Y5578486D01*
X15936636Y5576079D01*
X15939044Y5573301D01*
X15941821Y5570524D01*
X15945155Y5567746D01*
X15949043Y5565339D01*
X15949228D01*
X15949599Y5565154D01*
X15950154Y5564784D01*
X15950896Y5564413D01*
X15951820Y5564043D01*
X15953117Y5563487D01*
X15955894Y5562376D01*
X15959412Y5561265D01*
X15963301Y5560340D01*
X15967744Y5559599D01*
X15972374Y5559414D01*
X15973116D01*
X15974226Y5559599D01*
X15975522D01*
X15977188Y5559784D01*
X15979041Y5560154D01*
X15981078Y5560525D01*
X15983484Y5561080D01*
X15985892Y5561821D01*
X15988483Y5562747D01*
X15991261Y5563673D01*
X15993854Y5564969D01*
X15996631Y5566635D01*
X15999408Y5568302D01*
X16002000Y5570339D01*
X16004593Y5572746D01*
X16004778Y5572931D01*
X16005148Y5573301D01*
X16005888Y5574042D01*
X16006630Y5575153D01*
X16007555Y5576449D01*
X16008665Y5577930D01*
X16009962Y5579782D01*
X16011073Y5581819D01*
X16012370Y5584041D01*
X16013666Y5586633D01*
X16014777Y5589226D01*
X16015703Y5592188D01*
X16016443Y5595151D01*
X16017184Y5598484D01*
X16017554Y5601817D01*
X16017740Y5605335D01*
Y5606261D01*
X16017554Y5607372D01*
Y5608668D01*
X16017184Y5610520D01*
X16016998Y5612556D01*
X16016443Y5614778D01*
X16015887Y5617186D01*
X16015147Y5619778D01*
X16014037Y5622555D01*
X16012926Y5625518D01*
X16011444Y5628296D01*
X16009776Y5631258D01*
X16007741Y5634036D01*
X16005333Y5636813D01*
X16002740Y5639406D01*
X16002556Y5639591D01*
X16002187Y5639961D01*
X16001445Y5640517D01*
X16000334Y5641257D01*
X15999223Y5642183D01*
X15997742Y5643294D01*
X15995889Y5644220D01*
X15994038Y5645516D01*
X15991817Y5646627D01*
X15989594Y5647553D01*
X15984410Y5649590D01*
X15981631Y5650330D01*
X15978670Y5650886D01*
X15975522Y5651256D01*
X15972374Y5651441D01*
D02*
G37*
G36*
X15246523Y5683105D02*
X15245227D01*
X15244301Y5682920D01*
X15243190D01*
X15241895Y5682734D01*
X15238931Y5682364D01*
X15235413Y5681438D01*
X15231709Y5680327D01*
X15227821Y5678846D01*
X15224303Y5676624D01*
X15224118D01*
X15223933Y5676254D01*
X15222823Y5675513D01*
X15220970Y5674032D01*
X15218933Y5671810D01*
X15216525Y5669032D01*
X15214119Y5665699D01*
X15211713Y5661811D01*
X15209676Y5657181D01*
Y5656996D01*
X15209489Y5656626D01*
X15209120Y5655885D01*
X15208936Y5654774D01*
X15208379Y5653478D01*
X15208009Y5651812D01*
X15207639Y5649960D01*
X15207083Y5647738D01*
X15206528Y5645146D01*
X15206157Y5642553D01*
X15205602Y5639591D01*
X15205231Y5636258D01*
X15205046Y5632740D01*
X15204675Y5629036D01*
X15204491Y5624963D01*
Y5616815D01*
X15204675Y5614778D01*
Y5612556D01*
X15204861Y5609964D01*
X15205231Y5607372D01*
X15205788Y5601447D01*
X15206712Y5595336D01*
X15208009Y5589411D01*
X15208936Y5586633D01*
X15209860Y5584041D01*
Y5583856D01*
X15210046Y5583485D01*
X15210416Y5582745D01*
X15210786Y5581819D01*
X15211342Y5580893D01*
X15211897Y5579597D01*
X15213564Y5576634D01*
X15215601Y5573486D01*
X15217822Y5570339D01*
X15220599Y5567376D01*
X15223747Y5564784D01*
X15223933D01*
X15224118Y5564598D01*
X15224673Y5564228D01*
X15225229Y5563858D01*
X15227266Y5562932D01*
X15229672Y5561821D01*
X15233006Y5560525D01*
X15236710Y5559599D01*
X15240968Y5558858D01*
X15245782Y5558673D01*
X15247079D01*
X15248006Y5558858D01*
X15249117D01*
X15250597Y5559043D01*
X15253745Y5559414D01*
X15257263Y5560154D01*
X15260966Y5561265D01*
X15264854Y5562747D01*
X15268373Y5564784D01*
X15268558D01*
X15268742Y5565154D01*
X15269855Y5565895D01*
X15271521Y5567376D01*
X15273557Y5569413D01*
X15275780Y5572005D01*
X15278188Y5575338D01*
X15280594Y5579041D01*
X15282631Y5583485D01*
Y5583671D01*
X15282816Y5584041D01*
X15283002Y5584782D01*
X15283371Y5585893D01*
X15283742Y5587189D01*
X15284297Y5588855D01*
X15284666Y5590707D01*
X15285039Y5592744D01*
X15285593Y5595151D01*
X15285963Y5597928D01*
X15286519Y5600891D01*
X15286890Y5604039D01*
X15287074Y5607557D01*
X15287445Y5611260D01*
X15287630Y5615334D01*
Y5622741D01*
X15287445Y5624963D01*
X15287260Y5627555D01*
X15287074Y5630703D01*
X15286703Y5634036D01*
X15286334Y5637739D01*
X15285223Y5645516D01*
X15283371Y5653293D01*
X15282260Y5657181D01*
X15280965Y5660700D01*
X15279298Y5664033D01*
X15277631Y5666995D01*
X15277446Y5667180D01*
X15277077Y5667736D01*
X15276520Y5668477D01*
X15275594Y5669588D01*
X15274483Y5670699D01*
X15273003Y5672180D01*
X15271521Y5673476D01*
X15269484Y5675143D01*
X15267447Y5676624D01*
X15265225Y5678105D01*
X15262633Y5679401D01*
X15259856Y5680512D01*
X15256892Y5681623D01*
X15253560Y5682364D01*
X15250227Y5682920D01*
X15246523Y5683105D01*
D02*
G37*
%LPD*%
G36*
X16656747Y5631073D02*
X16658598Y5630888D01*
X16661006Y5630332D01*
X16663783Y5629592D01*
X16666560Y5628296D01*
X16669339Y5626444D01*
X16672116Y5624037D01*
X16672487Y5623666D01*
X16673227Y5622741D01*
X16674153Y5621074D01*
X16675449Y5619037D01*
X16676746Y5616260D01*
X16677670Y5613112D01*
X16678412Y5609594D01*
X16678783Y5605520D01*
Y5605335D01*
Y5604965D01*
Y5604409D01*
X16678596Y5603668D01*
X16678412Y5601632D01*
X16677856Y5599039D01*
X16677116Y5596077D01*
X16675819Y5592929D01*
X16674153Y5589781D01*
X16671931Y5586818D01*
X16671561Y5586448D01*
X16670634Y5585707D01*
X16669154Y5584596D01*
X16667302Y5583300D01*
X16664709Y5581819D01*
X16661932Y5580708D01*
X16658598Y5579967D01*
X16655081Y5579597D01*
X16653970D01*
X16653229Y5579782D01*
X16651378Y5579967D01*
X16648972Y5580523D01*
X16646193Y5581263D01*
X16643230Y5582560D01*
X16640453Y5584226D01*
X16637675Y5586633D01*
X16637305Y5587004D01*
X16636565Y5587929D01*
X16635452Y5589596D01*
X16634157Y5591633D01*
X16633046Y5594410D01*
X16631935Y5597743D01*
X16631195Y5601447D01*
X16630824Y5605520D01*
Y5605705D01*
Y5606076D01*
Y5606631D01*
X16631009Y5607372D01*
X16631195Y5609594D01*
X16631750Y5612186D01*
X16632491Y5615149D01*
X16633788Y5618111D01*
X16635452Y5621259D01*
X16637675Y5624037D01*
X16638046Y5624407D01*
X16638972Y5625148D01*
X16640453Y5626259D01*
X16642490Y5627740D01*
X16644897Y5629036D01*
X16647861Y5630147D01*
X16651378Y5630888D01*
X16655081Y5631258D01*
X16656007D01*
X16656747Y5631073D01*
D02*
G37*
G36*
X15789986Y5632554D02*
X15792207Y5632184D01*
X15794615Y5631443D01*
X15797392Y5630518D01*
X15800169Y5629221D01*
X15802762Y5627555D01*
X15802946Y5627370D01*
X15803503Y5626999D01*
X15804243Y5626074D01*
X15805354Y5624963D01*
X15806650Y5623481D01*
X15807947Y5621630D01*
X15809242Y5619222D01*
X15810724Y5616445D01*
X15763136D01*
X15763322Y5616815D01*
X15763507Y5617741D01*
X15764247Y5619037D01*
X15764989Y5620704D01*
X15766284Y5622555D01*
X15767766Y5624407D01*
X15769617Y5626259D01*
X15771838Y5628110D01*
X15772211Y5628296D01*
X15772951Y5628851D01*
X15774246Y5629592D01*
X15776099Y5630518D01*
X15778136Y5631258D01*
X15780727Y5631999D01*
X15783505Y5632554D01*
X15786652Y5632740D01*
X15788133D01*
X15789986Y5632554D01*
D02*
G37*
G36*
X16833766Y5607927D02*
X16801918D01*
X16817842Y5648664D01*
X16833766Y5607927D01*
D02*
G37*
G36*
X15597968Y5633851D02*
X15589265D01*
X15587228Y5634036D01*
X15585007Y5634221D01*
X15582600Y5634591D01*
X15580193Y5634962D01*
X15577969Y5635702D01*
X15576118Y5636628D01*
X15575934Y5636813D01*
X15575378Y5637184D01*
X15574823Y5637924D01*
X15573897Y5638850D01*
X15573157Y5640146D01*
X15572601Y5641628D01*
X15572044Y5643664D01*
X15571860Y5645886D01*
Y5646072D01*
Y5646627D01*
X15572044Y5647183D01*
Y5648108D01*
X15572786Y5650330D01*
X15573157Y5651441D01*
X15573897Y5652552D01*
Y5652737D01*
X15574268Y5653108D01*
X15575378Y5654219D01*
X15577045Y5655515D01*
X15579453Y5656811D01*
X15579637D01*
X15580193Y5656996D01*
X15580933Y5657181D01*
X15582230Y5657552D01*
X15583896Y5657737D01*
X15586118Y5657922D01*
X15588710Y5658107D01*
X15597968D01*
Y5633851D01*
D02*
G37*
G36*
X16280675Y5630518D02*
X16282527Y5630332D01*
X16284933Y5629777D01*
X16287712Y5629036D01*
X16290489Y5627740D01*
X16293266Y5625888D01*
X16296043Y5623481D01*
X16296414Y5623111D01*
X16297156Y5622185D01*
X16298080Y5620704D01*
X16299377Y5618667D01*
X16300673Y5615889D01*
X16301599Y5612927D01*
X16302341Y5609223D01*
X16302710Y5605335D01*
Y5605150D01*
Y5604779D01*
Y5604224D01*
X16302525Y5603483D01*
X16302341Y5601447D01*
X16301784Y5598854D01*
X16301044Y5595892D01*
X16299933Y5592929D01*
X16298267Y5589781D01*
X16296043Y5587004D01*
X16295674Y5586633D01*
X16294748Y5585893D01*
X16293452Y5584782D01*
X16291415Y5583485D01*
X16289008Y5582189D01*
X16286044Y5581078D01*
X16282712Y5580338D01*
X16279008Y5579967D01*
X16278082D01*
X16277342Y5580152D01*
X16275307Y5580338D01*
X16272897Y5580893D01*
X16270306Y5581634D01*
X16267343Y5582930D01*
X16264566Y5584596D01*
X16261787Y5587004D01*
X16261418Y5587374D01*
X16260677Y5588300D01*
X16259566Y5589966D01*
X16258270Y5592003D01*
X16257159Y5594595D01*
X16256049Y5597743D01*
X16255309Y5601447D01*
X16254938Y5605335D01*
Y5605520D01*
Y5605890D01*
Y5606446D01*
X16255122Y5607187D01*
X16255309Y5609223D01*
X16255862Y5611816D01*
X16256604Y5614778D01*
X16257899Y5617926D01*
X16259566Y5620889D01*
X16261787Y5623666D01*
X16262160Y5624037D01*
X16262898Y5624777D01*
X16264381Y5625888D01*
X16266418Y5627185D01*
X16268825Y5628481D01*
X16271786Y5629592D01*
X16275307Y5630332D01*
X16279008Y5630703D01*
X16279935D01*
X16280675Y5630518D01*
D02*
G37*
G36*
X15973856D02*
X15975706Y5630332D01*
X15978114Y5629777D01*
X15980891Y5629036D01*
X15983669Y5627740D01*
X15986447Y5625888D01*
X15989224Y5623481D01*
X15989594Y5623111D01*
X15990335Y5622185D01*
X15991261Y5620704D01*
X15992557Y5618667D01*
X15993854Y5615889D01*
X15994778Y5612927D01*
X15995520Y5609223D01*
X15995889Y5605335D01*
Y5605150D01*
Y5604779D01*
Y5604224D01*
X15995705Y5603483D01*
X15995520Y5601447D01*
X15994965Y5598854D01*
X15994225Y5595892D01*
X15993114Y5592929D01*
X15991446Y5589781D01*
X15989224Y5587004D01*
X15988853Y5586633D01*
X15987927Y5585893D01*
X15986632Y5584782D01*
X15984595Y5583485D01*
X15982188Y5582189D01*
X15979225Y5581078D01*
X15975893Y5580338D01*
X15972189Y5579967D01*
X15971263D01*
X15970522Y5580152D01*
X15968484Y5580338D01*
X15966078Y5580893D01*
X15963486Y5581634D01*
X15960522Y5582930D01*
X15957745Y5584596D01*
X15954968Y5587004D01*
X15954597Y5587374D01*
X15953857Y5588300D01*
X15952747Y5589966D01*
X15951450Y5592003D01*
X15950339Y5594595D01*
X15949228Y5597743D01*
X15948488Y5601447D01*
X15948117Y5605335D01*
Y5605520D01*
Y5605890D01*
Y5606446D01*
X15948302Y5607187D01*
X15948488Y5609223D01*
X15949043Y5611816D01*
X15949783Y5614778D01*
X15951080Y5617926D01*
X15952747Y5620889D01*
X15954968Y5623666D01*
X15955339Y5624037D01*
X15956079Y5624777D01*
X15957561Y5625888D01*
X15959596Y5627185D01*
X15962006Y5628481D01*
X15964967Y5629592D01*
X15968484Y5630332D01*
X15972189Y5630703D01*
X15973116D01*
X15973856Y5630518D01*
D02*
G37*
G36*
X15248006Y5661440D02*
X15249301Y5661255D01*
X15250967Y5660700D01*
X15252634Y5660144D01*
X15254485Y5659218D01*
X15256152Y5657922D01*
X15256337Y5657737D01*
X15256892Y5657181D01*
X15257632Y5656256D01*
X15258559Y5654959D01*
X15259669Y5653293D01*
X15260780Y5651071D01*
X15261893Y5648479D01*
X15262817Y5645331D01*
Y5645146D01*
Y5644961D01*
X15263004Y5644405D01*
X15263188Y5643664D01*
X15263373Y5642739D01*
X15263557Y5641628D01*
X15263744Y5640331D01*
X15263930Y5638665D01*
X15264114Y5636998D01*
X15264299Y5635147D01*
X15264484Y5632925D01*
X15264668Y5630518D01*
X15264854Y5628110D01*
Y5625333D01*
X15265041Y5622370D01*
Y5619222D01*
Y5619037D01*
Y5618297D01*
Y5617186D01*
Y5615519D01*
X15264854Y5613853D01*
X15264668Y5611631D01*
Y5609409D01*
X15264299Y5607001D01*
X15263744Y5601817D01*
X15262817Y5596817D01*
X15262262Y5594410D01*
X15261522Y5592003D01*
X15260780Y5589966D01*
X15259856Y5588300D01*
X15259669Y5587929D01*
X15258929Y5587004D01*
X15257632Y5585522D01*
X15256152Y5584041D01*
X15254115Y5582560D01*
X15251707Y5581078D01*
X15248930Y5580152D01*
X15247449Y5579967D01*
X15245969Y5579782D01*
X15245596D01*
X15244672Y5579967D01*
X15243190Y5580152D01*
X15241339Y5580708D01*
X15239302Y5581819D01*
X15237080Y5583115D01*
X15234859Y5585152D01*
X15233932Y5586263D01*
X15233006Y5587744D01*
Y5587929D01*
X15232822Y5588300D01*
X15232451Y5588855D01*
X15232080Y5589596D01*
X15231709Y5590707D01*
X15231154Y5592003D01*
X15230598Y5593670D01*
X15230043Y5595521D01*
X15229488Y5597743D01*
X15228932Y5600150D01*
X15228377Y5602743D01*
X15228008Y5605705D01*
X15227637Y5609038D01*
X15227266Y5612556D01*
X15227081Y5616445D01*
Y5620519D01*
Y5620704D01*
Y5621630D01*
Y5622741D01*
Y5624222D01*
X15227266Y5626259D01*
Y5628296D01*
X15227451Y5630703D01*
X15227821Y5633295D01*
X15228377Y5638665D01*
X15229303Y5644035D01*
X15230043Y5646442D01*
X15230598Y5648849D01*
X15231525Y5650886D01*
X15232451Y5652737D01*
Y5652923D01*
X15232635Y5653108D01*
X15233376Y5654219D01*
X15234486Y5655515D01*
X15236154Y5657181D01*
X15238007Y5658848D01*
X15240413Y5660329D01*
X15243005Y5661255D01*
X15244485Y5661440D01*
X15245969Y5661625D01*
X15246893D01*
X15248006Y5661440D01*
D02*
G37*
%LPC*%
G36*
X10182274Y6349426D02*
X10151624D01*
Y6330427D01*
X10151902Y6327653D01*
X10152179Y6325434D01*
X10152456Y6323631D01*
X10152734Y6322244D01*
X10153011Y6321274D01*
X10153150Y6320580D01*
X10153289Y6320442D01*
X10153982Y6319055D01*
X10154814Y6317668D01*
X10155646Y6316558D01*
X10156617Y6315726D01*
X10157449Y6314894D01*
X10158004Y6314339D01*
X10158559Y6314062D01*
X10158697Y6313923D01*
X10160084Y6313091D01*
X10161610Y6312537D01*
X10162996Y6311982D01*
X10164245Y6311704D01*
X10165354Y6311566D01*
X10166186Y6311427D01*
X10166741D01*
X10167018D01*
X10168682Y6311566D01*
X10170208Y6311843D01*
X10171734Y6312259D01*
X10172982Y6312675D01*
X10173952Y6313091D01*
X10174785Y6313507D01*
X10175339Y6313785D01*
X10175478Y6313923D01*
X10176726Y6314894D01*
X10177836Y6316004D01*
X10178806Y6317113D01*
X10179639Y6318223D01*
X10180193Y6319193D01*
X10180609Y6320025D01*
X10180748Y6320580D01*
X10180887Y6320719D01*
X10181441Y6322522D01*
X10181857Y6324602D01*
X10182135Y6326821D01*
X10182274Y6329040D01*
X10182412Y6330981D01*
X10182551Y6332646D01*
Y6334171D01*
X10182274Y6349426D01*
D02*
G37*
G36*
X9244969Y7379376D02*
X9244275D01*
X9241363Y7379099D01*
X9238867Y7378544D01*
X9236509Y7377573D01*
X9234568Y7376602D01*
X9233042Y7375493D01*
X9231794Y7374522D01*
X9231100Y7373967D01*
X9230823Y7373690D01*
X9228881Y7371471D01*
X9227495Y7369252D01*
X9226524Y7367033D01*
X9225830Y7364953D01*
X9225414Y7363011D01*
X9225276Y7361624D01*
X9225137Y7361070D01*
Y7360654D01*
Y7360376D01*
Y7360238D01*
X9225414Y7357464D01*
X9225969Y7354829D01*
X9226940Y7352610D01*
X9227911Y7350668D01*
X9229020Y7349143D01*
X9229991Y7347895D01*
X9230546Y7347201D01*
X9230823Y7346924D01*
X9233042Y7345121D01*
X9235261Y7343734D01*
X9237480Y7342763D01*
X9239560Y7342070D01*
X9241363Y7341654D01*
X9242889Y7341515D01*
X9243443Y7341376D01*
X9244137D01*
X9247049Y7341654D01*
X9249545Y7342209D01*
X9251903Y7343179D01*
X9253845Y7344150D01*
X9255370Y7345121D01*
X9256618Y7346092D01*
X9257312Y7346646D01*
X9257589Y7346924D01*
X9259392Y7349143D01*
X9260779Y7351362D01*
X9261750Y7353581D01*
X9262443Y7355661D01*
X9262859Y7357464D01*
X9262998Y7358989D01*
X9263136Y7359544D01*
Y7359960D01*
Y7360099D01*
Y7360238D01*
X9262859Y7363150D01*
X9262304Y7365646D01*
X9261334Y7368004D01*
X9260363Y7369945D01*
X9259392Y7371471D01*
X9258421Y7372719D01*
X9257866Y7373412D01*
X9257589Y7373690D01*
X9255370Y7375631D01*
X9253151Y7377018D01*
X9250932Y7377989D01*
X9248852Y7378682D01*
X9247049Y7379099D01*
X9245524Y7379237D01*
X9244969Y7379376D01*
D02*
G37*
G36*
X9404317Y7416266D02*
X9385317D01*
X9382543Y7415988D01*
X9380324Y7415711D01*
X9378522Y7415434D01*
X9377135Y7415156D01*
X9376164Y7414879D01*
X9375470Y7414740D01*
X9375332Y7414602D01*
X9373945Y7413908D01*
X9372558Y7413076D01*
X9371449Y7412244D01*
X9370617Y7411273D01*
X9369784Y7410441D01*
X9369230Y7409886D01*
X9368952Y7409332D01*
X9368814Y7409193D01*
X9367982Y7407806D01*
X9367427Y7406281D01*
X9366872Y7404894D01*
X9366595Y7403646D01*
X9366456Y7402536D01*
X9366317Y7401704D01*
Y7401149D01*
Y7400872D01*
X9366456Y7399208D01*
X9366733Y7397682D01*
X9367149Y7396157D01*
X9367565Y7394909D01*
X9367982Y7393938D01*
X9368398Y7393106D01*
X9368675Y7392551D01*
X9368814Y7392412D01*
X9369784Y7391164D01*
X9370894Y7390055D01*
X9372003Y7389084D01*
X9373113Y7388252D01*
X9374084Y7387697D01*
X9374916Y7387281D01*
X9375470Y7387142D01*
X9375609Y7387004D01*
X9377412Y7386449D01*
X9379492Y7386033D01*
X9381711Y7385755D01*
X9383930Y7385617D01*
X9385872Y7385478D01*
X9387536Y7385339D01*
X9389061D01*
X9404317Y7385617D01*
Y7416266D01*
D02*
G37*
G36*
X8886317Y7408375D02*
X8867317D01*
X8864543Y7408098D01*
X8862324Y7407821D01*
X8860522Y7407543D01*
X8859135Y7407266D01*
X8858164Y7406988D01*
X8857470Y7406850D01*
X8857332Y7406711D01*
X8855945Y7406018D01*
X8854558Y7405186D01*
X8853449Y7404353D01*
X8852617Y7403383D01*
X8851784Y7402551D01*
X8851230Y7401996D01*
X8850952Y7401441D01*
X8850814Y7401302D01*
X8849982Y7399916D01*
X8849427Y7398390D01*
X8848872Y7397003D01*
X8848595Y7395755D01*
X8848456Y7394646D01*
X8848317Y7393814D01*
Y7393259D01*
Y7392981D01*
X8848456Y7391317D01*
X8848733Y7389792D01*
X8849149Y7388266D01*
X8849565Y7387018D01*
X8849982Y7386047D01*
X8850398Y7385215D01*
X8850675Y7384660D01*
X8850814Y7384522D01*
X8851784Y7383274D01*
X8852894Y7382164D01*
X8854003Y7381193D01*
X8855113Y7380361D01*
X8856084Y7379806D01*
X8856916Y7379390D01*
X8857470Y7379252D01*
X8857609Y7379113D01*
X8859412Y7378558D01*
X8861492Y7378142D01*
X8863711Y7377865D01*
X8865930Y7377726D01*
X8867872Y7377587D01*
X8869536Y7377449D01*
X8871062D01*
X8886317Y7377726D01*
Y7408375D01*
D02*
G37*
G36*
X9946426Y6176156D02*
X9927426D01*
X9924653Y6175879D01*
X9922434Y6175602D01*
X9920631Y6175324D01*
X9919244Y6175047D01*
X9918273Y6174769D01*
X9917580Y6174631D01*
X9917441Y6174492D01*
X9916054Y6173799D01*
X9914667Y6172967D01*
X9913558Y6172134D01*
X9912726Y6171164D01*
X9911894Y6170332D01*
X9911339Y6169777D01*
X9911062Y6169222D01*
X9910923Y6169083D01*
X9910091Y6167697D01*
X9909536Y6166171D01*
X9908981Y6164784D01*
X9908704Y6163536D01*
X9908565Y6162427D01*
X9908427Y6161594D01*
Y6161040D01*
Y6160762D01*
X9908565Y6159098D01*
X9908843Y6157573D01*
X9909259Y6156047D01*
X9909675Y6154799D01*
X9910091Y6153828D01*
X9910507Y6152996D01*
X9910784Y6152441D01*
X9910923Y6152303D01*
X9911894Y6151054D01*
X9913003Y6149945D01*
X9914113Y6148974D01*
X9915222Y6148142D01*
X9916193Y6147587D01*
X9917025Y6147171D01*
X9917580Y6147033D01*
X9917719Y6146894D01*
X9919521Y6146339D01*
X9921602Y6145923D01*
X9923821Y6145646D01*
X9926040Y6145507D01*
X9927981Y6145368D01*
X9929645Y6145230D01*
X9931171D01*
X9946426Y6145507D01*
Y6176156D01*
D02*
G37*
G36*
X9776122Y6162011D02*
Y6124288D01*
X9802750D01*
X9776122Y6162011D01*
D02*
G37*
G36*
X9152663Y7681266D02*
X9133664D01*
X9130890Y7680988D01*
X9128671Y7680711D01*
X9126868Y7680434D01*
X9125481Y7680156D01*
X9124511Y7679879D01*
X9123817Y7679740D01*
X9123678Y7679602D01*
X9122292Y7678908D01*
X9120905Y7678076D01*
X9119795Y7677244D01*
X9118963Y7676273D01*
X9118131Y7675441D01*
X9117576Y7674886D01*
X9117299Y7674332D01*
X9117160Y7674193D01*
X9116328Y7672806D01*
X9115773Y7671281D01*
X9115219Y7669894D01*
X9114941Y7668646D01*
X9114803Y7667536D01*
X9114664Y7666704D01*
Y7666149D01*
Y7665872D01*
X9114803Y7664208D01*
X9115080Y7662682D01*
X9115496Y7661157D01*
X9115912Y7659908D01*
X9116328Y7658938D01*
X9116744Y7658106D01*
X9117022Y7657551D01*
X9117160Y7657412D01*
X9118131Y7656164D01*
X9119241Y7655055D01*
X9120350Y7654084D01*
X9121460Y7653252D01*
X9122430Y7652697D01*
X9123262Y7652281D01*
X9123817Y7652142D01*
X9123956Y7652003D01*
X9125759Y7651449D01*
X9127839Y7651033D01*
X9130058Y7650755D01*
X9132277Y7650617D01*
X9134218Y7650478D01*
X9135883Y7650339D01*
X9137408D01*
X9152663Y7650617D01*
Y7681266D01*
D02*
G37*
G36*
X9368802Y8040156D02*
X9349802D01*
X9347029Y8039879D01*
X9344810Y8039602D01*
X9343007Y8039324D01*
X9341620Y8039047D01*
X9340649Y8038770D01*
X9339956Y8038631D01*
X9339817Y8038492D01*
X9338430Y8037799D01*
X9337043Y8036967D01*
X9335934Y8036135D01*
X9335102Y8035164D01*
X9334270Y8034332D01*
X9333715Y8033777D01*
X9333438Y8033222D01*
X9333299Y8033084D01*
X9332467Y8031697D01*
X9331912Y8030171D01*
X9331357Y8028784D01*
X9331080Y8027536D01*
X9330941Y8026427D01*
X9330803Y8025595D01*
Y8025040D01*
Y8024762D01*
X9330941Y8023098D01*
X9331219Y8021573D01*
X9331635Y8020047D01*
X9332051Y8018799D01*
X9332467Y8017828D01*
X9332883Y8016996D01*
X9333160Y8016441D01*
X9333299Y8016303D01*
X9334270Y8015055D01*
X9335379Y8013945D01*
X9336489Y8012974D01*
X9337598Y8012142D01*
X9338569Y8011587D01*
X9339401Y8011171D01*
X9339956Y8011033D01*
X9340094Y8010894D01*
X9341897Y8010339D01*
X9343978Y8009923D01*
X9346196Y8009646D01*
X9348415Y8009507D01*
X9350357Y8009369D01*
X9352021Y8009230D01*
X9353547D01*
X9368802Y8009507D01*
Y8040156D01*
D02*
G37*
G36*
X8384779Y7015376D02*
X8384085D01*
X8381173Y7015098D01*
X8378676Y7014544D01*
X8376319Y7013573D01*
X8374377Y7012602D01*
X8372852Y7011493D01*
X8371604Y7010522D01*
X8370910Y7009967D01*
X8370633Y7009690D01*
X8368691Y7007471D01*
X8367304Y7005252D01*
X8366334Y7003033D01*
X8365640Y7000953D01*
X8365224Y6999011D01*
X8365085Y6997624D01*
X8364947Y6997070D01*
Y6996654D01*
Y6996376D01*
Y6996237D01*
X8365224Y6993464D01*
X8365779Y6990829D01*
X8366750Y6988610D01*
X8367720Y6986668D01*
X8368830Y6985143D01*
X8369801Y6983895D01*
X8370355Y6983201D01*
X8370633Y6982924D01*
X8372852Y6981121D01*
X8375071Y6979734D01*
X8377290Y6978763D01*
X8379370Y6978070D01*
X8381173Y6977654D01*
X8382698Y6977515D01*
X8383253Y6977376D01*
X8383946D01*
X8386859Y6977654D01*
X8389355Y6978209D01*
X8391713Y6979179D01*
X8393654Y6980150D01*
X8395180Y6981121D01*
X8396428Y6982092D01*
X8397121Y6982646D01*
X8397399Y6982924D01*
X8399202Y6985143D01*
X8400588Y6987362D01*
X8401559Y6989581D01*
X8402253Y6991661D01*
X8402669Y6993464D01*
X8402807Y6994989D01*
X8402946Y6995544D01*
Y6995960D01*
Y6996099D01*
Y6996237D01*
X8402669Y6999150D01*
X8402114Y7001646D01*
X8401143Y7004004D01*
X8400172Y7005945D01*
X8399202Y7007471D01*
X8398231Y7008719D01*
X8397676Y7009412D01*
X8397399Y7009690D01*
X8395180Y7011631D01*
X8392961Y7013018D01*
X8390742Y7013989D01*
X8388662Y7014682D01*
X8386859Y7015098D01*
X8385333Y7015237D01*
X8384779Y7015376D01*
D02*
G37*
G36*
X8474507Y7052266D02*
X8455507D01*
X8452734Y7051988D01*
X8450515Y7051711D01*
X8448712Y7051434D01*
X8447325Y7051156D01*
X8446354Y7050879D01*
X8445661Y7050740D01*
X8445522Y7050602D01*
X8444135Y7049908D01*
X8442748Y7049076D01*
X8441639Y7048244D01*
X8440807Y7047273D01*
X8439975Y7046441D01*
X8439420Y7045886D01*
X8439143Y7045332D01*
X8439004Y7045193D01*
X8438172Y7043806D01*
X8437617Y7042281D01*
X8437062Y7040894D01*
X8436785Y7039646D01*
X8436646Y7038536D01*
X8436508Y7037704D01*
Y7037149D01*
Y7036872D01*
X8436646Y7035208D01*
X8436924Y7033682D01*
X8437340Y7032157D01*
X8437756Y7030908D01*
X8438172Y7029938D01*
X8438588Y7029106D01*
X8438865Y7028551D01*
X8439004Y7028412D01*
X8439975Y7027164D01*
X8441084Y7026055D01*
X8442194Y7025084D01*
X8443303Y7024252D01*
X8444274Y7023697D01*
X8445106Y7023281D01*
X8445661Y7023142D01*
X8445799Y7023003D01*
X8447602Y7022449D01*
X8449683Y7022033D01*
X8451902Y7021755D01*
X8454121Y7021617D01*
X8456062Y7021478D01*
X8457726Y7021339D01*
X8459252D01*
X8474507Y7021617D01*
Y7052266D01*
D02*
G37*
G36*
X8146507Y6423375D02*
X8127507D01*
X8124734Y6423098D01*
X8122515Y6422821D01*
X8120712Y6422543D01*
X8119325Y6422266D01*
X8118354Y6421988D01*
X8117661Y6421850D01*
X8117522Y6421711D01*
X8116135Y6421018D01*
X8114748Y6420186D01*
X8113639Y6419353D01*
X8112807Y6418383D01*
X8111975Y6417551D01*
X8111420Y6416996D01*
X8111143Y6416441D01*
X8111004Y6416302D01*
X8110172Y6414916D01*
X8109617Y6413390D01*
X8109062Y6412003D01*
X8108785Y6410755D01*
X8108646Y6409646D01*
X8108508Y6408813D01*
Y6408259D01*
Y6407981D01*
X8108646Y6406317D01*
X8108924Y6404792D01*
X8109340Y6403266D01*
X8109756Y6402018D01*
X8110172Y6401047D01*
X8110588Y6400215D01*
X8110865Y6399660D01*
X8111004Y6399522D01*
X8111975Y6398273D01*
X8113084Y6397164D01*
X8114194Y6396193D01*
X8115303Y6395361D01*
X8116274Y6394806D01*
X8117106Y6394390D01*
X8117661Y6394252D01*
X8117799Y6394113D01*
X8119602Y6393558D01*
X8121683Y6393142D01*
X8123901Y6392865D01*
X8126120Y6392726D01*
X8128062Y6392587D01*
X8129726Y6392449D01*
X8131252D01*
X8146507Y6392726D01*
Y6423375D01*
D02*
G37*
G36*
X7829992Y7057156D02*
X7810993D01*
X7808219Y7056879D01*
X7806000Y7056602D01*
X7804197Y7056324D01*
X7802810Y7056047D01*
X7801839Y7055769D01*
X7801146Y7055631D01*
X7801007Y7055492D01*
X7799620Y7054799D01*
X7798234Y7053967D01*
X7797124Y7053134D01*
X7796292Y7052164D01*
X7795460Y7051332D01*
X7794905Y7050777D01*
X7794628Y7050222D01*
X7794489Y7050083D01*
X7793657Y7048697D01*
X7793102Y7047171D01*
X7792548Y7045784D01*
X7792270Y7044536D01*
X7792131Y7043427D01*
X7791993Y7042594D01*
Y7042040D01*
Y7041762D01*
X7792131Y7040098D01*
X7792409Y7038573D01*
X7792825Y7037047D01*
X7793241Y7035799D01*
X7793657Y7034828D01*
X7794073Y7033996D01*
X7794350Y7033441D01*
X7794489Y7033303D01*
X7795460Y7032055D01*
X7796569Y7030945D01*
X7797679Y7029974D01*
X7798788Y7029142D01*
X7799759Y7028587D01*
X7800591Y7028171D01*
X7801146Y7028033D01*
X7801285Y7027894D01*
X7803088Y7027339D01*
X7805168Y7026923D01*
X7807387Y7026646D01*
X7809606Y7026507D01*
X7811547Y7026368D01*
X7813211Y7026230D01*
X7814737D01*
X7829992Y7026507D01*
Y7057156D01*
D02*
G37*
%LPD*%
%TF.MD5,ac6f7e64a5244b65686642661d4d9195*%
M02*
