%TF.GenerationSoftware,Altium Limited,Altium Designer,23.9.2 (47)*%
G04 Layer_Color=65535*
%FSLAX45Y45*%
%MOMM*%
%TF.SameCoordinates,CBF7E160-FA54-4A09-933F-9C1B5268631E*%
%TF.FilePolarity,Positive*%
%TF.FileFunction,Legend,Top*%
%TF.Part,Single*%
G01*
G75*
%TA.AperFunction,NonConductor*%
%ADD50C,0.10000*%
%ADD51C,0.20000*%
%ADD52C,0.25000*%
%ADD53C,0.60000*%
%ADD54C,0.25400*%
%ADD55C,0.12700*%
G36*
X14812477Y7404899D02*
X14819412D01*
Y7403165D01*
X14824614D01*
Y7401431D01*
X14828082D01*
Y7399697D01*
X14831549D01*
Y7397963D01*
X14835017D01*
Y7396229D01*
X14838486D01*
Y7394495D01*
X14840218D01*
Y7392761D01*
X14843686D01*
Y7391028D01*
X14845419D01*
Y7389294D01*
X14847154D01*
Y7387560D01*
X14848888D01*
Y7385826D01*
X14852354D01*
Y7384092D01*
X14854089D01*
Y7382358D01*
X14855823D01*
Y7380625D01*
X14857558D01*
Y7378891D01*
X14859291D01*
Y7377157D01*
X14861024D01*
Y7375423D01*
X14862758D01*
Y7373689D01*
X14864491D01*
Y7370221D01*
X14866226D01*
Y7368488D01*
X14867960D01*
Y7366754D01*
X14869695D01*
Y7363286D01*
X14871428D01*
Y7361552D01*
X14873161D01*
Y7358085D01*
X14874895D01*
Y7356351D01*
X14876630D01*
Y7352883D01*
X14878363D01*
Y7349415D01*
X14880096D01*
Y7347682D01*
X14881831D01*
Y7344214D01*
X14883565D01*
Y7340746D01*
X14885298D01*
Y7337278D01*
X14887032D01*
Y7335545D01*
X14888766D01*
Y7332077D01*
X14890500D01*
Y7328609D01*
X14892233D01*
Y7325142D01*
X14893968D01*
Y7321674D01*
X14895702D01*
Y7318206D01*
X14897437D01*
Y7314738D01*
X14899168D01*
Y7311271D01*
X14900903D01*
Y7307803D01*
X14902637D01*
Y7304335D01*
X14904372D01*
Y7300868D01*
X14906105D01*
Y7297400D01*
X14907838D01*
Y7292199D01*
X14909572D01*
Y7288731D01*
X14911307D01*
Y7285263D01*
X14913040D01*
Y7280062D01*
X14914774D01*
Y7276594D01*
X14916508D01*
Y7271392D01*
X14918242D01*
Y7266191D01*
X14919975D01*
Y7260989D01*
X14921709D01*
Y7255788D01*
X14923444D01*
Y7250586D01*
X14925177D01*
Y7245385D01*
X14926910D01*
Y7240183D01*
X14928645D01*
Y7234981D01*
X14930379D01*
Y7228046D01*
X14932112D01*
Y7221111D01*
X14933846D01*
Y7212442D01*
X14935580D01*
Y7205506D01*
X14937314D01*
Y7198571D01*
X14939047D01*
Y7188168D01*
X14940782D01*
Y7177765D01*
X14942516D01*
Y7165628D01*
X14944249D01*
Y7150023D01*
X14945982D01*
Y7118814D01*
X14947717D01*
Y7096274D01*
X14945982D01*
Y7065065D01*
X14944249D01*
Y7047726D01*
X14942516D01*
Y7037323D01*
X14940782D01*
Y7026920D01*
X14939047D01*
Y7016517D01*
X14937314D01*
Y7009582D01*
X14935580D01*
Y7000912D01*
X14933846D01*
Y6993977D01*
X14932112D01*
Y6987041D01*
X14930379D01*
Y6980106D01*
X14928645D01*
Y6974905D01*
X14926910D01*
Y6967969D01*
X14925177D01*
Y6962768D01*
X14923444D01*
Y6957566D01*
X14921709D01*
Y6952365D01*
X14919975D01*
Y6947163D01*
X14918242D01*
Y6943695D01*
X14916508D01*
Y6938494D01*
X14914774D01*
Y6933292D01*
X14913040D01*
Y6929825D01*
X14911307D01*
Y6926357D01*
X14909572D01*
Y6921155D01*
X14907838D01*
Y6917688D01*
X14906105D01*
Y6914220D01*
X14904372D01*
Y6910752D01*
X14902637D01*
Y6907285D01*
X14900903D01*
Y6903817D01*
X14899168D01*
Y6898615D01*
X14897437D01*
Y6895148D01*
X14895702D01*
Y6893414D01*
X14893968D01*
Y6889946D01*
X14892233D01*
Y6886478D01*
X14890500D01*
Y6883011D01*
X14888766D01*
Y6879543D01*
X14887032D01*
Y6876075D01*
X14885298D01*
Y6874342D01*
X14883565D01*
Y6870874D01*
X14881831D01*
Y6867406D01*
X14880096D01*
Y6865672D01*
X14878363D01*
Y6862205D01*
X14876630D01*
Y6858737D01*
X14874895D01*
Y6857003D01*
X14873161D01*
Y6853535D01*
X14871428D01*
Y6851802D01*
X14869695D01*
Y6848334D01*
X14867960D01*
Y6846600D01*
X14866226D01*
Y6843132D01*
X14864491D01*
Y6841399D01*
X14862758D01*
Y6839665D01*
X14861024D01*
Y6837931D01*
X14859291D01*
Y6836197D01*
X14857558D01*
Y6834463D01*
X14855823D01*
Y6832729D01*
X14854089D01*
Y6830995D01*
X14852354D01*
Y6829261D01*
X14850623D01*
Y6827528D01*
X14848888D01*
Y6825794D01*
X14845419D01*
Y6824060D01*
X14843686D01*
Y6822326D01*
X14841953D01*
Y6820592D01*
X14838486D01*
Y6818858D01*
X14835017D01*
Y6817125D01*
X14831549D01*
Y6815391D01*
X14828082D01*
Y6813657D01*
X14824614D01*
Y6811923D01*
X14819412D01*
Y6810189D01*
X14814211D01*
Y6808455D01*
X14803809D01*
Y6806721D01*
X14791672D01*
Y6808455D01*
X14783002D01*
Y6810189D01*
X14779533D01*
Y6811923D01*
X14776067D01*
Y6813657D01*
X14772598D01*
Y6815391D01*
X14770865D01*
Y6817125D01*
X14769131D01*
Y6818858D01*
X14767397D01*
Y6820592D01*
X14765663D01*
Y6824060D01*
X14763930D01*
Y6825794D01*
X14762196D01*
Y6829261D01*
X14760461D01*
Y6832729D01*
X14758728D01*
Y6836197D01*
X14756995D01*
Y6843132D01*
X14755260D01*
Y6853535D01*
X14753526D01*
Y6867406D01*
X14755260D01*
Y6879543D01*
X14756995D01*
Y6886478D01*
X14758728D01*
Y6891680D01*
X14760461D01*
Y6896882D01*
X14762196D01*
Y6900349D01*
X14763930D01*
Y6903817D01*
X14765663D01*
Y6907285D01*
X14767397D01*
Y6910752D01*
X14769131D01*
Y6914220D01*
X14770865D01*
Y6917688D01*
X14772598D01*
Y6919422D01*
X14774332D01*
Y6922889D01*
X14776067D01*
Y6924623D01*
X14777800D01*
Y6928091D01*
X14779533D01*
Y6929825D01*
X14781268D01*
Y6933292D01*
X14783002D01*
Y6936760D01*
X14784735D01*
Y6940228D01*
X14786469D01*
Y6943695D01*
X14788203D01*
Y6947163D01*
X14789937D01*
Y6950631D01*
X14791672D01*
Y6954098D01*
X14793405D01*
Y6957566D01*
X14795139D01*
Y6961034D01*
X14796872D01*
Y6964501D01*
X14798605D01*
Y6967969D01*
X14800340D01*
Y6971437D01*
X14802074D01*
Y6976638D01*
X14803809D01*
Y6980106D01*
X14805542D01*
Y6985308D01*
X14807275D01*
Y6990509D01*
X14809009D01*
Y6995711D01*
X14810744D01*
Y7000912D01*
X14812477D01*
Y7006114D01*
X14814211D01*
Y7013049D01*
X14815945D01*
Y7018251D01*
X14817679D01*
Y7025186D01*
X14819412D01*
Y7032122D01*
X14821146D01*
Y7040791D01*
X14822881D01*
Y7049460D01*
X14824614D01*
Y7061597D01*
X14826347D01*
Y7078935D01*
X14828082D01*
Y7136152D01*
X14826347D01*
Y7153491D01*
X14824614D01*
Y7163894D01*
X14822881D01*
Y7174297D01*
X14821146D01*
Y7181232D01*
X14819412D01*
Y7189902D01*
X14817679D01*
Y7196837D01*
X14815945D01*
Y7203772D01*
X14814211D01*
Y7208974D01*
X14812477D01*
Y7214175D01*
X14810744D01*
Y7219377D01*
X14809009D01*
Y7224578D01*
X14807275D01*
Y7229780D01*
X14805542D01*
Y7233248D01*
X14803809D01*
Y7238449D01*
X14802074D01*
Y7241917D01*
X14800340D01*
Y7247118D01*
X14798605D01*
Y7250586D01*
X14796872D01*
Y7254054D01*
X14795139D01*
Y7257521D01*
X14793405D01*
Y7260989D01*
X14791672D01*
Y7264457D01*
X14789937D01*
Y7267925D01*
X14788203D01*
Y7271392D01*
X14786469D01*
Y7274860D01*
X14784735D01*
Y7278328D01*
X14783002D01*
Y7280062D01*
X14781268D01*
Y7283529D01*
X14779533D01*
Y7286997D01*
X14777800D01*
Y7288731D01*
X14776067D01*
Y7292199D01*
X14774332D01*
Y7295666D01*
X14772598D01*
Y7297400D01*
X14770865D01*
Y7300868D01*
X14769131D01*
Y7304335D01*
X14767397D01*
Y7307803D01*
X14765663D01*
Y7311271D01*
X14763930D01*
Y7314738D01*
X14762196D01*
Y7318206D01*
X14760461D01*
Y7323408D01*
X14758728D01*
Y7328609D01*
X14756995D01*
Y7335545D01*
X14755260D01*
Y7347682D01*
X14753526D01*
Y7361552D01*
X14755260D01*
Y7371955D01*
X14756995D01*
Y7378891D01*
X14758728D01*
Y7382358D01*
X14760461D01*
Y7385826D01*
X14762196D01*
Y7389294D01*
X14763930D01*
Y7391028D01*
X14765663D01*
Y7392761D01*
X14767397D01*
Y7396229D01*
X14769131D01*
Y7397963D01*
X14770865D01*
Y7399697D01*
X14774332D01*
Y7401431D01*
X14777800D01*
Y7403165D01*
X14781268D01*
Y7404899D01*
X14784735D01*
Y7406632D01*
X14812477D01*
Y7404899D01*
D02*
G37*
G36*
X15055215Y7512397D02*
X15063885D01*
Y7510663D01*
X15070821D01*
Y7508929D01*
X15074287D01*
Y7507195D01*
X15079489D01*
Y7505461D01*
X15082957D01*
Y7503728D01*
X15084691D01*
Y7501994D01*
X15088159D01*
Y7500260D01*
X15091626D01*
Y7498526D01*
X15093359D01*
Y7496792D01*
X15095094D01*
Y7495058D01*
X15098563D01*
Y7493325D01*
X15100294D01*
Y7491591D01*
X15102029D01*
Y7489857D01*
X15103763D01*
Y7488123D01*
X15105498D01*
Y7486389D01*
X15107231D01*
Y7484655D01*
X15108965D01*
Y7482922D01*
X15110699D01*
Y7481188D01*
X15112431D01*
Y7479454D01*
X15114166D01*
Y7477720D01*
X15115900D01*
Y7474252D01*
X15117635D01*
Y7472518D01*
X15119368D01*
Y7470785D01*
X15121101D01*
Y7467317D01*
X15122835D01*
Y7465583D01*
X15124570D01*
Y7462115D01*
X15126303D01*
Y7460382D01*
X15128036D01*
Y7458648D01*
X15129771D01*
Y7455180D01*
X15131505D01*
Y7453446D01*
X15133238D01*
Y7451712D01*
X15134972D01*
Y7448245D01*
X15136707D01*
Y7444777D01*
X15138440D01*
Y7443043D01*
X15140173D01*
Y7439575D01*
X15141908D01*
Y7437842D01*
X15143642D01*
Y7434374D01*
X15145375D01*
Y7430906D01*
X15147108D01*
Y7429172D01*
X15148843D01*
Y7425705D01*
X15150577D01*
Y7423971D01*
X15152312D01*
Y7420503D01*
X15154045D01*
Y7417035D01*
X15155779D01*
Y7413568D01*
X15157512D01*
Y7410100D01*
X15159245D01*
Y7408366D01*
X15160980D01*
Y7403165D01*
X15162714D01*
Y7401431D01*
X15164449D01*
Y7397963D01*
X15166182D01*
Y7396229D01*
X15167915D01*
Y7392761D01*
X15169649D01*
Y7389294D01*
X15171384D01*
Y7385826D01*
X15173117D01*
Y7382358D01*
X15174850D01*
Y7378891D01*
X15176585D01*
Y7375423D01*
X15178319D01*
Y7371955D01*
X15180052D01*
Y7368488D01*
X15181786D01*
Y7363286D01*
X15183521D01*
Y7359818D01*
X15185254D01*
Y7356351D01*
X15186987D01*
Y7351149D01*
X15188722D01*
Y7347682D01*
X15190456D01*
Y7344214D01*
X15192189D01*
Y7339012D01*
X15193922D01*
Y7335545D01*
X15195657D01*
Y7330343D01*
X15197391D01*
Y7326875D01*
X15199126D01*
Y7321674D01*
X15200859D01*
Y7316472D01*
X15202592D01*
Y7311271D01*
X15204326D01*
Y7307803D01*
X15206059D01*
Y7302602D01*
X15207794D01*
Y7297400D01*
X15209528D01*
Y7290465D01*
X15211263D01*
Y7285263D01*
X15212994D01*
Y7280062D01*
X15214729D01*
Y7273126D01*
X15216463D01*
Y7267925D01*
X15218198D01*
Y7260989D01*
X15219931D01*
Y7254054D01*
X15221664D01*
Y7247118D01*
X15223399D01*
Y7238449D01*
X15225133D01*
Y7231514D01*
X15226866D01*
Y7221111D01*
X15228600D01*
Y7212442D01*
X15230334D01*
Y7200305D01*
X15232068D01*
Y7188168D01*
X15233801D01*
Y7176031D01*
X15235535D01*
Y7156959D01*
X15237270D01*
Y7120548D01*
X15239003D01*
Y7092806D01*
X15237270D01*
Y7058129D01*
X15235535D01*
Y7040791D01*
X15233801D01*
Y7026920D01*
X15232068D01*
Y7013049D01*
X15230334D01*
Y7002646D01*
X15228600D01*
Y6992243D01*
X15226866D01*
Y6983574D01*
X15225133D01*
Y6976638D01*
X15223399D01*
Y6967969D01*
X15221664D01*
Y6961034D01*
X15219931D01*
Y6954098D01*
X15218198D01*
Y6948897D01*
X15216463D01*
Y6940228D01*
X15214729D01*
Y6935026D01*
X15212994D01*
Y6929825D01*
X15211263D01*
Y6922889D01*
X15209528D01*
Y6917688D01*
X15207794D01*
Y6912486D01*
X15206059D01*
Y6907285D01*
X15204326D01*
Y6902083D01*
X15202592D01*
Y6898615D01*
X15200859D01*
Y6893414D01*
X15199126D01*
Y6888212D01*
X15197391D01*
Y6883011D01*
X15195657D01*
Y6879543D01*
X15193922D01*
Y6876075D01*
X15192189D01*
Y6870874D01*
X15190456D01*
Y6867406D01*
X15188722D01*
Y6862205D01*
X15186987D01*
Y6858737D01*
X15185254D01*
Y6855269D01*
X15183521D01*
Y6851802D01*
X15181786D01*
Y6846600D01*
X15180052D01*
Y6843132D01*
X15178319D01*
Y6839665D01*
X15176585D01*
Y6836197D01*
X15174850D01*
Y6832729D01*
X15173117D01*
Y6829261D01*
X15171384D01*
Y6825794D01*
X15169649D01*
Y6822326D01*
X15167915D01*
Y6818858D01*
X15166182D01*
Y6815391D01*
X15164449D01*
Y6813657D01*
X15162714D01*
Y6810189D01*
X15160980D01*
Y6806721D01*
X15159245D01*
Y6803254D01*
X15157512D01*
Y6799786D01*
X15155779D01*
Y6798052D01*
X15154045D01*
Y6794585D01*
X15152312D01*
Y6791117D01*
X15150577D01*
Y6789383D01*
X15148843D01*
Y6785915D01*
X15147108D01*
Y6782448D01*
X15145375D01*
Y6780714D01*
X15143642D01*
Y6777246D01*
X15141908D01*
Y6773778D01*
X15140173D01*
Y6772045D01*
X15138440D01*
Y6770311D01*
X15136707D01*
Y6766843D01*
X15134972D01*
Y6765109D01*
X15133238D01*
Y6761642D01*
X15131505D01*
Y6759908D01*
X15129771D01*
Y6756440D01*
X15128036D01*
Y6754706D01*
X15126303D01*
Y6751238D01*
X15124570D01*
Y6749505D01*
X15122835D01*
Y6747771D01*
X15121101D01*
Y6744303D01*
X15119368D01*
Y6742569D01*
X15117635D01*
Y6739102D01*
X15115900D01*
Y6737368D01*
X15114166D01*
Y6735634D01*
X15112431D01*
Y6733900D01*
X15110699D01*
Y6732166D01*
X15108965D01*
Y6730432D01*
X15107231D01*
Y6728699D01*
X15105498D01*
Y6726965D01*
X15103763D01*
Y6725231D01*
X15102029D01*
Y6723497D01*
X15100294D01*
Y6721763D01*
X15098563D01*
Y6720029D01*
X15096828D01*
Y6718295D01*
X15093359D01*
Y6716562D01*
X15091626D01*
Y6714828D01*
X15089893D01*
Y6713094D01*
X15086424D01*
Y6711360D01*
X15082957D01*
Y6709626D01*
X15079489D01*
Y6707892D01*
X15076022D01*
Y6706159D01*
X15070821D01*
Y6704424D01*
X15065619D01*
Y6702691D01*
X15058682D01*
Y6700957D01*
X15037877D01*
Y6702691D01*
X15030940D01*
Y6704424D01*
X15027473D01*
Y6706159D01*
X15024007D01*
Y6707892D01*
X15020538D01*
Y6709626D01*
X15018805D01*
Y6711360D01*
X15017072D01*
Y6713094D01*
X15015337D01*
Y6714828D01*
X15013603D01*
Y6716562D01*
X15011868D01*
Y6720029D01*
X15010135D01*
Y6723497D01*
X15008401D01*
Y6725231D01*
X15006668D01*
Y6728699D01*
X15004935D01*
Y6733900D01*
X15003200D01*
Y6742569D01*
X15001466D01*
Y6765109D01*
X15003200D01*
Y6773778D01*
X15004935D01*
Y6778980D01*
X15006668D01*
Y6784182D01*
X15008401D01*
Y6789383D01*
X15010135D01*
Y6792851D01*
X15011868D01*
Y6796318D01*
X15013603D01*
Y6799786D01*
X15015337D01*
Y6803254D01*
X15017072D01*
Y6804988D01*
X15018805D01*
Y6808455D01*
X15020538D01*
Y6810189D01*
X15022272D01*
Y6813657D01*
X15024007D01*
Y6815391D01*
X15025740D01*
Y6817125D01*
X15027473D01*
Y6820592D01*
X15029208D01*
Y6822326D01*
X15030940D01*
Y6824060D01*
X15032677D01*
Y6827528D01*
X15034409D01*
Y6829261D01*
X15036143D01*
Y6832729D01*
X15037877D01*
Y6834463D01*
X15039610D01*
Y6837931D01*
X15041345D01*
Y6841399D01*
X15043079D01*
Y6843132D01*
X15044812D01*
Y6846600D01*
X15046545D01*
Y6848334D01*
X15048280D01*
Y6851802D01*
X15050014D01*
Y6855269D01*
X15051749D01*
Y6857003D01*
X15053482D01*
Y6860471D01*
X15055215D01*
Y6863939D01*
X15056949D01*
Y6867406D01*
X15058682D01*
Y6869140D01*
X15060417D01*
Y6872608D01*
X15062151D01*
Y6876075D01*
X15063885D01*
Y6879543D01*
X15065619D01*
Y6883011D01*
X15067352D01*
Y6886478D01*
X15069086D01*
Y6889946D01*
X15070821D01*
Y6893414D01*
X15072554D01*
Y6896882D01*
X15074287D01*
Y6902083D01*
X15076022D01*
Y6905551D01*
X15077756D01*
Y6909018D01*
X15079489D01*
Y6912486D01*
X15081223D01*
Y6917688D01*
X15082957D01*
Y6921155D01*
X15084691D01*
Y6926357D01*
X15086424D01*
Y6929825D01*
X15088159D01*
Y6935026D01*
X15089893D01*
Y6940228D01*
X15091626D01*
Y6945429D01*
X15093359D01*
Y6950631D01*
X15095094D01*
Y6954098D01*
X15096828D01*
Y6961034D01*
X15098563D01*
Y6966235D01*
X15100294D01*
Y6971437D01*
X15102029D01*
Y6978372D01*
X15103763D01*
Y6985308D01*
X15105498D01*
Y6992243D01*
X15107231D01*
Y6999179D01*
X15108965D01*
Y7007848D01*
X15110699D01*
Y7016517D01*
X15112431D01*
Y7026920D01*
X15114166D01*
Y7039057D01*
X15115900D01*
Y7052928D01*
X15117635D01*
Y7072000D01*
X15119368D01*
Y7143088D01*
X15117635D01*
Y7162160D01*
X15115900D01*
Y7176031D01*
X15114166D01*
Y7188168D01*
X15112431D01*
Y7196837D01*
X15110699D01*
Y7207240D01*
X15108965D01*
Y7214175D01*
X15107231D01*
Y7221111D01*
X15105498D01*
Y7229780D01*
X15103763D01*
Y7236715D01*
X15102029D01*
Y7241917D01*
X15100294D01*
Y7245385D01*
Y7247118D01*
Y7248852D01*
X15098563D01*
Y7254054D01*
X15096828D01*
Y7259255D01*
X15095094D01*
Y7264457D01*
X15093359D01*
Y7269659D01*
X15091626D01*
Y7274860D01*
X15089893D01*
Y7280062D01*
X15088159D01*
Y7283529D01*
X15086424D01*
Y7288731D01*
X15084691D01*
Y7293932D01*
X15082957D01*
Y7297400D01*
X15081223D01*
Y7300868D01*
X15079489D01*
Y7304335D01*
X15077756D01*
Y7309537D01*
X15076022D01*
Y7313005D01*
X15074287D01*
Y7316472D01*
X15072554D01*
Y7321674D01*
X15070821D01*
Y7325142D01*
X15069086D01*
Y7328609D01*
X15067352D01*
Y7332077D01*
X15065619D01*
Y7335545D01*
X15063885D01*
Y7339012D01*
X15062151D01*
Y7342480D01*
X15060417D01*
Y7344214D01*
X15058682D01*
Y7347682D01*
X15056949D01*
Y7351149D01*
X15055215D01*
Y7354617D01*
X15053482D01*
Y7356351D01*
X15051749D01*
Y7359818D01*
X15050014D01*
Y7363286D01*
X15048280D01*
Y7366754D01*
X15046545D01*
Y7368488D01*
X15044812D01*
Y7371955D01*
X15043079D01*
Y7373689D01*
X15041345D01*
Y7377157D01*
X15039610D01*
Y7378891D01*
X15037877D01*
Y7382358D01*
X15036143D01*
Y7384092D01*
X15034409D01*
Y7387560D01*
X15032677D01*
Y7389294D01*
X15030940D01*
Y7392761D01*
X15029208D01*
Y7394495D01*
X15027473D01*
Y7397963D01*
X15025740D01*
Y7399697D01*
X15024007D01*
Y7401431D01*
X15022272D01*
Y7404899D01*
X15020538D01*
Y7406632D01*
X15018805D01*
Y7410100D01*
X15017072D01*
Y7411834D01*
X15015337D01*
Y7415302D01*
X15013603D01*
Y7418769D01*
X15011868D01*
Y7422237D01*
X15010135D01*
Y7425705D01*
X15008401D01*
Y7430906D01*
X15006668D01*
Y7436108D01*
X15004935D01*
Y7441309D01*
X15003200D01*
Y7449978D01*
X15001466D01*
Y7472518D01*
X15003200D01*
Y7481188D01*
X15004935D01*
Y7484655D01*
X15006668D01*
Y7489857D01*
X15008401D01*
Y7491591D01*
X15010135D01*
Y7495058D01*
X15011868D01*
Y7496792D01*
X15013603D01*
Y7500260D01*
X15015337D01*
Y7501994D01*
X15017072D01*
Y7503728D01*
X15018805D01*
Y7505461D01*
X15022272D01*
Y7507195D01*
X15024007D01*
Y7508929D01*
X15027473D01*
Y7510663D01*
X15032677D01*
Y7512397D01*
X15041345D01*
Y7514131D01*
X15055215D01*
Y7512397D01*
D02*
G37*
G36*
X15304889Y7618162D02*
X15315292D01*
Y7616428D01*
X15320494D01*
Y7614694D01*
X15323961D01*
Y7612960D01*
X15329163D01*
Y7611226D01*
X15330898D01*
Y7609492D01*
X15334364D01*
Y7607758D01*
X15337833D01*
Y7606025D01*
X15341299D01*
Y7604291D01*
X15343034D01*
Y7602557D01*
X15344768D01*
Y7600823D01*
X15346503D01*
Y7599089D01*
X15349969D01*
Y7597355D01*
X15351703D01*
Y7593888D01*
X15355171D01*
Y7592154D01*
X15356905D01*
Y7590420D01*
X15358640D01*
Y7588686D01*
X15360371D01*
Y7586952D01*
X15362106D01*
Y7585219D01*
X15363840D01*
Y7581751D01*
X15365575D01*
Y7580017D01*
X15367308D01*
Y7578283D01*
X15369041D01*
Y7576549D01*
X15370775D01*
Y7573082D01*
X15372508D01*
Y7571348D01*
X15374243D01*
Y7569614D01*
X15375977D01*
Y7566146D01*
X15377711D01*
Y7564412D01*
X15379445D01*
Y7560944D01*
X15381178D01*
Y7559211D01*
X15382912D01*
Y7557477D01*
X15384647D01*
Y7554009D01*
X15386380D01*
Y7552275D01*
X15388113D01*
Y7550541D01*
X15389848D01*
Y7547074D01*
X15391582D01*
Y7545340D01*
X15393315D01*
Y7541872D01*
X15395049D01*
Y7540138D01*
X15396783D01*
Y7536671D01*
X15398517D01*
Y7534937D01*
X15400250D01*
Y7531469D01*
X15401985D01*
Y7529735D01*
X15403719D01*
Y7528001D01*
X15405452D01*
Y7524534D01*
X15407185D01*
Y7522800D01*
X15408920D01*
Y7519332D01*
X15410654D01*
Y7515865D01*
X15412389D01*
Y7514131D01*
X15414122D01*
Y7510663D01*
X15415855D01*
Y7507195D01*
X15417589D01*
Y7505461D01*
X15419324D01*
Y7501994D01*
X15421057D01*
Y7500260D01*
X15422791D01*
Y7496792D01*
X15424525D01*
Y7493325D01*
X15426257D01*
Y7491591D01*
X15427992D01*
Y7488123D01*
X15429726D01*
Y7484655D01*
X15431461D01*
Y7481188D01*
X15433194D01*
Y7477720D01*
X15434927D01*
Y7475986D01*
X15436662D01*
Y7472518D01*
X15438396D01*
Y7469051D01*
X15440129D01*
Y7465583D01*
X15441862D01*
Y7462115D01*
X15443597D01*
Y7458648D01*
X15445331D01*
Y7455180D01*
X15447066D01*
Y7451712D01*
X15448798D01*
Y7448245D01*
X15450533D01*
Y7444777D01*
X15452266D01*
Y7441309D01*
X15453999D01*
Y7437842D01*
X15455734D01*
Y7434374D01*
X15457468D01*
Y7430906D01*
X15459201D01*
Y7427439D01*
X15460936D01*
Y7422237D01*
X15462669D01*
Y7418769D01*
X15464403D01*
Y7415302D01*
X15466138D01*
Y7411834D01*
X15467871D01*
Y7406632D01*
X15469604D01*
Y7403165D01*
X15471339D01*
Y7397963D01*
X15473071D01*
Y7394495D01*
X15474806D01*
Y7391028D01*
X15476540D01*
Y7385826D01*
X15478275D01*
Y7380625D01*
X15480008D01*
Y7377157D01*
X15481741D01*
Y7371955D01*
X15483476D01*
Y7366754D01*
X15485210D01*
Y7361552D01*
X15486943D01*
Y7358085D01*
X15488676D01*
Y7352883D01*
X15490411D01*
Y7347682D01*
X15492145D01*
Y7342480D01*
X15493880D01*
Y7337278D01*
X15495612D01*
Y7332077D01*
X15497346D01*
Y7325142D01*
X15499080D01*
Y7319940D01*
X15500813D01*
Y7313005D01*
X15502548D01*
Y7306069D01*
X15504282D01*
Y7300868D01*
X15506015D01*
Y7292199D01*
X15507748D01*
Y7286997D01*
X15509483D01*
Y7278328D01*
X15511217D01*
Y7271392D01*
X15512952D01*
Y7262723D01*
X15514685D01*
Y7254054D01*
X15516418D01*
Y7245385D01*
X15518152D01*
Y7234981D01*
X15519885D01*
Y7224578D01*
X15521620D01*
Y7212442D01*
X15523354D01*
Y7198571D01*
X15525089D01*
Y7182966D01*
X15526822D01*
Y7162160D01*
X15528555D01*
Y7127483D01*
X15530289D01*
Y7087605D01*
X15528555D01*
Y7051194D01*
X15526822D01*
Y7032122D01*
X15525089D01*
Y7014783D01*
X15523354D01*
Y7002646D01*
X15521620D01*
Y6990509D01*
X15519885D01*
Y6980106D01*
X15518152D01*
Y6971437D01*
X15516418D01*
Y6961034D01*
X15514685D01*
Y6950631D01*
X15512952D01*
Y6943695D01*
X15511217D01*
Y6936760D01*
X15509483D01*
Y6928091D01*
X15507748D01*
Y6921155D01*
X15506015D01*
Y6914220D01*
X15504282D01*
Y6907285D01*
X15502548D01*
Y6902083D01*
X15500813D01*
Y6895148D01*
X15499080D01*
Y6888212D01*
X15497346D01*
Y6883011D01*
X15495612D01*
Y6877809D01*
X15493880D01*
Y6872608D01*
X15492145D01*
Y6867406D01*
X15490411D01*
Y6862205D01*
X15488676D01*
Y6857003D01*
X15486943D01*
Y6853535D01*
X15485210D01*
Y6846600D01*
X15483476D01*
Y6843132D01*
X15481741D01*
Y6837931D01*
X15480008D01*
Y6832729D01*
X15478275D01*
Y6829261D01*
X15476540D01*
Y6824060D01*
X15474806D01*
Y6820592D01*
X15473071D01*
Y6815391D01*
X15471339D01*
Y6811923D01*
X15469604D01*
Y6806721D01*
X15467871D01*
Y6803254D01*
X15466138D01*
Y6799786D01*
X15464403D01*
Y6796318D01*
X15462669D01*
Y6791117D01*
X15460936D01*
Y6787649D01*
X15459201D01*
Y6784182D01*
X15457468D01*
Y6780714D01*
X15455734D01*
Y6777246D01*
X15453999D01*
Y6773778D01*
X15452266D01*
Y6770311D01*
X15450533D01*
Y6765109D01*
X15448798D01*
Y6761642D01*
X15447066D01*
Y6759908D01*
X15445331D01*
Y6756440D01*
X15443597D01*
Y6752972D01*
X15441862D01*
Y6749505D01*
X15440129D01*
Y6746037D01*
X15438396D01*
Y6742569D01*
X15436662D01*
Y6739102D01*
X15434927D01*
Y6735634D01*
X15433194D01*
Y6732166D01*
X15431461D01*
Y6730432D01*
X15429726D01*
Y6726965D01*
X15427992D01*
Y6725231D01*
X15426257D01*
Y6721763D01*
X15424525D01*
Y6718295D01*
X15422791D01*
Y6714828D01*
X15421057D01*
Y6713094D01*
X15419324D01*
Y6709626D01*
X15417589D01*
Y6706159D01*
X15415855D01*
Y6704424D01*
X15414122D01*
Y6700957D01*
X15412389D01*
Y6699223D01*
X15410654D01*
Y6695755D01*
X15408920D01*
Y6692288D01*
X15407185D01*
Y6690554D01*
X15405452D01*
Y6687086D01*
X15403719D01*
Y6685352D01*
X15401985D01*
Y6681885D01*
X15400250D01*
Y6680151D01*
X15398517D01*
Y6676683D01*
X15396783D01*
Y6674949D01*
X15395049D01*
Y6671481D01*
X15393315D01*
Y6669748D01*
X15391582D01*
Y6668014D01*
X15389848D01*
Y6664546D01*
X15388113D01*
Y6662812D01*
X15386380D01*
Y6661078D01*
X15384647D01*
Y6657611D01*
X15382912D01*
Y6655877D01*
X15381178D01*
Y6652409D01*
X15379445D01*
Y6650675D01*
X15377711D01*
Y6648941D01*
X15375977D01*
Y6645474D01*
X15374243D01*
Y6643740D01*
X15372508D01*
Y6642006D01*
X15370775D01*
Y6638538D01*
X15369041D01*
Y6636805D01*
X15367308D01*
Y6635071D01*
X15365575D01*
Y6633337D01*
X15363840D01*
Y6629869D01*
X15362106D01*
Y6628135D01*
X15360371D01*
Y6626402D01*
X15358640D01*
Y6624668D01*
X15356905D01*
Y6622934D01*
X15355171D01*
Y6621200D01*
X15353436D01*
Y6619466D01*
X15351703D01*
Y6617732D01*
X15349969D01*
Y6615998D01*
X15348235D01*
Y6614265D01*
X15344768D01*
Y6612531D01*
X15343034D01*
Y6610797D01*
X15341299D01*
Y6609063D01*
X15337833D01*
Y6607329D01*
X15336099D01*
Y6605595D01*
X15332631D01*
Y6603862D01*
X15329163D01*
Y6602128D01*
X15325696D01*
Y6600394D01*
X15320494D01*
Y6598660D01*
X15315292D01*
Y6596926D01*
X15306622D01*
Y6595192D01*
X15287550D01*
Y6596926D01*
X15280615D01*
Y6598660D01*
X15275414D01*
Y6600394D01*
X15271947D01*
Y6602128D01*
X15270212D01*
Y6603862D01*
X15266745D01*
Y6605595D01*
X15265012D01*
Y6607329D01*
X15263277D01*
Y6609063D01*
X15261543D01*
Y6610797D01*
X15259808D01*
Y6614265D01*
X15258075D01*
Y6615998D01*
X15256342D01*
Y6619466D01*
X15254608D01*
Y6622934D01*
X15252875D01*
Y6628135D01*
X15251140D01*
Y6635071D01*
X15249406D01*
Y6659345D01*
X15251140D01*
Y6668014D01*
X15252875D01*
Y6673215D01*
X15254608D01*
Y6678417D01*
X15256342D01*
Y6683618D01*
X15258075D01*
Y6687086D01*
X15259808D01*
Y6690554D01*
X15261543D01*
Y6692288D01*
X15263277D01*
Y6695755D01*
X15265012D01*
Y6697489D01*
X15266745D01*
Y6700957D01*
X15268478D01*
Y6702691D01*
X15270212D01*
Y6706159D01*
X15271947D01*
Y6707892D01*
X15273680D01*
Y6709626D01*
X15275414D01*
Y6711360D01*
X15277148D01*
Y6714828D01*
X15278882D01*
Y6716562D01*
X15280615D01*
Y6718295D01*
X15282349D01*
Y6721763D01*
X15284084D01*
Y6723497D01*
X15285817D01*
Y6725231D01*
X15287550D01*
Y6728699D01*
X15289285D01*
Y6730432D01*
X15291019D01*
Y6733900D01*
X15292752D01*
Y6735634D01*
X15294485D01*
Y6737368D01*
X15296220D01*
Y6740835D01*
X15297954D01*
Y6742569D01*
X15299689D01*
Y6746037D01*
X15301422D01*
Y6747771D01*
X15303156D01*
Y6751238D01*
X15304889D01*
Y6752972D01*
X15306622D01*
Y6756440D01*
X15308357D01*
Y6758174D01*
X15310091D01*
Y6761642D01*
X15311826D01*
Y6765109D01*
X15313557D01*
Y6766843D01*
X15315292D01*
Y6770311D01*
X15317026D01*
Y6772045D01*
X15318761D01*
Y6775512D01*
X15320494D01*
Y6778980D01*
X15322227D01*
Y6782448D01*
X15323961D01*
Y6784182D01*
X15325696D01*
Y6787649D01*
X15327429D01*
Y6791117D01*
X15329163D01*
Y6794585D01*
X15330898D01*
Y6796318D01*
X15332631D01*
Y6799786D01*
X15334364D01*
Y6803254D01*
X15336099D01*
Y6806721D01*
X15337833D01*
Y6810189D01*
X15339566D01*
Y6813657D01*
X15341299D01*
Y6817125D01*
X15343034D01*
Y6820592D01*
X15344768D01*
Y6824060D01*
X15346503D01*
Y6827528D01*
X15348235D01*
Y6830995D01*
X15349969D01*
Y6834463D01*
X15351703D01*
Y6837931D01*
X15353436D01*
Y6841399D01*
X15355171D01*
Y6844866D01*
X15356905D01*
Y6850068D01*
X15358640D01*
Y6853535D01*
X15360371D01*
Y6858737D01*
X15362106D01*
Y6862205D01*
X15363840D01*
Y6867406D01*
X15365575D01*
Y6870874D01*
X15367308D01*
Y6876075D01*
X15369041D01*
Y6879543D01*
X15370775D01*
Y6884745D01*
X15372508D01*
Y6888212D01*
X15374243D01*
Y6895148D01*
X15375977D01*
Y6898615D01*
X15377711D01*
Y6905551D01*
X15379445D01*
Y6909018D01*
X15381178D01*
Y6915954D01*
X15382912D01*
Y6921155D01*
X15384647D01*
Y6926357D01*
X15386380D01*
Y6933292D01*
X15388113D01*
Y6940228D01*
X15389848D01*
Y6945429D01*
X15391582D01*
Y6952365D01*
X15393315D01*
Y6959300D01*
X15395049D01*
Y6967969D01*
X15396783D01*
Y6976638D01*
X15398517D01*
Y6985308D01*
X15400250D01*
Y6993977D01*
X15401985D01*
Y7004380D01*
X15403719D01*
Y7014783D01*
X15405452D01*
Y7026920D01*
X15407185D01*
Y7044258D01*
X15408920D01*
Y7065065D01*
X15410654D01*
Y7148289D01*
X15408920D01*
Y7169095D01*
X15407185D01*
Y7186434D01*
X15405452D01*
Y7198571D01*
X15403719D01*
Y7210708D01*
X15401985D01*
Y7221111D01*
X15400250D01*
Y7229780D01*
X15398517D01*
Y7238449D01*
X15396783D01*
Y7247118D01*
X15395049D01*
Y7254054D01*
X15393315D01*
Y7260989D01*
X15391582D01*
Y7269659D01*
X15389848D01*
Y7274860D01*
X15388113D01*
Y7281795D01*
X15386380D01*
Y7288731D01*
X15384647D01*
Y7293932D01*
X15382912D01*
Y7299134D01*
X15381178D01*
Y7304335D01*
X15379445D01*
Y7311271D01*
X15377711D01*
Y7314738D01*
X15375977D01*
Y7319940D01*
X15374243D01*
Y7325142D01*
X15372508D01*
Y7330343D01*
X15370775D01*
Y7335545D01*
X15369041D01*
Y7339012D01*
X15367308D01*
Y7344214D01*
X15365575D01*
Y7349415D01*
X15363840D01*
Y7352883D01*
X15362106D01*
Y7356351D01*
X15360371D01*
Y7361552D01*
X15358640D01*
Y7365020D01*
X15356905D01*
Y7368488D01*
X15355171D01*
Y7371955D01*
X15353436D01*
Y7375423D01*
X15351703D01*
Y7380625D01*
X15349969D01*
Y7384092D01*
X15348235D01*
Y7387560D01*
X15346503D01*
Y7391028D01*
X15344768D01*
Y7394495D01*
X15343034D01*
Y7397963D01*
X15341299D01*
Y7401431D01*
X15339566D01*
Y7404899D01*
X15337833D01*
Y7408366D01*
X15336099D01*
Y7411834D01*
X15334364D01*
Y7415302D01*
X15332631D01*
Y7417035D01*
X15330898D01*
Y7420503D01*
X15329163D01*
Y7423971D01*
X15327429D01*
Y7427439D01*
X15325696D01*
Y7430906D01*
X15323961D01*
Y7432640D01*
X15322227D01*
Y7436108D01*
X15320494D01*
Y7439575D01*
X15318761D01*
Y7441309D01*
X15317026D01*
Y7444777D01*
X15315292D01*
Y7448245D01*
X15313557D01*
Y7449978D01*
X15311826D01*
Y7453446D01*
X15310091D01*
Y7455180D01*
X15308357D01*
Y7458648D01*
X15306622D01*
Y7460382D01*
X15304889D01*
Y7463849D01*
X15303156D01*
Y7465583D01*
X15301422D01*
Y7469051D01*
X15299689D01*
Y7472518D01*
X15297954D01*
Y7474252D01*
X15296220D01*
Y7475986D01*
X15294485D01*
Y7479454D01*
X15292752D01*
Y7481188D01*
X15291019D01*
Y7482922D01*
X15289285D01*
Y7486389D01*
X15287550D01*
Y7488123D01*
X15285817D01*
Y7491591D01*
X15284084D01*
Y7493325D01*
X15282349D01*
Y7496792D01*
X15280615D01*
Y7498526D01*
X15278882D01*
Y7500260D01*
X15277148D01*
Y7501994D01*
X15275414D01*
Y7505461D01*
X15273680D01*
Y7507195D01*
X15271947D01*
Y7508929D01*
X15270212D01*
Y7512397D01*
X15268478D01*
Y7514131D01*
X15266745D01*
Y7515865D01*
X15265012D01*
Y7519332D01*
X15263277D01*
Y7521066D01*
X15261543D01*
Y7524534D01*
X15259808D01*
Y7528001D01*
X15258075D01*
Y7531469D01*
X15256342D01*
Y7536671D01*
X15254608D01*
Y7540138D01*
X15252875D01*
Y7547074D01*
X15251140D01*
Y7554009D01*
X15249406D01*
Y7567880D01*
X15251140D01*
Y7569614D01*
X15249406D01*
Y7580017D01*
X15251140D01*
Y7586952D01*
X15252875D01*
Y7592154D01*
X15254608D01*
Y7595622D01*
X15256342D01*
Y7597355D01*
X15258075D01*
Y7600823D01*
X15259808D01*
Y7604291D01*
X15261543D01*
Y7606025D01*
X15263277D01*
Y7607758D01*
X15265012D01*
Y7609492D01*
X15268478D01*
Y7611226D01*
X15270212D01*
Y7612960D01*
X15273680D01*
Y7614694D01*
X15277148D01*
Y7616428D01*
X15280615D01*
Y7618162D01*
X15289285D01*
Y7619895D01*
X15304889D01*
Y7618162D01*
D02*
G37*
G36*
X15554562Y7723926D02*
X15563232D01*
Y7722192D01*
X15568434D01*
Y7720459D01*
X15573634D01*
Y7718725D01*
X15577103D01*
Y7716991D01*
X15580571D01*
Y7715257D01*
X15584038D01*
Y7713523D01*
X15585773D01*
Y7711789D01*
X15589240D01*
Y7710055D01*
X15590974D01*
Y7708322D01*
X15594443D01*
Y7706588D01*
X15596176D01*
Y7704854D01*
X15597910D01*
Y7703120D01*
X15599643D01*
Y7701386D01*
X15603111D01*
Y7697919D01*
X15604845D01*
Y7696185D01*
X15606580D01*
Y7694451D01*
X15608311D01*
Y7692717D01*
X15610046D01*
Y7690983D01*
X15611780D01*
Y7689249D01*
X15613515D01*
Y7685781D01*
X15615248D01*
Y7684048D01*
X15616982D01*
Y7682314D01*
X15618716D01*
Y7680580D01*
X15620448D01*
Y7677112D01*
X15622183D01*
Y7675378D01*
X15623917D01*
Y7673645D01*
X15625652D01*
Y7671911D01*
X15627385D01*
Y7670177D01*
X15629118D01*
Y7666709D01*
X15630852D01*
Y7664975D01*
X15632587D01*
Y7661508D01*
X15634320D01*
Y7659774D01*
X15636053D01*
Y7658040D01*
X15637788D01*
Y7656306D01*
X15639522D01*
Y7652838D01*
X15641255D01*
Y7651105D01*
X15642989D01*
Y7649371D01*
X15644724D01*
Y7645903D01*
X15646457D01*
Y7644169D01*
X15648190D01*
Y7640702D01*
X15649925D01*
Y7638968D01*
X15651659D01*
Y7635500D01*
X15653392D01*
Y7633766D01*
X15655125D01*
Y7632032D01*
X15656860D01*
Y7628565D01*
X15658594D01*
Y7626831D01*
X15660329D01*
Y7625097D01*
X15662062D01*
Y7621629D01*
X15663795D01*
Y7619895D01*
X15665529D01*
Y7616428D01*
X15667262D01*
Y7614694D01*
X15668997D01*
Y7611226D01*
X15670731D01*
Y7607758D01*
X15672466D01*
Y7606025D01*
X15674199D01*
Y7604291D01*
X15675932D01*
Y7600823D01*
X15677666D01*
Y7597355D01*
X15679401D01*
Y7595622D01*
X15681134D01*
Y7592154D01*
X15682867D01*
Y7590420D01*
X15684602D01*
Y7586952D01*
X15686336D01*
Y7583485D01*
X15688069D01*
Y7581751D01*
X15689803D01*
Y7578283D01*
X15691537D01*
Y7574815D01*
X15693271D01*
Y7573082D01*
X15695004D01*
Y7569614D01*
X15696738D01*
Y7566146D01*
X15698473D01*
Y7564412D01*
X15700206D01*
Y7560944D01*
X15701939D01*
Y7557477D01*
X15703674D01*
Y7554009D01*
X15705408D01*
Y7550541D01*
X15707143D01*
Y7548808D01*
X15708875D01*
Y7545340D01*
X15710609D01*
Y7541872D01*
X15712343D01*
Y7538405D01*
X15714078D01*
Y7534937D01*
X15715811D01*
Y7531469D01*
X15717545D01*
Y7528001D01*
X15719278D01*
Y7524534D01*
X15721013D01*
Y7522800D01*
X15722746D01*
Y7519332D01*
X15724480D01*
Y7515865D01*
X15726215D01*
Y7512397D01*
X15727948D01*
Y7507195D01*
X15729681D01*
Y7503728D01*
X15731416D01*
Y7500260D01*
X15733150D01*
Y7496792D01*
X15734883D01*
Y7493325D01*
X15736617D01*
Y7489857D01*
X15738351D01*
Y7486389D01*
X15740085D01*
Y7482922D01*
X15741818D01*
Y7477720D01*
X15743552D01*
Y7474252D01*
X15745287D01*
Y7470785D01*
X15747020D01*
Y7467317D01*
X15748753D01*
Y7462115D01*
X15750488D01*
Y7458648D01*
X15752222D01*
Y7453446D01*
X15753957D01*
Y7449978D01*
X15755688D01*
Y7444777D01*
X15757423D01*
Y7441309D01*
X15759157D01*
Y7436108D01*
X15760892D01*
Y7432640D01*
X15762625D01*
Y7427439D01*
X15764359D01*
Y7422237D01*
X15766092D01*
Y7418769D01*
X15767825D01*
Y7413568D01*
X15769560D01*
Y7408366D01*
X15771294D01*
Y7403165D01*
X15773029D01*
Y7397963D01*
X15774762D01*
Y7391028D01*
X15776495D01*
Y7387560D01*
X15778229D01*
Y7382358D01*
X15779964D01*
Y7375423D01*
X15781697D01*
Y7370221D01*
X15783430D01*
Y7365020D01*
X15785165D01*
Y7358085D01*
X15786899D01*
Y7352883D01*
X15788632D01*
Y7345948D01*
X15790366D01*
Y7339012D01*
X15792101D01*
Y7332077D01*
X15793834D01*
Y7325142D01*
X15795567D01*
Y7318206D01*
X15797302D01*
Y7311271D01*
X15799036D01*
Y7304335D01*
X15800769D01*
Y7295666D01*
X15802502D01*
Y7286997D01*
X15804237D01*
Y7278328D01*
X15805971D01*
Y7267925D01*
X15807706D01*
Y7257521D01*
X15809439D01*
Y7247118D01*
X15811172D01*
Y7234981D01*
X15812906D01*
Y7222845D01*
X15814639D01*
Y7208974D01*
X15816374D01*
Y7189902D01*
X15818108D01*
Y7169095D01*
X15819843D01*
Y7132684D01*
X15821574D01*
Y7082403D01*
X15819843D01*
Y7044258D01*
X15818108D01*
Y7023452D01*
X15816374D01*
Y7006114D01*
X15814639D01*
Y6992243D01*
X15812906D01*
Y6980106D01*
X15811172D01*
Y6967969D01*
X15809439D01*
Y6957566D01*
X15807706D01*
Y6947163D01*
X15805971D01*
Y6936760D01*
X15804237D01*
Y6928091D01*
X15802502D01*
Y6919422D01*
X15800769D01*
Y6910752D01*
X15799036D01*
Y6903817D01*
X15797302D01*
Y6895148D01*
X15795567D01*
Y6888212D01*
X15793834D01*
Y6881277D01*
X15792101D01*
Y6876075D01*
X15790366D01*
Y6869140D01*
X15788632D01*
Y6862205D01*
X15786899D01*
Y6857003D01*
X15785165D01*
Y6850068D01*
X15783430D01*
Y6844866D01*
X15781697D01*
Y6839665D01*
X15779964D01*
Y6832729D01*
X15778229D01*
Y6827528D01*
X15776495D01*
Y6822326D01*
X15774762D01*
Y6817125D01*
X15773029D01*
Y6811923D01*
X15771294D01*
Y6806721D01*
X15769560D01*
Y6801520D01*
X15767825D01*
Y6796318D01*
X15766092D01*
Y6791117D01*
X15764359D01*
Y6787649D01*
X15762625D01*
Y6782448D01*
X15760892D01*
Y6777246D01*
X15759157D01*
Y6773778D01*
X15757423D01*
Y6770311D01*
X15755688D01*
Y6765109D01*
X15753957D01*
Y6759908D01*
X15752222D01*
Y6756440D01*
X15750488D01*
Y6752972D01*
X15748753D01*
Y6747771D01*
X15747020D01*
Y6744303D01*
X15745287D01*
Y6740835D01*
X15743552D01*
Y6737368D01*
X15741818D01*
Y6732166D01*
X15740085D01*
Y6728699D01*
X15738351D01*
Y6725231D01*
X15736617D01*
Y6721763D01*
X15734883D01*
Y6716562D01*
X15733150D01*
Y6713094D01*
X15731416D01*
Y6709626D01*
X15729681D01*
Y6706159D01*
X15727948D01*
Y6702691D01*
X15726215D01*
Y6699223D01*
X15724480D01*
Y6695755D01*
X15722746D01*
Y6692288D01*
X15721013D01*
Y6688820D01*
X15719278D01*
Y6685352D01*
X15717545D01*
Y6681885D01*
X15715811D01*
Y6678417D01*
X15714078D01*
Y6676683D01*
X15712343D01*
Y6673215D01*
X15710609D01*
Y6669748D01*
X15708875D01*
Y6666280D01*
X15707143D01*
Y6662812D01*
X15705408D01*
Y6659345D01*
X15703674D01*
Y6657611D01*
X15701939D01*
Y6654143D01*
X15700206D01*
Y6650675D01*
X15698473D01*
Y6647208D01*
X15696738D01*
Y6645474D01*
X15695004D01*
Y6642006D01*
X15693271D01*
Y6640272D01*
X15691537D01*
Y6636805D01*
X15689803D01*
Y6633337D01*
X15688069D01*
Y6629869D01*
X15686336D01*
Y6628135D01*
X15684602D01*
Y6626402D01*
X15682867D01*
Y6622934D01*
X15681134D01*
Y6619466D01*
X15679401D01*
Y6615998D01*
X15677666D01*
Y6614265D01*
X15675932D01*
Y6610797D01*
X15674199D01*
Y6609063D01*
X15672466D01*
Y6605595D01*
X15670731D01*
Y6603862D01*
X15668997D01*
Y6600394D01*
X15667262D01*
Y6598660D01*
X15665529D01*
Y6595192D01*
X15663795D01*
Y6593458D01*
X15662062D01*
Y6589991D01*
X15660329D01*
Y6588257D01*
X15658594D01*
Y6584789D01*
X15656860D01*
Y6583055D01*
X15655125D01*
Y6581322D01*
X15653392D01*
Y6577854D01*
X15651659D01*
Y6576120D01*
X15649925D01*
Y6572652D01*
X15648190D01*
Y6570919D01*
X15646457D01*
Y6567451D01*
X15644724D01*
Y6565717D01*
X15642989D01*
Y6563983D01*
X15641255D01*
Y6560515D01*
X15639522D01*
Y6558781D01*
X15637788D01*
Y6557048D01*
X15636053D01*
Y6553580D01*
X15634320D01*
Y6551846D01*
X15632587D01*
Y6550112D01*
X15630852D01*
Y6548378D01*
X15629118D01*
Y6544911D01*
X15627385D01*
Y6543177D01*
X15625652D01*
Y6541443D01*
X15623917D01*
Y6539709D01*
X15622183D01*
Y6536241D01*
X15620448D01*
Y6534508D01*
X15618716D01*
Y6532774D01*
X15616982D01*
Y6531040D01*
X15615248D01*
Y6527572D01*
X15613515D01*
Y6525838D01*
X15611780D01*
Y6524105D01*
X15610046D01*
Y6522371D01*
X15608311D01*
Y6520637D01*
X15606580D01*
Y6518903D01*
X15604845D01*
Y6517169D01*
X15603111D01*
Y6515435D01*
X15601376D01*
Y6513701D01*
X15599643D01*
Y6511968D01*
X15597910D01*
Y6510234D01*
X15596176D01*
Y6508500D01*
X15594443D01*
Y6506766D01*
X15590974D01*
Y6505032D01*
X15589240D01*
Y6503298D01*
X15587506D01*
Y6501565D01*
X15584038D01*
Y6499831D01*
X15580571D01*
Y6498097D01*
X15577103D01*
Y6496363D01*
X15573634D01*
Y6494629D01*
X15568434D01*
Y6492895D01*
X15563232D01*
Y6491162D01*
X15556297D01*
Y6489428D01*
X15533757D01*
Y6491162D01*
X15528555D01*
Y6492895D01*
X15523354D01*
Y6494629D01*
X15519885D01*
Y6496363D01*
X15518152D01*
Y6498097D01*
X15514685D01*
Y6499831D01*
X15512952D01*
Y6501565D01*
X15511217D01*
Y6503298D01*
X15509483D01*
Y6505032D01*
X15507748D01*
Y6508500D01*
X15506015D01*
Y6510234D01*
X15504282D01*
Y6513701D01*
X15502548D01*
Y6517169D01*
X15500813D01*
Y6520637D01*
X15499080D01*
Y6527572D01*
X15497346D01*
Y6555314D01*
X15499080D01*
Y6562249D01*
X15500813D01*
Y6569184D01*
X15502548D01*
Y6572652D01*
X15504282D01*
Y6577854D01*
X15506015D01*
Y6581322D01*
X15507748D01*
Y6584789D01*
X15509483D01*
Y6586523D01*
X15511217D01*
Y6589991D01*
X15512952D01*
Y6591725D01*
X15514685D01*
Y6595192D01*
X15516418D01*
Y6596926D01*
X15518152D01*
Y6598660D01*
X15519885D01*
Y6600394D01*
X15521620D01*
Y6603862D01*
X15523354D01*
Y6605595D01*
X15525089D01*
Y6607329D01*
X15526822D01*
Y6609063D01*
X15528555D01*
Y6612531D01*
X15530289D01*
Y6614265D01*
X15532024D01*
Y6615998D01*
X15533757D01*
Y6617732D01*
X15535490D01*
Y6621200D01*
X15537225D01*
Y6622934D01*
X15538959D01*
Y6624668D01*
X15540692D01*
Y6628135D01*
X15542426D01*
Y6629869D01*
X15544160D01*
Y6631603D01*
X15545894D01*
Y6635071D01*
X15547627D01*
Y6636805D01*
X15549362D01*
Y6638538D01*
X15551096D01*
Y6642006D01*
X15552829D01*
Y6643740D01*
X15554562D01*
Y6647208D01*
X15556297D01*
Y6648941D01*
X15558031D01*
Y6650675D01*
X15559766D01*
Y6654143D01*
X15561497D01*
Y6655877D01*
X15563232D01*
Y6659345D01*
X15564966D01*
Y6661078D01*
X15566701D01*
Y6664546D01*
X15568434D01*
Y6666280D01*
X15570168D01*
Y6669748D01*
X15571902D01*
Y6671481D01*
X15573634D01*
Y6674949D01*
X15575369D01*
Y6676683D01*
X15577103D01*
Y6680151D01*
X15578838D01*
Y6681885D01*
X15580571D01*
Y6685352D01*
X15582304D01*
Y6688820D01*
X15584038D01*
Y6690554D01*
X15585773D01*
Y6694021D01*
X15587506D01*
Y6695755D01*
X15589240D01*
Y6699223D01*
X15590974D01*
Y6702691D01*
X15592708D01*
Y6704424D01*
X15594443D01*
Y6707892D01*
X15596176D01*
Y6711360D01*
X15597910D01*
Y6714828D01*
X15599643D01*
Y6718295D01*
X15601376D01*
Y6720029D01*
X15603111D01*
Y6723497D01*
X15604845D01*
Y6726965D01*
X15606580D01*
Y6730432D01*
X15608311D01*
Y6733900D01*
X15610046D01*
Y6737368D01*
X15611780D01*
Y6739102D01*
X15613515D01*
Y6742569D01*
X15615248D01*
Y6746037D01*
X15616982D01*
Y6749505D01*
X15618716D01*
Y6752972D01*
X15620448D01*
Y6756440D01*
X15622183D01*
Y6759908D01*
X15623917D01*
Y6765109D01*
X15625652D01*
Y6768577D01*
X15627385D01*
Y6772045D01*
X15629118D01*
Y6775512D01*
X15630852D01*
Y6778980D01*
X15632587D01*
Y6782448D01*
X15634320D01*
Y6787649D01*
X15636053D01*
Y6791117D01*
X15637788D01*
Y6794585D01*
X15639522D01*
Y6798052D01*
X15641255D01*
Y6803254D01*
X15642989D01*
Y6806721D01*
X15644724D01*
Y6811923D01*
X15646457D01*
Y6815391D01*
X15648190D01*
Y6820592D01*
X15649925D01*
Y6824060D01*
X15651659D01*
Y6829261D01*
X15653392D01*
Y6834463D01*
X15655125D01*
Y6839665D01*
X15656860D01*
Y6843132D01*
X15658594D01*
Y6848334D01*
X15660329D01*
Y6853535D01*
X15662062D01*
Y6858737D01*
X15663795D01*
Y6865672D01*
X15665529D01*
Y6870874D01*
X15667262D01*
Y6876075D01*
X15668997D01*
Y6881277D01*
X15670731D01*
Y6888212D01*
X15672466D01*
Y6893414D01*
X15674199D01*
Y6900349D01*
X15675932D01*
Y6907285D01*
X15677666D01*
Y6912486D01*
X15679401D01*
Y6919422D01*
X15681134D01*
Y6928091D01*
X15682867D01*
Y6935026D01*
X15684602D01*
Y6943695D01*
X15686336D01*
Y6952365D01*
X15688069D01*
Y6961034D01*
X15689803D01*
Y6971437D01*
X15691537D01*
Y6981840D01*
X15693271D01*
Y6992243D01*
X15695004D01*
Y7004380D01*
X15696738D01*
Y7019985D01*
X15698473D01*
Y7037323D01*
X15700206D01*
Y7058129D01*
X15701939D01*
Y7155225D01*
X15700206D01*
Y7177765D01*
X15698473D01*
Y7195103D01*
X15696738D01*
Y7208974D01*
X15695004D01*
Y7222845D01*
X15693271D01*
Y7233248D01*
X15691537D01*
Y7243651D01*
X15689803D01*
Y7254054D01*
X15688069D01*
Y7264457D01*
X15686336D01*
Y7271392D01*
X15684602D01*
Y7280062D01*
X15682867D01*
Y7286997D01*
X15681134D01*
Y7293932D01*
X15679401D01*
Y7302602D01*
X15677666D01*
Y7307803D01*
X15675932D01*
Y7314738D01*
X15674199D01*
Y7319940D01*
X15672466D01*
Y7326875D01*
X15670731D01*
Y7332077D01*
X15668997D01*
Y7339012D01*
X15667262D01*
Y7344214D01*
X15665529D01*
Y7349415D01*
X15663795D01*
Y7356351D01*
X15662062D01*
Y7359818D01*
X15660329D01*
Y7366754D01*
X15658594D01*
Y7370221D01*
X15656860D01*
Y7375423D01*
X15655125D01*
Y7380625D01*
X15653392D01*
Y7385826D01*
X15651659D01*
Y7389294D01*
X15649925D01*
Y7394495D01*
X15648190D01*
Y7397963D01*
X15646457D01*
Y7403165D01*
X15644724D01*
Y7408366D01*
X15642989D01*
Y7411834D01*
X15641255D01*
Y7415302D01*
X15639522D01*
Y7420503D01*
X15637788D01*
Y7423971D01*
X15636053D01*
Y7427439D01*
X15634320D01*
Y7432640D01*
X15632587D01*
Y7436108D01*
X15630852D01*
Y7439575D01*
X15629118D01*
Y7443043D01*
X15627385D01*
Y7446511D01*
X15625652D01*
Y7449978D01*
X15623917D01*
Y7453446D01*
X15622183D01*
Y7456914D01*
X15620448D01*
Y7462115D01*
X15618716D01*
Y7463849D01*
X15616982D01*
Y7467317D01*
X15615248D01*
Y7470785D01*
X15613515D01*
Y7474252D01*
X15611780D01*
Y7477720D01*
X15610046D01*
Y7481188D01*
X15608311D01*
Y7484655D01*
X15606580D01*
Y7488123D01*
X15604845D01*
Y7491591D01*
X15603111D01*
Y7495058D01*
X15601376D01*
Y7496792D01*
X15599643D01*
Y7500260D01*
X15597910D01*
Y7503728D01*
X15596176D01*
Y7507195D01*
X15594443D01*
Y7508929D01*
X15592708D01*
Y7512397D01*
X15590974D01*
Y7515865D01*
X15589240D01*
Y7517598D01*
X15587506D01*
Y7521066D01*
X15585773D01*
Y7524534D01*
X15584038D01*
Y7526268D01*
X15582304D01*
Y7529735D01*
X15580571D01*
Y7531469D01*
X15578838D01*
Y7534937D01*
X15577103D01*
Y7536671D01*
X15575369D01*
Y7540138D01*
X15573634D01*
Y7543606D01*
X15571902D01*
Y7545340D01*
X15570168D01*
Y7548808D01*
X15568434D01*
Y7550541D01*
X15566701D01*
Y7552275D01*
X15564966D01*
Y7555743D01*
X15563232D01*
Y7559211D01*
X15561497D01*
Y7560944D01*
X15559766D01*
Y7564412D01*
X15558031D01*
Y7566146D01*
X15556297D01*
Y7567880D01*
X15554562D01*
Y7571348D01*
X15552829D01*
Y7573082D01*
X15551096D01*
Y7576549D01*
X15549362D01*
Y7578283D01*
X15547627D01*
Y7580017D01*
X15545894D01*
Y7581751D01*
X15544160D01*
Y7585219D01*
X15542426D01*
Y7586952D01*
X15540692D01*
Y7590420D01*
X15538959D01*
Y7592154D01*
X15537225D01*
Y7593888D01*
X15535490D01*
Y7595622D01*
X15533757D01*
Y7599089D01*
X15532024D01*
Y7600823D01*
X15530289D01*
Y7602557D01*
X15528555D01*
Y7604291D01*
X15526822D01*
Y7607758D01*
X15525089D01*
Y7609492D01*
X15523354D01*
Y7611226D01*
X15521620D01*
Y7612960D01*
X15519885D01*
Y7616428D01*
X15518152D01*
Y7618162D01*
X15516418D01*
Y7619895D01*
X15514685D01*
Y7621629D01*
X15512952D01*
Y7625097D01*
X15511217D01*
Y7626831D01*
X15509483D01*
Y7630298D01*
X15507748D01*
Y7633766D01*
X15506015D01*
Y7637234D01*
X15504282D01*
Y7640702D01*
X15502548D01*
Y7645903D01*
X15500813D01*
Y7651105D01*
X15499080D01*
Y7658040D01*
X15497346D01*
Y7687515D01*
X15499080D01*
Y7694451D01*
X15500813D01*
Y7697919D01*
X15502548D01*
Y7701386D01*
X15504282D01*
Y7704854D01*
X15506015D01*
Y7706588D01*
X15507748D01*
Y7710055D01*
X15509483D01*
Y7711789D01*
X15511217D01*
Y7713523D01*
X15512952D01*
Y7715257D01*
X15516418D01*
Y7716991D01*
X15518152D01*
Y7718725D01*
X15519885D01*
Y7720459D01*
X15523354D01*
Y7722192D01*
X15528555D01*
Y7723926D01*
X15537225D01*
Y7725660D01*
X15554562D01*
Y7723926D01*
D02*
G37*
G36*
X7769343Y9112842D02*
X7466657D01*
Y9261158D01*
X7769343D01*
Y9112842D01*
D02*
G37*
G36*
X7964686Y8926683D02*
X7483314D01*
Y8964298D01*
D01*
Y9055275D01*
X7513270D01*
Y8993006D01*
Y8990371D01*
X7512992Y8988152D01*
X7512854Y8986349D01*
X7512576Y8985101D01*
X7512299Y8983991D01*
X7512160Y8983437D01*
X7511883Y8983021D01*
Y8982882D01*
X7511328Y8982189D01*
X7510635Y8981634D01*
X7509941Y8981218D01*
X7509387Y8980940D01*
X7508832Y8980802D01*
X7508277Y8980663D01*
X7507861D01*
X7506890Y8980802D01*
X7505919Y8980940D01*
X7504117Y8981495D01*
X7503423Y8981772D01*
X7502868Y8981911D01*
X7502452Y8982189D01*
X7502314D01*
X7501204Y8982882D01*
X7500095Y8983853D01*
X7497876Y8985794D01*
X7496905Y8986765D01*
X7496073Y8987597D01*
X7495518Y8988152D01*
X7495379Y8988291D01*
X7483314Y8977057D01*
X7485256Y8974838D01*
X7487336Y8972897D01*
X7489416Y8971094D01*
X7491496Y8969707D01*
X7493577Y8968459D01*
X7495657Y8967349D01*
X7497737Y8966517D01*
X7499540Y8965963D01*
X7501343Y8965408D01*
X7503007Y8964992D01*
X7504394Y8964714D01*
X7505642Y8964437D01*
X7506752D01*
X7507445Y8964298D01*
X7508138D01*
X7510773Y8964437D01*
X7513131Y8964853D01*
X7515211Y8965408D01*
X7517014Y8965963D01*
X7518401Y8966517D01*
X7519510Y8967072D01*
X7520065Y8967488D01*
X7520343Y8967627D01*
X7522145Y8969014D01*
X7523671Y8970400D01*
X7524919Y8971926D01*
X7525890Y8973451D01*
X7526722Y8974700D01*
X7527277Y8975670D01*
X7527554Y8976364D01*
X7527693Y8976641D01*
X7528109Y8977751D01*
X7528525Y8979137D01*
X7529080Y8982189D01*
X7529496Y8985378D01*
X7529773Y8988568D01*
X7529912Y8991619D01*
X7530050Y8992867D01*
Y8965408D01*
Y9055275D01*
X7483314D01*
Y9075000D01*
X7964686D01*
Y8926683D01*
D02*
G37*
G36*
X11651847Y5627303D02*
Y5434698D01*
X11228153D01*
Y5627303D01*
X11651847D01*
D02*
G37*
G36*
X7127410Y5916209D02*
X6868591D01*
Y6009791D01*
X7127410D01*
Y5916209D01*
D02*
G37*
G36*
X9055042Y5578260D02*
X8612958D01*
Y5723739D01*
X9055042D01*
Y5578260D01*
D02*
G37*
G36*
X12046000Y9115250D02*
X11476000D01*
Y9291000D01*
X12046000D01*
Y9115250D01*
D02*
G37*
G36*
X11740145Y7704222D02*
X11741255Y7704083D01*
X11742364Y7703944D01*
X11743751Y7703667D01*
X11745277Y7703390D01*
X11748466Y7702419D01*
X11750131Y7701726D01*
X11751934Y7701032D01*
X11753598Y7700061D01*
X11755262Y7698952D01*
X11756788Y7697704D01*
X11758313Y7696317D01*
X11758452Y7696178D01*
X11758590Y7695901D01*
X11759006Y7695485D01*
X11759561Y7694930D01*
X11760116Y7694098D01*
X11760809Y7693266D01*
X11761503Y7692156D01*
X11762196Y7690908D01*
X11763583Y7688134D01*
X11764831Y7684945D01*
X11765802Y7681339D01*
X11765941Y7679397D01*
X11766079Y7677317D01*
Y7677178D01*
Y7677040D01*
Y7676624D01*
Y7676069D01*
X11765941Y7674543D01*
X11765663Y7672602D01*
X11765109Y7670383D01*
X11764554Y7668025D01*
X11763583Y7665529D01*
X11762335Y7662894D01*
Y7662755D01*
X11762196Y7662617D01*
X11761919Y7662201D01*
X11761641Y7661646D01*
X11761087Y7660952D01*
X11760532Y7660120D01*
X11759977Y7659288D01*
X11759145Y7658179D01*
X11757204Y7655544D01*
X11756094Y7654018D01*
X11754707Y7652493D01*
X11753320Y7650690D01*
X11751656Y7648748D01*
X11749992Y7646807D01*
X11748050Y7644726D01*
X11725445Y7620457D01*
X11767327D01*
Y7611858D01*
X11706029D01*
X11740423Y7649026D01*
X11740561Y7649164D01*
X11740839Y7649580D01*
X11741394Y7650135D01*
X11742087Y7650828D01*
X11742919Y7651799D01*
X11743890Y7652909D01*
X11746109Y7655266D01*
X11748466Y7658040D01*
X11750685Y7660814D01*
X11752627Y7663449D01*
X11753459Y7664558D01*
X11754153Y7665668D01*
X11754291Y7665945D01*
X11754707Y7666638D01*
X11755123Y7667748D01*
X11755817Y7669135D01*
X11756371Y7670938D01*
X11756788Y7672879D01*
X11757204Y7674960D01*
X11757342Y7677178D01*
Y7677317D01*
Y7677456D01*
Y7677872D01*
X11757204Y7678427D01*
X11757065Y7679952D01*
X11756649Y7681755D01*
X11755955Y7683697D01*
X11754846Y7685916D01*
X11753459Y7688134D01*
X11751518Y7690353D01*
X11751240Y7690631D01*
X11750547Y7691186D01*
X11749299Y7692156D01*
X11747634Y7693127D01*
X11745693Y7694098D01*
X11743335Y7695069D01*
X11740561Y7695623D01*
X11737649Y7695901D01*
X11736817D01*
X11736262Y7695762D01*
X11734598Y7695623D01*
X11732518Y7695207D01*
X11730299Y7694514D01*
X11727803Y7693404D01*
X11725445Y7692018D01*
X11723087Y7690076D01*
X11722810Y7689799D01*
X11722255Y7688967D01*
X11721284Y7687718D01*
X11720175Y7685916D01*
X11719065Y7683697D01*
X11717956Y7680923D01*
X11717124Y7677733D01*
X11716708Y7673989D01*
X11708109D01*
Y7674127D01*
Y7674543D01*
X11708248Y7675237D01*
Y7676208D01*
X11708387Y7677317D01*
X11708664Y7678565D01*
X11708942Y7680091D01*
X11709358Y7681616D01*
X11710467Y7685083D01*
X11711160Y7686886D01*
X11711993Y7688689D01*
X11712963Y7690631D01*
X11714073Y7692295D01*
X11715460Y7694098D01*
X11716985Y7695762D01*
X11717124Y7695901D01*
X11717401Y7696178D01*
X11717817Y7696594D01*
X11718511Y7697149D01*
X11719343Y7697704D01*
X11720314Y7698536D01*
X11721562Y7699229D01*
X11722810Y7700061D01*
X11724335Y7700893D01*
X11725861Y7701587D01*
X11729467Y7702974D01*
X11731547Y7703528D01*
X11733627Y7703944D01*
X11735708Y7704222D01*
X11738065Y7704361D01*
X11739313D01*
X11740145Y7704222D01*
D02*
G37*
G36*
X11665117Y7702003D02*
X11668584Y7701864D01*
X11672052Y7701587D01*
X11673716Y7701448D01*
X11675103Y7701171D01*
X11676489Y7701032D01*
X11677599Y7700755D01*
X11677738D01*
X11678015Y7700616D01*
X11678292Y7700477D01*
X11678847Y7700339D01*
X11680373Y7699784D01*
X11682037Y7699091D01*
X11684117Y7697981D01*
X11686197Y7696594D01*
X11688278Y7694930D01*
X11690219Y7692850D01*
X11690497Y7692572D01*
X11691051Y7691740D01*
X11691745Y7690492D01*
X11692716Y7688828D01*
X11693686Y7686609D01*
X11694380Y7684113D01*
X11694934Y7681200D01*
X11695212Y7678011D01*
Y7677872D01*
Y7677594D01*
Y7677178D01*
X11695073Y7676485D01*
Y7675653D01*
X11694934Y7674821D01*
X11694657Y7672741D01*
X11693964Y7670383D01*
X11693132Y7667887D01*
X11692022Y7665390D01*
X11690358Y7663033D01*
X11690081Y7662755D01*
X11689526Y7662062D01*
X11688416Y7661091D01*
X11686891Y7659843D01*
X11685088Y7658595D01*
X11682869Y7657208D01*
X11680234Y7656098D01*
X11677183Y7655128D01*
X11676906D01*
X11676489Y7654989D01*
X11675935Y7654850D01*
X11675241D01*
X11674409Y7654712D01*
X11673300Y7654573D01*
X11672052Y7654434D01*
X11670526Y7654296D01*
X11668862Y7654157D01*
X11667059Y7654018D01*
X11664979D01*
X11662621Y7653880D01*
X11660125Y7653741D01*
X11647921D01*
Y7611858D01*
X11638906D01*
Y7702142D01*
X11661928D01*
X11665117Y7702003D01*
D02*
G37*
G36*
X11625731Y7693266D02*
X11605622D01*
Y7611858D01*
X11596607D01*
Y7693266D01*
X11576498D01*
Y7702142D01*
X11625731D01*
Y7693266D01*
D02*
G37*
G36*
X11807685Y7704222D02*
X11808378D01*
X11809349Y7704083D01*
X11811429Y7703667D01*
X11813925Y7703112D01*
X11816560Y7702142D01*
X11819195Y7700893D01*
X11821969Y7699229D01*
X11822108D01*
X11822246Y7698952D01*
X11822662Y7698674D01*
X11823217Y7698258D01*
X11824465Y7697149D01*
X11826130Y7695485D01*
X11827932Y7693404D01*
X11829874Y7690769D01*
X11831677Y7687718D01*
X11833341Y7684113D01*
Y7683974D01*
X11833480Y7683697D01*
X11833757Y7683003D01*
X11834034Y7682310D01*
X11834312Y7681200D01*
X11834728Y7679952D01*
X11835005Y7678565D01*
X11835421Y7676901D01*
X11835837Y7675098D01*
X11836253Y7673018D01*
X11836531Y7670799D01*
X11836808Y7668441D01*
X11837086Y7665806D01*
X11837363Y7663033D01*
X11837502Y7660120D01*
Y7656931D01*
Y7656792D01*
Y7656237D01*
Y7655266D01*
Y7654157D01*
X11837363Y7652631D01*
X11837224Y7650967D01*
Y7649164D01*
X11836947Y7647084D01*
X11836531Y7642785D01*
X11835699Y7638208D01*
X11834728Y7633770D01*
X11834034Y7631690D01*
X11833341Y7629749D01*
Y7629610D01*
X11833202Y7629332D01*
X11832925Y7628778D01*
X11832648Y7628084D01*
X11832232Y7627252D01*
X11831677Y7626281D01*
X11830429Y7624062D01*
X11828903Y7621705D01*
X11826962Y7619209D01*
X11824604Y7616712D01*
X11822108Y7614632D01*
X11821969D01*
X11821830Y7614355D01*
X11821414Y7614216D01*
X11820860Y7613800D01*
X11819334Y7613106D01*
X11817392Y7612136D01*
X11815035Y7611165D01*
X11812400Y7610471D01*
X11809349Y7609917D01*
X11806159Y7609639D01*
X11805327D01*
X11804772Y7609778D01*
X11803940D01*
X11803108Y7609917D01*
X11801028Y7610194D01*
X11798531Y7610887D01*
X11796035Y7611720D01*
X11793261Y7612829D01*
X11790626Y7614493D01*
X11790488D01*
X11790349Y7614771D01*
X11789517Y7615464D01*
X11788269Y7616574D01*
X11786743Y7618238D01*
X11784940Y7620318D01*
X11783137Y7622814D01*
X11781335Y7625865D01*
X11779809Y7629332D01*
Y7629471D01*
X11779670Y7629749D01*
X11779393Y7630303D01*
X11779254Y7631135D01*
X11778977Y7632106D01*
X11778561Y7633354D01*
X11778284Y7634880D01*
X11777867Y7636544D01*
X11777451Y7638347D01*
X11777174Y7640427D01*
X11776897Y7642646D01*
X11776481Y7645142D01*
X11776342Y7647777D01*
X11776065Y7650690D01*
X11775926Y7653741D01*
Y7656931D01*
Y7657069D01*
Y7657763D01*
Y7658595D01*
Y7659843D01*
X11776065Y7661368D01*
Y7663033D01*
X11776203Y7664974D01*
X11776342Y7667055D01*
X11776897Y7671492D01*
X11777451Y7676069D01*
X11778422Y7680368D01*
X11778977Y7682448D01*
X11779670Y7684390D01*
Y7684529D01*
X11779809Y7684806D01*
X11780086Y7685361D01*
X11780364Y7686054D01*
X11780780Y7686886D01*
X11781335Y7687718D01*
X11782444Y7689937D01*
X11783970Y7692295D01*
X11785911Y7694791D01*
X11787991Y7697149D01*
X11790488Y7699229D01*
X11790626D01*
X11790765Y7699507D01*
X11791181Y7699645D01*
X11791736Y7700061D01*
X11793123Y7700893D01*
X11795064Y7701864D01*
X11797422Y7702696D01*
X11800057Y7703528D01*
X11802969Y7704083D01*
X11806159Y7704361D01*
X11806991D01*
X11807685Y7704222D01*
D02*
G37*
G36*
X11634456Y6704421D02*
X11635843Y6704283D01*
X11637646Y6704005D01*
X11639588Y6703589D01*
X11641807Y6703034D01*
X11644025Y6702202D01*
X11644303Y6702064D01*
X11645135Y6701786D01*
X11646383Y6701231D01*
X11648186Y6700399D01*
X11650266Y6699290D01*
X11652763Y6697903D01*
X11655675Y6696239D01*
X11658726Y6694297D01*
X11699360Y6666977D01*
X11694645Y6659488D01*
X11657755Y6683896D01*
Y6683619D01*
X11658033Y6683064D01*
X11658171Y6682093D01*
X11658449Y6680984D01*
X11658726Y6679597D01*
X11659003Y6677933D01*
X11659142Y6676407D01*
X11659281Y6674743D01*
Y6673633D01*
X11659142Y6672940D01*
X11659003Y6671969D01*
X11658865Y6670998D01*
X11658310Y6668363D01*
X11657478Y6665590D01*
X11656091Y6662400D01*
X11655120Y6660874D01*
X11654149Y6659349D01*
X11653040Y6657823D01*
X11651653Y6656437D01*
X11651514Y6656298D01*
X11651237Y6656159D01*
X11650821Y6655743D01*
X11650266Y6655327D01*
X11649434Y6654772D01*
X11648602Y6654079D01*
X11647493Y6653385D01*
X11646383Y6652692D01*
X11643609Y6651305D01*
X11640281Y6650057D01*
X11636537Y6649225D01*
X11634595Y6649086D01*
X11632515Y6648948D01*
X11632376D01*
X11632099D01*
X11631821D01*
X11631267D01*
X11629741Y6649086D01*
X11627799Y6649364D01*
X11625719Y6649780D01*
X11623362Y6650473D01*
X11620865Y6651305D01*
X11618508Y6652553D01*
X11618369D01*
X11618230Y6652692D01*
X11617398Y6653247D01*
X11616289Y6654079D01*
X11614902Y6655188D01*
X11613238Y6656714D01*
X11611573Y6658378D01*
X11609909Y6660458D01*
X11608384Y6662816D01*
Y6662955D01*
X11608245Y6663093D01*
X11607968Y6663509D01*
X11607829Y6663925D01*
X11607136Y6665312D01*
X11606442Y6667115D01*
X11605887Y6669195D01*
X11605194Y6671692D01*
X11604778Y6674327D01*
X11604639Y6677100D01*
Y6678349D01*
X11604778Y6679735D01*
X11605055Y6681677D01*
X11605610Y6683757D01*
X11606165Y6686115D01*
X11607136Y6688473D01*
X11608384Y6690830D01*
Y6690969D01*
X11608522Y6691108D01*
X11609077Y6691940D01*
X11609909Y6693049D01*
X11611019Y6694436D01*
X11612406Y6696100D01*
X11614208Y6697764D01*
X11616150Y6699290D01*
X11618508Y6700815D01*
X11618785Y6700954D01*
X11619617Y6701370D01*
X11620865Y6702064D01*
X11622668Y6702757D01*
X11624748Y6703312D01*
X11627106Y6704005D01*
X11629602Y6704421D01*
X11632376Y6704560D01*
X11632653D01*
X11633347D01*
X11634456Y6704421D01*
D02*
G37*
G36*
X11697141Y6605123D02*
X11615734D01*
Y6590978D01*
X11606858Y6596248D01*
Y6614138D01*
X11697141D01*
Y6605123D01*
D02*
G37*
G36*
X11632515Y6566015D02*
X11633347D01*
X11634179Y6565876D01*
X11636259Y6565599D01*
X11638617Y6564905D01*
X11641113Y6564073D01*
X11643609Y6562964D01*
X11645967Y6561299D01*
X11646244Y6561022D01*
X11646938Y6560467D01*
X11647909Y6559358D01*
X11649157Y6557832D01*
X11650405Y6556029D01*
X11651792Y6553810D01*
X11652901Y6551175D01*
X11653872Y6548124D01*
Y6547847D01*
X11654011Y6547431D01*
X11654149Y6546876D01*
Y6546183D01*
X11654288Y6545351D01*
X11654427Y6544241D01*
X11654565Y6542993D01*
X11654704Y6541467D01*
X11654843Y6539803D01*
X11654982Y6538000D01*
Y6535920D01*
X11655120Y6533562D01*
X11655259Y6531066D01*
Y6518862D01*
X11697141D01*
Y6509848D01*
X11606858D01*
Y6532869D01*
X11606997Y6536059D01*
X11607136Y6539526D01*
X11607413Y6542993D01*
X11607552Y6544657D01*
X11607829Y6546044D01*
X11607968Y6547431D01*
X11608245Y6548540D01*
Y6548679D01*
X11608384Y6548956D01*
X11608522Y6549234D01*
X11608661Y6549789D01*
X11609216Y6551314D01*
X11609909Y6552978D01*
X11611019Y6555059D01*
X11612406Y6557139D01*
X11614070Y6559219D01*
X11616150Y6561161D01*
X11616427Y6561438D01*
X11617259Y6561993D01*
X11618508Y6562686D01*
X11620172Y6563657D01*
X11622391Y6564628D01*
X11624887Y6565321D01*
X11627799Y6565876D01*
X11630989Y6566153D01*
X11631128D01*
X11631405D01*
X11631821D01*
X11632515Y6566015D01*
D02*
G37*
G36*
X11615734Y6476563D02*
X11697141D01*
Y6467549D01*
X11615734D01*
Y6447440D01*
X11606858D01*
Y6496673D01*
X11615734D01*
Y6476563D01*
D02*
G37*
G36*
X11678335Y5911858D02*
X11669321D01*
Y5993266D01*
X11655175D01*
X11660445Y6002142D01*
X11678335D01*
Y5911858D01*
D02*
G37*
G36*
X11600256Y6002003D02*
X11603723Y6001864D01*
X11607190Y6001587D01*
X11608855Y6001448D01*
X11610241Y6001171D01*
X11611628Y6001032D01*
X11612738Y6000755D01*
X11612876D01*
X11613154Y6000616D01*
X11613431Y6000477D01*
X11613986Y6000339D01*
X11615511Y5999784D01*
X11617176Y5999091D01*
X11619256Y5997981D01*
X11621336Y5996594D01*
X11623416Y5994930D01*
X11625358Y5992850D01*
X11625635Y5992572D01*
X11626190Y5991740D01*
X11626884Y5990492D01*
X11627854Y5988828D01*
X11628825Y5986609D01*
X11629519Y5984113D01*
X11630073Y5981200D01*
X11630351Y5978011D01*
Y5977872D01*
Y5977595D01*
Y5977179D01*
X11630212Y5976485D01*
Y5975653D01*
X11630073Y5974821D01*
X11629796Y5972741D01*
X11629102Y5970383D01*
X11628270Y5967887D01*
X11627161Y5965390D01*
X11625497Y5963033D01*
X11625219Y5962755D01*
X11624665Y5962062D01*
X11623555Y5961091D01*
X11622030Y5959843D01*
X11620227Y5958595D01*
X11618008Y5957208D01*
X11615373Y5956099D01*
X11612322Y5955128D01*
X11612044D01*
X11611628Y5954989D01*
X11611074Y5954850D01*
X11610380D01*
X11609548Y5954712D01*
X11608439Y5954573D01*
X11607190Y5954434D01*
X11605665Y5954296D01*
X11604001Y5954157D01*
X11602198Y5954018D01*
X11600118D01*
X11597760Y5953880D01*
X11595264Y5953741D01*
X11583059D01*
Y5911858D01*
X11574045D01*
Y6002142D01*
X11597066D01*
X11600256Y6002003D01*
D02*
G37*
G36*
X11560870Y5993266D02*
X11540761D01*
Y5911858D01*
X11531746D01*
Y5993266D01*
X11511637D01*
Y6002142D01*
X11560870D01*
Y5993266D01*
D02*
G37*
G36*
X11744765Y6004222D02*
X11746429Y6003945D01*
X11748509Y6003529D01*
X11750590Y6002974D01*
X11752947Y6002142D01*
X11755166Y6001032D01*
X11755305D01*
X11755444Y6000894D01*
X11756137Y6000477D01*
X11757246Y5999784D01*
X11758633Y5998675D01*
X11760159Y5997426D01*
X11761684Y5995901D01*
X11763210Y5994237D01*
X11764597Y5992156D01*
X11764735Y5991879D01*
X11765151Y5991186D01*
X11765706Y5990076D01*
X11766400Y5988689D01*
X11766954Y5986886D01*
X11767509Y5984945D01*
X11767925Y5982726D01*
X11768064Y5980507D01*
Y5980230D01*
Y5979536D01*
X11767925Y5978288D01*
X11767648Y5976901D01*
X11767232Y5975098D01*
X11766677Y5973295D01*
X11765845Y5971354D01*
X11764735Y5969551D01*
X11764597Y5969412D01*
X11764181Y5968719D01*
X11763349Y5967887D01*
X11762378Y5966777D01*
X11760991Y5965390D01*
X11759327Y5964004D01*
X11757385Y5962617D01*
X11755166Y5961230D01*
X11755305D01*
X11755582Y5961091D01*
X11755998Y5960814D01*
X11756692Y5960398D01*
X11758217Y5959566D01*
X11760298Y5958318D01*
X11762378Y5956792D01*
X11764597Y5954989D01*
X11766677Y5953048D01*
X11768341Y5950967D01*
X11768480Y5950690D01*
X11769035Y5949996D01*
X11769589Y5948748D01*
X11770421Y5947084D01*
X11771115Y5945143D01*
X11771808Y5942924D01*
X11772224Y5940427D01*
X11772363Y5937654D01*
Y5937515D01*
Y5937238D01*
Y5936683D01*
X11772224Y5935851D01*
Y5935019D01*
X11771947Y5933909D01*
X11771531Y5931413D01*
X11770699Y5928639D01*
X11769451Y5925588D01*
X11768619Y5923924D01*
X11767786Y5922398D01*
X11766677Y5920873D01*
X11765429Y5919347D01*
X11765290Y5919209D01*
X11765013Y5918931D01*
X11764597Y5918515D01*
X11763903Y5917822D01*
X11763071Y5917128D01*
X11761962Y5916296D01*
X11760714Y5915464D01*
X11759327Y5914493D01*
X11757801Y5913661D01*
X11755998Y5912690D01*
X11754057Y5911858D01*
X11751976Y5911165D01*
X11749619Y5910472D01*
X11747123Y5910055D01*
X11744488Y5909778D01*
X11741714Y5909639D01*
X11740327D01*
X11739218Y5909778D01*
X11737969Y5909917D01*
X11736583Y5910055D01*
X11734918Y5910333D01*
X11733254Y5910749D01*
X11729648Y5911720D01*
X11727707Y5912413D01*
X11725765Y5913245D01*
X11723962Y5914216D01*
X11722159Y5915325D01*
X11720495Y5916574D01*
X11718970Y5918099D01*
X11718831Y5918238D01*
X11718692Y5918515D01*
X11718276Y5918931D01*
X11717722Y5919625D01*
X11717167Y5920457D01*
X11716612Y5921428D01*
X11715919Y5922398D01*
X11715225Y5923647D01*
X11713700Y5926420D01*
X11712590Y5929749D01*
X11711619Y5933216D01*
X11711481Y5935019D01*
X11711342Y5936960D01*
Y5937099D01*
Y5937238D01*
Y5937654D01*
Y5938208D01*
X11711619Y5939595D01*
X11711897Y5941398D01*
X11712313Y5943478D01*
X11713006Y5945836D01*
X11713977Y5948194D01*
X11715364Y5950413D01*
Y5950551D01*
X11715503Y5950690D01*
X11716196Y5951383D01*
X11717167Y5952631D01*
X11718554Y5954018D01*
X11720357Y5955683D01*
X11722714Y5957624D01*
X11725488Y5959427D01*
X11728816Y5961230D01*
X11728678D01*
X11728539Y5961369D01*
X11727707Y5961923D01*
X11726597Y5962617D01*
X11725072Y5963588D01*
X11723408Y5964836D01*
X11721743Y5966361D01*
X11720218Y5968025D01*
X11718831Y5969828D01*
X11718692Y5970106D01*
X11718276Y5970660D01*
X11717860Y5971770D01*
X11717305Y5973157D01*
X11716612Y5974821D01*
X11716196Y5976624D01*
X11715780Y5978704D01*
X11715641Y5980784D01*
Y5981062D01*
Y5981755D01*
X11715780Y5982865D01*
X11716057Y5984390D01*
X11716473Y5986193D01*
X11717167Y5987996D01*
X11717999Y5990076D01*
X11719108Y5992156D01*
X11719247Y5992434D01*
X11719802Y5993127D01*
X11720495Y5994098D01*
X11721605Y5995346D01*
X11722992Y5996872D01*
X11724656Y5998259D01*
X11726597Y5999784D01*
X11728816Y6001032D01*
X11728955D01*
X11729094Y6001171D01*
X11729926Y6001587D01*
X11731174Y6002142D01*
X11732838Y6002696D01*
X11734780Y6003251D01*
X11737137Y6003806D01*
X11739634Y6004222D01*
X11742269Y6004361D01*
X11743517D01*
X11744765Y6004222D01*
D02*
G37*
G36*
X11998159Y8196858D02*
X11989144D01*
Y8278266D01*
X11974999D01*
X11980269Y8287142D01*
X11998159D01*
Y8196858D01*
D02*
G37*
G36*
X11928540D02*
X11919525D01*
Y8278266D01*
X11905379D01*
X11910649Y8287142D01*
X11928540D01*
Y8196858D01*
D02*
G37*
G36*
X11850460Y8287003D02*
X11853928Y8286864D01*
X11857395Y8286587D01*
X11859059Y8286448D01*
X11860446Y8286171D01*
X11861833Y8286032D01*
X11862942Y8285755D01*
X11863081D01*
X11863358Y8285616D01*
X11863635Y8285477D01*
X11864190Y8285339D01*
X11865716Y8284784D01*
X11867380Y8284091D01*
X11869460Y8282981D01*
X11871540Y8281594D01*
X11873621Y8279930D01*
X11875562Y8277850D01*
X11875840Y8277572D01*
X11876394Y8276740D01*
X11877088Y8275492D01*
X11878059Y8273828D01*
X11879029Y8271609D01*
X11879723Y8269113D01*
X11880277Y8266200D01*
X11880555Y8263011D01*
Y8262872D01*
Y8262595D01*
Y8262179D01*
X11880416Y8261485D01*
Y8260653D01*
X11880277Y8259821D01*
X11880000Y8257741D01*
X11879307Y8255383D01*
X11878475Y8252887D01*
X11877365Y8250390D01*
X11875701Y8248033D01*
X11875424Y8247755D01*
X11874869Y8247062D01*
X11873759Y8246091D01*
X11872234Y8244843D01*
X11870431Y8243595D01*
X11868212Y8242208D01*
X11865577Y8241099D01*
X11862526Y8240128D01*
X11862249D01*
X11861833Y8239989D01*
X11861278Y8239850D01*
X11860584D01*
X11859752Y8239712D01*
X11858643Y8239573D01*
X11857395Y8239434D01*
X11855869Y8239296D01*
X11854205Y8239157D01*
X11852402Y8239018D01*
X11850322D01*
X11847964Y8238880D01*
X11845468Y8238741D01*
X11833264D01*
Y8196858D01*
X11824249D01*
Y8287142D01*
X11847271D01*
X11850460Y8287003D01*
D02*
G37*
G36*
X11811074Y8278266D02*
X11790965D01*
Y8196858D01*
X11781951D01*
Y8278266D01*
X11761841D01*
Y8287142D01*
X11811074D01*
Y8278266D01*
D02*
G37*
G36*
X11935197Y7976858D02*
X11926182D01*
Y8058266D01*
X11912036D01*
X11917306Y8067142D01*
X11935197D01*
Y7976858D01*
D02*
G37*
G36*
X11857118Y8067003D02*
X11860585Y8066864D01*
X11864052Y8066587D01*
X11865716Y8066448D01*
X11867103Y8066171D01*
X11868490Y8066032D01*
X11869599Y8065755D01*
X11869738D01*
X11870015Y8065616D01*
X11870292Y8065477D01*
X11870847Y8065339D01*
X11872373Y8064784D01*
X11874037Y8064091D01*
X11876117Y8062981D01*
X11878197Y8061594D01*
X11880278Y8059930D01*
X11882219Y8057850D01*
X11882497Y8057572D01*
X11883051Y8056740D01*
X11883745Y8055492D01*
X11884716Y8053828D01*
X11885686Y8051609D01*
X11886380Y8049113D01*
X11886935Y8046200D01*
X11887212Y8043011D01*
Y8042872D01*
Y8042595D01*
Y8042178D01*
X11887073Y8041485D01*
Y8040653D01*
X11886935Y8039821D01*
X11886657Y8037741D01*
X11885964Y8035383D01*
X11885132Y8032887D01*
X11884022Y8030390D01*
X11882358Y8028033D01*
X11882081Y8027755D01*
X11881526Y8027062D01*
X11880416Y8026091D01*
X11878891Y8024843D01*
X11877088Y8023595D01*
X11874869Y8022208D01*
X11872234Y8021099D01*
X11869183Y8020128D01*
X11868906D01*
X11868490Y8019989D01*
X11867935Y8019850D01*
X11867241D01*
X11866409Y8019712D01*
X11865300Y8019573D01*
X11864052Y8019434D01*
X11862526Y8019296D01*
X11860862Y8019157D01*
X11859059Y8019018D01*
X11856979D01*
X11854621Y8018880D01*
X11852125Y8018741D01*
X11839921D01*
Y7976858D01*
X11830906D01*
Y8067142D01*
X11853928D01*
X11857118Y8067003D01*
D02*
G37*
G36*
X11817731Y8058266D02*
X11797622D01*
Y7976858D01*
X11788608D01*
Y8058266D01*
X11768498D01*
Y8067142D01*
X11817731D01*
Y8058266D01*
D02*
G37*
G36*
X11999685Y8069222D02*
X12000378D01*
X12001349Y8069083D01*
X12003429Y8068667D01*
X12005925Y8068112D01*
X12008560Y8067142D01*
X12011195Y8065893D01*
X12013969Y8064229D01*
X12014108D01*
X12014246Y8063952D01*
X12014663Y8063674D01*
X12015217Y8063258D01*
X12016465Y8062149D01*
X12018130Y8060485D01*
X12019933Y8058405D01*
X12021874Y8055770D01*
X12023677Y8052718D01*
X12025341Y8049113D01*
Y8048974D01*
X12025480Y8048697D01*
X12025757Y8048003D01*
X12026035Y8047310D01*
X12026312Y8046200D01*
X12026728Y8044952D01*
X12027005Y8043565D01*
X12027421Y8041901D01*
X12027838Y8040098D01*
X12028254Y8038018D01*
X12028531Y8035799D01*
X12028808Y8033441D01*
X12029086Y8030806D01*
X12029363Y8028033D01*
X12029502Y8025120D01*
Y8021931D01*
Y8021792D01*
Y8021237D01*
Y8020266D01*
Y8019157D01*
X12029363Y8017631D01*
X12029224Y8015967D01*
Y8014164D01*
X12028947Y8012084D01*
X12028531Y8007785D01*
X12027699Y8003208D01*
X12026728Y7998770D01*
X12026035Y7996690D01*
X12025341Y7994749D01*
Y7994610D01*
X12025203Y7994333D01*
X12024925Y7993778D01*
X12024648Y7993084D01*
X12024232Y7992252D01*
X12023677Y7991281D01*
X12022429Y7989063D01*
X12020903Y7986705D01*
X12018962Y7984209D01*
X12016604Y7981712D01*
X12014108Y7979632D01*
X12013969D01*
X12013830Y7979355D01*
X12013414Y7979216D01*
X12012860Y7978800D01*
X12011334Y7978106D01*
X12009393Y7977136D01*
X12007035Y7976165D01*
X12004400Y7975471D01*
X12001349Y7974917D01*
X11998159Y7974639D01*
X11997327D01*
X11996772Y7974778D01*
X11995940D01*
X11995108Y7974917D01*
X11993028Y7975194D01*
X11990532Y7975888D01*
X11988035Y7976720D01*
X11985262Y7977829D01*
X11982627Y7979493D01*
X11982488D01*
X11982349Y7979771D01*
X11981517Y7980464D01*
X11980269Y7981574D01*
X11978743Y7983238D01*
X11976940Y7985318D01*
X11975138Y7987814D01*
X11973335Y7990865D01*
X11971809Y7994333D01*
Y7994471D01*
X11971670Y7994749D01*
X11971393Y7995303D01*
X11971254Y7996135D01*
X11970977Y7997106D01*
X11970561Y7998354D01*
X11970284Y7999880D01*
X11969868Y8001544D01*
X11969452Y8003347D01*
X11969174Y8005427D01*
X11968897Y8007646D01*
X11968481Y8010142D01*
X11968342Y8012777D01*
X11968065Y8015690D01*
X11967926Y8018741D01*
Y8021931D01*
Y8022069D01*
Y8022763D01*
Y8023595D01*
Y8024843D01*
X11968065Y8026369D01*
Y8028033D01*
X11968203Y8029974D01*
X11968342Y8032055D01*
X11968897Y8036492D01*
X11969452Y8041069D01*
X11970422Y8045368D01*
X11970977Y8047448D01*
X11971670Y8049390D01*
Y8049529D01*
X11971809Y8049806D01*
X11972087Y8050361D01*
X11972364Y8051054D01*
X11972780Y8051886D01*
X11973335Y8052718D01*
X11974444Y8054937D01*
X11975970Y8057295D01*
X11977911Y8059791D01*
X11979992Y8062149D01*
X11982488Y8064229D01*
X11982627D01*
X11982765Y8064507D01*
X11983181Y8064645D01*
X11983736Y8065061D01*
X11985123Y8065893D01*
X11987064Y8066864D01*
X11989422Y8067696D01*
X11992057Y8068528D01*
X11994969Y8069083D01*
X11998159Y8069361D01*
X11998991D01*
X11999685Y8069222D01*
D02*
G37*
G36*
X8507869Y5495003D02*
X8511336Y5494864D01*
X8514803Y5494587D01*
X8516467Y5494448D01*
X8517854Y5494171D01*
X8519241Y5494032D01*
X8520350Y5493755D01*
X8520489D01*
X8520766Y5493616D01*
X8521044Y5493477D01*
X8521598Y5493339D01*
X8523124Y5492784D01*
X8524788Y5492091D01*
X8526868Y5490981D01*
X8528949Y5489594D01*
X8531029Y5487930D01*
X8532970Y5485850D01*
X8533248Y5485572D01*
X8533803Y5484740D01*
X8534496Y5483492D01*
X8535467Y5481828D01*
X8536438Y5479609D01*
X8537131Y5477113D01*
X8537686Y5474200D01*
X8537963Y5471011D01*
Y5470872D01*
Y5470595D01*
Y5470179D01*
X8537824Y5469485D01*
Y5468653D01*
X8537686Y5467821D01*
X8537408Y5465741D01*
X8536715Y5463383D01*
X8535883Y5460887D01*
X8534773Y5458390D01*
X8533109Y5456033D01*
X8532832Y5455755D01*
X8532277Y5455062D01*
X8531168Y5454091D01*
X8529642Y5452843D01*
X8527839Y5451595D01*
X8525620Y5450208D01*
X8522985Y5449099D01*
X8519934Y5448128D01*
X8519657D01*
X8519241Y5447989D01*
X8518686Y5447850D01*
X8517993D01*
X8517161Y5447712D01*
X8516051Y5447573D01*
X8514803Y5447434D01*
X8513277Y5447296D01*
X8511613Y5447157D01*
X8509810Y5447018D01*
X8507730D01*
X8505372Y5446880D01*
X8502876Y5446741D01*
X8490672D01*
Y5404858D01*
X8481657D01*
Y5495142D01*
X8504679D01*
X8507869Y5495003D01*
D02*
G37*
G36*
X8468482Y5486266D02*
X8448373D01*
Y5404858D01*
X8439359D01*
Y5486266D01*
X8419250D01*
Y5495142D01*
X8468482D01*
Y5486266D01*
D02*
G37*
G36*
X8581926Y5497222D02*
X8583868Y5496945D01*
X8585948Y5496390D01*
X8588305Y5495835D01*
X8590663Y5494864D01*
X8593021Y5493616D01*
X8593159D01*
X8593298Y5493477D01*
X8594130Y5492923D01*
X8595240Y5492091D01*
X8596626Y5490981D01*
X8598291Y5489594D01*
X8599955Y5487791D01*
X8601480Y5485850D01*
X8603006Y5483492D01*
X8603145Y5483215D01*
X8603561Y5482383D01*
X8604254Y5481135D01*
X8604947Y5479332D01*
X8605502Y5477251D01*
X8606196Y5474894D01*
X8606612Y5472397D01*
X8606750Y5469624D01*
Y5469346D01*
Y5468653D01*
X8606612Y5467544D01*
X8606473Y5466157D01*
X8606196Y5464354D01*
X8605780Y5462412D01*
X8605225Y5460193D01*
X8604393Y5457974D01*
X8604254Y5457697D01*
X8603977Y5456865D01*
X8603422Y5455617D01*
X8602590Y5453814D01*
X8601480Y5451734D01*
X8600094Y5449237D01*
X8598429Y5446325D01*
X8596488Y5443274D01*
X8569167Y5402639D01*
X8561678Y5407355D01*
X8586086Y5444245D01*
X8585809D01*
X8585254Y5443967D01*
X8584284Y5443829D01*
X8583174Y5443551D01*
X8581787Y5443274D01*
X8580123Y5442996D01*
X8578598Y5442858D01*
X8576933Y5442719D01*
X8575824D01*
X8575130Y5442858D01*
X8574160Y5442996D01*
X8573189Y5443135D01*
X8570554Y5443690D01*
X8567780Y5444522D01*
X8564590Y5445909D01*
X8563065Y5446880D01*
X8561539Y5447850D01*
X8560014Y5448960D01*
X8558627Y5450347D01*
X8558488Y5450485D01*
X8558350Y5450763D01*
X8557934Y5451179D01*
X8557518Y5451734D01*
X8556963Y5452566D01*
X8556269Y5453398D01*
X8555576Y5454507D01*
X8554883Y5455617D01*
X8553496Y5458390D01*
X8552248Y5461719D01*
X8551415Y5465463D01*
X8551277Y5467405D01*
X8551138Y5469485D01*
Y5469624D01*
Y5469901D01*
Y5470179D01*
Y5470733D01*
X8551277Y5472259D01*
X8551554Y5474200D01*
X8551970Y5476281D01*
X8552664Y5478638D01*
X8553496Y5481135D01*
X8554744Y5483492D01*
Y5483631D01*
X8554883Y5483770D01*
X8555437Y5484602D01*
X8556269Y5485711D01*
X8557379Y5487098D01*
X8558904Y5488762D01*
X8560569Y5490426D01*
X8562649Y5492091D01*
X8565006Y5493616D01*
X8565145D01*
X8565284Y5493755D01*
X8565700Y5494032D01*
X8566116Y5494171D01*
X8567503Y5494864D01*
X8569306Y5495558D01*
X8571386Y5496112D01*
X8573882Y5496806D01*
X8576517Y5497222D01*
X8579291Y5497361D01*
X8580539D01*
X8581926Y5497222D01*
D02*
G37*
G36*
X9261066Y5500003D02*
X9264533Y5499864D01*
X9268000Y5499587D01*
X9269664Y5499448D01*
X9271051Y5499171D01*
X9272438Y5499032D01*
X9273547Y5498755D01*
X9273686D01*
X9273963Y5498616D01*
X9274241Y5498477D01*
X9274796Y5498339D01*
X9276321Y5497784D01*
X9277985Y5497091D01*
X9280066Y5495981D01*
X9282146Y5494594D01*
X9284226Y5492930D01*
X9286168Y5490850D01*
X9286445Y5490572D01*
X9287000Y5489740D01*
X9287693Y5488492D01*
X9288664Y5486828D01*
X9289635Y5484609D01*
X9290328Y5482113D01*
X9290883Y5479200D01*
X9291160Y5476011D01*
Y5475872D01*
Y5475595D01*
Y5475179D01*
X9291022Y5474485D01*
Y5473653D01*
X9290883Y5472821D01*
X9290605Y5470741D01*
X9289912Y5468383D01*
X9289080Y5465887D01*
X9287971Y5463390D01*
X9286306Y5461033D01*
X9286029Y5460755D01*
X9285474Y5460062D01*
X9284365Y5459091D01*
X9282839Y5457843D01*
X9281036Y5456595D01*
X9278817Y5455208D01*
X9276182Y5454099D01*
X9273131Y5453128D01*
X9272854D01*
X9272438Y5452989D01*
X9271883Y5452850D01*
X9271190D01*
X9270358Y5452712D01*
X9269248Y5452573D01*
X9268000Y5452434D01*
X9266474Y5452296D01*
X9264810Y5452157D01*
X9263007Y5452018D01*
X9260927D01*
X9258569Y5451880D01*
X9256073Y5451741D01*
X9243869D01*
Y5409858D01*
X9234855D01*
Y5500142D01*
X9257876D01*
X9261066Y5500003D01*
D02*
G37*
G36*
X9221680Y5491266D02*
X9201570D01*
Y5409858D01*
X9192556D01*
Y5491266D01*
X9172447D01*
Y5500142D01*
X9221680D01*
Y5491266D01*
D02*
G37*
G36*
X9335955Y5502222D02*
X9337619Y5501945D01*
X9339700Y5501528D01*
X9341780Y5500974D01*
X9344138Y5500142D01*
X9346356Y5499032D01*
X9346495D01*
X9346634Y5498893D01*
X9347327Y5498477D01*
X9348437Y5497784D01*
X9349824Y5496675D01*
X9351349Y5495426D01*
X9352875Y5493901D01*
X9354400Y5492237D01*
X9355787Y5490156D01*
X9355926Y5489879D01*
X9356342Y5489186D01*
X9356896Y5488076D01*
X9357590Y5486689D01*
X9358145Y5484886D01*
X9358699Y5482945D01*
X9359115Y5480726D01*
X9359254Y5478507D01*
Y5478230D01*
Y5477536D01*
X9359115Y5476288D01*
X9358838Y5474901D01*
X9358422Y5473098D01*
X9357867Y5471295D01*
X9357035Y5469354D01*
X9355926Y5467551D01*
X9355787Y5467412D01*
X9355371Y5466719D01*
X9354539Y5465887D01*
X9353568Y5464777D01*
X9352181Y5463390D01*
X9350517Y5462004D01*
X9348575Y5460617D01*
X9346356Y5459230D01*
X9346495D01*
X9346773Y5459091D01*
X9347189Y5458814D01*
X9347882Y5458398D01*
X9349408Y5457566D01*
X9351488Y5456318D01*
X9353568Y5454792D01*
X9355787Y5452989D01*
X9357867Y5451048D01*
X9359531Y5448967D01*
X9359670Y5448690D01*
X9360225Y5447996D01*
X9360780Y5446748D01*
X9361612Y5445084D01*
X9362305Y5443143D01*
X9362999Y5440924D01*
X9363415Y5438427D01*
X9363553Y5435654D01*
Y5435515D01*
Y5435238D01*
Y5434683D01*
X9363415Y5433851D01*
Y5433019D01*
X9363137Y5431909D01*
X9362721Y5429413D01*
X9361889Y5426639D01*
X9360641Y5423588D01*
X9359809Y5421924D01*
X9358977Y5420398D01*
X9357867Y5418873D01*
X9356619Y5417347D01*
X9356480Y5417209D01*
X9356203Y5416931D01*
X9355787Y5416515D01*
X9355094Y5415822D01*
X9354261Y5415128D01*
X9353152Y5414296D01*
X9351904Y5413464D01*
X9350517Y5412493D01*
X9348991Y5411661D01*
X9347189Y5410690D01*
X9345247Y5409858D01*
X9343167Y5409165D01*
X9340809Y5408472D01*
X9338313Y5408055D01*
X9335678Y5407778D01*
X9332904Y5407639D01*
X9331517D01*
X9330408Y5407778D01*
X9329160Y5407917D01*
X9327773Y5408055D01*
X9326109Y5408333D01*
X9324444Y5408749D01*
X9320839Y5409720D01*
X9318897Y5410413D01*
X9316955Y5411245D01*
X9315153Y5412216D01*
X9313350Y5413325D01*
X9311685Y5414574D01*
X9310160Y5416099D01*
X9310021Y5416238D01*
X9309883Y5416515D01*
X9309467Y5416931D01*
X9308912Y5417625D01*
X9308357Y5418457D01*
X9307802Y5419428D01*
X9307109Y5420398D01*
X9306415Y5421647D01*
X9304890Y5424420D01*
X9303780Y5427749D01*
X9302810Y5431216D01*
X9302671Y5433019D01*
X9302532Y5434960D01*
Y5435099D01*
Y5435238D01*
Y5435654D01*
Y5436208D01*
X9302810Y5437595D01*
X9303087Y5439398D01*
X9303503Y5441478D01*
X9304197Y5443836D01*
X9305167Y5446194D01*
X9306554Y5448413D01*
Y5448551D01*
X9306693Y5448690D01*
X9307386Y5449383D01*
X9308357Y5450631D01*
X9309744Y5452018D01*
X9311547Y5453683D01*
X9313904Y5455624D01*
X9316678Y5457427D01*
X9320007Y5459230D01*
X9319868D01*
X9319729Y5459369D01*
X9318897Y5459923D01*
X9317788Y5460617D01*
X9316262Y5461588D01*
X9314598Y5462836D01*
X9312934Y5464361D01*
X9311408Y5466025D01*
X9310021Y5467828D01*
X9309883Y5468106D01*
X9309467Y5468660D01*
X9309050Y5469770D01*
X9308496Y5471157D01*
X9307802Y5472821D01*
X9307386Y5474624D01*
X9306970Y5476704D01*
X9306832Y5478784D01*
Y5479062D01*
Y5479755D01*
X9306970Y5480865D01*
X9307248Y5482390D01*
X9307664Y5484193D01*
X9308357Y5485996D01*
X9309189Y5488076D01*
X9310299Y5490156D01*
X9310437Y5490434D01*
X9310992Y5491127D01*
X9311685Y5492098D01*
X9312795Y5493346D01*
X9314182Y5494872D01*
X9315846Y5496259D01*
X9317788Y5497784D01*
X9320007Y5499032D01*
X9320145D01*
X9320284Y5499171D01*
X9321116Y5499587D01*
X9322364Y5500142D01*
X9324028Y5500696D01*
X9325970Y5501251D01*
X9328328Y5501806D01*
X9330824Y5502222D01*
X9333459Y5502361D01*
X9334707D01*
X9335955Y5502222D01*
D02*
G37*
G36*
X9536580Y5501112D02*
X9540047Y5500974D01*
X9543515Y5500696D01*
X9545179Y5500558D01*
X9546566Y5500280D01*
X9547952Y5500142D01*
X9549062Y5499864D01*
X9549201D01*
X9549478Y5499726D01*
X9549755Y5499587D01*
X9550310Y5499448D01*
X9551836Y5498893D01*
X9553500Y5498200D01*
X9555580Y5497091D01*
X9557660Y5495704D01*
X9559741Y5494040D01*
X9561682Y5491959D01*
X9561960Y5491682D01*
X9562514Y5490850D01*
X9563208Y5489602D01*
X9564178Y5487937D01*
X9565149Y5485719D01*
X9565843Y5483222D01*
X9566397Y5480310D01*
X9566675Y5477120D01*
Y5476981D01*
Y5476704D01*
Y5476288D01*
X9566536Y5475595D01*
Y5474762D01*
X9566397Y5473930D01*
X9566120Y5471850D01*
X9565427Y5469492D01*
X9564595Y5466996D01*
X9563485Y5464500D01*
X9561821Y5462142D01*
X9561543Y5461865D01*
X9560989Y5461171D01*
X9559879Y5460201D01*
X9558354Y5458953D01*
X9556551Y5457704D01*
X9554332Y5456318D01*
X9551697Y5455208D01*
X9548646Y5454237D01*
X9548369D01*
X9547952Y5454099D01*
X9547398Y5453960D01*
X9546704D01*
X9545872Y5453821D01*
X9544763Y5453683D01*
X9543515Y5453544D01*
X9541989Y5453405D01*
X9540325Y5453266D01*
X9538522Y5453128D01*
X9536442D01*
X9534084Y5452989D01*
X9531588Y5452850D01*
X9519384D01*
Y5410968D01*
X9510369D01*
Y5501251D01*
X9533391D01*
X9536580Y5501112D01*
D02*
G37*
G36*
X9497194Y5492375D02*
X9477085D01*
Y5410968D01*
X9468070D01*
Y5492375D01*
X9447961D01*
Y5501251D01*
X9497194D01*
Y5492375D01*
D02*
G37*
G36*
X9591777Y5408749D02*
X9584149Y5412493D01*
X9625893Y5492653D01*
X9582762D01*
Y5501251D01*
X9640039D01*
X9591777Y5408749D01*
D02*
G37*
G36*
X7583349Y8280858D02*
X7574335D01*
Y8362266D01*
X7560189D01*
X7565459Y8371142D01*
X7583349D01*
Y8280858D01*
D02*
G37*
G36*
X7505270Y8371003D02*
X7508737Y8370864D01*
X7512204Y8370587D01*
X7513868Y8370448D01*
X7515255Y8370171D01*
X7516642Y8370032D01*
X7517752Y8369755D01*
X7517890D01*
X7518168Y8369616D01*
X7518445Y8369478D01*
X7519000Y8369339D01*
X7520525Y8368784D01*
X7522189Y8368091D01*
X7524270Y8366981D01*
X7526350Y8365594D01*
X7528430Y8363930D01*
X7530372Y8361850D01*
X7530649Y8361573D01*
X7531204Y8360740D01*
X7531897Y8359492D01*
X7532868Y8357828D01*
X7533839Y8355609D01*
X7534532Y8353113D01*
X7535087Y8350200D01*
X7535364Y8347011D01*
Y8346872D01*
Y8346595D01*
Y8346179D01*
X7535226Y8345485D01*
Y8344653D01*
X7535087Y8343821D01*
X7534810Y8341741D01*
X7534116Y8339383D01*
X7533284Y8336887D01*
X7532175Y8334390D01*
X7530510Y8332033D01*
X7530233Y8331755D01*
X7529678Y8331062D01*
X7528569Y8330091D01*
X7527043Y8328843D01*
X7525240Y8327595D01*
X7523022Y8326208D01*
X7520387Y8325099D01*
X7517335Y8324128D01*
X7517058D01*
X7516642Y8323989D01*
X7516087Y8323851D01*
X7515394D01*
X7514562Y8323712D01*
X7513452Y8323573D01*
X7512204Y8323434D01*
X7510679Y8323296D01*
X7509014Y8323157D01*
X7507212Y8323018D01*
X7505131D01*
X7502774Y8322880D01*
X7500277Y8322741D01*
X7488073D01*
Y8280858D01*
X7479059D01*
Y8371142D01*
X7502080D01*
X7505270Y8371003D01*
D02*
G37*
G36*
X7465884Y8362266D02*
X7445775D01*
Y8280858D01*
X7436760D01*
Y8362266D01*
X7416651D01*
Y8371142D01*
X7465884D01*
Y8362266D01*
D02*
G37*
%LPC*%
G36*
X14831549Y7366754D02*
X14829816D01*
Y7365020D01*
X14831549D01*
Y7366754D01*
D02*
G37*
G36*
X15154045Y7396229D02*
X15152312D01*
Y7394495D01*
X15150577D01*
Y7392761D01*
X15152312D01*
X15154045Y7394495D01*
Y7396229D01*
D02*
G37*
G36*
X15148843Y7391028D02*
X15147108D01*
Y7389294D01*
X15148843D01*
Y7391028D01*
D02*
G37*
G36*
X15140173Y7382358D02*
X15138440D01*
Y7380625D01*
X15140173D01*
Y7382358D01*
D02*
G37*
G36*
X15138440Y7380625D02*
X15136707D01*
Y7378891D01*
X15138440D01*
Y7380625D01*
D02*
G37*
G36*
X15134972Y7377157D02*
X15133238D01*
Y7375423D01*
X15134972D01*
Y7377157D01*
D02*
G37*
G36*
X15126303Y7368488D02*
X15124570D01*
Y7366754D01*
X15122835D01*
Y7365020D01*
X15124570D01*
X15126303Y7366754D01*
Y7368488D01*
D02*
G37*
G36*
X15121101Y7363286D02*
X15119368D01*
Y7361552D01*
X15121101D01*
Y7363286D01*
D02*
G37*
G36*
X15112431Y7354617D02*
X15110699D01*
Y7352883D01*
X15112431D01*
Y7354617D01*
D02*
G37*
G36*
X15110699Y7352883D02*
X15108965D01*
Y7351149D01*
X15110699D01*
Y7352883D01*
D02*
G37*
G36*
X15108965Y7351149D02*
X15107231D01*
Y7349415D01*
X15108965D01*
Y7351149D01*
D02*
G37*
G36*
X15124570Y7077201D02*
X15122835D01*
Y7075468D01*
X15124570D01*
Y7077201D01*
D02*
G37*
G36*
X15128036Y7073734D02*
X15126303D01*
Y7072000D01*
X15128036D01*
Y7073734D01*
D02*
G37*
G36*
X15138440Y7063331D02*
X15136707D01*
Y7061597D01*
X15138440D01*
Y7059863D01*
X15140173D01*
Y7061597D01*
X15138440D01*
Y7063331D01*
D02*
G37*
G36*
X15143642Y7058129D02*
X15141908D01*
Y7056395D01*
X15143642D01*
Y7058129D01*
D02*
G37*
G36*
X15152312Y7049460D02*
X15150577D01*
Y7047726D01*
X15152312D01*
Y7045992D01*
X15154045D01*
Y7047726D01*
X15152312D01*
Y7049460D01*
D02*
G37*
G36*
X15157512Y7044258D02*
X15155779D01*
Y7042525D01*
X15157512D01*
Y7044258D01*
D02*
G37*
G36*
X15166182Y7035589D02*
X15164449D01*
Y7033855D01*
X15166182D01*
Y7032122D01*
X15167915D01*
Y7033855D01*
X15166182D01*
Y7035589D01*
D02*
G37*
G36*
X15171384Y7030388D02*
X15169649D01*
Y7028654D01*
X15171384D01*
Y7030388D01*
D02*
G37*
G36*
X15180052Y7021718D02*
X15178319D01*
Y7019985D01*
X15180052D01*
Y7018251D01*
X15181786D01*
Y7019985D01*
X15180052D01*
Y7021718D01*
D02*
G37*
G36*
X15185254Y7016517D02*
X15183521D01*
Y7014783D01*
X15185254D01*
Y7016517D01*
D02*
G37*
G36*
X15193922Y7007848D02*
X15192189D01*
Y7006114D01*
X15193922D01*
Y7004380D01*
X15195657D01*
Y7006114D01*
X15193922D01*
Y7007848D01*
D02*
G37*
G36*
X15199126Y7002646D02*
X15197391D01*
Y7000912D01*
X15199126D01*
Y7002646D01*
D02*
G37*
G36*
X15207794Y6993977D02*
X15206059D01*
Y6992243D01*
X15207794D01*
Y6990509D01*
X15209528D01*
Y6992243D01*
X15207794D01*
Y6993977D01*
D02*
G37*
G36*
X15212994Y6988775D02*
X15211263D01*
Y6987041D01*
X15212994D01*
Y6988775D01*
D02*
G37*
G36*
X15348235Y7590420D02*
X15346503D01*
X15344768Y7588686D01*
Y7586952D01*
X15346503D01*
Y7588686D01*
X15348235D01*
Y7590420D01*
D02*
G37*
G36*
X15343034Y7585219D02*
X15341299D01*
Y7583485D01*
X15343034D01*
Y7585219D01*
D02*
G37*
G36*
X15334364Y7576549D02*
X15332631D01*
Y7574815D01*
X15330898D01*
Y7573082D01*
X15332631D01*
X15334364Y7574815D01*
Y7576549D01*
D02*
G37*
G36*
X15329163Y7571348D02*
X15327429D01*
Y7569614D01*
X15329163D01*
Y7571348D01*
D02*
G37*
G36*
X15320494Y7562679D02*
X15318761D01*
Y7560944D01*
X15320494D01*
Y7562679D01*
D02*
G37*
G36*
X15318761Y7560944D02*
X15317026D01*
Y7559211D01*
X15318761D01*
Y7560944D01*
D02*
G37*
G36*
X15315292Y7557477D02*
X15313557D01*
Y7555743D01*
X15315292D01*
Y7557477D01*
D02*
G37*
G36*
X15266745Y7554009D02*
X15265012D01*
Y7552275D01*
X15266745D01*
Y7554009D01*
D02*
G37*
G36*
X15306622Y7548808D02*
X15304889D01*
Y7547074D01*
X15306622D01*
Y7548808D01*
D02*
G37*
G36*
X15304889Y7547074D02*
X15303156D01*
Y7545340D01*
X15304889D01*
Y7547074D01*
D02*
G37*
G36*
X15301422Y7543606D02*
X15299689D01*
Y7541872D01*
X15301422D01*
Y7543606D01*
D02*
G37*
G36*
X15280615Y7540138D02*
X15278882D01*
Y7538405D01*
X15280615D01*
Y7540138D01*
D02*
G37*
G36*
X15289285Y7531469D02*
X15287550D01*
Y7529735D01*
X15289285D01*
Y7531469D01*
D02*
G37*
G36*
X15296220Y7524534D02*
X15294485D01*
Y7522800D01*
X15296220D01*
Y7524534D01*
D02*
G37*
G36*
X15278882Y7521066D02*
X15277148D01*
Y7519332D01*
X15278882D01*
Y7521066D01*
D02*
G37*
G36*
X15277148Y7519332D02*
X15275414D01*
Y7517598D01*
X15277148D01*
Y7519332D01*
D02*
G37*
G36*
X15275414Y7517598D02*
X15273680D01*
Y7515865D01*
X15275414D01*
Y7517598D01*
D02*
G37*
G36*
X15273680Y7515865D02*
X15271947D01*
Y7514131D01*
X15273680D01*
Y7515865D01*
D02*
G37*
G36*
X15308357Y7512397D02*
X15306622D01*
Y7510663D01*
X15308357D01*
Y7512397D01*
D02*
G37*
G36*
X15322227Y7498526D02*
X15320494D01*
Y7496792D01*
X15322227D01*
Y7498526D01*
D02*
G37*
G36*
X15336099Y7484655D02*
X15334364D01*
Y7482922D01*
X15336099D01*
Y7484655D01*
D02*
G37*
G36*
X15349969Y7470785D02*
X15348235D01*
Y7469051D01*
X15349969D01*
Y7470785D01*
D02*
G37*
G36*
X15363840Y7456914D02*
X15362106D01*
Y7455180D01*
X15363840D01*
Y7456914D01*
D02*
G37*
G36*
X15377711Y7443043D02*
X15375977D01*
Y7441309D01*
X15377711D01*
Y7443043D01*
D02*
G37*
G36*
X15391582Y7429172D02*
X15389848D01*
Y7427439D01*
X15391582D01*
Y7429172D01*
D02*
G37*
G36*
X15405452Y7415302D02*
X15403719D01*
Y7413568D01*
X15405452D01*
Y7415302D01*
D02*
G37*
G36*
X15419324Y7401431D02*
X15417589D01*
Y7399697D01*
X15419324D01*
Y7401431D01*
D02*
G37*
G36*
X15433194Y7387560D02*
X15431461D01*
Y7385826D01*
X15433194D01*
Y7387560D01*
D02*
G37*
G36*
X15447066Y7373689D02*
X15445331D01*
Y7371955D01*
X15447066D01*
Y7373689D01*
D02*
G37*
G36*
X15457468Y7077201D02*
X15455734D01*
Y7075468D01*
X15457468D01*
Y7077201D01*
D02*
G37*
G36*
X15453999Y7073734D02*
X15452266D01*
Y7072000D01*
X15453999D01*
Y7073734D01*
D02*
G37*
G36*
X15443597Y7063331D02*
X15441862D01*
Y7061597D01*
X15443597D01*
Y7063331D01*
D02*
G37*
G36*
X15440129Y7059863D02*
X15438396D01*
Y7058129D01*
X15440129D01*
Y7059863D01*
D02*
G37*
G36*
X15429726Y7049460D02*
X15427992D01*
Y7047726D01*
X15429726D01*
Y7049460D01*
D02*
G37*
G36*
X15426257Y7045992D02*
X15424525D01*
Y7044258D01*
X15426257D01*
Y7045992D01*
D02*
G37*
G36*
X15412389Y7032122D02*
X15410654D01*
Y7030388D01*
X15412389D01*
Y7032122D01*
D02*
G37*
G36*
X15360371Y6841399D02*
X15358640D01*
Y6839665D01*
X15360371D01*
Y6837931D01*
X15362106D01*
Y6836197D01*
X15363840D01*
Y6834463D01*
X15365575D01*
Y6836197D01*
X15363840D01*
Y6837931D01*
X15362106D01*
Y6839665D01*
X15360371D01*
Y6841399D01*
D02*
G37*
G36*
X15374243Y6827528D02*
X15372508D01*
Y6825794D01*
X15374243Y6824060D01*
X15375977D01*
Y6825794D01*
X15374243D01*
Y6827528D01*
D02*
G37*
G36*
X15379445Y6822326D02*
X15377711D01*
Y6820592D01*
X15379445D01*
Y6822326D01*
D02*
G37*
G36*
X15388113Y6813657D02*
X15386380D01*
Y6811923D01*
X15388113D01*
Y6810189D01*
X15389848D01*
Y6811923D01*
X15388113D01*
Y6813657D01*
D02*
G37*
G36*
X15393315Y6808455D02*
X15391582D01*
Y6806721D01*
X15393315D01*
Y6808455D01*
D02*
G37*
G36*
X15401985Y6799786D02*
X15400250D01*
Y6798052D01*
X15401985D01*
Y6796318D01*
X15403719D01*
Y6798052D01*
X15401985D01*
Y6799786D01*
D02*
G37*
G36*
X15407185Y6794585D02*
X15405452D01*
Y6792851D01*
X15407185D01*
Y6794585D01*
D02*
G37*
G36*
X15415855Y6785915D02*
X15414122D01*
Y6784182D01*
X15415855D01*
Y6782448D01*
X15417589D01*
Y6784182D01*
X15415855D01*
Y6785915D01*
D02*
G37*
G36*
X15421057Y6780714D02*
X15419324D01*
Y6778980D01*
X15421057D01*
Y6780714D01*
D02*
G37*
G36*
X15429726Y6772045D02*
X15427992D01*
Y6770311D01*
X15429726D01*
Y6768577D01*
X15431461D01*
Y6770311D01*
X15429726D01*
Y6772045D01*
D02*
G37*
G36*
X15434927Y6766843D02*
X15433194D01*
Y6765109D01*
X15434927D01*
Y6766843D01*
D02*
G37*
G36*
X15766092Y7382358D02*
X15764359D01*
Y7380625D01*
X15766092D01*
Y7382358D01*
D02*
G37*
G36*
X15740085Y7084137D02*
X15738351D01*
Y7082403D01*
X15740085D01*
Y7084137D01*
D02*
G37*
G36*
X15747020Y7077201D02*
X15745287D01*
Y7075468D01*
X15747020D01*
Y7077201D01*
D02*
G37*
G36*
X15760892Y7063331D02*
X15759157D01*
Y7061597D01*
X15760892D01*
Y7063331D01*
D02*
G37*
G36*
X15774762Y7049460D02*
X15773029D01*
Y7047726D01*
X15774762D01*
Y7049460D01*
D02*
G37*
G36*
X15788632Y7035589D02*
X15786899D01*
Y7033855D01*
X15788632D01*
Y7035589D01*
D02*
G37*
G36*
X15802502Y7021718D02*
X15800769D01*
Y7019985D01*
X15802502D01*
Y7021718D01*
D02*
G37*
G36*
X7646014Y9233598D02*
D01*
Y9165365D01*
X7645875Y9167445D01*
X7645737Y9169387D01*
X7645321Y9171190D01*
X7644905Y9172715D01*
X7644489Y9173964D01*
X7644211Y9174934D01*
X7643934Y9175489D01*
X7643795Y9175767D01*
X7642824Y9177569D01*
X7641854Y9179234D01*
X7640605Y9180898D01*
X7639357Y9182423D01*
X7638387Y9183810D01*
X7637416Y9184781D01*
X7636861Y9185336D01*
X7636584Y9185613D01*
X7636168Y9186029D01*
X7635474Y9186584D01*
X7633810Y9188109D01*
X7632007Y9189774D01*
X7629927Y9191438D01*
X7627985Y9193102D01*
X7626321Y9194489D01*
X7625766Y9195044D01*
X7625212Y9195460D01*
X7624934Y9195598D01*
X7624796Y9195737D01*
X7622993Y9197263D01*
X7621328Y9198788D01*
X7619803Y9200036D01*
X7618555Y9201146D01*
X7617445Y9202255D01*
X7616336Y9203226D01*
X7614810Y9204751D01*
X7613701Y9205861D01*
X7613007Y9206554D01*
X7612591Y9206970D01*
X7612453Y9207109D01*
X7611621Y9208635D01*
X7611204Y9210021D01*
Y9210576D01*
X7611066Y9210992D01*
Y9211270D01*
Y9211408D01*
X7611204Y9212240D01*
X7611343Y9212934D01*
X7612175Y9214321D01*
X7612869Y9215153D01*
X7613007Y9215291D01*
X7613146Y9215430D01*
X7613978Y9215985D01*
X7614810Y9216540D01*
X7616613Y9216956D01*
X7617445Y9217094D01*
X7618000Y9217233D01*
X7618555D01*
X7619803Y9217094D01*
X7621051Y9216817D01*
X7622299Y9216401D01*
X7623547Y9215846D01*
X7625766Y9214321D01*
X7627708Y9212656D01*
X7629511Y9210992D01*
X7630759Y9209467D01*
X7631175Y9208912D01*
X7631591Y9208496D01*
X7631730Y9208219D01*
X7631868Y9208080D01*
X7644489Y9219175D01*
X7641854Y9221948D01*
X7639496Y9224445D01*
X7637277Y9226386D01*
X7635197Y9227912D01*
X7633671Y9229021D01*
X7632423Y9229853D01*
X7631591Y9230269D01*
X7631452Y9230408D01*
X7631314D01*
X7629095Y9231517D01*
X7626876Y9232211D01*
X7624657Y9232766D01*
X7622715Y9233182D01*
X7621051Y9233459D01*
X7619803Y9233598D01*
X7590263D01*
X7618693D01*
X7616752Y9233459D01*
X7614949Y9233320D01*
X7611621Y9232627D01*
X7608708Y9231517D01*
X7606212Y9230269D01*
X7604132Y9229021D01*
X7603299Y9228466D01*
X7602606Y9228050D01*
X7602051Y9227496D01*
X7601635Y9227218D01*
X7601497Y9227080D01*
X7601358Y9226941D01*
X7600110Y9225693D01*
X7599139Y9224306D01*
X7598168Y9223058D01*
X7597336Y9221671D01*
X7596088Y9219036D01*
X7595256Y9216540D01*
X7594840Y9214321D01*
X7594701Y9213489D01*
X7594562Y9212656D01*
X7594424Y9211963D01*
Y9211547D01*
Y9211270D01*
Y9211131D01*
X7594562Y9208773D01*
X7595117Y9206416D01*
X7595811Y9204197D01*
X7596504Y9202255D01*
X7597336Y9200591D01*
X7597891Y9199343D01*
X7598446Y9198511D01*
X7598584Y9198372D01*
Y9198233D01*
X7599416Y9196985D01*
X7600526Y9195598D01*
X7601913Y9194211D01*
X7603299Y9192686D01*
X7606351Y9189635D01*
X7609540Y9186723D01*
X7612453Y9184088D01*
X7613839Y9182978D01*
X7614949Y9182007D01*
X7615920Y9181175D01*
X7616613Y9180620D01*
X7617168Y9180204D01*
X7617307Y9180066D01*
X7619942Y9177847D01*
X7622022Y9176044D01*
X7623686Y9174380D01*
X7624934Y9173132D01*
X7625905Y9172022D01*
X7626598Y9171329D01*
X7626876Y9170913D01*
X7627014Y9170774D01*
X7627847Y9169664D01*
X7628401Y9168555D01*
X7628817Y9167584D01*
X7629095Y9166752D01*
X7629233Y9165920D01*
X7629372Y9165365D01*
Y9164949D01*
Y9164810D01*
X7629233Y9163562D01*
X7628956Y9162453D01*
X7628401Y9161482D01*
X7627847Y9160650D01*
X7627292Y9159957D01*
X7626737Y9159402D01*
X7626460Y9159124D01*
X7626321Y9158986D01*
X7625212Y9158154D01*
X7623963Y9157599D01*
X7622715Y9157044D01*
X7621606Y9156767D01*
X7620635Y9156628D01*
X7619803Y9156489D01*
X7619109D01*
X7617584Y9156628D01*
X7616058Y9157044D01*
X7614672Y9157599D01*
X7613285Y9158292D01*
X7610788Y9160234D01*
X7608708Y9162453D01*
X7606905Y9164533D01*
X7605518Y9166475D01*
X7605102Y9167168D01*
X7604686Y9167723D01*
X7604548Y9168139D01*
X7604409Y9168278D01*
X7590263Y9159679D01*
X7592205Y9156212D01*
X7594285Y9153161D01*
X7596227Y9150665D01*
X7598168Y9148584D01*
X7599694Y9147059D01*
X7601081Y9145811D01*
X7601913Y9145256D01*
X7602051Y9144979D01*
X7602190D01*
X7604964Y9143453D01*
X7607737Y9142344D01*
X7610511Y9141512D01*
X7613146Y9140957D01*
X7615365Y9140679D01*
X7616336Y9140541D01*
X7617168D01*
X7617723Y9140402D01*
X7590263D01*
X7618693D01*
X7620912Y9140541D01*
X7622993Y9140679D01*
X7626876Y9141512D01*
X7630343Y9142621D01*
X7631730Y9143314D01*
X7633117Y9144008D01*
X7634365Y9144563D01*
X7635336Y9145256D01*
X7636306Y9145811D01*
X7637000Y9146366D01*
X7637554Y9146782D01*
X7638109Y9147198D01*
X7638248Y9147336D01*
X7638387Y9147475D01*
X7639773Y9148862D01*
X7640883Y9150249D01*
X7641992Y9151774D01*
X7642824Y9153300D01*
X7644211Y9156212D01*
X7645043Y9159124D01*
X7645598Y9161621D01*
X7645737Y9162592D01*
X7645875Y9163562D01*
X7646014Y9164256D01*
Y9152606D01*
Y9233598D01*
D02*
G37*
G36*
X7717714Y9231379D02*
D01*
Y9168416D01*
X7717575Y9171190D01*
X7717159Y9173825D01*
X7716466Y9176044D01*
X7715772Y9178124D01*
X7715079Y9179650D01*
X7714385Y9180898D01*
X7713969Y9181591D01*
X7713831Y9181869D01*
X7712305Y9183949D01*
X7710364Y9185752D01*
X7708422Y9187416D01*
X7706480Y9188803D01*
X7704816Y9189912D01*
X7703429Y9190744D01*
X7702875Y9191022D01*
X7702459Y9191299D01*
X7702181Y9191438D01*
X7702043D01*
X7703707Y9192825D01*
X7705232Y9194211D01*
X7706342Y9195460D01*
X7707313Y9196708D01*
X7708006Y9197679D01*
X7708561Y9198511D01*
X7708838Y9199065D01*
X7708977Y9199204D01*
X7709670Y9200730D01*
X7710225Y9202394D01*
X7710641Y9203919D01*
X7710918Y9205306D01*
X7711057Y9206554D01*
X7711196Y9207525D01*
Y9208080D01*
Y9208357D01*
X7711057Y9211131D01*
X7710502Y9213766D01*
X7709670Y9215985D01*
X7708838Y9218065D01*
X7707867Y9219591D01*
X7707174Y9220839D01*
X7706619Y9221532D01*
X7706342Y9221810D01*
X7704400Y9223890D01*
X7702320Y9225554D01*
X7700240Y9226941D01*
X7698298Y9227912D01*
X7696495Y9228744D01*
X7694970Y9229299D01*
X7694554Y9229437D01*
X7694138Y9229576D01*
X7693860Y9229715D01*
X7693721D01*
X7692612Y9229992D01*
X7691364Y9230269D01*
X7688590Y9230685D01*
X7685539Y9230963D01*
X7682627Y9231240D01*
X7679992D01*
X7678882Y9231379D01*
X7661963D01*
Y9142621D01*
X7717714D01*
Y9231379D01*
D02*
G37*
G36*
X7578336D02*
X7561556D01*
Y9176044D01*
Y9172993D01*
X7561278Y9170358D01*
X7561140Y9168278D01*
X7560862Y9166752D01*
X7560585Y9165504D01*
X7560446Y9164672D01*
X7560169Y9164117D01*
Y9163978D01*
X7559614Y9162869D01*
X7558921Y9161759D01*
X7558227Y9160927D01*
X7557395Y9160095D01*
X7556702Y9159540D01*
X7556147Y9159124D01*
X7555731Y9158847D01*
X7555592Y9158708D01*
X7554344Y9158015D01*
X7553096Y9157599D01*
X7551848Y9157183D01*
X7550600Y9157044D01*
X7549490Y9156905D01*
X7548658Y9156767D01*
X7547965D01*
X7546439Y9156905D01*
X7545052Y9157044D01*
X7543804Y9157322D01*
X7542695Y9157738D01*
X7541862Y9158015D01*
X7541169Y9158292D01*
X7540753Y9158431D01*
X7540614Y9158570D01*
X7539505Y9159263D01*
X7538673Y9160095D01*
X7537979Y9160927D01*
X7537286Y9161621D01*
X7536870Y9162314D01*
X7536592Y9162869D01*
X7536315Y9163285D01*
Y9163424D01*
X7535899Y9164810D01*
X7535622Y9166336D01*
X7535344Y9168139D01*
X7535206Y9169803D01*
Y9171467D01*
X7535067Y9172715D01*
Y9173270D01*
Y9173686D01*
Y9173825D01*
Y9173964D01*
Y9231379D01*
X7548311D01*
X7518286D01*
Y9175489D01*
X7518425Y9172854D01*
X7518564Y9170497D01*
X7518702Y9168139D01*
X7518980Y9166197D01*
X7519257Y9164256D01*
X7519534Y9162592D01*
X7519812Y9161205D01*
X7520089Y9159957D01*
X7520366Y9158847D01*
X7520644Y9157876D01*
X7520921Y9157044D01*
X7521060Y9156489D01*
X7521199Y9156073D01*
X7521337Y9155935D01*
Y9155796D01*
X7522585Y9153438D01*
X7524250Y9151219D01*
X7525914Y9149417D01*
X7527578Y9147752D01*
X7529104Y9146504D01*
X7530352Y9145533D01*
X7531184Y9144979D01*
X7531323Y9144701D01*
X7531461D01*
X7534235Y9143314D01*
X7537147Y9142205D01*
X7539921Y9141512D01*
X7542556Y9140957D01*
X7544775Y9140679D01*
X7545746Y9140541D01*
X7546578D01*
X7547271Y9140402D01*
X7518286D01*
X7578336D01*
Y9231379D01*
D02*
G37*
%LPD*%
G36*
X7685123Y9215153D02*
X7686926Y9214875D01*
X7688451Y9214459D01*
X7689700Y9214043D01*
X7690670Y9213627D01*
X7691364Y9213211D01*
X7691780Y9212934D01*
X7691919Y9212795D01*
X7692889Y9211824D01*
X7693583Y9210715D01*
X7694138Y9209605D01*
X7694415Y9208496D01*
X7694692Y9207525D01*
X7694831Y9206832D01*
Y9206277D01*
Y9206138D01*
X7694692Y9204613D01*
X7694415Y9203226D01*
X7693860Y9201978D01*
X7693305Y9201007D01*
X7692751Y9200175D01*
X7692196Y9199620D01*
X7691919Y9199204D01*
X7691780Y9199065D01*
X7690532Y9198233D01*
X7689006Y9197679D01*
X7687481Y9197124D01*
X7685955Y9196846D01*
X7684568Y9196708D01*
X7683459Y9196569D01*
X7678744D01*
Y9215291D01*
X7683043D01*
X7685123Y9215153D01*
D02*
G37*
G36*
X7685678Y9181314D02*
X7688729Y9180898D01*
X7691225Y9180343D01*
X7693167Y9179788D01*
X7694692Y9179234D01*
X7695802Y9178679D01*
X7696495Y9178263D01*
X7696634Y9178124D01*
X7698159Y9176737D01*
X7699269Y9175350D01*
X7699962Y9173825D01*
X7700517Y9172299D01*
X7700794Y9171051D01*
X7701072Y9169942D01*
Y9169248D01*
Y9168971D01*
X7700933Y9167168D01*
X7700517Y9165643D01*
X7699824Y9164394D01*
X7699269Y9163285D01*
X7698575Y9162453D01*
X7697882Y9161898D01*
X7697466Y9161482D01*
X7697327Y9161343D01*
X7696495Y9160927D01*
X7695663Y9160511D01*
X7693444Y9159818D01*
X7691086Y9159402D01*
X7688729Y9158986D01*
X7686510Y9158847D01*
X7685539D01*
X7684568Y9158708D01*
X7678744D01*
Y9181453D01*
X7682211D01*
X7685678Y9181314D01*
D02*
G37*
G36*
X7717714Y9142621D02*
X7686926D01*
X7690670Y9142760D01*
X7693999Y9143037D01*
X7696911Y9143592D01*
X7699269Y9144147D01*
X7701210Y9144563D01*
X7702597Y9145117D01*
X7703429Y9145395D01*
X7703707Y9145533D01*
X7705926Y9146782D01*
X7707867Y9148307D01*
X7709670Y9149833D01*
X7711057Y9151219D01*
X7712305Y9152606D01*
X7713137Y9153716D01*
X7713692Y9154409D01*
X7713831Y9154687D01*
X7715079Y9157044D01*
X7716050Y9159402D01*
X7716743Y9161759D01*
X7717298Y9163840D01*
X7717575Y9165781D01*
X7717714Y9167168D01*
Y9142621D01*
D02*
G37*
G36*
X7578336Y9140402D02*
X7548242D01*
X7550877Y9140541D01*
X7553373Y9140818D01*
X7555592Y9141096D01*
X7557395Y9141512D01*
X7559059Y9141928D01*
X7560169Y9142344D01*
X7560862Y9142482D01*
X7561140Y9142621D01*
X7563220Y9143592D01*
X7565023Y9144701D01*
X7566687Y9145949D01*
X7568212Y9147059D01*
X7569322Y9148168D01*
X7570293Y9149000D01*
X7570847Y9149555D01*
X7570986Y9149833D01*
X7572512Y9151635D01*
X7573760Y9153438D01*
X7574731Y9155103D01*
X7575563Y9156628D01*
X7576117Y9157876D01*
X7576533Y9158986D01*
X7576672Y9159540D01*
X7576811Y9159818D01*
X7577088Y9160927D01*
X7577366Y9162037D01*
X7577643Y9164949D01*
X7577920Y9168000D01*
X7578198Y9171051D01*
Y9173825D01*
X7578336Y9175073D01*
Y9140402D01*
D02*
G37*
%LPC*%
G36*
X7797988Y9059158D02*
X7797295D01*
X7795769Y9059019D01*
X7794382Y9058603D01*
X7793134Y9058187D01*
X7792025Y9057633D01*
X7791192Y9056939D01*
X7790499Y9056523D01*
X7790083Y9056107D01*
X7789944Y9055968D01*
X7788974Y9054720D01*
X7788141Y9053472D01*
X7787587Y9052363D01*
X7787309Y9051114D01*
X7787032Y9050144D01*
X7786893Y9049312D01*
Y9048618D01*
X7787032Y9046954D01*
X7787309Y9045428D01*
X7787864Y9044180D01*
X7788419Y9043071D01*
X7788974Y9042100D01*
X7789528Y9041407D01*
X7789806Y9040991D01*
X7789944Y9040852D01*
X7791192Y9039881D01*
X7792441Y9039049D01*
X7793689Y9038494D01*
X7794798Y9038217D01*
X7795908Y9037940D01*
X7796740Y9037801D01*
X7797433D01*
X7798959Y9037940D01*
X7800346Y9038217D01*
X7801594Y9038772D01*
X7802565Y9039326D01*
X7803397Y9039881D01*
X7804090Y9040436D01*
X7804506Y9040713D01*
X7804645Y9040852D01*
X7805754Y9042100D01*
X7806448Y9043348D01*
X7807002Y9044596D01*
X7807418Y9045706D01*
X7807696Y9046815D01*
X7807835Y9047647D01*
Y9048341D01*
X7807696Y9050005D01*
X7807280Y9051392D01*
X7806864Y9052640D01*
X7806309Y9053888D01*
X7805616Y9054720D01*
X7805200Y9055414D01*
X7804783Y9055830D01*
X7804645Y9055968D01*
X7803397Y9057078D01*
X7802148Y9057771D01*
X7801039Y9058326D01*
X7799791Y9058742D01*
X7798820Y9059019D01*
X7797988Y9059158D01*
D02*
G37*
G36*
X7781901Y9056384D02*
X7747230D01*
D01*
X7755689D01*
Y9032115D01*
X7747230D01*
D01*
D01*
Y9017969D01*
X7755689D01*
Y8966517D01*
X7772193D01*
Y9017969D01*
X7781901D01*
Y9017553D01*
Y9056384D01*
D02*
G37*
G36*
X7718938Y9033779D02*
X7717829D01*
X7714500Y9033502D01*
X7711588Y9032947D01*
X7708953Y9031976D01*
X7706734Y9031005D01*
X7704931Y9030035D01*
X7703683Y9029064D01*
X7702851Y9028509D01*
X7702712Y9028232D01*
X7702573D01*
X7701464Y9027122D01*
X7700632Y9026013D01*
X7699106Y9023794D01*
X7698135Y9021575D01*
X7697303Y9019495D01*
X7696887Y9017692D01*
X7696749Y9016166D01*
X7696610Y9015611D01*
Y9015334D01*
Y9015057D01*
Y9014918D01*
X7696749Y9012699D01*
X7697303Y9010619D01*
X7698135Y9008538D01*
X7699106Y9006736D01*
X7700216Y9004933D01*
X7701603Y9003269D01*
X7702989Y9001743D01*
X7704515Y9000356D01*
X7706040Y8999108D01*
X7707427Y8997999D01*
X7708814Y8997028D01*
X7709924Y8996196D01*
X7711033Y8995641D01*
X7711727Y8995225D01*
X7712281Y8994947D01*
X7712420Y8994809D01*
X7717967Y8992035D01*
X7719215Y8991342D01*
X7720325Y8990648D01*
X7721296Y8989955D01*
X7722128Y8989400D01*
X7723376Y8988152D01*
X7724347Y8987042D01*
X7724763Y8986072D01*
X7725040Y8985378D01*
X7725179Y8984824D01*
Y8984685D01*
X7725040Y8983991D01*
X7724901Y8983298D01*
X7724208Y8982050D01*
X7723376Y8981356D01*
X7723237Y8981218D01*
X7723099Y8981079D01*
X7722266Y8980524D01*
X7721434Y8980247D01*
X7719770Y8979692D01*
X7719077D01*
X7718522Y8979554D01*
X7717967D01*
X7716858Y8979692D01*
X7715610Y8979831D01*
X7714500Y8980108D01*
X7713391Y8980524D01*
X7712420Y8980940D01*
X7711727Y8981218D01*
X7711172Y8981356D01*
X7711033Y8981495D01*
X7708398Y8983298D01*
X7707150Y8984130D01*
X7706179Y8985101D01*
X7705347Y8985794D01*
X7704792Y8986488D01*
X7704376Y8986904D01*
X7704238Y8987042D01*
X7694252Y8975948D01*
X7695917Y8974006D01*
X7697719Y8972342D01*
X7699522Y8970816D01*
X7701325Y8969568D01*
X7703267Y8968459D01*
X7705208Y8967627D01*
X7707011Y8966795D01*
X7708814Y8966240D01*
X7710478Y8965824D01*
X7712004Y8965408D01*
X7713391Y8965130D01*
X7714639Y8964992D01*
X7715610D01*
X7716303Y8964853D01*
X7694252D01*
X7740711D01*
Y8985101D01*
X7740573Y8987459D01*
X7740157Y8989677D01*
X7739602Y8991619D01*
X7738909Y8993283D01*
X7738215Y8994531D01*
X7737660Y8995641D01*
X7737244Y8996196D01*
X7737106Y8996473D01*
X7735580Y8998276D01*
X7733500Y9000079D01*
X7731420Y9001604D01*
X7729201Y9003130D01*
X7727259Y9004239D01*
X7725595Y9005210D01*
X7724901Y9005626D01*
X7724485Y9005904D01*
X7724208Y9006042D01*
X7724069D01*
X7717967Y9009093D01*
X7716580Y9009787D01*
X7715610Y9010341D01*
X7714778Y9010896D01*
X7714084Y9011312D01*
X7713668Y9011728D01*
X7713391Y9012006D01*
X7713113Y9012144D01*
X7712559Y9012976D01*
X7712281Y9013808D01*
X7712143Y9014363D01*
Y9014502D01*
X7712281Y9015195D01*
X7712420Y9015750D01*
X7712975Y9016582D01*
X7713391Y9017276D01*
X7713668Y9017414D01*
X7715055Y9018108D01*
X7716442Y9018524D01*
X7716997Y9018662D01*
X7718938D01*
X7719909Y9018385D01*
X7721850Y9017692D01*
X7723653Y9016721D01*
X7725456Y9015611D01*
X7726982Y9014502D01*
X7728091Y9013531D01*
X7728923Y9012838D01*
X7729201Y9012699D01*
Y9012560D01*
X7739463Y9022823D01*
X7737938Y9024626D01*
X7736274Y9026290D01*
X7734609Y9027677D01*
X7733084Y9028786D01*
X7731836Y9029757D01*
X7730726Y9030312D01*
X7730033Y9030728D01*
X7729755Y9030867D01*
X7727675Y9031837D01*
X7725595Y9032531D01*
X7723515Y9033086D01*
X7721712Y9033363D01*
X7720186Y9033640D01*
X7718938Y9033779D01*
D02*
G37*
G36*
X7855958D02*
X7817265D01*
Y8964853D01*
Y8998969D01*
X7817404Y8996473D01*
X7817681Y8993977D01*
X7818097Y8991619D01*
X7818791Y8989400D01*
X7819484Y8987320D01*
X7820316Y8985378D01*
X7821287Y8983575D01*
X7822119Y8981772D01*
X7823090Y8980247D01*
X7823922Y8978999D01*
X7824754Y8977751D01*
X7825447Y8976780D01*
X7826141Y8976086D01*
X7826557Y8975393D01*
X7826834Y8975116D01*
X7826973Y8974977D01*
X7828914Y8973174D01*
X7830995Y8971649D01*
X7833075Y8970262D01*
X7835433Y8969152D01*
X7837652Y8968181D01*
X7839871Y8967349D01*
X7842089Y8966656D01*
X7844308Y8966101D01*
X7846250Y8965685D01*
X7848192Y8965408D01*
X7849856Y8965130D01*
X7851243Y8964992D01*
X7852491D01*
X7853462Y8964853D01*
X7854155D01*
X7857622Y8964992D01*
X7860950Y8965408D01*
X7864002Y8966101D01*
X7866914Y8966933D01*
X7869549Y8968043D01*
X7872045Y8969152D01*
X7874264Y8970400D01*
X7876206Y8971649D01*
X7878009Y8972897D01*
X7879534Y8974145D01*
X7880921Y8975254D01*
X7882030Y8976364D01*
X7882863Y8977196D01*
X7883417Y8977889D01*
X7883833Y8978305D01*
X7883972Y8978444D01*
X7870936Y8987459D01*
X7869688Y8986210D01*
X7868439Y8984962D01*
X7867053Y8983991D01*
X7865666Y8983159D01*
X7862753Y8981772D01*
X7860118Y8980940D01*
X7857622Y8980386D01*
X7856513Y8980247D01*
X7855542Y8980108D01*
X7854848Y8979970D01*
X7853739D01*
X7850549Y8980247D01*
X7847776Y8980802D01*
X7845279Y8981634D01*
X7843199Y8982605D01*
X7841535Y8983575D01*
X7840287Y8984407D01*
X7839593Y8984962D01*
X7839316Y8985240D01*
X7837513Y8987320D01*
X7836126Y8989539D01*
X7835294Y8991896D01*
X7834601Y8993977D01*
X7834184Y8995918D01*
X7834046Y8997444D01*
X7833907Y8997999D01*
Y8998415D01*
Y8998692D01*
Y8998831D01*
X7834184Y9001882D01*
X7834739Y9004655D01*
X7835710Y9007013D01*
X7836819Y9008955D01*
X7837790Y9010619D01*
X7838761Y9011867D01*
X7839316Y9012560D01*
X7839593Y9012838D01*
X7841812Y9014641D01*
X7844308Y9016027D01*
X7846805Y9016998D01*
X7849162Y9017692D01*
X7851243Y9018108D01*
X7852075Y9018246D01*
X7852907D01*
X7853600Y9018385D01*
X7856235D01*
X7858038Y9018108D01*
X7859564Y9017830D01*
X7860812Y9017553D01*
X7861921Y9017276D01*
X7862615Y9016998D01*
X7863169Y9016860D01*
X7863308Y9016721D01*
X7864695Y9016027D01*
X7866082Y9015195D01*
X7867330Y9014363D01*
X7868578Y9013392D01*
X7869549Y9012560D01*
X7870242Y9011867D01*
X7870797Y9011312D01*
X7870936Y9011173D01*
X7884665Y9018662D01*
X7882724Y9021159D01*
X7880505Y9023378D01*
X7878425Y9025319D01*
X7876483Y9026983D01*
X7874680Y9028093D01*
X7873155Y9029064D01*
X7872600Y9029341D01*
X7872323Y9029618D01*
X7872045Y9029757D01*
X7871907D01*
X7868855Y9031144D01*
X7865943Y9032115D01*
X7862892Y9032808D01*
X7860257Y9033224D01*
X7857761Y9033640D01*
X7856790D01*
X7855958Y9033779D01*
D02*
G37*
G36*
X7689814Y9032115D02*
X7660334D01*
X7672756D01*
X7654034Y8991203D01*
X7637115Y9032115D01*
X7620195D01*
X7645158Y8971510D01*
X7631706Y8942525D01*
X7620195D01*
X7648764D01*
X7689814Y9032115D01*
D02*
G37*
G36*
X7964686Y9057494D02*
X7899643D01*
Y8966517D01*
X7916147D01*
Y8996750D01*
X7943884Y8966517D01*
X7964686D01*
X7932927Y9000911D01*
X7960803Y9032115D01*
X7940278D01*
X7916147Y9005071D01*
Y9057494D01*
X7964686D01*
D01*
D02*
G37*
G36*
X7805477Y9032115D02*
X7788974D01*
Y8966517D01*
X7786893D01*
X7807835D01*
X7805477D01*
Y9032115D01*
D02*
G37*
G36*
X7614232Y9033779D02*
X7545444D01*
Y8999247D01*
X7545583Y8996612D01*
X7545860Y8994115D01*
X7546415Y8991619D01*
X7546970Y8989400D01*
X7547663Y8987181D01*
X7548495Y8985240D01*
X7549466Y8983298D01*
X7550437Y8981634D01*
X7551269Y8980108D01*
X7552240Y8978721D01*
X7553072Y8977612D01*
X7553765Y8976641D01*
X7554320Y8975809D01*
X7554875Y8975254D01*
X7555152Y8974977D01*
X7555291Y8974838D01*
X7557233Y8973035D01*
X7559174Y8971510D01*
X7561254Y8970262D01*
X7563335Y8969014D01*
X7565276Y8968043D01*
X7567356Y8967349D01*
X7569298Y8966656D01*
X7571101Y8966101D01*
X7572904Y8965685D01*
X7574429Y8965408D01*
X7575816Y8965130D01*
X7577064Y8964992D01*
X7578035D01*
X7578867Y8964853D01*
X7545444D01*
X7579422D01*
X7582889Y8964992D01*
X7586217Y8965546D01*
X7589130Y8966240D01*
X7591765Y8967072D01*
X7593845Y8967904D01*
X7594816Y8968320D01*
X7595509Y8968598D01*
X7596064Y8968875D01*
X7596480Y8969152D01*
X7596757Y8969291D01*
X7596896D01*
X7599809Y8971094D01*
X7602305Y8973174D01*
X7604385Y8975254D01*
X7606188Y8977335D01*
X7607714Y8979137D01*
X7608684Y8980524D01*
X7609100Y8981079D01*
X7609378Y8981495D01*
X7609516Y8981772D01*
Y8981911D01*
X7611042Y8984962D01*
X7612290Y8988013D01*
X7613122Y8991064D01*
X7613677Y8993699D01*
X7613954Y8995918D01*
X7614093Y8996889D01*
X7614232Y8997721D01*
Y8964992D01*
Y8999247D01*
X7614093Y9002714D01*
X7613538Y9005904D01*
X7612706Y9008816D01*
X7611874Y9011312D01*
X7611042Y9013392D01*
X7610626Y9014363D01*
X7610210Y9015057D01*
X7609932Y9015611D01*
X7609655Y9016027D01*
X7609516Y9016305D01*
Y9016443D01*
X7607714Y9019356D01*
X7605633Y9021852D01*
X7603414Y9023932D01*
X7601473Y9025735D01*
X7599531Y9027261D01*
X7598144Y9028232D01*
X7597590Y9028648D01*
X7597174Y9028925D01*
X7596896Y9029064D01*
X7596757D01*
X7593706Y9030589D01*
X7590655Y9031837D01*
X7587743Y9032670D01*
X7585108Y9033224D01*
X7582750Y9033502D01*
X7581780Y9033640D01*
X7580948Y9033779D01*
X7614232D01*
D02*
G37*
%LPD*%
G36*
X7781901Y9032115D02*
X7772193D01*
Y9056384D01*
X7781901D01*
Y9032115D01*
D02*
G37*
G36*
X7740711Y8964853D02*
X7716997D01*
X7720880Y8965130D01*
X7724208Y8965685D01*
X7727259Y8966656D01*
X7729617Y8967765D01*
X7731558Y8968736D01*
X7733084Y8969707D01*
X7733500Y8969984D01*
X7733916Y8970262D01*
X7734055Y8970539D01*
X7734193D01*
X7735303Y8971649D01*
X7736412Y8972897D01*
X7737938Y8975254D01*
X7739186Y8977751D01*
X7739879Y8979970D01*
X7740434Y8982050D01*
X7740573Y8983714D01*
X7740711Y8984269D01*
Y8964853D01*
D02*
G37*
G36*
X7850411Y9033640D02*
X7846805Y9033086D01*
X7843615Y9032253D01*
X7840841Y9031421D01*
X7839593Y9031005D01*
X7838484Y9030589D01*
X7837513Y9030173D01*
X7836681Y9029757D01*
X7835987Y9029480D01*
X7835571Y9029202D01*
X7835294Y9029064D01*
X7835155D01*
X7832104Y9027261D01*
X7829469Y9025181D01*
X7827250Y9023100D01*
X7825447Y9021020D01*
X7823922Y9019217D01*
X7822812Y9017830D01*
X7822535Y9017276D01*
X7822258Y9016860D01*
X7821980Y9016582D01*
Y9016443D01*
X7820455Y9013392D01*
X7819207Y9010341D01*
X7818375Y9007429D01*
X7817820Y9004794D01*
X7817542Y9002436D01*
X7817404Y9001466D01*
Y9000634D01*
X7817265Y8999940D01*
Y9033779D01*
X7854294D01*
X7850411Y9033640D01*
D02*
G37*
G36*
X7577064D02*
X7574707Y9033363D01*
X7572488Y9032947D01*
X7570408Y9032392D01*
X7566524Y9030867D01*
X7564860Y9030173D01*
X7563196Y9029341D01*
X7561809Y9028370D01*
X7560422Y9027677D01*
X7559313Y9026845D01*
X7558481Y9026151D01*
X7557649Y9025597D01*
X7557094Y9025181D01*
X7556816Y9024903D01*
X7556678Y9024765D01*
X7554736Y9022823D01*
X7552933Y9020743D01*
X7551408Y9018662D01*
X7550160Y9016443D01*
X7549050Y9014363D01*
X7548218Y9012144D01*
X7547386Y9010064D01*
X7546831Y9008122D01*
X7546415Y9006320D01*
X7545999Y9004655D01*
X7545860Y9003130D01*
X7545583Y9001743D01*
Y9000772D01*
X7545444Y8999940D01*
Y9033779D01*
X7579422D01*
X7577064Y9033640D01*
D02*
G37*
G36*
X7582334Y9017969D02*
X7584969Y9017414D01*
X7587188Y9016582D01*
X7588991Y9015611D01*
X7590517Y9014641D01*
X7591626Y9013808D01*
X7592181Y9013254D01*
X7592458Y9012976D01*
X7594122Y9010896D01*
X7595371Y9008677D01*
X7596341Y9006320D01*
X7596896Y9004101D01*
X7597312Y9002159D01*
X7597451Y9000634D01*
X7597590Y9000079D01*
Y8999663D01*
Y8999385D01*
Y8999247D01*
X7597312Y8996334D01*
X7596757Y8993561D01*
X7595925Y8991203D01*
X7595093Y8989261D01*
X7594122Y8987736D01*
X7593290Y8986488D01*
X7592736Y8985794D01*
X7592458Y8985517D01*
X7590378Y8983714D01*
X7588298Y8982466D01*
X7586079Y8981495D01*
X7584137Y8980940D01*
X7582334Y8980524D01*
X7580809Y8980386D01*
X7580254Y8980247D01*
X7579561D01*
X7576787Y8980524D01*
X7574291Y8981079D01*
X7572072Y8981911D01*
X7570269Y8982882D01*
X7568743Y8983853D01*
X7567773Y8984685D01*
X7567079Y8985240D01*
X7566802Y8985517D01*
X7565138Y8987597D01*
X7563889Y8989955D01*
X7563057Y8992174D01*
X7562503Y8994393D01*
X7562086Y8996334D01*
X7561948Y8997860D01*
X7561809Y8998415D01*
Y8998831D01*
Y8999108D01*
Y8999247D01*
X7562086Y9002159D01*
X7562641Y9004933D01*
X7563335Y9007152D01*
X7564305Y9009232D01*
X7565276Y9010757D01*
X7565970Y9011867D01*
X7566524Y9012560D01*
X7566802Y9012838D01*
X7568882Y9014641D01*
X7570962Y9016027D01*
X7573043Y9016998D01*
X7575123Y9017553D01*
X7576926Y9017969D01*
X7578313Y9018108D01*
X7578867Y9018246D01*
X7579561D01*
X7582334Y9017969D01*
D02*
G37*
%LPC*%
G36*
X11603409Y5562664D02*
D01*
Y5497670D01*
X11603224Y5500818D01*
X11602668Y5503781D01*
X11601928Y5506373D01*
X11601002Y5508595D01*
X11600076Y5510262D01*
X11599335Y5511743D01*
X11598780Y5512484D01*
X11598595Y5512854D01*
X11596558Y5515261D01*
X11593780Y5517668D01*
X11591003Y5519705D01*
X11588040Y5521742D01*
X11585448Y5523223D01*
X11583226Y5524519D01*
X11582300Y5525075D01*
X11581745Y5525445D01*
X11581374Y5525630D01*
X11581189D01*
X11573042Y5529704D01*
X11571190Y5530630D01*
X11569894Y5531370D01*
X11568783Y5532111D01*
X11567857Y5532667D01*
X11567302Y5533222D01*
X11566931Y5533592D01*
X11566561Y5533778D01*
X11565820Y5534889D01*
X11565450Y5536000D01*
X11565265Y5536740D01*
Y5536925D01*
X11565450Y5537851D01*
X11565635Y5538592D01*
X11566376Y5539703D01*
X11566931Y5540629D01*
X11567302Y5540814D01*
X11569153Y5541740D01*
X11571005Y5542295D01*
X11571746Y5542480D01*
X11574338D01*
X11575634Y5542110D01*
X11578227Y5541184D01*
X11580634Y5539888D01*
X11583041Y5538407D01*
X11585078Y5536925D01*
X11586559Y5535629D01*
X11587670Y5534703D01*
X11588040Y5534518D01*
Y5534333D01*
X11601743Y5548035D01*
X11599706Y5550443D01*
X11597484Y5552665D01*
X11595262Y5554516D01*
X11593225Y5555998D01*
X11591558Y5557294D01*
X11590077Y5558034D01*
X11589151Y5558590D01*
X11588781Y5558775D01*
X11586003Y5560071D01*
X11583226Y5560997D01*
X11580449Y5561738D01*
X11578041Y5562108D01*
X11576005Y5562478D01*
X11574338Y5562664D01*
X11572857D01*
X11568413Y5562293D01*
X11564524Y5561553D01*
X11561006Y5560256D01*
X11558043Y5558960D01*
X11555636Y5557664D01*
X11553970Y5556368D01*
X11552859Y5555627D01*
X11552674Y5555257D01*
X11552488D01*
X11551007Y5553776D01*
X11549896Y5552294D01*
X11547859Y5549332D01*
X11546563Y5546369D01*
X11545452Y5543591D01*
X11544897Y5541184D01*
X11544711Y5539147D01*
X11544526Y5538407D01*
Y5538036D01*
Y5537666D01*
Y5537481D01*
X11544711Y5534518D01*
X11545452Y5531741D01*
X11546563Y5528963D01*
X11547859Y5526556D01*
X11549341Y5524149D01*
X11551192Y5521927D01*
X11553044Y5519890D01*
X11555081Y5518038D01*
X11557118Y5516372D01*
X11558969Y5514891D01*
X11560821Y5513595D01*
X11562302Y5512484D01*
X11563784Y5511743D01*
X11564709Y5511187D01*
X11565450Y5510817D01*
X11565635Y5510632D01*
X11573042Y5506929D01*
X11574708Y5506003D01*
X11576190Y5505077D01*
X11577486Y5504151D01*
X11578597Y5503410D01*
X11580263Y5501744D01*
X11581560Y5500263D01*
X11582115Y5498966D01*
X11582485Y5498041D01*
X11582671Y5497300D01*
Y5497115D01*
X11582485Y5496189D01*
X11582300Y5495263D01*
X11581374Y5493597D01*
X11580263Y5492671D01*
X11580078Y5492486D01*
X11579893Y5492300D01*
X11578782Y5491560D01*
X11577671Y5491189D01*
X11575449Y5490449D01*
X11574523D01*
X11573783Y5490264D01*
X11573042D01*
X11571561Y5490449D01*
X11569894Y5490634D01*
X11568413Y5491004D01*
X11566931Y5491560D01*
X11565635Y5492115D01*
X11564709Y5492486D01*
X11563969Y5492671D01*
X11563784Y5492856D01*
X11560265Y5495263D01*
X11558599Y5496374D01*
X11557303Y5497670D01*
X11556192Y5498596D01*
X11555451Y5499522D01*
X11554896Y5500077D01*
X11554710Y5500263D01*
X11541378Y5485449D01*
D01*
X11543600Y5482857D01*
X11546008Y5480635D01*
X11548415Y5478598D01*
X11550822Y5476932D01*
X11553414Y5475450D01*
X11556007Y5474339D01*
X11558414Y5473228D01*
X11560821Y5472488D01*
X11563043Y5471932D01*
X11565080Y5471377D01*
X11566931Y5471006D01*
X11568598Y5470821D01*
X11569894D01*
X11570820Y5470636D01*
X11541378D01*
D01*
X11603409D01*
D01*
X11571746D01*
X11576930Y5471006D01*
X11581374Y5471747D01*
X11585448Y5473043D01*
X11588596Y5474524D01*
X11591188Y5475821D01*
X11593225Y5477117D01*
X11593780Y5477487D01*
X11594336Y5477857D01*
X11594521Y5478228D01*
X11594706D01*
X11596188Y5479709D01*
X11597669Y5481376D01*
X11599706Y5484523D01*
X11601372Y5487856D01*
X11602298Y5490819D01*
X11603039Y5493597D01*
X11603224Y5495819D01*
X11603409Y5496559D01*
Y5562664D01*
D02*
G37*
G36*
X11332141Y5591364D02*
Y5494337D01*
X11298996D01*
Y5591364D01*
X11332141D01*
X11276591D01*
Y5472858D01*
X11332141D01*
Y5591364D01*
D02*
G37*
G36*
X11464349D02*
X11435278D01*
Y5472858D01*
X11529158D01*
Y5533963D01*
X11528787Y5537481D01*
X11527861Y5543777D01*
X11527306Y5546739D01*
X11526565Y5549517D01*
X11525825Y5552109D01*
X11525084Y5554516D01*
X11524343Y5556553D01*
X11523603Y5558405D01*
X11522862Y5560071D01*
X11522306Y5561367D01*
X11521751Y5562478D01*
X11521381Y5563404D01*
X11521195Y5563774D01*
X11521010Y5563960D01*
X11519529Y5566552D01*
X11517862Y5568959D01*
X11514344Y5573403D01*
X11510826Y5576921D01*
X11507678Y5579884D01*
X11504716Y5582106D01*
X11503419Y5583032D01*
X11502308Y5583587D01*
X11501568Y5584143D01*
X11500827Y5584513D01*
X11500457Y5584883D01*
X11500272D01*
X11497864Y5585994D01*
X11495087Y5587105D01*
X11492124Y5587846D01*
X11488977Y5588587D01*
X11482681Y5589698D01*
X11476385Y5590624D01*
X11473423Y5590809D01*
X11470830Y5590994D01*
X11468238Y5591179D01*
X11466201D01*
X11464349Y5591364D01*
D02*
G37*
G36*
X11414169D02*
X11349547D01*
Y5472858D01*
X11414169D01*
Y5591364D01*
D02*
G37*
%LPD*%
G36*
X11469164Y5569144D02*
X11472682Y5568959D01*
X11476015Y5568404D01*
X11478978Y5567848D01*
X11481755Y5567107D01*
X11484162Y5566367D01*
X11486384Y5565441D01*
X11488421Y5564700D01*
X11490273Y5563774D01*
X11491754Y5562849D01*
X11493050Y5562108D01*
X11493976Y5561367D01*
X11494902Y5560812D01*
X11495457Y5560256D01*
X11495642Y5560071D01*
X11495828Y5559886D01*
X11497679Y5557849D01*
X11499346Y5555627D01*
X11500827Y5553405D01*
X11502123Y5550998D01*
X11503049Y5548591D01*
X11503975Y5546184D01*
X11505271Y5541555D01*
X11505641Y5539333D01*
X11506012Y5537296D01*
X11506197Y5535444D01*
X11506382Y5533963D01*
X11506567Y5532667D01*
Y5531556D01*
Y5531000D01*
Y5530815D01*
X11506382Y5526371D01*
X11505827Y5522482D01*
X11505086Y5518964D01*
X11504345Y5516002D01*
X11503605Y5513595D01*
X11502864Y5511743D01*
X11502308Y5510632D01*
X11502123Y5510447D01*
Y5510262D01*
X11500272Y5507299D01*
X11498420Y5504892D01*
X11496568Y5502855D01*
X11494717Y5501188D01*
X11493050Y5499892D01*
X11491754Y5499152D01*
X11491013Y5498596D01*
X11490643Y5498411D01*
X11489162Y5497855D01*
X11487680Y5497300D01*
X11484162Y5496374D01*
X11480459Y5495819D01*
X11476756Y5495263D01*
X11473423Y5495078D01*
X11471941D01*
X11470645Y5494893D01*
X11457683D01*
Y5569329D01*
X11465275D01*
X11469164Y5569144D01*
D02*
G37*
G36*
X11529158Y5472858D02*
X11466386D01*
X11470275Y5473043D01*
X11473793D01*
X11477126Y5473228D01*
X11479903Y5473599D01*
X11482681Y5473784D01*
X11484903Y5473969D01*
X11487125Y5474339D01*
X11488791Y5474524D01*
X11490458Y5474710D01*
X11491754Y5475080D01*
X11492680Y5475265D01*
X11493606Y5475450D01*
X11494161D01*
X11494346Y5475635D01*
X11494531D01*
X11498050Y5476932D01*
X11501197Y5478598D01*
X11504160Y5480265D01*
X11506752Y5482116D01*
X11508974Y5483598D01*
X11510641Y5484894D01*
X11511567Y5485820D01*
X11511937Y5486190D01*
X11514715Y5489153D01*
X11517307Y5492300D01*
X11519344Y5495633D01*
X11521195Y5498596D01*
X11522677Y5501188D01*
X11523603Y5503410D01*
X11523973Y5504151D01*
X11524343Y5504707D01*
X11524528Y5505077D01*
Y5505262D01*
X11526010Y5509706D01*
X11527121Y5513965D01*
X11528047Y5518224D01*
X11528602Y5522112D01*
X11528972Y5525445D01*
Y5526926D01*
X11529158Y5528223D01*
Y5472858D01*
D02*
G37*
G36*
X11414169Y5548035D02*
X11371952D01*
Y5569515D01*
X11414169D01*
Y5548035D01*
D02*
G37*
G36*
Y5495078D02*
X11371952D01*
Y5526186D01*
X11414169D01*
Y5495078D01*
D02*
G37*
%LPC*%
G36*
X6976180Y5992586D02*
X6943913D01*
Y5933414D01*
X6976180D01*
Y5971968D01*
Y5970951D01*
X6955100D01*
Y5981676D01*
X6976180D01*
Y5981029D01*
Y5992586D01*
D02*
G37*
G36*
X7061795D02*
X7029527D01*
Y5933414D01*
X7061795D01*
Y5959117D01*
Y5944509D01*
X7040715D01*
Y5960041D01*
X7061795D01*
Y5971136D01*
Y5970951D01*
X7040715D01*
Y5981676D01*
X7061795D01*
Y5980659D01*
Y5981676D01*
Y5992586D01*
D02*
G37*
G36*
X7018710Y5994065D02*
Y5948577D01*
X7018618Y5949964D01*
X7018525Y5951258D01*
X7018248Y5952460D01*
X7017970Y5953477D01*
X7017693Y5954309D01*
X7017508Y5954956D01*
X7017323Y5955326D01*
X7017231Y5955511D01*
X7016584Y5956713D01*
X7015936Y5957822D01*
X7015104Y5958932D01*
X7014272Y5959949D01*
X7013625Y5960874D01*
X7012978Y5961521D01*
X7012608Y5961891D01*
X7012423Y5962075D01*
X7012146Y5962353D01*
X7011683Y5962723D01*
X7010574Y5963740D01*
X7009372Y5964849D01*
X7007985Y5965959D01*
X7006691Y5967068D01*
X7005581Y5967993D01*
X7005212Y5968362D01*
X7004842Y5968640D01*
X7004657Y5968732D01*
X7004564Y5968825D01*
X7003362Y5969842D01*
X7002253Y5970859D01*
X7001236Y5971691D01*
X7000404Y5972431D01*
X6999664Y5973170D01*
X6998925Y5973817D01*
X6997908Y5974834D01*
X6997168Y5975574D01*
X6996706Y5976036D01*
X6996428Y5976314D01*
X6996336Y5976406D01*
X6995781Y5977423D01*
X6995504Y5978348D01*
Y5978718D01*
X6995411Y5978995D01*
Y5979180D01*
Y5979272D01*
X6995504Y5979827D01*
X6995596Y5980289D01*
X6996151Y5981214D01*
X6996613Y5981769D01*
X6996706Y5981861D01*
X6996798Y5981953D01*
X6997353Y5982323D01*
X6997908Y5982693D01*
X6999109Y5982971D01*
X6999664Y5983063D01*
X7000034Y5983155D01*
X7000404D01*
X7001236Y5983063D01*
X7002068Y5982878D01*
X7002900Y5982601D01*
X7003732Y5982231D01*
X7005212Y5981214D01*
X7006506Y5980104D01*
X7007708Y5978995D01*
X7008540Y5977978D01*
X7008817Y5977608D01*
X7009095Y5977331D01*
X7009187Y5977146D01*
X7009280Y5977053D01*
X7017693Y5984450D01*
X7015936Y5986299D01*
X7014365Y5987963D01*
X7012885Y5989258D01*
X7011499Y5990275D01*
X7010482Y5991014D01*
X7009649Y5991569D01*
X7009095Y5991846D01*
X7009002Y5991939D01*
X7008910D01*
X7007430Y5992678D01*
X7005951Y5993141D01*
X7004472Y5993510D01*
X7003178Y5993788D01*
X7002068Y5993973D01*
X7001236Y5994065D01*
X7018710D01*
X6981543D01*
D01*
X7000496D01*
X6999202Y5993973D01*
X6998000Y5993880D01*
X6995781Y5993418D01*
X6993839Y5992678D01*
X6992175Y5991846D01*
X6990788Y5991014D01*
X6990234Y5990644D01*
X6989771Y5990367D01*
X6989402Y5989997D01*
X6989124Y5989812D01*
X6989032Y5989720D01*
X6988939Y5989627D01*
X6988107Y5988795D01*
X6987460Y5987871D01*
X6986813Y5987039D01*
X6986258Y5986114D01*
X6985426Y5984357D01*
X6984871Y5982693D01*
X6984594Y5981214D01*
X6984501Y5980659D01*
X6984409Y5980104D01*
X6984316Y5979642D01*
Y5979365D01*
Y5979180D01*
Y5979087D01*
X6984409Y5977516D01*
X6984779Y5975944D01*
X6985241Y5974465D01*
X6985703Y5973170D01*
X6986258Y5972061D01*
X6986628Y5971229D01*
X6986998Y5970674D01*
X6987090Y5970581D01*
Y5970489D01*
X6987645Y5969657D01*
X6988385Y5968732D01*
X6989309Y5967808D01*
X6990234Y5966791D01*
X6992268Y5964757D01*
X6994394Y5962815D01*
X6996336Y5961058D01*
X6997260Y5960319D01*
X6998000Y5959672D01*
X6998647Y5959117D01*
X6999109Y5958747D01*
X6999479Y5958470D01*
X6999572Y5958377D01*
X7001328Y5956898D01*
X7002715Y5955696D01*
X7003825Y5954587D01*
X7004657Y5953754D01*
X7005304Y5953015D01*
X7005766Y5952552D01*
X7005951Y5952275D01*
X7006044Y5952183D01*
X7006598Y5951443D01*
X7006968Y5950703D01*
X7007246Y5950056D01*
X7007430Y5949501D01*
X7007523Y5948947D01*
X7007615Y5948577D01*
Y5948300D01*
Y5948207D01*
X7007523Y5947375D01*
X7007338Y5946635D01*
X7006968Y5945988D01*
X7006598Y5945433D01*
X7006229Y5944971D01*
X7005859Y5944601D01*
X7005674Y5944416D01*
X7005581Y5944324D01*
X7004842Y5943769D01*
X7004010Y5943399D01*
X7003178Y5943030D01*
X7002438Y5942845D01*
X7001791Y5942752D01*
X7001236Y5942660D01*
X7000774D01*
X6999757Y5942752D01*
X6998740Y5943030D01*
X6997815Y5943399D01*
X6996891Y5943862D01*
X6995226Y5945156D01*
X6993839Y5946635D01*
X6992638Y5948022D01*
X6991713Y5949317D01*
X6991436Y5949779D01*
X6991158Y5950149D01*
X6991066Y5950426D01*
X6990973Y5950518D01*
X6981543Y5944786D01*
X6982837Y5942475D01*
X6984224Y5940441D01*
X6985518Y5938777D01*
X6986813Y5937390D01*
X6987830Y5936373D01*
X6988754Y5935541D01*
X6989309Y5935171D01*
X6989402Y5934986D01*
X6989494D01*
X6991343Y5933969D01*
X6993192Y5933229D01*
X6995041Y5932674D01*
X6996798Y5932305D01*
X6998277Y5932120D01*
X6998925Y5932027D01*
X6999479D01*
X6999849Y5931935D01*
X7000496D01*
X7001976Y5932027D01*
X7003362Y5932120D01*
X7005951Y5932674D01*
X7008263Y5933414D01*
X7009187Y5933876D01*
X7010112Y5934339D01*
X7010944Y5934708D01*
X7011591Y5935171D01*
X7012238Y5935541D01*
X7012700Y5935910D01*
X7013070Y5936188D01*
X7013440Y5936465D01*
X7013533Y5936558D01*
X7013625Y5936650D01*
X7014550Y5937575D01*
X7015289Y5938499D01*
X7016029Y5939516D01*
X7016584Y5940533D01*
X7017508Y5942475D01*
X7018063Y5944416D01*
X7018433Y5946081D01*
X7018525Y5946728D01*
X7018618Y5947375D01*
X7018710Y5947837D01*
Y5933414D01*
Y5994065D01*
D02*
G37*
G36*
X7099239Y5992586D02*
X7066417D01*
Y5981491D01*
X7076957D01*
Y5933414D01*
X7088422D01*
Y5981491D01*
X7099239D01*
Y5940533D01*
Y5992586D01*
D02*
G37*
G36*
X6934668D02*
X6896761D01*
Y5933414D01*
X6907948D01*
Y5958470D01*
X6908965D01*
X6922371Y5933414D01*
X6934668D01*
X6920614Y5959672D01*
X6922556Y5960504D01*
X6924313Y5961428D01*
X6925792Y5962445D01*
X6926901Y5963370D01*
X6927826Y5964294D01*
X6928473Y5964942D01*
X6928935Y5965404D01*
X6929028Y5965589D01*
X6929952Y5967161D01*
X6930692Y5968825D01*
X6931154Y5970396D01*
X6931524Y5971968D01*
X6931709Y5973355D01*
X6931894Y5974465D01*
Y5974834D01*
Y5975112D01*
Y5975297D01*
Y5975389D01*
X6931801Y5977423D01*
X6931524Y5979272D01*
X6931062Y5980844D01*
X6930600Y5982323D01*
X6930137Y5983433D01*
X6929675Y5984265D01*
X6929398Y5984820D01*
X6929305Y5985005D01*
X6928288Y5986391D01*
X6927179Y5987593D01*
X6926069Y5988610D01*
X6925052Y5989442D01*
X6924128Y5990090D01*
X6923296Y5990459D01*
X6922833Y5990737D01*
X6922741Y5990829D01*
X6922648D01*
X6921816Y5991107D01*
X6920892Y5991384D01*
X6918673Y5991846D01*
X6916361Y5992124D01*
X6914142Y5992401D01*
X6913033D01*
X6912016Y5992493D01*
X6911091D01*
X6910259Y5992586D01*
X6934668D01*
D02*
G37*
%LPD*%
G36*
X6976180Y5944509D02*
X6955100D01*
Y5960041D01*
X6976180D01*
Y5944509D01*
D02*
G37*
G36*
X6913865Y5981491D02*
X6914974Y5981399D01*
X6915807Y5981306D01*
X6916454Y5981121D01*
X6916824Y5981029D01*
X6917101Y5980936D01*
X6917193D01*
X6918395Y5980289D01*
X6919227Y5979642D01*
X6919782Y5979087D01*
X6919967Y5978902D01*
Y5978810D01*
X6920337Y5978255D01*
X6920522Y5977701D01*
X6920892Y5976591D01*
Y5976129D01*
X6920984Y5975851D01*
Y5975574D01*
Y5975482D01*
X6920892Y5974372D01*
X6920614Y5973355D01*
X6920337Y5972615D01*
X6919967Y5971968D01*
X6919505Y5971506D01*
X6919227Y5971136D01*
X6918950Y5970951D01*
X6918858Y5970859D01*
X6917933Y5970396D01*
X6916824Y5970027D01*
X6915622Y5969842D01*
X6914420Y5969657D01*
X6913310Y5969564D01*
X6912293Y5969472D01*
X6907948D01*
Y5981584D01*
X6912571D01*
X6913865Y5981491D01*
D02*
G37*
%LPC*%
G36*
X8863540Y5697598D02*
X8862430D01*
X8860489Y5697459D01*
X8858686Y5697320D01*
X8855357Y5696627D01*
X8852445Y5695517D01*
X8849949Y5694269D01*
X8847869Y5693021D01*
X8847036Y5692466D01*
X8846343Y5692050D01*
X8845788Y5691496D01*
X8845372Y5691218D01*
X8845234Y5691080D01*
X8845095Y5690941D01*
X8843847Y5689693D01*
X8842876Y5688306D01*
X8841905Y5687058D01*
X8841073Y5685671D01*
X8839825Y5683036D01*
X8838993Y5680540D01*
X8838577Y5678321D01*
X8838438Y5677489D01*
X8838299Y5676656D01*
X8838161Y5675963D01*
Y5675547D01*
Y5675270D01*
Y5675131D01*
X8838299Y5672773D01*
X8838854Y5670416D01*
X8839547Y5668197D01*
X8840241Y5666255D01*
X8841073Y5664591D01*
X8841628Y5663343D01*
X8842182Y5662511D01*
X8842321Y5662372D01*
Y5662233D01*
X8843153Y5660985D01*
X8844263Y5659598D01*
X8845650Y5658211D01*
X8847036Y5656686D01*
X8850087Y5653635D01*
X8853277Y5650723D01*
X8856190Y5648088D01*
X8857576Y5646978D01*
X8858686Y5646007D01*
X8859657Y5645175D01*
X8860350Y5644620D01*
X8860905Y5644204D01*
X8861043Y5644066D01*
X8863678Y5641847D01*
X8865759Y5640044D01*
X8867423Y5638380D01*
X8868671Y5637131D01*
X8869642Y5636022D01*
X8870335Y5635329D01*
X8870613Y5634913D01*
X8870751Y5634774D01*
X8871583Y5633664D01*
X8872138Y5632555D01*
X8872554Y5631584D01*
X8872832Y5630752D01*
X8872970Y5629920D01*
X8873109Y5629365D01*
Y5628949D01*
Y5628810D01*
X8872970Y5627562D01*
X8872693Y5626453D01*
X8872138Y5625482D01*
X8871583Y5624650D01*
X8871029Y5623956D01*
X8870474Y5623402D01*
X8870197Y5623124D01*
X8870058Y5622986D01*
X8868948Y5622154D01*
X8867700Y5621599D01*
X8866452Y5621044D01*
X8865343Y5620767D01*
X8864372Y5620628D01*
X8863540Y5620489D01*
X8862846D01*
X8861321Y5620628D01*
X8859795Y5621044D01*
X8858408Y5621599D01*
X8857022Y5622292D01*
X8854525Y5624234D01*
X8852445Y5626453D01*
X8850642Y5628533D01*
X8849255Y5630475D01*
X8848839Y5631168D01*
X8848423Y5631723D01*
X8848285Y5632139D01*
X8848146Y5632278D01*
X8834000Y5623679D01*
X8835942Y5620212D01*
X8838022Y5617161D01*
X8839964Y5614665D01*
X8841905Y5612584D01*
X8843431Y5611059D01*
X8844817Y5609811D01*
X8845650Y5609256D01*
X8845788Y5608979D01*
X8845927D01*
X8848701Y5607453D01*
X8851474Y5606344D01*
X8854248Y5605512D01*
X8856883Y5604957D01*
X8859102Y5604679D01*
X8860073Y5604541D01*
X8860905D01*
X8861460Y5604402D01*
X8834000D01*
D01*
X8889751D01*
Y5629781D01*
Y5629365D01*
X8889612Y5631445D01*
X8889474Y5633387D01*
X8889058Y5635190D01*
X8888642Y5636715D01*
X8888226Y5637964D01*
X8887948Y5638934D01*
X8887671Y5639489D01*
X8887532Y5639766D01*
X8886561Y5641569D01*
X8885591Y5643234D01*
X8884342Y5644898D01*
X8883094Y5646423D01*
X8882123Y5647810D01*
X8881153Y5648781D01*
X8880598Y5649336D01*
X8880321Y5649613D01*
X8879905Y5650029D01*
X8879211Y5650584D01*
X8877547Y5652109D01*
X8875744Y5653774D01*
X8873664Y5655438D01*
X8871722Y5657102D01*
X8870058Y5658489D01*
X8869503Y5659044D01*
X8868948Y5659460D01*
X8868671Y5659598D01*
X8868532Y5659737D01*
X8866730Y5661262D01*
X8865065Y5662788D01*
X8863540Y5664036D01*
X8862292Y5665146D01*
X8861182Y5666255D01*
X8860073Y5667226D01*
X8858547Y5668751D01*
X8857438Y5669861D01*
X8856744Y5670554D01*
X8856328Y5670970D01*
X8856190Y5671109D01*
X8855357Y5672635D01*
X8854941Y5674021D01*
Y5674576D01*
X8854803Y5674992D01*
Y5675270D01*
Y5675408D01*
X8854941Y5676240D01*
X8855080Y5676934D01*
X8855912Y5678321D01*
X8856606Y5679153D01*
X8856744Y5679291D01*
X8856883Y5679430D01*
X8857715Y5679985D01*
X8858547Y5680540D01*
X8860350Y5680956D01*
X8861182Y5681094D01*
X8861737Y5681233D01*
X8862292D01*
X8863540Y5681094D01*
X8864788Y5680817D01*
X8866036Y5680401D01*
X8867284Y5679846D01*
X8869503Y5678321D01*
X8871445Y5676656D01*
X8873248Y5674992D01*
X8874496Y5673467D01*
X8874912Y5672912D01*
X8875328Y5672496D01*
X8875467Y5672219D01*
X8875605Y5672080D01*
X8888226Y5683175D01*
X8885591Y5685948D01*
X8883233Y5688445D01*
X8881014Y5690386D01*
X8878934Y5691912D01*
X8877408Y5693021D01*
X8876160Y5693853D01*
X8875328Y5694269D01*
X8875189Y5694408D01*
X8875051D01*
X8872832Y5695517D01*
X8870613Y5696211D01*
X8868394Y5696766D01*
X8866452Y5697182D01*
X8864788Y5697459D01*
X8863540Y5697598D01*
D02*
G37*
G36*
X8790037D02*
X8785738D01*
X8783380Y5697320D01*
X8778943Y5696627D01*
X8774782Y5695517D01*
X8772979Y5694963D01*
X8771176Y5694408D01*
X8769651Y5693853D01*
X8768264Y5693298D01*
X8767016Y5692744D01*
X8765906Y5692189D01*
X8765074Y5691773D01*
X8764519Y5691496D01*
X8764103Y5691357D01*
X8763965Y5691218D01*
X8759943Y5688722D01*
X8756476Y5685948D01*
X8753563Y5683175D01*
X8751206Y5680540D01*
X8749264Y5678182D01*
X8748432Y5677211D01*
X8747877Y5676240D01*
X8747461Y5675547D01*
X8747045Y5674992D01*
X8746907Y5674715D01*
X8746768Y5674576D01*
X8745658Y5672635D01*
X8744826Y5670693D01*
X8743301Y5666532D01*
X8742330Y5662649D01*
X8741498Y5659044D01*
X8741359Y5657379D01*
X8741082Y5655854D01*
X8740943Y5654467D01*
Y5653358D01*
X8740804Y5652387D01*
Y5651139D01*
X8740943Y5647394D01*
X8741359Y5643788D01*
X8742053Y5640460D01*
X8742885Y5637270D01*
X8743856Y5634219D01*
X8744965Y5631445D01*
X8746213Y5628949D01*
X8747461Y5626591D01*
X8748571Y5624511D01*
X8749819Y5622708D01*
X8750928Y5621183D01*
X8751899Y5619796D01*
X8752731Y5618825D01*
X8753425Y5617993D01*
X8753841Y5617577D01*
X8753979Y5617438D01*
X8756476Y5615081D01*
X8759249Y5613139D01*
X8762023Y5611336D01*
X8764797Y5609949D01*
X8767709Y5608701D01*
X8770483Y5607592D01*
X8773257Y5606760D01*
X8775892Y5606066D01*
X8778249Y5605512D01*
X8780607Y5605095D01*
X8782687Y5604818D01*
X8784351Y5604679D01*
X8785877Y5604541D01*
X8786848Y5604402D01*
X8740804D01*
X8826927D01*
D01*
X8787818D01*
X8791840Y5604541D01*
X8795723Y5604957D01*
X8799052Y5605512D01*
X8801964Y5606205D01*
X8803351Y5606482D01*
X8804460Y5606898D01*
X8805431Y5607176D01*
X8806263Y5607453D01*
X8806957Y5607730D01*
X8807373Y5607869D01*
X8807650Y5608008D01*
X8807789D01*
X8809453Y5608840D01*
X8811117Y5609672D01*
X8814446Y5611752D01*
X8817635Y5613971D01*
X8820548Y5616190D01*
X8822905Y5618132D01*
X8824015Y5619103D01*
X8824847Y5619935D01*
X8825540Y5620489D01*
X8826095Y5621044D01*
X8826372Y5621321D01*
X8826511Y5621460D01*
X8815000Y5633387D01*
X8812365Y5630891D01*
X8809869Y5628810D01*
X8807511Y5627008D01*
X8805570Y5625759D01*
X8803906Y5624650D01*
X8802658Y5623956D01*
X8801825Y5623540D01*
X8801687Y5623402D01*
X8801548D01*
X8799329Y5622570D01*
X8796971Y5621876D01*
X8794614Y5621460D01*
X8792534Y5621044D01*
X8790731Y5620905D01*
X8789344Y5620767D01*
X8788096D01*
X8784906Y5620905D01*
X8781994Y5621321D01*
X8779359Y5622015D01*
X8777001Y5622708D01*
X8775059Y5623402D01*
X8773673Y5624095D01*
X8773118Y5624234D01*
X8772702Y5624511D01*
X8772563Y5624650D01*
X8772424D01*
X8769928Y5626175D01*
X8767709Y5627978D01*
X8765906Y5629781D01*
X8764242Y5631445D01*
X8763133Y5632971D01*
X8762162Y5634219D01*
X8761607Y5635051D01*
X8761468Y5635190D01*
Y5635329D01*
X8760220Y5637964D01*
X8759249Y5640737D01*
X8758695Y5643372D01*
X8758140Y5645869D01*
X8757863Y5647949D01*
Y5648920D01*
X8757724Y5649613D01*
Y5650306D01*
Y5650723D01*
Y5651000D01*
Y5651139D01*
X8757863Y5653496D01*
X8758140Y5655715D01*
X8758556Y5657795D01*
X8759111Y5659737D01*
X8760498Y5663481D01*
X8761191Y5665007D01*
X8762023Y5666532D01*
X8762855Y5667919D01*
X8763549Y5669029D01*
X8764381Y5670138D01*
X8764935Y5670970D01*
X8765490Y5671664D01*
X8765906Y5672080D01*
X8766184Y5672357D01*
X8766322Y5672496D01*
X8767987Y5674021D01*
X8769789Y5675408D01*
X8771592Y5676518D01*
X8773395Y5677489D01*
X8775198Y5678459D01*
X8777001Y5679153D01*
X8780329Y5680124D01*
X8781855Y5680540D01*
X8783380Y5680817D01*
X8784629Y5680956D01*
X8785738Y5681094D01*
X8786570Y5681233D01*
X8787818D01*
X8790592Y5681094D01*
X8793366Y5680678D01*
X8796001Y5680124D01*
X8798497Y5679291D01*
X8800855Y5678321D01*
X8803074Y5677211D01*
X8805154Y5676102D01*
X8807095Y5674854D01*
X8808898Y5673605D01*
X8810424Y5672496D01*
X8811811Y5671386D01*
X8812920Y5670416D01*
X8813752Y5669722D01*
X8814446Y5669029D01*
X8814862Y5668613D01*
X8815000Y5668474D01*
X8826927Y5679707D01*
X8824015Y5682759D01*
X8820964Y5685394D01*
X8818051Y5687612D01*
X8815278Y5689554D01*
X8812781Y5690941D01*
X8811811Y5691496D01*
X8810840Y5692050D01*
X8810146Y5692466D01*
X8809592Y5692605D01*
X8809314Y5692882D01*
X8809176D01*
X8805431Y5694408D01*
X8801548Y5695656D01*
X8798081Y5696488D01*
X8794891Y5697043D01*
X8793366Y5697182D01*
X8792118Y5697320D01*
X8791008Y5697459D01*
X8790037Y5697598D01*
D02*
G37*
G36*
X8925948Y5695379D02*
X8905700D01*
Y5606621D01*
X8958538D01*
D01*
X8922481D01*
Y5644204D01*
X8926918D01*
X8928860Y5644343D01*
X8930663Y5644482D01*
X8932327D01*
X8933853Y5644620D01*
X8935101Y5644759D01*
X8936210Y5644898D01*
X8937320Y5645036D01*
X8938152Y5645175D01*
X8938845Y5645314D01*
X8939400D01*
X8940093Y5645591D01*
X8940371D01*
X8943283Y5646701D01*
X8945918Y5647949D01*
X8948137Y5649336D01*
X8950079Y5650723D01*
X8951604Y5651971D01*
X8952714Y5653080D01*
X8953268Y5653774D01*
X8953546Y5654051D01*
X8955210Y5656547D01*
X8956458Y5659182D01*
X8957290Y5661679D01*
X8957984Y5664175D01*
X8958261Y5666255D01*
X8958400Y5667226D01*
Y5668058D01*
X8958538Y5668751D01*
Y5669861D01*
Y5669584D01*
X8958400Y5672635D01*
X8957984Y5675270D01*
X8957290Y5677766D01*
X8956735Y5679846D01*
X8956042Y5681510D01*
X8955349Y5682759D01*
X8954933Y5683591D01*
X8954794Y5683868D01*
X8953268Y5685948D01*
X8951604Y5687751D01*
X8949940Y5689277D01*
X8948276Y5690525D01*
X8946750Y5691496D01*
X8945641Y5692050D01*
X8944809Y5692466D01*
X8944670Y5692605D01*
X8944531D01*
X8943283Y5693160D01*
X8941758Y5693576D01*
X8938568Y5694269D01*
X8935101Y5694685D01*
X8931634Y5695101D01*
X8930108D01*
X8928583Y5695240D01*
X8927196D01*
X8925948Y5695379D01*
D02*
G37*
G36*
X8726243D02*
X8709462D01*
Y5606621D01*
X8726243D01*
Y5695379D01*
D02*
G37*
%LPD*%
G36*
X8889751Y5604402D02*
X8862430D01*
X8864649Y5604541D01*
X8866730Y5604679D01*
X8870613Y5605512D01*
X8874080Y5606621D01*
X8875467Y5607314D01*
X8876853Y5608008D01*
X8878102Y5608563D01*
X8879072Y5609256D01*
X8880043Y5609811D01*
X8880737Y5610365D01*
X8881291Y5610782D01*
X8881846Y5611198D01*
X8881985Y5611336D01*
X8882123Y5611475D01*
X8883510Y5612862D01*
X8884620Y5614249D01*
X8885729Y5615774D01*
X8886561Y5617300D01*
X8887948Y5620212D01*
X8888780Y5623124D01*
X8889335Y5625621D01*
X8889474Y5626591D01*
X8889612Y5627562D01*
X8889751Y5628256D01*
Y5604402D01*
D02*
G37*
G36*
X8929969Y5678737D02*
X8932188Y5678598D01*
X8934130Y5678321D01*
X8935517Y5678043D01*
X8936626Y5677627D01*
X8937458Y5677350D01*
X8937874Y5677211D01*
X8938013Y5677072D01*
X8939400Y5676102D01*
X8940371Y5674854D01*
X8941203Y5673605D01*
X8941619Y5672496D01*
X8941896Y5671386D01*
X8942174Y5670416D01*
Y5669861D01*
Y5669584D01*
Y5668474D01*
X8941896Y5667642D01*
X8941480Y5665978D01*
X8941203Y5665423D01*
X8940925Y5665007D01*
X8940787Y5664730D01*
X8940648Y5664591D01*
X8939400Y5663204D01*
X8938152Y5662233D01*
X8937597Y5661956D01*
X8937181Y5661679D01*
X8936904Y5661540D01*
X8936765D01*
X8935655Y5661262D01*
X8934269Y5661124D01*
X8931356Y5660846D01*
X8930108Y5660708D01*
X8922481D01*
Y5678875D01*
X8927196D01*
X8929969Y5678737D01*
D02*
G37*
%LPC*%
G36*
X11763982Y9248891D02*
Y9224621D01*
X11754274D01*
Y9248891D01*
X11737771D01*
Y9224621D01*
X11729311D01*
D01*
Y9210475D01*
X11737771D01*
Y9159023D01*
X11729311D01*
X11763982D01*
Y9248891D01*
D02*
G37*
G36*
X11726953D02*
Y9224621D01*
X11717245D01*
Y9248891D01*
X11726953D01*
X11692282D01*
D01*
X11700742D01*
Y9224621D01*
X11692282D01*
D01*
Y9210475D01*
X11700742D01*
Y9159023D01*
X11717245D01*
Y9210475D01*
X11726953D01*
Y9162906D01*
Y9248891D01*
D02*
G37*
G36*
X11888797Y9226285D02*
X11851907D01*
D01*
X11887827D01*
X11886024Y9226146D01*
X11884360Y9226008D01*
X11882695Y9225730D01*
X11881308Y9225314D01*
X11880060Y9224898D01*
X11879228Y9224621D01*
X11878673Y9224482D01*
X11878396Y9224344D01*
X11876732Y9223511D01*
X11874929Y9222541D01*
X11873265Y9221431D01*
X11871739Y9220460D01*
X11870352Y9219351D01*
X11869382Y9218657D01*
X11868688Y9218103D01*
X11868411Y9217825D01*
Y9224621D01*
X11851907D01*
D01*
Y9159023D01*
X11868411D01*
Y9185235D01*
Y9187038D01*
Y9188702D01*
Y9190227D01*
X11868550Y9191614D01*
Y9192862D01*
X11868688Y9193972D01*
X11868827Y9195775D01*
Y9197023D01*
X11868966Y9197855D01*
X11869104Y9198410D01*
Y9198548D01*
X11869659Y9200629D01*
X11870491Y9202431D01*
X11871323Y9203957D01*
X11872017Y9205344D01*
X11872849Y9206315D01*
X11873403Y9207147D01*
X11873820Y9207563D01*
X11873958Y9207701D01*
X11875345Y9208811D01*
X11876871Y9209643D01*
X11878257Y9210336D01*
X11879506Y9210752D01*
X11880754Y9211030D01*
X11881586Y9211169D01*
X11882418D01*
X11883805Y9211030D01*
X11885053Y9210891D01*
X11886162Y9210475D01*
X11887133Y9210198D01*
X11887827Y9209782D01*
X11888381Y9209366D01*
X11888659Y9209227D01*
X11888797Y9209088D01*
X11889768Y9208256D01*
X11890462Y9207285D01*
X11891710Y9205344D01*
X11891987Y9204512D01*
X11892265Y9203818D01*
X11892542Y9203264D01*
Y9203125D01*
X11892681Y9202293D01*
X11892958Y9201322D01*
X11893235Y9199103D01*
X11893374Y9196607D01*
X11893513Y9193972D01*
X11893651Y9191475D01*
Y9190505D01*
Y9189534D01*
Y9188702D01*
Y9188147D01*
Y9187731D01*
Y9187592D01*
Y9159023D01*
X11910155D01*
Y9202293D01*
X11909877Y9206315D01*
X11909184Y9209782D01*
X11908352Y9212694D01*
X11907242Y9215052D01*
X11906133Y9216993D01*
X11905301Y9218241D01*
X11904607Y9219074D01*
X11904330Y9219351D01*
X11903082Y9220599D01*
X11901695Y9221709D01*
X11900308Y9222541D01*
X11898921Y9223373D01*
X11896148Y9224621D01*
X11893513Y9225453D01*
X11891294Y9225869D01*
X11890323Y9226146D01*
X11889491D01*
X11888797Y9226285D01*
D02*
G37*
G36*
X11945658D02*
X11944548D01*
X11941220Y9226008D01*
X11938308Y9225453D01*
X11935673Y9224482D01*
X11933454Y9223511D01*
X11931651Y9222541D01*
X11930403Y9221570D01*
X11929571Y9221015D01*
X11929432Y9220738D01*
X11929293D01*
X11928184Y9219628D01*
X11927352Y9218519D01*
X11925826Y9216300D01*
X11924855Y9214081D01*
X11924023Y9212001D01*
X11923607Y9210198D01*
X11923468Y9208672D01*
X11923330Y9208117D01*
Y9207840D01*
Y9207563D01*
Y9207424D01*
X11923468Y9205205D01*
X11924023Y9203125D01*
X11924855Y9201045D01*
X11925826Y9199242D01*
X11926936Y9197439D01*
X11928322Y9195775D01*
X11929709Y9194249D01*
X11931235Y9192862D01*
X11932760Y9191614D01*
X11934147Y9190505D01*
X11935534Y9189534D01*
X11936643Y9188702D01*
X11937753Y9188147D01*
X11938446Y9187731D01*
X11939001Y9187454D01*
X11939140Y9187315D01*
X11944687Y9184541D01*
X11945935Y9183848D01*
X11947045Y9183154D01*
X11948015Y9182461D01*
X11948848Y9181906D01*
X11950096Y9180658D01*
X11951067Y9179549D01*
X11951483Y9178578D01*
X11951760Y9177884D01*
X11951899Y9177330D01*
Y9177191D01*
X11951760Y9176498D01*
X11951621Y9175804D01*
X11950928Y9174556D01*
X11950096Y9173863D01*
X11949957Y9173724D01*
X11949818Y9173585D01*
X11948986Y9173030D01*
X11948154Y9172753D01*
X11946490Y9172198D01*
X11945797D01*
X11945242Y9172060D01*
X11944687D01*
X11943578Y9172198D01*
X11942329Y9172337D01*
X11941220Y9172614D01*
X11940110Y9173030D01*
X11939140Y9173446D01*
X11938446Y9173724D01*
X11937892Y9173863D01*
X11937753Y9174001D01*
X11935118Y9175804D01*
X11933870Y9176636D01*
X11932899Y9177607D01*
X11932067Y9178300D01*
X11931512Y9178994D01*
X11931096Y9179410D01*
X11930957Y9179549D01*
X11920972Y9168454D01*
X11922636Y9166512D01*
X11924439Y9164848D01*
X11926242Y9163323D01*
X11928045Y9162074D01*
X11929987Y9160965D01*
X11931928Y9160133D01*
X11933731Y9159301D01*
X11935534Y9158746D01*
X11937198Y9158330D01*
X11938724Y9157914D01*
X11940110Y9157636D01*
X11941359Y9157498D01*
X11942329D01*
X11943023Y9157359D01*
X11920972D01*
X11967431D01*
Y9177607D01*
X11967293Y9179965D01*
X11966876Y9182184D01*
X11966322Y9184125D01*
X11965628Y9185789D01*
X11964935Y9187038D01*
X11964380Y9188147D01*
X11963964Y9188702D01*
X11963825Y9188979D01*
X11962300Y9190782D01*
X11960220Y9192585D01*
X11958139Y9194110D01*
X11955920Y9195636D01*
X11953979Y9196745D01*
X11952315Y9197716D01*
X11951621Y9198132D01*
X11951205Y9198410D01*
X11950928Y9198548D01*
X11950789D01*
X11944687Y9201599D01*
X11943300Y9202293D01*
X11942329Y9202847D01*
X11941497Y9203402D01*
X11940804Y9203818D01*
X11940388Y9204234D01*
X11940110Y9204512D01*
X11939833Y9204650D01*
X11939278Y9205482D01*
X11939001Y9206315D01*
X11938862Y9206869D01*
Y9207008D01*
X11939001Y9207701D01*
X11939140Y9208256D01*
X11939694Y9209088D01*
X11940110Y9209782D01*
X11940388Y9209920D01*
X11941775Y9210614D01*
X11943162Y9211030D01*
X11943716Y9211169D01*
X11945658D01*
X11946629Y9210891D01*
X11948570Y9210198D01*
X11950373Y9209227D01*
X11952176Y9208117D01*
X11953702Y9207008D01*
X11954811Y9206037D01*
X11955643Y9205344D01*
X11955920Y9205205D01*
Y9205066D01*
X11966183Y9215329D01*
X11964658Y9217132D01*
X11962993Y9218796D01*
X11961329Y9220183D01*
X11959804Y9221292D01*
X11958555Y9222263D01*
X11957446Y9222818D01*
X11956753Y9223234D01*
X11956475Y9223373D01*
X11954395Y9224344D01*
X11952315Y9225037D01*
X11950234Y9225592D01*
X11948432Y9225869D01*
X11946906Y9226146D01*
X11945658Y9226285D01*
D02*
G37*
G36*
X11838455D02*
X11769668D01*
X11803645D01*
X11801288Y9226146D01*
X11798930Y9225869D01*
X11796711Y9225453D01*
X11794631Y9224898D01*
X11790748Y9223373D01*
X11789084Y9222679D01*
X11787419Y9221847D01*
X11786033Y9220876D01*
X11784646Y9220183D01*
X11783536Y9219351D01*
X11782704Y9218657D01*
X11781872Y9218103D01*
X11781317Y9217687D01*
X11781040Y9217409D01*
X11780901Y9217271D01*
X11778960Y9215329D01*
X11777157Y9213249D01*
X11775631Y9211169D01*
X11774383Y9208950D01*
X11773274Y9206869D01*
X11772442Y9204650D01*
X11771609Y9202570D01*
X11771055Y9200629D01*
X11770639Y9198826D01*
X11770223Y9197161D01*
X11770084Y9195636D01*
X11769807Y9194249D01*
Y9193278D01*
X11769668Y9192446D01*
Y9193278D01*
Y9191753D01*
X11769807Y9189118D01*
X11770084Y9186621D01*
X11770639Y9184125D01*
X11771193Y9181906D01*
X11771887Y9179687D01*
X11772719Y9177746D01*
X11773690Y9175804D01*
X11774660Y9174140D01*
X11775493Y9172614D01*
X11776463Y9171228D01*
X11777295Y9170118D01*
X11777989Y9169147D01*
X11778544Y9168315D01*
X11779098Y9167760D01*
X11779376Y9167483D01*
X11779514Y9167344D01*
X11781456Y9165541D01*
X11783398Y9164016D01*
X11785478Y9162768D01*
X11787558Y9161520D01*
X11789500Y9160549D01*
X11791580Y9159855D01*
X11793521Y9159162D01*
X11795324Y9158607D01*
X11797127Y9158191D01*
X11798653Y9157914D01*
X11800040Y9157636D01*
X11801288Y9157498D01*
X11802259D01*
X11803091Y9157359D01*
X11803645D01*
X11807113Y9157498D01*
X11810441Y9158053D01*
X11813353Y9158746D01*
X11815988Y9159578D01*
X11818069Y9160410D01*
X11819039Y9160826D01*
X11819733Y9161104D01*
X11820288Y9161381D01*
X11820704Y9161658D01*
X11820981Y9161797D01*
X11821120D01*
X11824032Y9163600D01*
X11826528Y9165680D01*
X11828609Y9167760D01*
X11830411Y9169841D01*
X11831937Y9171644D01*
X11832908Y9173030D01*
X11833324Y9173585D01*
X11833601Y9174001D01*
X11833740Y9174279D01*
Y9174417D01*
X11835265Y9177468D01*
X11836514Y9180519D01*
X11837346Y9183570D01*
X11837900Y9186205D01*
X11838178Y9188424D01*
X11838316Y9189395D01*
X11838455Y9190227D01*
Y9177746D01*
Y9191753D01*
X11838316Y9195220D01*
X11837762Y9198410D01*
X11836930Y9201322D01*
X11836097Y9203818D01*
X11835265Y9205899D01*
X11834849Y9206869D01*
X11834433Y9207563D01*
X11834156Y9208117D01*
X11833879Y9208534D01*
X11833740Y9208811D01*
Y9208950D01*
X11831937Y9211862D01*
X11829857Y9214358D01*
X11827638Y9216439D01*
X11825696Y9218241D01*
X11823755Y9219767D01*
X11822368Y9220738D01*
X11821813Y9221154D01*
X11821397Y9221431D01*
X11821120Y9221570D01*
X11820981D01*
X11817930Y9223095D01*
X11814879Y9224344D01*
X11811966Y9225176D01*
X11809331Y9225730D01*
X11806974Y9226008D01*
X11806003Y9226146D01*
X11805171Y9226285D01*
X11838455D01*
D01*
D02*
G37*
G36*
X11610320Y9247781D02*
X11554569D01*
Y9159023D01*
X11579532D01*
X11583277Y9159162D01*
X11586605Y9159439D01*
X11589517Y9159994D01*
X11591875Y9160549D01*
X11593817Y9160965D01*
X11595203Y9161520D01*
X11596035Y9161797D01*
X11596313Y9161936D01*
X11598532Y9163184D01*
X11600473Y9164709D01*
X11602276Y9166235D01*
X11603663Y9167622D01*
X11604911Y9169009D01*
X11605743Y9170118D01*
X11606298Y9170811D01*
X11606437Y9171089D01*
X11607685Y9173446D01*
X11608656Y9175804D01*
X11609349Y9178162D01*
X11609904Y9180242D01*
X11610181Y9182184D01*
X11610320Y9183570D01*
Y9164016D01*
Y9183570D01*
Y9184819D01*
X11610181Y9187592D01*
X11609765Y9190227D01*
X11609072Y9192446D01*
X11608378Y9194526D01*
X11607685Y9196052D01*
X11606992Y9197300D01*
X11606575Y9197994D01*
X11606437Y9198271D01*
X11604911Y9200351D01*
X11602970Y9202154D01*
X11601028Y9203818D01*
X11599087Y9205205D01*
X11597422Y9206315D01*
X11596035Y9207147D01*
X11595481Y9207424D01*
X11595065Y9207701D01*
X11594787Y9207840D01*
X11594649D01*
X11596313Y9209227D01*
X11597838Y9210614D01*
X11598948Y9211862D01*
X11599919Y9213110D01*
X11600612Y9214081D01*
X11601167Y9214913D01*
X11601444Y9215468D01*
X11601583Y9215606D01*
X11602276Y9217132D01*
X11602831Y9218796D01*
X11603247Y9220322D01*
X11603524Y9221709D01*
X11603663Y9222957D01*
X11603802Y9223927D01*
Y9224482D01*
Y9224760D01*
X11603663Y9227533D01*
X11603108Y9230168D01*
X11602276Y9232387D01*
X11601444Y9234467D01*
X11600473Y9235993D01*
X11599780Y9237241D01*
X11599225Y9237935D01*
X11598948Y9238212D01*
X11597006Y9240292D01*
X11594926Y9241956D01*
X11592846Y9243343D01*
X11590904Y9244314D01*
X11589101Y9245146D01*
X11587576Y9245701D01*
X11587160Y9245840D01*
X11586744Y9245978D01*
X11586466Y9246117D01*
X11586328D01*
X11585218Y9246394D01*
X11583970Y9246672D01*
X11581196Y9247088D01*
X11578145Y9247365D01*
X11575233Y9247642D01*
X11572598D01*
X11571488Y9247781D01*
X11610320D01*
D02*
G37*
G36*
X11682436Y9224621D02*
X11624604D01*
Y9157359D01*
Y9194388D01*
X11624743Y9191891D01*
Y9189395D01*
X11624882Y9187176D01*
X11625020Y9185235D01*
X11625159Y9183432D01*
X11625298Y9181906D01*
X11625575Y9180519D01*
X11625714Y9179271D01*
X11625853Y9178300D01*
X11625991Y9177330D01*
X11626130Y9176775D01*
X11626269Y9176220D01*
Y9175804D01*
X11626407Y9175665D01*
Y9175527D01*
X11627655Y9172476D01*
X11629042Y9169841D01*
X11630568Y9167483D01*
X11632232Y9165541D01*
X11633619Y9164016D01*
X11634728Y9162906D01*
X11635560Y9162352D01*
X11635699Y9162074D01*
X11635838D01*
X11638473Y9160549D01*
X11641385Y9159301D01*
X11644298Y9158469D01*
X11647210Y9157914D01*
X11649706Y9157636D01*
X11650677Y9157498D01*
X11651648D01*
X11652341Y9157359D01*
X11682436D01*
Y9224621D01*
D02*
G37*
%LPD*%
G36*
X11763982Y9159023D02*
X11754274D01*
Y9210475D01*
X11763982D01*
Y9159023D01*
D02*
G37*
G36*
X11967431Y9157359D02*
X11943716D01*
X11947599Y9157636D01*
X11950928Y9158191D01*
X11953979Y9159162D01*
X11956337Y9160271D01*
X11958278Y9161242D01*
X11959804Y9162213D01*
X11960220Y9162490D01*
X11960636Y9162768D01*
X11960774Y9163045D01*
X11960913D01*
X11962023Y9164155D01*
X11963132Y9165403D01*
X11964658Y9167760D01*
X11965906Y9170257D01*
X11966599Y9172476D01*
X11967154Y9174556D01*
X11967293Y9176220D01*
X11967431Y9176775D01*
Y9157359D01*
D02*
G37*
G36*
X11806558Y9210475D02*
X11809193Y9209920D01*
X11811412Y9209088D01*
X11813215Y9208117D01*
X11814740Y9207147D01*
X11815850Y9206315D01*
X11816404Y9205760D01*
X11816682Y9205482D01*
X11818346Y9203402D01*
X11819594Y9201183D01*
X11820565Y9198826D01*
X11821120Y9196607D01*
X11821536Y9194665D01*
X11821674Y9193140D01*
X11821813Y9192585D01*
Y9192169D01*
Y9191891D01*
Y9191753D01*
X11821536Y9188840D01*
X11820981Y9186067D01*
X11820149Y9183709D01*
X11819317Y9181768D01*
X11818346Y9180242D01*
X11817514Y9178994D01*
X11816959Y9178300D01*
X11816682Y9178023D01*
X11814601Y9176220D01*
X11812521Y9174972D01*
X11810302Y9174001D01*
X11808361Y9173446D01*
X11806558Y9173030D01*
X11805032Y9172892D01*
X11804478Y9172753D01*
X11803784D01*
X11801010Y9173030D01*
X11798514Y9173585D01*
X11796295Y9174417D01*
X11794492Y9175388D01*
X11792967Y9176359D01*
X11791996Y9177191D01*
X11791303Y9177746D01*
X11791025Y9178023D01*
X11789361Y9180103D01*
X11788113Y9182461D01*
X11787281Y9184680D01*
X11786726Y9186899D01*
X11786310Y9188840D01*
X11786171Y9190366D01*
X11786033Y9190921D01*
Y9191337D01*
Y9191614D01*
Y9191753D01*
X11786310Y9194665D01*
X11786865Y9197439D01*
X11787558Y9199658D01*
X11788529Y9201738D01*
X11789500Y9203264D01*
X11790193Y9204373D01*
X11790748Y9205066D01*
X11791025Y9205344D01*
X11793105Y9207147D01*
X11795186Y9208534D01*
X11797266Y9209504D01*
X11799346Y9210059D01*
X11801149Y9210475D01*
X11802536Y9210614D01*
X11803091Y9210752D01*
X11803784D01*
X11806558Y9210475D01*
D02*
G37*
G36*
X11577729Y9231555D02*
X11579532Y9231278D01*
X11581058Y9230862D01*
X11582306Y9230446D01*
X11583277Y9230030D01*
X11583970Y9229613D01*
X11584386Y9229336D01*
X11584525Y9229197D01*
X11585495Y9228227D01*
X11586189Y9227117D01*
X11586744Y9226008D01*
X11587021Y9224898D01*
X11587298Y9223927D01*
X11587437Y9223234D01*
Y9222679D01*
Y9222541D01*
X11587298Y9221015D01*
X11587021Y9219628D01*
X11586466Y9218380D01*
X11585912Y9217409D01*
X11585357Y9216577D01*
X11584802Y9216022D01*
X11584525Y9215606D01*
X11584386Y9215468D01*
X11583138Y9214636D01*
X11581612Y9214081D01*
X11580087Y9213526D01*
X11578561Y9213249D01*
X11577174Y9213110D01*
X11576065Y9212971D01*
X11571350D01*
Y9231694D01*
X11575649D01*
X11577729Y9231555D01*
D02*
G37*
G36*
X11578284Y9197716D02*
X11581335Y9197300D01*
X11583831Y9196745D01*
X11585773Y9196191D01*
X11587298Y9195636D01*
X11588408Y9195081D01*
X11589101Y9194665D01*
X11589240Y9194526D01*
X11590765Y9193140D01*
X11591875Y9191753D01*
X11592568Y9190227D01*
X11593123Y9188702D01*
X11593400Y9187454D01*
X11593678Y9186344D01*
Y9185651D01*
Y9185373D01*
X11593539Y9183570D01*
X11593123Y9182045D01*
X11592430Y9180797D01*
X11591875Y9179687D01*
X11591182Y9178855D01*
X11590488Y9178300D01*
X11590072Y9177884D01*
X11589933Y9177746D01*
X11589101Y9177330D01*
X11588269Y9176914D01*
X11586050Y9176220D01*
X11583693Y9175804D01*
X11581335Y9175388D01*
X11579116Y9175249D01*
X11578145D01*
X11577174Y9175111D01*
X11571350D01*
Y9197855D01*
X11574817D01*
X11578284Y9197716D01*
D02*
G37*
G36*
X11665932Y9192446D02*
Y9190782D01*
Y9189256D01*
X11665794Y9187870D01*
Y9186621D01*
X11665655Y9184541D01*
X11665377Y9182877D01*
X11665239Y9181768D01*
X11664961Y9180935D01*
X11664823Y9180519D01*
Y9180381D01*
X11664268Y9179133D01*
X11663575Y9177884D01*
X11662881Y9176914D01*
X11662188Y9176081D01*
X11661494Y9175527D01*
X11660940Y9175111D01*
X11660662Y9174833D01*
X11660524Y9174695D01*
X11659414Y9174001D01*
X11658166Y9173585D01*
X11655947Y9173030D01*
X11654976Y9172892D01*
X11654144Y9172753D01*
X11653451D01*
X11651925Y9172892D01*
X11650538Y9173030D01*
X11649429Y9173308D01*
X11648319Y9173724D01*
X11647487Y9174140D01*
X11646933Y9174417D01*
X11646516Y9174556D01*
X11646378Y9174695D01*
X11645407Y9175527D01*
X11644575Y9176359D01*
X11643327Y9178162D01*
X11642911Y9178994D01*
X11642633Y9179687D01*
X11642356Y9180103D01*
Y9180242D01*
X11641940Y9181768D01*
X11641663Y9183709D01*
X11641385Y9185928D01*
X11641246Y9188008D01*
Y9189950D01*
X11641108Y9191475D01*
Y9192169D01*
Y9192585D01*
Y9192862D01*
Y9193001D01*
Y9224621D01*
X11665932D01*
Y9192446D01*
D02*
G37*
G36*
X11682436Y9157359D02*
X11653451D01*
X11657056Y9157498D01*
X11660246Y9158053D01*
X11663020Y9158607D01*
X11665377Y9159439D01*
X11667319Y9160133D01*
X11668706Y9160826D01*
X11669122Y9160965D01*
X11669538Y9161242D01*
X11669677Y9161381D01*
X11669815D01*
X11672173Y9163045D01*
X11674115Y9164987D01*
X11675779Y9166928D01*
X11677166Y9168870D01*
X11678275Y9170673D01*
X11679107Y9172060D01*
X11679385Y9172614D01*
X11679523Y9173030D01*
X11679662Y9173169D01*
Y9173308D01*
X11680217Y9174556D01*
X11680633Y9176081D01*
X11680910Y9177746D01*
X11681326Y9179549D01*
X11681742Y9183432D01*
X11682158Y9187315D01*
Y9189256D01*
X11682297Y9190921D01*
Y9192585D01*
X11682436Y9193972D01*
Y9157359D01*
D02*
G37*
%LPC*%
G36*
X11666920Y7693266D02*
X11647921D01*
Y7662617D01*
X11663176Y7662339D01*
X11664701D01*
X11666366Y7662478D01*
X11668307Y7662617D01*
X11670526Y7662755D01*
X11672745Y7663033D01*
X11674825Y7663449D01*
X11676628Y7664003D01*
X11676767Y7664142D01*
X11677322Y7664281D01*
X11678154Y7664697D01*
X11679124Y7665252D01*
X11680234Y7666084D01*
X11681343Y7667055D01*
X11682453Y7668164D01*
X11683424Y7669412D01*
X11683562Y7669551D01*
X11683840Y7670106D01*
X11684256Y7670938D01*
X11684672Y7671908D01*
X11685088Y7673157D01*
X11685504Y7674682D01*
X11685781Y7676208D01*
X11685920Y7677872D01*
Y7678149D01*
Y7678704D01*
X11685781Y7679536D01*
X11685643Y7680646D01*
X11685365Y7681894D01*
X11684811Y7683281D01*
X11684256Y7684806D01*
X11683424Y7686193D01*
X11683285Y7686332D01*
X11683008Y7686886D01*
X11682453Y7687441D01*
X11681621Y7688273D01*
X11680789Y7689244D01*
X11679679Y7690076D01*
X11678292Y7690908D01*
X11676906Y7691602D01*
X11676767Y7691740D01*
X11676073Y7691879D01*
X11675103Y7692156D01*
X11673716Y7692434D01*
X11671913Y7692711D01*
X11669694Y7692988D01*
X11666920Y7693266D01*
D02*
G37*
G36*
X11806436Y7695901D02*
X11805466D01*
X11804217Y7695762D01*
X11802831Y7695346D01*
X11801028Y7694930D01*
X11799225Y7694237D01*
X11797145Y7693266D01*
X11795203Y7691879D01*
X11794926Y7691740D01*
X11794371Y7691186D01*
X11793400Y7690215D01*
X11792291Y7688828D01*
X11790904Y7687164D01*
X11789656Y7685222D01*
X11788269Y7682726D01*
X11787159Y7679952D01*
Y7679813D01*
X11787021Y7679536D01*
X11786882Y7679120D01*
X11786743Y7678565D01*
X11786605Y7677733D01*
X11786327Y7676624D01*
X11786050Y7675514D01*
X11785911Y7674127D01*
X11785634Y7672602D01*
X11785356Y7670938D01*
X11785079Y7668996D01*
X11784940Y7666916D01*
X11784802Y7664697D01*
X11784663Y7662201D01*
X11784524Y7659566D01*
Y7656792D01*
Y7656653D01*
Y7656098D01*
Y7655405D01*
Y7654296D01*
X11784663Y7653047D01*
Y7651522D01*
X11784802Y7649996D01*
Y7648193D01*
X11785218Y7644449D01*
X11785634Y7640566D01*
X11786327Y7636960D01*
X11786743Y7635157D01*
X11787159Y7633632D01*
Y7633493D01*
X11787298Y7633354D01*
X11787437Y7632938D01*
X11787714Y7632384D01*
X11788269Y7630997D01*
X11789240Y7629194D01*
X11790349Y7627391D01*
X11791736Y7625449D01*
X11793400Y7623508D01*
X11795203Y7621844D01*
X11795480Y7621705D01*
X11796174Y7621289D01*
X11797283Y7620595D01*
X11798670Y7619902D01*
X11800334Y7619070D01*
X11802276Y7618515D01*
X11804217Y7617960D01*
X11806436Y7617822D01*
X11807407D01*
X11808655Y7618099D01*
X11810181Y7618376D01*
X11811845Y7618792D01*
X11813787Y7619486D01*
X11815728Y7620457D01*
X11817670Y7621705D01*
X11817947Y7621844D01*
X11818502Y7622398D01*
X11819473Y7623369D01*
X11820582Y7624756D01*
X11821969Y7626420D01*
X11823217Y7628500D01*
X11824465Y7630858D01*
X11825575Y7633632D01*
Y7633770D01*
X11825713Y7634048D01*
X11825852Y7634602D01*
X11826130Y7635296D01*
X11826407Y7636267D01*
X11826684Y7637376D01*
X11826962Y7638624D01*
X11827378Y7640150D01*
X11827655Y7641675D01*
X11827932Y7643478D01*
X11828210Y7645420D01*
X11828487Y7647500D01*
X11828903Y7651938D01*
X11829042Y7656792D01*
Y7656931D01*
Y7657347D01*
Y7658040D01*
Y7659011D01*
X11828903Y7660259D01*
Y7661507D01*
X11828765Y7663033D01*
X11828626Y7664697D01*
X11828348Y7668164D01*
X11827794Y7671908D01*
X11826962Y7675653D01*
X11825991Y7679120D01*
Y7679259D01*
X11825852Y7679536D01*
X11825713Y7679952D01*
X11825436Y7680507D01*
X11824743Y7682032D01*
X11823772Y7683974D01*
X11822662Y7686054D01*
X11821137Y7688134D01*
X11819611Y7690215D01*
X11817670Y7691879D01*
X11817392Y7692018D01*
X11816699Y7692572D01*
X11815728Y7693127D01*
X11814341Y7693959D01*
X11812677Y7694653D01*
X11810736Y7695346D01*
X11808655Y7695762D01*
X11806436Y7695901D01*
D02*
G37*
G36*
X11632515Y6695823D02*
X11632376D01*
X11632099D01*
X11631683D01*
X11631128Y6695684D01*
X11629741Y6695545D01*
X11627799Y6695129D01*
X11625719Y6694436D01*
X11623500Y6693465D01*
X11621281Y6692078D01*
X11619062Y6690137D01*
X11618785Y6689859D01*
X11618230Y6689166D01*
X11617259Y6687918D01*
X11616289Y6686392D01*
X11615318Y6684451D01*
X11614347Y6682093D01*
X11613792Y6679597D01*
X11613515Y6676684D01*
Y6675991D01*
X11613654Y6675436D01*
X11613792Y6673911D01*
X11614208Y6672108D01*
X11614902Y6670028D01*
X11615873Y6667809D01*
X11617259Y6665590D01*
X11619062Y6663371D01*
X11619340Y6663093D01*
X11620033Y6662539D01*
X11621281Y6661568D01*
X11622807Y6660597D01*
X11624748Y6659626D01*
X11627106Y6658655D01*
X11629602Y6658101D01*
X11632515Y6657823D01*
X11632653D01*
X11632792D01*
X11633208D01*
X11633763Y6657962D01*
X11635288Y6658101D01*
X11637091Y6658517D01*
X11639310Y6659210D01*
X11641529Y6660181D01*
X11643748Y6661568D01*
X11645967Y6663371D01*
X11646244Y6663648D01*
X11646799Y6664342D01*
X11647631Y6665590D01*
X11648602Y6667115D01*
X11649712Y6669057D01*
X11650544Y6671414D01*
X11651098Y6673911D01*
X11651376Y6676823D01*
Y6677655D01*
X11651237Y6678210D01*
X11651098Y6679597D01*
X11650682Y6681538D01*
X11649989Y6683619D01*
X11649157Y6685838D01*
X11647770Y6688056D01*
X11645967Y6690275D01*
X11645690Y6690553D01*
X11644996Y6691108D01*
X11643748Y6692078D01*
X11642223Y6693049D01*
X11640281Y6694020D01*
X11637923Y6694991D01*
X11635427Y6695545D01*
X11632515Y6695823D01*
D02*
G37*
G36*
X11631128Y6556861D02*
X11630851D01*
X11630296D01*
X11629464Y6556723D01*
X11628354Y6556584D01*
X11627106Y6556307D01*
X11625719Y6555752D01*
X11624194Y6555197D01*
X11622807Y6554365D01*
X11622668Y6554226D01*
X11622113Y6553949D01*
X11621559Y6553394D01*
X11620727Y6552562D01*
X11619756Y6551730D01*
X11618924Y6550621D01*
X11618092Y6549234D01*
X11617398Y6547847D01*
X11617259Y6547708D01*
X11617121Y6547015D01*
X11616843Y6546044D01*
X11616566Y6544657D01*
X11616289Y6542854D01*
X11616011Y6540635D01*
X11615734Y6537862D01*
Y6518862D01*
X11646383D01*
X11646660Y6534117D01*
Y6535643D01*
X11646522Y6537307D01*
X11646383Y6539249D01*
X11646244Y6541467D01*
X11645967Y6543686D01*
X11645551Y6545767D01*
X11644996Y6547570D01*
X11644858Y6547708D01*
X11644719Y6548263D01*
X11644303Y6549095D01*
X11643748Y6550066D01*
X11642916Y6551175D01*
X11641945Y6552285D01*
X11640836Y6553394D01*
X11639588Y6554365D01*
X11639449Y6554504D01*
X11638894Y6554781D01*
X11638062Y6555197D01*
X11637091Y6555613D01*
X11635843Y6556029D01*
X11634318Y6556445D01*
X11632792Y6556723D01*
X11631128Y6556861D01*
D02*
G37*
G36*
X11602059Y5993266D02*
X11583059D01*
Y5962617D01*
X11598315Y5962339D01*
X11599840D01*
X11601504Y5962478D01*
X11603446Y5962617D01*
X11605665Y5962755D01*
X11607884Y5963033D01*
X11609964Y5963449D01*
X11611767Y5964004D01*
X11611906Y5964142D01*
X11612460Y5964281D01*
X11613292Y5964697D01*
X11614263Y5965252D01*
X11615373Y5966084D01*
X11616482Y5967055D01*
X11617592Y5968164D01*
X11618562Y5969412D01*
X11618701Y5969551D01*
X11618979Y5970106D01*
X11619395Y5970938D01*
X11619811Y5971909D01*
X11620227Y5973157D01*
X11620643Y5974682D01*
X11620920Y5976208D01*
X11621059Y5977872D01*
Y5978149D01*
Y5978704D01*
X11620920Y5979536D01*
X11620781Y5980646D01*
X11620504Y5981894D01*
X11619949Y5983281D01*
X11619395Y5984806D01*
X11618562Y5986193D01*
X11618424Y5986332D01*
X11618146Y5986886D01*
X11617592Y5987441D01*
X11616760Y5988273D01*
X11615927Y5989244D01*
X11614818Y5990076D01*
X11613431Y5990908D01*
X11612044Y5991602D01*
X11611906Y5991740D01*
X11611212Y5991879D01*
X11610241Y5992156D01*
X11608855Y5992434D01*
X11607052Y5992711D01*
X11604833Y5992989D01*
X11602059Y5993266D01*
D02*
G37*
G36*
X11741714Y5995624D02*
X11740466D01*
X11739079Y5995346D01*
X11737415Y5995069D01*
X11735473Y5994514D01*
X11733532Y5993821D01*
X11731451Y5992711D01*
X11729510Y5991186D01*
X11729371Y5991047D01*
X11728816Y5990354D01*
X11727984Y5989521D01*
X11727152Y5988273D01*
X11726320Y5986609D01*
X11725488Y5984806D01*
X11724933Y5982865D01*
X11724794Y5980646D01*
Y5980368D01*
X11724933Y5979675D01*
X11725072Y5978565D01*
X11725488Y5977040D01*
X11726043Y5975376D01*
X11727013Y5973573D01*
X11728262Y5971631D01*
X11729926Y5969828D01*
X11730203Y5969690D01*
X11730897Y5969135D01*
X11731867Y5968303D01*
X11733393Y5967471D01*
X11735196Y5966500D01*
X11737137Y5965806D01*
X11739495Y5965252D01*
X11741991Y5964974D01*
X11742685D01*
X11743655Y5965113D01*
X11744765Y5965252D01*
X11746013Y5965529D01*
X11747400Y5965806D01*
X11748787Y5966361D01*
X11750312Y5967055D01*
X11750451Y5967193D01*
X11751006Y5967471D01*
X11751699Y5968025D01*
X11752670Y5968719D01*
X11753641Y5969551D01*
X11754611Y5970522D01*
X11755721Y5971770D01*
X11756553Y5973157D01*
X11756692Y5973295D01*
X11756969Y5973850D01*
X11757246Y5974544D01*
X11757801Y5975653D01*
X11758217Y5976762D01*
X11758495Y5978011D01*
X11758772Y5979536D01*
X11758911Y5980923D01*
Y5981200D01*
Y5981894D01*
X11758633Y5982865D01*
X11758356Y5984251D01*
X11757801Y5985777D01*
X11757108Y5987441D01*
X11755998Y5989105D01*
X11754473Y5990908D01*
X11754334Y5991047D01*
X11753641Y5991602D01*
X11752670Y5992434D01*
X11751283Y5993266D01*
X11749480Y5994098D01*
X11747261Y5994930D01*
X11744626Y5995485D01*
X11741714Y5995624D01*
D02*
G37*
G36*
X11743794Y5956792D02*
X11741437D01*
X11740743Y5956653D01*
X11739911D01*
X11738940Y5956515D01*
X11736860Y5956099D01*
X11734364Y5955266D01*
X11731867Y5954157D01*
X11729232Y5952770D01*
X11727984Y5951799D01*
X11726736Y5950690D01*
X11726459Y5950413D01*
X11725765Y5949580D01*
X11724794Y5948332D01*
X11723685Y5946668D01*
X11722437Y5944588D01*
X11721466Y5942091D01*
X11720773Y5939456D01*
X11720634Y5938070D01*
X11720495Y5936544D01*
Y5936267D01*
Y5935712D01*
X11720634Y5934741D01*
X11720773Y5933632D01*
X11721189Y5932106D01*
X11721605Y5930581D01*
X11722298Y5928917D01*
X11723130Y5927252D01*
X11723269Y5927114D01*
X11723685Y5926559D01*
X11724240Y5925727D01*
X11725072Y5924756D01*
X11726181Y5923647D01*
X11727429Y5922537D01*
X11728955Y5921428D01*
X11730619Y5920457D01*
X11730897Y5920318D01*
X11731451Y5920041D01*
X11732422Y5919763D01*
X11733809Y5919347D01*
X11735473Y5918793D01*
X11737415Y5918515D01*
X11739495Y5918238D01*
X11741714Y5918099D01*
X11742685D01*
X11743378Y5918238D01*
X11744210D01*
X11745181Y5918377D01*
X11747400Y5918793D01*
X11749896Y5919486D01*
X11752531Y5920595D01*
X11755028Y5921982D01*
X11757385Y5923924D01*
X11757663Y5924201D01*
X11758356Y5924895D01*
X11759188Y5926143D01*
X11760298Y5927807D01*
X11761407Y5929749D01*
X11762239Y5932106D01*
X11762933Y5934741D01*
X11763210Y5937515D01*
Y5937654D01*
Y5937792D01*
Y5938208D01*
X11763071Y5938763D01*
X11762933Y5940150D01*
X11762378Y5941953D01*
X11761684Y5944033D01*
X11760575Y5946252D01*
X11759049Y5948610D01*
X11758079Y5949719D01*
X11756969Y5950829D01*
Y5950967D01*
X11756692Y5951106D01*
X11755860Y5951799D01*
X11754611Y5952770D01*
X11752809Y5953880D01*
X11750728Y5954850D01*
X11748232Y5955821D01*
X11745320Y5956515D01*
X11743794Y5956792D01*
D02*
G37*
G36*
X11852263Y8278266D02*
X11833264D01*
Y8247617D01*
X11848519Y8247339D01*
X11850044D01*
X11851709Y8247478D01*
X11853650Y8247617D01*
X11855869Y8247755D01*
X11858088Y8248033D01*
X11860168Y8248449D01*
X11861971Y8249004D01*
X11862110Y8249142D01*
X11862665Y8249281D01*
X11863497Y8249697D01*
X11864468Y8250252D01*
X11865577Y8251084D01*
X11866686Y8252055D01*
X11867796Y8253164D01*
X11868767Y8254412D01*
X11868905Y8254551D01*
X11869183Y8255106D01*
X11869599Y8255938D01*
X11870015Y8256909D01*
X11870431Y8258157D01*
X11870847Y8259682D01*
X11871124Y8261208D01*
X11871263Y8262872D01*
Y8263149D01*
Y8263704D01*
X11871124Y8264536D01*
X11870986Y8265646D01*
X11870708Y8266894D01*
X11870154Y8268281D01*
X11869599Y8269806D01*
X11868767Y8271193D01*
X11868628Y8271332D01*
X11868351Y8271886D01*
X11867796Y8272441D01*
X11866964Y8273273D01*
X11866132Y8274244D01*
X11865022Y8275076D01*
X11863635Y8275908D01*
X11862249Y8276602D01*
X11862110Y8276740D01*
X11861416Y8276879D01*
X11860446Y8277156D01*
X11859059Y8277434D01*
X11857256Y8277711D01*
X11855037Y8277989D01*
X11852263Y8278266D01*
D02*
G37*
G36*
X11858920Y8058266D02*
X11839921D01*
Y8027617D01*
X11855176Y8027339D01*
X11856701D01*
X11858366Y8027478D01*
X11860307Y8027617D01*
X11862526Y8027755D01*
X11864745Y8028033D01*
X11866825Y8028449D01*
X11868628Y8029004D01*
X11868767Y8029142D01*
X11869322Y8029281D01*
X11870154Y8029697D01*
X11871125Y8030252D01*
X11872234Y8031084D01*
X11873344Y8032055D01*
X11874453Y8033164D01*
X11875424Y8034412D01*
X11875562Y8034551D01*
X11875840Y8035106D01*
X11876256Y8035938D01*
X11876672Y8036908D01*
X11877088Y8038157D01*
X11877504Y8039682D01*
X11877781Y8041208D01*
X11877920Y8042872D01*
Y8043149D01*
Y8043704D01*
X11877781Y8044536D01*
X11877643Y8045646D01*
X11877365Y8046894D01*
X11876811Y8048281D01*
X11876256Y8049806D01*
X11875424Y8051193D01*
X11875285Y8051332D01*
X11875008Y8051886D01*
X11874453Y8052441D01*
X11873621Y8053273D01*
X11872789Y8054244D01*
X11871679Y8055076D01*
X11870292Y8055908D01*
X11868906Y8056602D01*
X11868767Y8056740D01*
X11868074Y8056879D01*
X11867103Y8057156D01*
X11865716Y8057434D01*
X11863913Y8057711D01*
X11861694Y8057988D01*
X11858920Y8058266D01*
D02*
G37*
G36*
X11998437Y8060901D02*
X11997466D01*
X11996218Y8060762D01*
X11994831Y8060346D01*
X11993028Y8059930D01*
X11991225Y8059237D01*
X11989145Y8058266D01*
X11987203Y8056879D01*
X11986926Y8056740D01*
X11986371Y8056186D01*
X11985400Y8055215D01*
X11984291Y8053828D01*
X11982904Y8052164D01*
X11981656Y8050222D01*
X11980269Y8047726D01*
X11979159Y8044952D01*
Y8044813D01*
X11979021Y8044536D01*
X11978882Y8044120D01*
X11978743Y8043565D01*
X11978605Y8042733D01*
X11978327Y8041624D01*
X11978050Y8040514D01*
X11977911Y8039127D01*
X11977634Y8037602D01*
X11977357Y8035938D01*
X11977079Y8033996D01*
X11976940Y8031916D01*
X11976802Y8029697D01*
X11976663Y8027201D01*
X11976524Y8024566D01*
Y8021792D01*
Y8021653D01*
Y8021099D01*
Y8020405D01*
Y8019296D01*
X11976663Y8018047D01*
Y8016522D01*
X11976802Y8014996D01*
Y8013194D01*
X11977218Y8009449D01*
X11977634Y8005566D01*
X11978327Y8001960D01*
X11978743Y8000157D01*
X11979159Y7998632D01*
Y7998493D01*
X11979298Y7998354D01*
X11979437Y7997938D01*
X11979714Y7997384D01*
X11980269Y7995997D01*
X11981240Y7994194D01*
X11982349Y7992391D01*
X11983736Y7990449D01*
X11985400Y7988508D01*
X11987203Y7986844D01*
X11987480Y7986705D01*
X11988174Y7986289D01*
X11989283Y7985595D01*
X11990670Y7984902D01*
X11992334Y7984070D01*
X11994276Y7983515D01*
X11996218Y7982960D01*
X11998437Y7982822D01*
X11999407D01*
X12000655Y7983099D01*
X12002181Y7983376D01*
X12003845Y7983793D01*
X12005787Y7984486D01*
X12007728Y7985457D01*
X12009670Y7986705D01*
X12009947Y7986844D01*
X12010502Y7987398D01*
X12011473Y7988369D01*
X12012582Y7989756D01*
X12013969Y7991420D01*
X12015217Y7993500D01*
X12016465Y7995858D01*
X12017575Y7998632D01*
Y7998770D01*
X12017714Y7999048D01*
X12017852Y7999602D01*
X12018130Y8000296D01*
X12018407Y8001267D01*
X12018684Y8002376D01*
X12018962Y8003624D01*
X12019378Y8005150D01*
X12019655Y8006675D01*
X12019933Y8008478D01*
X12020210Y8010420D01*
X12020487Y8012500D01*
X12020903Y8016938D01*
X12021042Y8021792D01*
Y8021931D01*
Y8022347D01*
Y8023040D01*
Y8024011D01*
X12020903Y8025259D01*
Y8026507D01*
X12020765Y8028033D01*
X12020626Y8029697D01*
X12020349Y8033164D01*
X12019794Y8036908D01*
X12018962Y8040653D01*
X12017991Y8044120D01*
Y8044259D01*
X12017852Y8044536D01*
X12017714Y8044952D01*
X12017436Y8045507D01*
X12016743Y8047032D01*
X12015772Y8048974D01*
X12014663Y8051054D01*
X12013137Y8053135D01*
X12011611Y8055215D01*
X12009670Y8056879D01*
X12009393Y8057018D01*
X12008699Y8057572D01*
X12007728Y8058127D01*
X12006341Y8058959D01*
X12004677Y8059653D01*
X12002736Y8060346D01*
X12000655Y8060762D01*
X11998437Y8060901D01*
D02*
G37*
G36*
X8509672Y5486266D02*
X8490672D01*
Y5455617D01*
X8505927Y5455339D01*
X8507453D01*
X8509117Y5455478D01*
X8511058Y5455617D01*
X8513277Y5455755D01*
X8515496Y5456033D01*
X8517577Y5456449D01*
X8519379Y5457004D01*
X8519518Y5457142D01*
X8520073Y5457281D01*
X8520905Y5457697D01*
X8521876Y5458252D01*
X8522985Y5459084D01*
X8524095Y5460055D01*
X8525204Y5461164D01*
X8526175Y5462412D01*
X8526314Y5462551D01*
X8526591Y5463106D01*
X8527007Y5463938D01*
X8527423Y5464909D01*
X8527839Y5466157D01*
X8528255Y5467682D01*
X8528533Y5469208D01*
X8528671Y5470872D01*
Y5471149D01*
Y5471704D01*
X8528533Y5472536D01*
X8528394Y5473646D01*
X8528117Y5474894D01*
X8527562Y5476281D01*
X8527007Y5477806D01*
X8526175Y5479193D01*
X8526036Y5479332D01*
X8525759Y5479886D01*
X8525204Y5480441D01*
X8524372Y5481273D01*
X8523540Y5482244D01*
X8522431Y5483076D01*
X8521044Y5483908D01*
X8519657Y5484602D01*
X8519518Y5484740D01*
X8518825Y5484879D01*
X8517854Y5485156D01*
X8516467Y5485434D01*
X8514664Y5485711D01*
X8512445Y5485989D01*
X8509672Y5486266D01*
D02*
G37*
G36*
X8578875Y5488485D02*
X8578181D01*
X8577627Y5488346D01*
X8576101Y5488207D01*
X8574298Y5487791D01*
X8572218Y5487098D01*
X8569999Y5486127D01*
X8567780Y5484740D01*
X8565561Y5482937D01*
X8565284Y5482660D01*
X8564729Y5481967D01*
X8563758Y5480719D01*
X8562788Y5479193D01*
X8561817Y5477251D01*
X8560846Y5474894D01*
X8560291Y5472397D01*
X8560014Y5469485D01*
Y5469346D01*
Y5469208D01*
Y5468792D01*
X8560153Y5468237D01*
X8560291Y5466711D01*
X8560707Y5464909D01*
X8561401Y5462690D01*
X8562371Y5460471D01*
X8563758Y5458252D01*
X8565561Y5456033D01*
X8565839Y5455755D01*
X8566532Y5455201D01*
X8567780Y5454369D01*
X8569306Y5453398D01*
X8571247Y5452288D01*
X8573605Y5451456D01*
X8576101Y5450901D01*
X8579014Y5450624D01*
X8579846D01*
X8580400Y5450763D01*
X8581787Y5450901D01*
X8583729Y5451318D01*
X8585809Y5452011D01*
X8588028Y5452843D01*
X8590247Y5454230D01*
X8592466Y5456033D01*
X8592743Y5456310D01*
X8593298Y5457004D01*
X8594269Y5458252D01*
X8595240Y5459777D01*
X8596210Y5461719D01*
X8597181Y5464076D01*
X8597736Y5466573D01*
X8598013Y5469485D01*
Y5469624D01*
Y5469901D01*
Y5470317D01*
X8597875Y5470872D01*
X8597736Y5472259D01*
X8597320Y5474200D01*
X8596626Y5476281D01*
X8595656Y5478500D01*
X8594269Y5480719D01*
X8592327Y5482937D01*
X8592050Y5483215D01*
X8591356Y5483770D01*
X8590108Y5484740D01*
X8588583Y5485711D01*
X8586641Y5486682D01*
X8584284Y5487653D01*
X8581787Y5488207D01*
X8578875Y5488485D01*
D02*
G37*
G36*
X9262869Y5491266D02*
X9243869D01*
Y5460617D01*
X9259124Y5460339D01*
X9260650D01*
X9262314Y5460478D01*
X9264256Y5460617D01*
X9266474Y5460755D01*
X9268693Y5461033D01*
X9270774Y5461449D01*
X9272577Y5462004D01*
X9272715Y5462142D01*
X9273270Y5462281D01*
X9274102Y5462697D01*
X9275073Y5463252D01*
X9276182Y5464084D01*
X9277292Y5465055D01*
X9278401Y5466164D01*
X9279372Y5467412D01*
X9279511Y5467551D01*
X9279788Y5468106D01*
X9280204Y5468938D01*
X9280620Y5469909D01*
X9281036Y5471157D01*
X9281452Y5472682D01*
X9281730Y5474208D01*
X9281868Y5475872D01*
Y5476149D01*
Y5476704D01*
X9281730Y5477536D01*
X9281591Y5478646D01*
X9281314Y5479894D01*
X9280759Y5481281D01*
X9280204Y5482806D01*
X9279372Y5484193D01*
X9279233Y5484332D01*
X9278956Y5484886D01*
X9278401Y5485441D01*
X9277569Y5486273D01*
X9276737Y5487244D01*
X9275628Y5488076D01*
X9274241Y5488908D01*
X9272854Y5489602D01*
X9272715Y5489740D01*
X9272022Y5489879D01*
X9271051Y5490156D01*
X9269664Y5490434D01*
X9267861Y5490711D01*
X9265642Y5490989D01*
X9262869Y5491266D01*
D02*
G37*
G36*
X9332904Y5493624D02*
X9331656D01*
X9330269Y5493346D01*
X9328605Y5493069D01*
X9326663Y5492514D01*
X9324722Y5491821D01*
X9322642Y5490711D01*
X9320700Y5489186D01*
X9320561Y5489047D01*
X9320007Y5488354D01*
X9319174Y5487521D01*
X9318342Y5486273D01*
X9317510Y5484609D01*
X9316678Y5482806D01*
X9316123Y5480865D01*
X9315985Y5478646D01*
Y5478368D01*
X9316123Y5477675D01*
X9316262Y5476565D01*
X9316678Y5475040D01*
X9317233Y5473376D01*
X9318204Y5471573D01*
X9319452Y5469631D01*
X9321116Y5467828D01*
X9321393Y5467690D01*
X9322087Y5467135D01*
X9323058Y5466303D01*
X9324583Y5465471D01*
X9326386Y5464500D01*
X9328328Y5463806D01*
X9330685Y5463252D01*
X9333181Y5462974D01*
X9333875D01*
X9334846Y5463113D01*
X9335955Y5463252D01*
X9337203Y5463529D01*
X9338590Y5463806D01*
X9339977Y5464361D01*
X9341503Y5465055D01*
X9341641Y5465193D01*
X9342196Y5465471D01*
X9342889Y5466025D01*
X9343860Y5466719D01*
X9344831Y5467551D01*
X9345802Y5468522D01*
X9346911Y5469770D01*
X9347743Y5471157D01*
X9347882Y5471295D01*
X9348159Y5471850D01*
X9348437Y5472544D01*
X9348991Y5473653D01*
X9349408Y5474762D01*
X9349685Y5476011D01*
X9349962Y5477536D01*
X9350101Y5478923D01*
Y5479200D01*
Y5479894D01*
X9349824Y5480865D01*
X9349546Y5482251D01*
X9348991Y5483777D01*
X9348298Y5485441D01*
X9347189Y5487105D01*
X9345663Y5488908D01*
X9345524Y5489047D01*
X9344831Y5489602D01*
X9343860Y5490434D01*
X9342473Y5491266D01*
X9340670Y5492098D01*
X9338451Y5492930D01*
X9335816Y5493485D01*
X9332904Y5493624D01*
D02*
G37*
G36*
X9334984Y5454792D02*
X9332627D01*
X9331933Y5454653D01*
X9331101D01*
X9330130Y5454515D01*
X9328050Y5454099D01*
X9325554Y5453266D01*
X9323058Y5452157D01*
X9320423Y5450770D01*
X9319174Y5449799D01*
X9317926Y5448690D01*
X9317649Y5448413D01*
X9316955Y5447580D01*
X9315985Y5446332D01*
X9314875Y5444668D01*
X9313627Y5442588D01*
X9312656Y5440091D01*
X9311963Y5437456D01*
X9311824Y5436070D01*
X9311685Y5434544D01*
Y5434267D01*
Y5433712D01*
X9311824Y5432741D01*
X9311963Y5431632D01*
X9312379Y5430106D01*
X9312795Y5428581D01*
X9313488Y5426917D01*
X9314320Y5425252D01*
X9314459Y5425114D01*
X9314875Y5424559D01*
X9315430Y5423727D01*
X9316262Y5422756D01*
X9317372Y5421647D01*
X9318620Y5420537D01*
X9320145Y5419428D01*
X9321809Y5418457D01*
X9322087Y5418318D01*
X9322642Y5418041D01*
X9323612Y5417763D01*
X9324999Y5417347D01*
X9326663Y5416793D01*
X9328605Y5416515D01*
X9330685Y5416238D01*
X9332904Y5416099D01*
X9333875D01*
X9334568Y5416238D01*
X9335400D01*
X9336371Y5416377D01*
X9338590Y5416793D01*
X9341086Y5417486D01*
X9343721Y5418595D01*
X9346218Y5419982D01*
X9348575Y5421924D01*
X9348853Y5422201D01*
X9349546Y5422895D01*
X9350378Y5424143D01*
X9351488Y5425807D01*
X9352597Y5427749D01*
X9353429Y5430106D01*
X9354123Y5432741D01*
X9354400Y5435515D01*
Y5435654D01*
Y5435792D01*
Y5436208D01*
X9354261Y5436763D01*
X9354123Y5438150D01*
X9353568Y5439953D01*
X9352875Y5442033D01*
X9351765Y5444252D01*
X9350240Y5446610D01*
X9349269Y5447719D01*
X9348159Y5448829D01*
Y5448967D01*
X9347882Y5449106D01*
X9347050Y5449799D01*
X9345802Y5450770D01*
X9343999Y5451880D01*
X9341919Y5452850D01*
X9339422Y5453821D01*
X9336510Y5454515D01*
X9334984Y5454792D01*
D02*
G37*
G36*
X9538383Y5492375D02*
X9519384D01*
Y5461726D01*
X9534639Y5461449D01*
X9536164D01*
X9537829Y5461588D01*
X9539770Y5461726D01*
X9541989Y5461865D01*
X9544208Y5462142D01*
X9546288Y5462558D01*
X9548091Y5463113D01*
X9548230Y5463252D01*
X9548785Y5463390D01*
X9549617Y5463806D01*
X9550587Y5464361D01*
X9551697Y5465193D01*
X9552806Y5466164D01*
X9553916Y5467274D01*
X9554887Y5468522D01*
X9555025Y5468660D01*
X9555303Y5469215D01*
X9555719Y5470047D01*
X9556135Y5471018D01*
X9556551Y5472266D01*
X9556967Y5473792D01*
X9557244Y5475317D01*
X9557383Y5476981D01*
Y5477259D01*
Y5477814D01*
X9557244Y5478646D01*
X9557106Y5479755D01*
X9556828Y5481003D01*
X9556273Y5482390D01*
X9555719Y5483916D01*
X9554887Y5485302D01*
X9554748Y5485441D01*
X9554471Y5485996D01*
X9553916Y5486551D01*
X9553084Y5487383D01*
X9552252Y5488354D01*
X9551142Y5489186D01*
X9549755Y5490018D01*
X9548369Y5490711D01*
X9548230Y5490850D01*
X9547536Y5490989D01*
X9546566Y5491266D01*
X9545179Y5491543D01*
X9543376Y5491821D01*
X9541157Y5492098D01*
X9538383Y5492375D01*
D02*
G37*
G36*
X7507073Y8362266D02*
X7488073D01*
Y8331617D01*
X7503328Y8331339D01*
X7504854D01*
X7506518Y8331478D01*
X7508460Y8331617D01*
X7510679Y8331755D01*
X7512898Y8332033D01*
X7514978Y8332449D01*
X7516781Y8333004D01*
X7516919Y8333142D01*
X7517474Y8333281D01*
X7518306Y8333697D01*
X7519277Y8334252D01*
X7520387Y8335084D01*
X7521496Y8336055D01*
X7522605Y8337164D01*
X7523576Y8338412D01*
X7523715Y8338551D01*
X7523992Y8339106D01*
X7524408Y8339938D01*
X7524824Y8340909D01*
X7525240Y8342157D01*
X7525657Y8343682D01*
X7525934Y8345208D01*
X7526073Y8346872D01*
Y8347149D01*
Y8347704D01*
X7525934Y8348536D01*
X7525795Y8349646D01*
X7525518Y8350894D01*
X7524963Y8352281D01*
X7524408Y8353806D01*
X7523576Y8355193D01*
X7523438Y8355332D01*
X7523160Y8355887D01*
X7522605Y8356441D01*
X7521773Y8357273D01*
X7520941Y8358244D01*
X7519832Y8359076D01*
X7518445Y8359908D01*
X7517058Y8360602D01*
X7516919Y8360740D01*
X7516226Y8360879D01*
X7515255Y8361157D01*
X7513868Y8361434D01*
X7512065Y8361711D01*
X7509847Y8361989D01*
X7507073Y8362266D01*
D02*
G37*
%LPD*%
D50*
X7070000Y8360500D02*
G03*
X7070000Y8370500I0J5000D01*
G01*
D02*
G03*
X7070000Y8360500I0J-5000D01*
G01*
X9594000Y9286000D02*
X11446000D01*
X10000000Y5507000D02*
X10068000Y5439000D01*
X10000000Y5964000D02*
Y6004000D01*
X7310000Y8440500D02*
X7429500D01*
X7470000Y8481000D01*
X7960000Y8743000D02*
Y8903000D01*
X11233000Y5656000D02*
Y6002000D01*
X10000000Y5507000D02*
Y5964000D01*
X10068000Y5439000D02*
X11190000D01*
X7313500Y9344000D02*
X7419000D01*
X7471000Y9292000D01*
Y9280000D02*
Y9292000D01*
X11481000Y8742000D02*
Y8776000D01*
X9438000Y8743000D02*
Y9211000D01*
X9363000Y9286000D02*
X9438000Y9211000D01*
X9310000Y9286000D02*
X9363000D01*
X8028000D02*
X9310000D01*
X7960000Y9218000D02*
X8028000Y9286000D01*
X7960000Y9099000D02*
Y9218000D01*
X11481000Y8776000D02*
Y9092000D01*
X9519000Y8742000D02*
Y9211000D01*
X9594000Y9286000D01*
D51*
X7522250Y7569500D02*
G03*
X7569750Y7569500I23750J0D01*
G01*
X9109250Y7755000D02*
G03*
X9172750Y7755000I31750J0D01*
G01*
X9089142Y8700501D02*
G03*
X9089142Y8700501I-14142J0D01*
G01*
X10353142Y5966500D02*
G03*
X10353142Y5966500I-14142J0D01*
G01*
X11115142Y8704000D02*
G03*
X11115142Y8704000I-14142J0D01*
G01*
X6452000Y6450000D02*
G03*
X6452000Y6450000I-10000J0D01*
G01*
X10152142Y8702000D02*
G03*
X10152142Y8702000I-14142J0D01*
G01*
X6757575Y8079000D02*
Y8199000D01*
X6451375Y8044000D02*
X6743775D01*
X6451375Y7984000D02*
Y8044000D01*
Y7984000D02*
X6743775D01*
Y8044000D01*
X7522250Y7569500D02*
X7549500D01*
X7542500D02*
X7569750D01*
X7542500Y7284500D02*
Y7569500D01*
Y7284500D02*
X7549500D01*
Y7569500D01*
X7367000Y6080000D02*
Y7120000D01*
X6897000Y6080000D02*
Y7120000D01*
Y6080000D02*
X7367000D01*
X6897000Y7120000D02*
X7367000D01*
X8852000Y7755000D02*
X9109250D01*
X9172750D02*
X9430000D01*
Y6485000D02*
Y7755000D01*
X8852000Y6485000D02*
X9430000D01*
X8852000D02*
Y7755000D01*
X8516000Y6033000D02*
X9913000D01*
Y5779000D02*
Y6033000D01*
X8389000Y5779000D02*
X9913000D01*
X8389000D02*
Y5906000D01*
D52*
X7499500Y6097500D02*
G03*
X7499500Y6097500I-12500J0D01*
G01*
X10737500Y6817500D02*
G03*
X10737500Y6817500I-12500J0D01*
G01*
D53*
X7297000Y6180000D02*
G03*
X7297000Y6180000I-30000J0D01*
G01*
D54*
X8677055Y7796000D02*
G03*
X8677055Y7796000I-9055J0D01*
G01*
X7520000Y8748000D02*
Y8848000D01*
X7540000Y8868000D01*
X7550000D01*
X7660000D01*
X7680000Y8848000D01*
Y8748000D02*
Y8848000D01*
X10317000Y8191000D02*
X11442000D01*
X10317000Y7721000D02*
X11442000D01*
X10317000D02*
Y8191000D01*
X11442000Y7721000D02*
Y8191000D01*
Y7721000D02*
Y7954000D01*
X7897825Y6236000D02*
Y6336000D01*
X7917825Y6356000D01*
X7927826D01*
X8037826D01*
X8057826Y6336000D01*
Y6236000D02*
Y6336000D01*
X7687000Y6235000D02*
Y6335000D01*
X7707000Y6355000D01*
X7717000D01*
X7827000D01*
X7847000Y6335000D01*
Y6235000D02*
Y6335000D01*
D55*
X6538000Y6072000D02*
Y6148000D01*
X6346000Y6072000D02*
Y6148000D01*
Y5692000D02*
Y5768000D01*
X6538000Y5692000D02*
Y5768000D01*
X6442000Y5692000D02*
X6537000D01*
X6346000D02*
X6442000D01*
Y6148000D02*
X6538000D01*
X6347000D02*
X6442000D01*
Y6240000D01*
Y5600000D02*
Y5692000D01*
%TF.MD5,1fcb8534df22736b72de22566294402d*%
M02*
