%TF.GenerationSoftware,Altium Limited,Altium Designer,23.9.2 (47)*%
G04 Layer_Color=8388736*
%FSLAX45Y45*%
%MOMM*%
%TF.SameCoordinates,CBF7E160-FA54-4A09-933F-9C1B5268631E*%
%TF.FilePolarity,Negative*%
%TF.FileFunction,Soldermask,Top*%
%TF.Part,Single*%
G01*
G75*
%TA.AperFunction,SMDPad,CuDef*%
%ADD56R,1.70000X1.50000*%
%ADD57R,0.70000X1.30000*%
%ADD58R,1.10000X0.76000*%
%ADD59R,1.70000X0.60000*%
%ADD60R,2.05000X0.70000*%
%ADD61R,1.10000X1.10000*%
%ADD62R,0.40000X0.95000*%
%ADD63R,0.95000X0.40000*%
%ADD64R,3.35000X3.35000*%
%ADD65C,1.35000*%
%TA.AperFunction,ConnectorPad*%
%ADD66R,0.95240X1.75240*%
%ADD67R,2.25240X3.15240*%
%TA.AperFunction,SMDPad,CuDef*%
%ADD68R,1.00320X1.80320*%
%ADD69R,2.30320X3.20320*%
%ADD70R,1.00320X1.80320*%
%ADD71R,2.30320X3.20320*%
%ADD72R,1.00320X1.00320*%
%ADD73R,1.12320X1.18320*%
%ADD74R,1.22320X1.18320*%
%ADD75R,1.05000X1.20000*%
%ADD76R,1.20000X1.05000*%
%ADD77R,1.10000X1.10000*%
%TA.AperFunction,ComponentPad*%
%ADD78C,1.30320*%
%ADD79C,1.40320*%
%ADD80C,3.23320*%
%ADD81C,1.72720*%
%ADD82C,1.85320*%
%ADD83R,1.85320X1.85320*%
%ADD84R,1.44120X1.44120*%
%ADD85C,1.44120*%
%TA.AperFunction,ViaPad*%
%ADD86C,0.90320*%
D56*
X6710000Y5519000D02*
D03*
Y5819000D02*
D03*
X7430000Y5519000D02*
D03*
Y5819000D02*
D03*
D57*
X6692575Y7889000D02*
D03*
X6597575D02*
D03*
X6502575D02*
D03*
Y8139000D02*
D03*
X6597575D02*
D03*
X6692575D02*
D03*
D58*
X7416000Y7522000D02*
D03*
Y7427000D02*
D03*
Y7332000D02*
D03*
X7676000Y7522000D02*
D03*
Y7332000D02*
D03*
D59*
X7487000Y6177500D02*
D03*
Y6242500D02*
D03*
Y6307500D02*
D03*
Y6372500D02*
D03*
Y6437500D02*
D03*
Y6502500D02*
D03*
Y6567500D02*
D03*
Y6632500D02*
D03*
Y6697500D02*
D03*
Y6762500D02*
D03*
Y6827500D02*
D03*
Y6892500D02*
D03*
Y6957500D02*
D03*
Y7022500D02*
D03*
X6777000Y6177500D02*
D03*
Y6242500D02*
D03*
Y6307500D02*
D03*
Y6372500D02*
D03*
Y6437500D02*
D03*
Y6502500D02*
D03*
Y6567500D02*
D03*
Y6632500D02*
D03*
Y6697500D02*
D03*
Y6762500D02*
D03*
Y6827500D02*
D03*
Y6892500D02*
D03*
Y6957500D02*
D03*
Y7022500D02*
D03*
D60*
X8671000Y7691500D02*
D03*
Y7564500D02*
D03*
Y7437500D02*
D03*
Y7310500D02*
D03*
Y7183500D02*
D03*
Y7056500D02*
D03*
Y6929500D02*
D03*
Y6802500D02*
D03*
Y6675500D02*
D03*
Y6548500D02*
D03*
X9611000Y7691500D02*
D03*
Y7564500D02*
D03*
Y7437500D02*
D03*
Y7310500D02*
D03*
Y7183500D02*
D03*
Y7056500D02*
D03*
Y6929500D02*
D03*
Y6802500D02*
D03*
Y6675500D02*
D03*
Y6548500D02*
D03*
D61*
X7333500Y7889000D02*
D03*
X7488500D02*
D03*
X8825500Y6280000D02*
D03*
X8670500D02*
D03*
X10637500Y7597000D02*
D03*
X10792500D02*
D03*
X11459500Y6320000D02*
D03*
X11304500D02*
D03*
X13218500Y6843000D02*
D03*
X13373500D02*
D03*
X13372501Y7314000D02*
D03*
X13217500D02*
D03*
X7779500Y5913425D02*
D03*
X7934500D02*
D03*
X10232500Y7596000D02*
D03*
X10387500D02*
D03*
X10232500Y7229000D02*
D03*
X10387500D02*
D03*
X10232500Y7046000D02*
D03*
X10387500D02*
D03*
X10233500Y6863000D02*
D03*
X10388500D02*
D03*
X10233500Y7414000D02*
D03*
X10388500D02*
D03*
X10388500Y6680000D02*
D03*
X10233500D02*
D03*
D62*
X10800000Y6860000D02*
D03*
X10850000D02*
D03*
X10900000D02*
D03*
X10950000D02*
D03*
X11000000D02*
D03*
X11050000D02*
D03*
X11100000D02*
D03*
X11150000D02*
D03*
Y7350000D02*
D03*
X11100000D02*
D03*
X11050000D02*
D03*
X11000000D02*
D03*
X10950000D02*
D03*
X10900000D02*
D03*
X10850000D02*
D03*
X10800000D02*
D03*
D63*
X11220000Y6930000D02*
D03*
Y6980000D02*
D03*
Y7030000D02*
D03*
Y7080000D02*
D03*
Y7130000D02*
D03*
Y7180000D02*
D03*
Y7230000D02*
D03*
Y7280000D02*
D03*
X10730000D02*
D03*
Y7230000D02*
D03*
Y7180000D02*
D03*
Y7130000D02*
D03*
Y7080000D02*
D03*
Y7030000D02*
D03*
Y6980000D02*
D03*
Y6930000D02*
D03*
D64*
X10975000Y7105000D02*
D03*
D65*
X7589000Y8474000D02*
D03*
X11532000Y7543000D02*
D03*
X9530000Y5577000D02*
D03*
X9276000Y5580000D02*
D03*
X8513000D02*
D03*
X11650000Y8025000D02*
D03*
Y8246000D02*
D03*
X11646000Y6109000D02*
D03*
X11533000Y6649000D02*
D03*
D66*
X8990000Y8719000D02*
D03*
X8865000D02*
D03*
X8740000D02*
D03*
X8615000D02*
D03*
X8490000D02*
D03*
X8365000D02*
D03*
D67*
X8110000Y9009000D02*
D03*
X9245000D02*
D03*
D68*
X10549500Y5958000D02*
D03*
X10424500D02*
D03*
X10674500D02*
D03*
X10799500D02*
D03*
D69*
X10169500Y5668000D02*
D03*
X11054500D02*
D03*
D70*
X10878500Y8714000D02*
D03*
X11003500D02*
D03*
X9915500Y8712000D02*
D03*
X10040500D02*
D03*
D71*
X10623500Y9004000D02*
D03*
X11258500D02*
D03*
X9660500Y9002000D02*
D03*
X10295500D02*
D03*
D72*
X7600000Y8793000D02*
D03*
Y8643000D02*
D03*
X7977826Y6281000D02*
D03*
Y6131000D02*
D03*
X7767000Y6280000D02*
D03*
Y6130000D02*
D03*
D73*
X11445000Y7312000D02*
D03*
X11603000D02*
D03*
X11445000Y6840000D02*
D03*
X11603000D02*
D03*
D74*
X7108575Y7890000D02*
D03*
X6960575D02*
D03*
D75*
X13036000Y7314000D02*
D03*
Y7174000D02*
D03*
X6950575Y7558000D02*
D03*
Y7698000D02*
D03*
X7131575Y7558000D02*
D03*
Y7698000D02*
D03*
X7835000Y7500000D02*
D03*
Y7360000D02*
D03*
X8248000Y7834000D02*
D03*
Y7694000D02*
D03*
X8448000Y7834000D02*
D03*
Y7694000D02*
D03*
X11784000Y6980575D02*
D03*
Y6840575D02*
D03*
X11783000Y7311000D02*
D03*
Y7171000D02*
D03*
X12668000Y6985000D02*
D03*
Y6845000D02*
D03*
X12667000Y7315426D02*
D03*
Y7175426D02*
D03*
X7779000Y5722000D02*
D03*
Y5582000D02*
D03*
X8248000Y7503574D02*
D03*
Y7363574D02*
D03*
X8245000Y7150000D02*
D03*
Y7010000D02*
D03*
X8615000Y8355000D02*
D03*
Y8215000D02*
D03*
X8991000Y8359224D02*
D03*
Y8219224D02*
D03*
X6598000Y7551000D02*
D03*
Y7691000D02*
D03*
X6491000Y6587000D02*
D03*
Y6727000D02*
D03*
X11967000Y6980575D02*
D03*
Y6840575D02*
D03*
X12151000Y6981575D02*
D03*
Y6841575D02*
D03*
X12852000Y6984000D02*
D03*
Y6844000D02*
D03*
X13036000Y6983000D02*
D03*
Y6843000D02*
D03*
X11967000Y7311000D02*
D03*
Y7171000D02*
D03*
X12151000Y7312000D02*
D03*
Y7172000D02*
D03*
X12852000Y7314426D02*
D03*
Y7174426D02*
D03*
D76*
X7343000Y7706000D02*
D03*
X7483000D02*
D03*
X6533000Y6912425D02*
D03*
X6393000D02*
D03*
X11265000Y8307000D02*
D03*
X11125000D02*
D03*
X10498000Y8310000D02*
D03*
X10638000D02*
D03*
X11786000Y6320075D02*
D03*
X11646000D02*
D03*
X11296000Y7602000D02*
D03*
X11156000D02*
D03*
X12340000Y6843000D02*
D03*
X12480000D02*
D03*
X12339000Y7313000D02*
D03*
X12479000D02*
D03*
X12340000Y6660000D02*
D03*
X12480000D02*
D03*
X12341000Y6477000D02*
D03*
X12481000D02*
D03*
X12339000Y7496000D02*
D03*
X12479000D02*
D03*
X12340000Y7679000D02*
D03*
X12480000D02*
D03*
D77*
X7978000Y6643500D02*
D03*
Y6488500D02*
D03*
X7765000Y6642500D02*
D03*
Y6487500D02*
D03*
X10639000Y6347500D02*
D03*
Y6192500D02*
D03*
X10844000Y6346500D02*
D03*
Y6191500D02*
D03*
X9741000Y8206500D02*
D03*
Y8361500D02*
D03*
X10041000Y8207500D02*
D03*
Y8362500D02*
D03*
X11784000Y6501000D02*
D03*
Y6656000D02*
D03*
X7959425Y5574500D02*
D03*
Y5729500D02*
D03*
X8430149Y8366500D02*
D03*
Y8211500D02*
D03*
X8807000Y8363500D02*
D03*
Y8208500D02*
D03*
X7804000Y8660500D02*
D03*
Y8815500D02*
D03*
D78*
X7070000Y8460500D02*
D03*
D79*
X6989999Y8580500D02*
D03*
X6910000Y8460500D02*
D03*
X6830000Y8580500D02*
D03*
X6749999Y8460500D02*
D03*
D80*
X7275000Y8965500D02*
D03*
X6545000D02*
D03*
D81*
X10637000Y7954000D02*
D03*
X11125000D02*
D03*
D82*
X9786000Y5906000D02*
D03*
X9532000D02*
D03*
X9278000D02*
D03*
X9024000D02*
D03*
X8770000D02*
D03*
D83*
X8516000D02*
D03*
D84*
X6442000Y6334600D02*
D03*
D85*
Y5505400D02*
D03*
D86*
X11664000Y7078000D02*
D03*
X6596000Y7431000D02*
D03*
X7708000Y8039000D02*
D03*
X7270000Y7302000D02*
D03*
X7837000Y7669000D02*
D03*
X7248000Y6515000D02*
D03*
X6871000Y7301000D02*
D03*
X7263000Y8264000D02*
D03*
X7644000Y6011000D02*
D03*
X6916000Y8928000D02*
D03*
X7033000Y9177000D02*
D03*
X6808000Y9180000D02*
D03*
X12509500Y7078500D02*
D03*
X12329500Y7077000D02*
D03*
X6597575Y8265426D02*
D03*
X8353000Y7587000D02*
D03*
X8399000Y8940000D02*
D03*
X8860000Y8890000D02*
D03*
X8747000D02*
D03*
X10870000Y7214000D02*
D03*
X11085000D02*
D03*
X11032000Y7103000D02*
D03*
X10913000D02*
D03*
X11088000Y7003000D02*
D03*
X10974000Y7000000D02*
D03*
X10861000Y7001000D02*
D03*
X7982000Y7063000D02*
D03*
X10475000Y8705000D02*
D03*
X9626000Y8669000D02*
D03*
X8400000Y9083000D02*
D03*
X8286000Y8509000D02*
D03*
X8085000Y8506000D02*
D03*
X11323000Y6022000D02*
D03*
X11616000Y5751000D02*
D03*
X11912000Y6689000D02*
D03*
X12057000Y6692000D02*
D03*
X12196000Y6695000D02*
D03*
X12186000Y6527000D02*
D03*
X12419000Y6320000D02*
D03*
X12669000Y6334000D02*
D03*
Y6509000D02*
D03*
X12667000Y6690000D02*
D03*
X12853999Y6689000D02*
D03*
X13020000Y6690000D02*
D03*
X13027000Y7484000D02*
D03*
X12853999Y7485000D02*
D03*
X12677000Y7482000D02*
D03*
Y7652000D02*
D03*
X12680000Y7844000D02*
D03*
X12410000Y7845000D02*
D03*
X12156000Y7844000D02*
D03*
Y7669000D02*
D03*
X12148000Y7480000D02*
D03*
X11928000D02*
D03*
X11731000Y7485000D02*
D03*
X11198000Y7459000D02*
D03*
X16695000Y7016000D02*
D03*
X16875000Y7196000D02*
D03*
X10253000Y6511000D02*
D03*
X12917000Y5468000D02*
D03*
X12248000Y5460000D02*
D03*
X11940000Y5457000D02*
D03*
X12917000Y5745000D02*
D03*
X12921001Y6019000D02*
D03*
X12925000Y6334000D02*
D03*
X12975000Y9054000D02*
D03*
X12967000Y8647000D02*
D03*
X12978999Y8179000D02*
D03*
Y7805000D02*
D03*
X12584000Y5468000D02*
D03*
X12590000Y5745000D02*
D03*
X12594000Y6030000D02*
D03*
X12609000Y9047000D02*
D03*
X12605000Y8651000D02*
D03*
X12613000Y8176000D02*
D03*
X12190000Y6324000D02*
D03*
X12255000Y6034000D02*
D03*
X11932000Y6030000D02*
D03*
X12252000Y5749000D02*
D03*
X11940000D02*
D03*
X12256000Y8184000D02*
D03*
X12260000Y8655000D02*
D03*
X12256000Y9052000D02*
D03*
X11890000Y8672000D02*
D03*
X11883000Y9016000D02*
D03*
X11284000Y6740000D02*
D03*
X11113000Y6649000D02*
D03*
X10978000Y7212000D02*
D03*
X8862000Y7851000D02*
D03*
X9074000Y7850000D02*
D03*
X9289000Y7857000D02*
D03*
X9484000Y8108000D02*
D03*
Y8297000D02*
D03*
X11594000Y8851000D02*
D03*
X11812000Y7853000D02*
D03*
X11350000Y5746000D02*
D03*
X11058000Y6121000D02*
D03*
X11055000Y6292000D02*
D03*
X10527000Y6525000D02*
D03*
X10430000Y6388000D02*
D03*
X9919000Y5639000D02*
D03*
X9738000D02*
D03*
X9123000Y5649000D02*
D03*
X9300000Y6154000D02*
D03*
X8459000Y6404000D02*
D03*
X8438000Y6137000D02*
D03*
X8315000Y6277000D02*
D03*
X8211000Y6117000D02*
D03*
X7616000Y5620000D02*
D03*
X7034000Y5563000D02*
D03*
X6713000Y5978000D02*
D03*
X6445000Y5980000D02*
D03*
X6380000Y7236000D02*
D03*
X7897000Y8503000D02*
D03*
X9280000Y8353000D02*
D03*
X9132000Y8218000D02*
D03*
X9710000Y7926000D02*
D03*
X11472600Y7082000D02*
D03*
X11450000Y6479000D02*
D03*
X11343000Y7205400D02*
D03*
X10878000Y6684000D02*
D03*
X6348000Y6723000D02*
D03*
X8182000Y5914000D02*
D03*
X8365000Y6847000D02*
D03*
X9978000Y8494000D02*
D03*
X11433000Y8653000D02*
D03*
X7903000Y8329000D02*
D03*
X9333000Y7060000D02*
D03*
X10014000Y6507000D02*
D03*
X9594000Y6283000D02*
D03*
X11300000Y7364000D02*
D03*
X8973000Y6670000D02*
D03*
X8975000Y6804000D02*
D03*
Y6941000D02*
D03*
X9665000Y6181000D02*
D03*
X9706000Y6377000D02*
D03*
X10229000Y7988000D02*
D03*
X9948000Y7933000D02*
D03*
X10040000Y6866000D02*
D03*
X9876000Y6675000D02*
D03*
X9909000Y6803000D02*
D03*
X9952000Y7357000D02*
D03*
X9847000Y7053000D02*
D03*
X8054000Y6857000D02*
D03*
%TF.MD5,464884c0da361c0c09dc843f26fa3d03*%
M02*
